<?xml version="1.0" encoding="utf-8"?>
<!-- Generator: Adobe Illustrator 26.4.1, SVG Export Plug-In . SVG Version: 6.00 Build 0)  -->
<svg version="1.1" id="_图层_2" xmlns="http://www.w3.org/2000/svg" xmlns:xlink="http://www.w3.org/1999/xlink" x="0px" y="0px"
	 viewBox="0 0 841.2 739.7" style="enable-background:new 0 0 841.2 739.7;" xml:space="preserve">
<style type="text/css">
	.st0{fill:#EAEAEA;}
	.st1{fill:none;stroke:#808080;stroke-width:0.75;}
	.st2{fill:none;stroke:#000000;}
	.st3{fill:none;stroke:#8A8A8A;stroke-width:0.5;stroke-miterlimit:10;stroke-dasharray:0,0,1.73,1.73;}
	.st4{fill:#FF94D9;}
	.st5{fill:none;stroke:#D11851;stroke-width:0.75;stroke-miterlimit:10;}
	.st6{opacity:0.65;}
	.st7{fill:#1A1A1A;}
	.st8{font-family:'AdobeSongStd-Light-GBpc-EUC-H';}
	.st9{font-size:14px;}
	.st10{letter-spacing:2.3;}
	.st11{opacity:0.65;fill:#FF94D9;enable-background:new    ;}
	.st12{fill:#4D4D4D;}
	.st13{font-size:17.09px;}
	.st14{fill:none;stroke:#808080;stroke-width:0.88;}
	.st15{fill:none;stroke:#D11851;stroke-width:0.88;stroke-miterlimit:10;}
	.st16{font-size:12px;}
</style>
<g id="_图层_1-2">
	<g>
		<g>
			<g>
				<path class="st0" d="M234.9,726c-5.3,0-12.3,0-17.6,0C222.6,726,229.6,726.1,234.9,726z"/>
				<path class="st0" d="M410.3,717.7c-9.4,0.9-15.2,1.3-17.5,1.3c-5.3-0.1-12.3-0.1-17.5-1.8s-12.3-9.6-17.6-9.9
					s-12.3,5.8-17.5,8.1s-12.3,6.1-17.5,6.8s-12.3-1.9-17.5-1.8c-5.3,0.1-12.3,2-17.5,2.5c-5.3,0.5-12.3,0.3-17.5,0.6
					c-5.3,0.4-12.3,1.5-17.6,1.9c-5.3,0.4-12.3,0.5-17.6,0.6c5.3,0,12.3,0,17.6,0c5.3,0,12.3,0,17.6,0c5.3,0,12.3,0,17.5,0
					c5.3,0,12.3,0,17.5,0c5.3,0,12.3,0,17.5,0c5.3,0,12.3,0,17.5,0c5.3,0,12.3,0,17.5,0c5.3,0,12.3,0,17.5,0c5.3,0,12.3,0,17.5,0
					c2.3,0,8.2,0,17.5,0L410.3,717.7L410.3,717.7z"/>
			</g>
			<g>
				<path class="st0" d="M234.9,726c-5.3,0-12.3,0-17.6,0C222.6,726,229.6,726.1,234.9,726z"/>
				<path class="st1" d="M410.3,717.7c-9.4,0.9-15.2,1.3-17.5,1.3c-5.3-0.1-12.3-0.1-17.5-1.8s-12.3-9.6-17.6-9.9
					s-12.3,5.8-17.5,8.1s-12.3,6.1-17.5,6.8s-12.3-1.9-17.5-1.8c-5.3,0.1-12.3,2-17.5,2.5c-5.3,0.5-12.3,0.3-17.5,0.6
					c-5.3,0.4-12.3,1.5-17.6,1.9c-5.3,0.4-12.3,0.5-17.6,0.6"/>
			</g>
		</g>
		<g>
			<line class="st2" x1="536.1" y1="267.2" x2="529.6" y2="267.2"/>
			<line class="st2" x1="536.1" y1="611.3" x2="529.6" y2="611.3"/>
			<line class="st2" x1="536.1" y1="726" x2="529.6" y2="726"/>
			<line class="st2" x1="536.1" y1="668.7" x2="529.6" y2="668.7"/>
			<line class="st2" x1="536.1" y1="324.6" x2="529.6" y2="324.6"/>
			<line class="st2" x1="536.1" y1="381.9" x2="529.6" y2="381.9"/>
			<line class="st2" x1="536.1" y1="439.3" x2="529.6" y2="439.3"/>
			<line class="st2" x1="536.1" y1="496.6" x2="529.6" y2="496.6"/>
			<line class="st2" x1="536.1" y1="554" x2="529.6" y2="554"/>
		</g>
		<g>
			<line class="st2" x1="105.5" y1="668.7" x2="99.1" y2="668.7"/>
			<line class="st2" x1="105.5" y1="267.2" x2="99.1" y2="267.2"/>
			<line class="st2" x1="105.5" y1="554" x2="99.1" y2="554"/>
			<line class="st2" x1="105.5" y1="611.3" x2="99.1" y2="611.3"/>
			<line class="st2" x1="105.5" y1="726" x2="99.1" y2="726"/>
			<line class="st2" x1="105.5" y1="324.6" x2="99.1" y2="324.6"/>
			<line class="st2" x1="105.5" y1="381.9" x2="99.1" y2="381.9"/>
			<line class="st2" x1="105.5" y1="439.3" x2="99.1" y2="439.3"/>
			<line class="st2" x1="105.5" y1="496.6" x2="99.1" y2="496.6"/>
		</g>
		<g>
			<line class="st3" x1="112" y1="668.6" x2="410.3" y2="668.6"/>
			<line class="st3" x1="112" y1="267.2" x2="410.3" y2="267.2"/>
			<line class="st3" x1="112" y1="553.9" x2="410.3" y2="553.9"/>
			<line class="st3" x1="112" y1="611.3" x2="410.3" y2="611.3"/>
			<line class="st3" x1="112" y1="726" x2="410.3" y2="726"/>
			<line class="st3" x1="112" y1="324.6" x2="410.3" y2="324.6"/>
			<line class="st3" x1="112" y1="381.9" x2="410.3" y2="381.9"/>
			<line class="st3" x1="112" y1="439.2" x2="410.3" y2="439.2"/>
			<line class="st3" x1="112" y1="496.6" x2="410.3" y2="496.6"/>
		</g>
		<g>
			<line class="st3" x1="542.6" y1="668.7" x2="840.9" y2="668.7"/>
			<line class="st3" x1="542.6" y1="267.2" x2="840.9" y2="267.2"/>
			<line class="st3" x1="542.6" y1="554" x2="840.9" y2="554"/>
			<line class="st3" x1="542.6" y1="611.3" x2="840.9" y2="611.3"/>
			<line class="st3" x1="542.6" y1="726" x2="840.9" y2="726"/>
			<line class="st3" x1="542.6" y1="324.6" x2="840.9" y2="324.6"/>
			<line class="st3" x1="542.6" y1="381.9" x2="840.9" y2="381.9"/>
			<line class="st3" x1="542.6" y1="439.3" x2="840.9" y2="439.3"/>
			<line class="st3" x1="542.6" y1="496.6" x2="840.9" y2="496.6"/>
		</g>
		<g>
			<g>
				<path class="st4" d="M410.3,726v-1.2c-9.4-0.1-15.2-0.1-17.5,0c-4,0.2-9.1,1-13.6,1.3c4.5,0,9.6,0,13.6,0
					C395.1,726,401,726,410.3,726z"/>
				<path class="st4" d="M340.1,726.1c5.3,0,12.3,0,17.5,0c5.3,0,12.3,0,17.5,0c-5.3-0.4-12.3-3.7-17.5-3.7
					C352.4,722.3,345.4,725.5,340.1,726.1L340.1,726.1z"/>
			</g>
			<g>
				<path class="st5" d="M410.3,724.7c-9.4-0.1-15.2-0.1-17.5,0c-4,0.2-9.1,1-13.6,1.3"/>
				<path class="st5" d="M375.2,726c-5.3-0.4-12.3-3.7-17.5-3.7c-5.3,0-12.3,3.2-17.5,3.7"/>
			</g>
		</g>
		<g>
			<g>
				<g>
					<path class="st0" d="M840.9,663c-9.4-1.4-15.2-2-17.5-2c-5.3,0.1-12.3,2.2-17.5,2.7c-5.3,0.5-12.3,0.7-17.5,0.7
						c-5.3,0-12.3-0.2-17.5-0.7c-5.3-0.5-12.3-2.8-17.5-2.7s-12.3,4-17.5,3.4c-5.3-0.6-12.3-8-17.6-7.4s-12.3,10.4-17.5,11.4
						c5.3,0,12.3,0,17.5,0c5.3,0,12.3,0,17.5,0c5.3,0,12.3,0,17.5,0c5.3,0,12.3,0,17.5,0c5.3,0,12.3,0,17.5,0c5.3,0,12.3,0,17.5,0
						c5.3,0,12.3,0,17.5,0c2.3,0,8.2,0,17.5,0L840.9,663L840.9,663z"/>
					<path class="st0" d="M665.4,662.6c-5.3-0.7-12.3-4.2-17.5-3.3s-12.3,8-17.5,9.4c5.3,0,12.3,0,17.5,0c5.3,0,12.3,0,17.5,0
						c5.3,0,12.3,0,17.5,0c4.2,0,9.6,0,14.3,0c-4.7-0.7-10.1-4-14.3-4.7C677.7,663,670.7,663.3,665.4,662.6L665.4,662.6z"/>
				</g>
				<g>
					<path class="st1" d="M840.9,663c-9.4-1.4-15.2-2-17.5-2c-5.3,0.1-12.3,2.2-17.5,2.7c-5.3,0.5-12.3,0.7-17.5,0.7
						c-5.3,0-12.3-0.2-17.5-0.7c-5.3-0.5-12.3-2.8-17.5-2.7s-12.3,4-17.5,3.4c-5.3-0.6-12.3-8-17.6-7.4s-12.3,10.4-17.5,11.4"/>
					<path class="st1" d="M697.3,668.6c-4.7-0.7-10.1-4-14.3-4.7c-5.3-0.9-12.3-0.6-17.5-1.3c-5.3-0.7-12.3-4.2-17.5-3.3
						s-12.3,8-17.5,9.4"/>
				</g>
			</g>
			<g>
				<g class="st6">
					<path class="st4" d="M683,668.5c-5.3,0-12.3,0-17.5,0C670.7,668.7,677.7,668.5,683,668.5z"/>
					<path class="st4" d="M630.3,668.6c-5.3,0-12.3,0-17.5,0C618,668.6,625.1,668.7,630.3,668.6z"/>
					<path class="st4" d="M840.9,660.3c-9.4,0.8-15.2,1.2-17.5,1.4c-5.3,0.3-12.3,0.5-17.5,0.7c-5.3,0.2-12.3,0.4-17.5,0.7
						c-5.3,0.3-12.3,0.8-17.5,1.4s-12.3,1.6-17.5,2c-5.3,0.4-12.3,0.4-17.5,0.7s-12.3,1.2-17.5,1.4c5.3,0,12.3,0,17.5,0
						c5.3,0,12.3,0,17.5,0c5.3,0,12.3,0,17.5,0c5.3,0,12.3,0,17.5,0s12.3,0,17.5,0c5.3,0,12.3,0,17.5,0c2.3,0,8.2,0,17.5,0V660.3
						L840.9,660.3z"/>
					<path class="st4" d="M630.3,668.6c5.3,0,12.3,0,17.5,0c5.3,0,12.3,0,17.5,0c-5.3-0.1-12.3-0.7-17.5-0.7
						S635.6,668.5,630.3,668.6L630.3,668.6z"/>
				</g>
				<g>
					<path class="st5" d="M683,668.5c-5.3,0-12.3,0-17.5,0C670.7,668.7,677.7,668.5,683,668.5z"/>
					<path class="st5" d="M630.3,668.6c-5.3,0-12.3,0-17.5,0C618,668.6,625.1,668.7,630.3,668.6z"/>
					<path class="st5" d="M840.9,660.3c-9.4,0.8-15.2,1.2-17.5,1.4c-5.3,0.3-12.3,0.5-17.5,0.7c-5.3,0.2-12.3,0.4-17.5,0.7
						c-5.3,0.3-12.3,0.8-17.5,1.4s-12.3,1.6-17.5,2c-5.3,0.4-12.3,0.4-17.5,0.7s-12.3,1.2-17.5,1.4"/>
					<path class="st5" d="M665.4,668.6c-5.3-0.1-12.3-0.7-17.5-0.7c-5.3,0-12.3,0.6-17.5,0.7"/>
				</g>
			</g>
		</g>
		<g>
			<path class="st0" d="M112,611.4c9.3-4.7,15.2-7.6,17.5-8.8c5.3-2.6,12.3-7.7,17.5-8.8s12.3,0.2,17.6,2s12.3,8.8,17.6,10
				s12.3-1.1,17.6-1.4c5.3-0.3,12.3,0,17.6-0.7s12.3-4,17.5-4s12.3,3.2,17.6,4c5.3,0.8,12.3,1.4,17.6,1.3s12.3-1.9,17.5-2
				s12.3,1.5,17.5,1.3c5.3-0.2,12.3-2.4,17.5-2.7c5.3-0.3,12.3-0.3,17.5,0.7s12.3,5.4,17.5,6c5.3,0.6,12.3-2,17.5-2
				c5.3,0,12.3,1.6,17.5,2c2.3,0.2,8.2,0.4,17.5,0.7v2c-9.4,0-15.2,0-17.5,0c-5.3,0-12.3,0-17.5,0c-5.3,0-12.3,0-17.5,0
				s-12.3,0-17.5,0s-12.3,0-17.5,0s-12.3,0-17.5,0s-12.3,0-17.5,0s-12.3,0-17.5,0c-5.3,0-12.3,0-17.6,0s-12.3,0-17.6,0
				s-12.3,0-17.6,0s-12.3,0-17.6,0s-12.3,0-17.6,0s-12.3,0-17.6,0s-12.3,0-17.6,0s-12.3,0-17.6,0C127.2,611.3,121.4,611.3,112,611.4
				L112,611.4z"/>
			<path class="st1" d="M112,611.4c9.3-4.7,15.2-7.6,17.5-8.8c5.3-2.6,12.3-7.7,17.5-8.8s12.3,0.2,17.6,2s12.3,8.8,17.6,10
				s12.3-1.1,17.6-1.4c5.3-0.3,12.3,0,17.6-0.7s12.3-4,17.5-4s12.3,3.2,17.6,4c5.3,0.8,12.3,1.4,17.6,1.3s12.3-1.9,17.5-2
				s12.3,1.5,17.5,1.3c5.3-0.2,12.3-2.4,17.5-2.7c5.3-0.3,12.3-0.3,17.5,0.7s12.3,5.4,17.5,6c5.3,0.6,12.3-2,17.5-2
				c5.3,0,12.3,1.6,17.5,2c2.3,0.2,8.2,0.4,17.5,0.7"/>
		</g>
		<g>
			<g>
				<path class="st0" d="M542.6,553.9c9.4,0.1,15.2,0.1,17.5,0c5.3-0.2,12.3-0.2,17.5-1.4c5.3-1.2,12.3-5.5,17.5-6.7
					c5.3-1.2,12.3-1.5,17.5-1.4c5.3,0.1,12.3,1,17.5,2c5.3,1,12.3,4.1,17.5,4.7c5.3,0.6,12.3-0.8,17.5-0.7
					c5.3,0.1,12.3,1.3,17.5,1.3c5.3,0,12.3-1,17.5-1.4c5.3-0.4,12.3-0.3,17.5-1.4c5.3-1,12.3-3.8,17.5-5.4
					c5.3-1.6,12.3-5.1,17.5-5.4c5.3-0.3,12.3,3.2,17.5,3.3c5.3,0.1,12.3-2,17.5-2.7c5.3-0.7,12.3-2.4,17.5-2
					c5.2,0.4,12.3,4.5,17.5,4.7c2.3,0.1,8.2-1,17.5-3.4v15.4c-9.4,0-15.2,0-17.5,0c-5.3,0-12.3,0-17.5,0c-5.3,0-12.3,0-17.5,0
					c-5.3,0-12.3,0-17.5,0c-5.3,0-12.3,0-17.5,0s-12.3,0-17.5,0s-12.3,0-17.5,0c-5.3,0-12.3,0-17.5,0c-5.3,0-12.3,0-17.5,0
					c-5.3,0-12.3,0-17.5,0s-12.3,0-17.5,0s-12.3,0-17.5,0c-5.3,0-12.3,0-17.5,0c-5.3,0-12.3,0-17.5,0s-12.3,0-17.5,0
					c-5.3,0-12.3,0-17.5,0C557.8,553.9,551.9,553.9,542.6,553.9L542.6,553.9z"/>
				<path class="st1" d="M560.1,553.9c-2.3,0-8.2,0-17.5,0C551.9,554,557.8,554,560.1,553.9c5.3-0.2,12.3-0.2,17.5-1.4
					c5.3-1.2,12.3-5.5,17.5-6.7c5.3-1.2,12.3-1.5,17.5-1.4c5.3,0.1,12.3,1,17.5,2c5.3,1,12.3,4.1,17.5,4.7
					c5.3,0.6,12.3-0.8,17.5-0.7c5.3,0.1,12.3,1.3,17.5,1.3c5.3,0,12.3-1,17.5-1.4c5.3-0.4,12.3-0.3,17.5-1.4
					c5.3-1,12.3-3.8,17.5-5.4c5.3-1.6,12.3-5.1,17.5-5.4c5.3-0.3,12.3,3.2,17.5,3.3c5.3,0.1,12.3-2,17.5-2.7
					c5.3-0.7,12.3-2.4,17.5-2c5.2,0.4,12.3,4.5,17.5,4.7c2.3,0.1,8.2-1,17.5-3.4"/>
			</g>
			<g>
				<g class="st6">
					<path class="st4" d="M542.6,553.9c9.4,0,15.2,0,17.5,0c5.3-0.1,12.3-0.4,17.5-0.7c5.3-0.3,12.3-1.1,17.5-1.4
						c5.3-0.3,12.3-0.7,17.5-0.7s12.3,0.3,17.5,0.7c5.3,0.3,12.3,1.1,17.5,1.3s12.3,0,17.5,0c5.3,0,12.3,0.2,17.5,0
						c5.3-0.2,12.3-1.4,17.5-1.4s12.3,1.5,17.5,1.3s12.3-2,17.5-2.7c5.3-0.7,12.3-1.2,17.5-2c5.3-0.8,12.3-1.9,17.5-3.4
						s12.3-6.2,17.5-6.7c5.3-0.5,12.3,2.5,17.5,3.3c5.3,0.8,12.3,1.6,17.5,2c2.3,0.2,8.2,0.4,17.5,0.7v9.4c-9.3,0-15.2,0-17.5,0
						c-5.3,0-12.3,0-17.5,0c-5.3,0-12.3,0-17.5,0c-5.3,0-12.3,0-17.5,0s-12.3,0-17.5,0s-12.3,0-17.5,0c-5.3,0-12.3,0-17.5,0
						c-5.3,0-12.3,0-17.5,0c-5.3,0-12.3,0-17.5,0s-12.3,0-17.5,0s-12.3,0-17.5,0s-12.3,0-17.5,0s-12.3,0-17.5,0
						c-5.3,0-12.3,0-17.5,0s-12.3,0-17.5,0c-5.3,0-12.3,0-17.5,0C557.8,553.9,551.9,553.9,542.6,553.9L542.6,553.9z"/>
				</g>
				<path class="st5" d="M560.1,553.9c-2.3,0-8.2,0-17.5,0C551.9,553.9,557.8,553.9,560.1,553.9c5.3-0.1,12.3-0.4,17.5-0.7
					c5.3-0.3,12.3-1.1,17.5-1.4c5.3-0.3,12.3-0.7,17.5-0.7s12.3,0.3,17.5,0.7c5.3,0.3,12.3,1.1,17.5,1.3s12.3,0,17.5,0
					c5.3,0,12.3,0.2,17.5,0c5.3-0.2,12.3-1.4,17.5-1.4s12.3,1.5,17.5,1.3s12.3-2,17.5-2.7c5.3-0.7,12.3-1.2,17.5-2
					c5.3-0.8,12.3-1.9,17.5-3.4s12.3-6.2,17.5-6.7c5.3-0.5,12.3,2.5,17.5,3.3c5.3,0.8,12.3,1.6,17.5,2c2.3,0.2,8.2,0.4,17.5,0.7"/>
			</g>
		</g>
		<g>
			<path class="st0" d="M410.3,526.5c-9.4,3.4-15.2,5.3-17.5,5.6c-5.3,0.7-12.3-1.7-17.5-1.2c-5.3,0.5-12.3,4.4-17.5,4.4
				s-12.3-3.9-17.5-4.3c-5.3-0.5-12.3,0.7-17.5,1.3c-5.3,0.6-12.3-0.8-17.5,2.5c-5.3,3.3-12.3,16.4-17.5,19.2c5.3,0,12.3,0,17.5,0
				c5.3,0,12.3,0,17.5,0s12.3,0,17.5,0s12.3,0,17.5,0c5.3,0,12.3,0,17.5,0c5.3,0,12.3,0,17.5,0c2.3,0,8.2,0,17.5,0V526.5
				L410.3,526.5z"/>
			<path class="st1" d="M410.3,526.5c-9.4,3.4-15.2,5.3-17.5,5.6c-5.3,0.7-12.3-1.7-17.5-1.2c-5.3,0.5-12.3,4.4-17.5,4.4
				s-12.3-3.9-17.5-4.3c-5.3-0.5-12.3,0.7-17.5,1.3c-5.3,0.6-12.3-0.8-17.5,2.5c-5.3,3.3-12.3,16.4-17.5,19.2"/>
		</g>
		<g>
			<g>
				<path class="st0" d="M542.6,484.6c9.3-7,15.2-10.9,17.5-11.4c5.3-1.3,12.3,1.2,17.5,2.7c5.3,1.5,12.3,6.8,17.6,7.4
					s12.3-3.8,17.5-3.4c5.3,0.4,12.3,4.4,17.5,6c5.3,1.6,12.3,3.7,17.5,4.7c5.3,1,12.3,2.4,17.5,2s12.3-4.1,17.5-4.7
					c5.3-0.6,12.3,0.1,17.5,0.6c5.3,0.5,12.3,2.6,17.5,2.7s12.3-1.4,17.5-2s12.3-1.3,17.5-2c5.3-0.7,12.3-2.6,17.5-2.7
					c5.3-0.1,12.3,1.5,17.5,2s12.3,0.9,17.5,1.3s12.3,1,17.5,1.3c2.3,0.1,8.2,0.4,17.5,0.6v6.7c-9.3,0-15.2,0-17.5,0
					c-5.3,0-12.3,0-17.5,0c-5.3,0-12.3,0-17.5,0c-5.3,0-12.3,0-17.5,0s-12.3,0-17.5,0c-5.3,0-12.3,0-17.5,0s-12.3,0-17.5,0
					c-5.3,0-12.3,0-17.5,0s-12.3,0-17.5,0s-12.3,0-17.5,0s-12.3,0-17.5,0c-5.3,0-12.3,0-17.5,0c-5.3,0-12.3,0-17.5,0
					c-5.3,0-12.3,0-17.5,0c-5.3,0-12.3,0-17.5,0c-5.3,0-12.3,0-17.5,0c-2.3,0-8.2,0-17.5,0L542.6,484.6L542.6,484.6z"/>
				<path class="st1" d="M542.6,484.6c9.3-7,15.2-10.9,17.5-11.4c5.3-1.3,12.3,1.2,17.5,2.7c5.3,1.5,12.3,6.8,17.6,7.4
					s12.3-3.8,17.5-3.4c5.3,0.4,12.3,4.4,17.5,6c5.3,1.6,12.3,3.7,17.5,4.7c5.3,1,12.3,2.4,17.5,2s12.3-4.1,17.5-4.7
					c5.3-0.6,12.3,0.1,17.5,0.6c5.3,0.5,12.3,2.6,17.5,2.7s12.3-1.4,17.5-2s12.3-1.3,17.5-2c5.3-0.7,12.3-2.6,17.5-2.7
					c5.3-0.1,12.3,1.5,17.5,2s12.3,0.9,17.5,1.3s12.3,1,17.5,1.3c2.3,0.1,8.2,0.4,17.5,0.6"/>
			</g>
			<g>
				<g class="st6">
					<path class="st4" d="M542.6,496.7c9.4-2.8,15.2-4.6,17.5-5.4c5.3-1.7,12.3-5.4,17.5-6.1c5.3-0.7,12.3,0.8,17.5,1.3
						c5.3,0.5,12.3,0.9,17.5,2c5.3,1.1,12.3,4.4,17.5,5.4c5.3,1,12.3,1.5,17.5,1.3s12.3-2.7,17.5-2.7s12.3,2.7,17.5,2.7
						c5.3,0,12.3-2.7,17.5-2.7c5.3,0,12.3,2.3,17.5,2.7c5.3,0.4,12.3,0.1,17.5,0c5.3-0.1,12.3,0.1,17.5-0.7
						c5.3-0.8,12.3-4.6,17.5-4.7c5.3-0.1,12.3,3.3,17.5,4c5.3,0.7,12.3,0.7,17.5,0.6c5.3,0,12.3,0.1,17.5-0.7
						c2.3-0.4,8.2-1.9,17.5-4.7v7.4c-9.3,0-15.2,0-17.5,0c-5.3,0-12.3,0-17.5,0c-5.3,0-12.3,0-17.5,0s-12.3,0-17.5,0s-12.3,0-17.5,0
						s-12.3,0-17.5,0s-12.3,0-17.5,0s-12.3,0-17.5,0c-5.3,0-12.3,0-17.5,0s-12.3,0-17.5,0s-12.3,0-17.5,0c-5.3,0-12.3,0-17.5,0
						c-5.3,0-12.3,0-17.5,0s-12.3,0-17.5,0c-5.3,0-12.3,0-17.5,0c-5.3,0-12.3,0-17.5,0C557.7,496.7,551.9,496.7,542.6,496.7
						L542.6,496.7z"/>
				</g>
				<path class="st5" d="M542.6,496.7c9.4-2.8,15.2-4.6,17.5-5.4c5.3-1.7,12.3-5.4,17.5-6.1c5.3-0.7,12.3,0.8,17.5,1.3
					c5.3,0.5,12.3,0.9,17.5,2c5.3,1.1,12.3,4.4,17.5,5.4c5.3,1,12.3,1.5,17.5,1.3s12.3-2.7,17.5-2.7s12.3,2.7,17.5,2.7
					c5.3,0,12.3-2.7,17.5-2.7c5.3,0,12.3,2.3,17.5,2.7c5.3,0.4,12.3,0.1,17.5,0c5.3-0.1,12.3,0.1,17.5-0.7
					c5.3-0.8,12.3-4.6,17.5-4.7c5.3-0.1,12.3,3.3,17.5,4c5.3,0.7,12.3,0.7,17.5,0.6c5.3,0,12.3,0.1,17.5-0.7
					c2.3-0.4,8.2-1.9,17.5-4.7"/>
			</g>
		</g>
		<g>
			<g>
				<path class="st0" d="M840.9,398.6c-9.3,19.8-15.2,30.8-17.5,32.9c-5.3,4.7-12.3-1.1-17.5-1.3s-12.3,0.1-17.5,0
					s-12.3-0.5-17.5-0.6c-5.3-0.2-12.3-0.6-17.5-0.6c-5.3-0.1-12.3,0.1-17.5,0s-12.3-0.8-17.5-0.6s-12.3,1.1-17.5,1.4
					c-5.3,0.3-12.3,1.6-17.5,0.7c-5.3-0.9-12.3-7.3-17.6-6.7c-5.3,0.6-12.3,9.9-17.5,10.8c-5.3,0.9-12.3-4-17.5-4.7
					c-5.3-0.7-12.3,1.6-17.5,0c-5.3-1.6-12.3-11.8-17.6-10.7c-5.3,1.1-12.3,15.3-17.5,18.1s-12.3,0.7-17.5,0.7
					c-2.3,0-8.2-0.2-17.5-0.6v2c9.4,0,15.2,0,17.5,0c5.3,0,12.3,0,17.5,0c5.3,0,12.3,0,17.5,0c5.3,0,12.3,0,17.5,0
					c5.3,0,12.3,0,17.5,0c5.3,0,12.3,0,17.5,0c5.3,0,12.3,0,17.5,0c5.3,0,12.3,0,17.5,0c5.3,0,12.3,0,17.5,0c5.3,0,12.3,0,17.5,0
					c5.3,0,12.3,0,17.5,0c5.3,0,12.3,0,17.5,0s12.3,0,17.5,0c5.3,0,12.3,0,17.5,0c5.3,0,12.3,0,17.5,0c5.3,0,12.3,0,17.5,0
					c2.3,0,8.2,0,17.5,0L840.9,398.6L840.9,398.6z"/>
				<path class="st1" d="M840.9,398.6c-9.3,19.8-15.2,30.8-17.5,32.9c-5.3,4.7-12.3-1.1-17.5-1.3s-12.3,0.1-17.5,0
					s-12.3-0.5-17.5-0.6c-5.3-0.2-12.3-0.6-17.5-0.6c-5.3-0.1-12.3,0.1-17.5,0s-12.3-0.8-17.5-0.6s-12.3,1.1-17.5,1.4
					c-5.3,0.3-12.3,1.6-17.5,0.7c-5.3-0.9-12.3-7.3-17.6-6.7c-5.3,0.6-12.3,9.9-17.5,10.8c-5.3,0.9-12.3-4-17.5-4.7
					c-5.3-0.7-12.3,1.6-17.5,0c-5.3-1.6-12.3-11.8-17.6-10.7c-5.3,1.1-12.3,15.3-17.5,18.1s-12.3,0.7-17.5,0.7
					c-2.3,0-8.2-0.2-17.5-0.6"/>
			</g>
			<g>
				<g class="st6">
					<path class="st4" d="M542.6,437.8c9.4,0.9,15.2,1.3,17.5,1.3c5.3,0,12.3,0.7,17.5-1.4c5.3-2,12.3-11.1,17.5-12.1
						s12.3,4,17.5,5.4c5.3,1.4,12.3,3.4,17.5,4c5.3,0.6,12.3,0.5,17.5,0s12.3-3.8,17.5-3.4c5.3,0.4,12.3,5.6,17.5,6
						c5.3,0.4,12.3-1.8,17.5-3.4c5.3-1.6,12.3-6.9,17.5-7.4s12.3,3.5,17.5,4s12.3-1,17.5-0.7c5.3,0.3,12.3,2.1,17.5,2.7
						s12.3,1.3,17.5,1.3c5.3,0,12.3-0.8,17.5-1.4c5.3-0.6,12.3,0.7,17.5-2.7c2.3-1.5,8.2-8.2,17.5-20.2v28.9c-9.4,0-15.2,0-17.5,0
						c-5.3,0-12.3,0-17.5,0c-5.3,0-12.3,0-17.5,0c-5.3,0-12.3,0-17.5,0s-12.3,0-17.5,0s-12.3,0-17.5,0s-12.3,0-17.5,0
						s-12.3,0-17.5,0s-12.3,0-17.5,0c-5.3,0-12.3,0-17.5,0c-5.3,0-12.3,0-17.5,0c-5.3,0-12.3,0-17.5,0c-5.3,0-12.3,0-17.5,0
						s-12.3,0-17.5,0c-5.3,0-12.3,0-17.5,0c-5.3,0-12.3,0-17.5,0c-2.3,0-8.2,0-17.5,0V437.8L542.6,437.8z"/>
				</g>
				<path class="st5" d="M542.6,437.8c9.4,0.9,15.2,1.3,17.5,1.3c5.3,0,12.3,0.7,17.5-1.4c5.3-2,12.3-11.1,17.5-12.1
					s12.3,4,17.5,5.4c5.3,1.4,12.3,3.4,17.5,4c5.3,0.6,12.3,0.5,17.5,0s12.3-3.8,17.5-3.4c5.3,0.4,12.3,5.6,17.5,6
					c5.3,0.4,12.3-1.8,17.5-3.4c5.3-1.6,12.3-6.9,17.5-7.4s12.3,3.5,17.5,4s12.3-1,17.5-0.7c5.3,0.3,12.3,2.1,17.5,2.7
					s12.3,1.3,17.5,1.3c5.3,0,12.3-0.8,17.5-1.4c5.3-0.6,12.3,0.7,17.5-2.7c2.3-1.5,8.2-8.2,17.5-20.2"/>
			</g>
		</g>
		<text transform="matrix(0.88 0 0 1 29.21 331.6233)" class="st7 st8 st9 st10">大韩民国</text>
		<text transform="matrix(0.88 0 0 1 58.4097 388.9236)" class="st7 st8 st9 st10">泰国</text>
		<text transform="matrix(0.88 0 0 1 14.5996 446.1634)" class="st7 st8 st9 st10">哈萨克斯坦</text>
		<text transform="matrix(0.88 0 0 1 58.4097 503.5139)" class="st7 st8 st9 st10">朝鲜</text>
		<text transform="matrix(0.88 0 0 1 0 560.843)" class="st7 st8 st9 st10">乌兹别克斯坦</text>
		<text transform="matrix(0.88 0 0 1 29.21 618.093)" class="st7 st8 st9 st10">巴基斯坦</text>
		<text transform="matrix(0.88 0 0 1 58.4097 675.4836)" class="st7 st8 st9 st10">越南</text>
		<text transform="matrix(0.88 0 0 1 43.8096 732.8235)" class="st7 st8 st9 st10">卡塔尔</text>
		<text transform="matrix(0.88 0 0 1 490.0693 274.2639)" class="st7 st8 st9 st10">日本</text>
		<text transform="matrix(0.88 0 0 1 490.0693 331.6634)" class="st7 st8 st9 st10">印度</text>
		<text transform="matrix(0.88 0 0 1 490.0693 388.9934)" class="st7 st8 st9 st10">伊朗</text>
		<text transform="matrix(0.88 0 0 1 446.2695 446.2835)" class="st7 st8 st9 st10">印度尼西亚</text>
		<text transform="matrix(0.88 0 0 1 475.4697 503.593)" class="st7 st8 st9 st10">菲律宾</text>
		<text transform="matrix(0.88 0 0 1 460.8691 560.9036)" class="st7 st8 st9 st10">马来西亚</text>
		<text transform="matrix(0.88 0 0 1 475.4697 618.2336)" class="st7 st8 st9 st10">新加坡</text>
		<text transform="matrix(0.88 0 0 1 490.0693 675.5032)" class="st7 st8 st9 st10">蒙古</text>
		<text transform="matrix(0.88 0 0 1 490.0693 732.8938)" class="st7 st8 st9 st10">缅甸</text>
		<text transform="matrix(0.88 0 0 1 58.4097 274.3138)" class="st7 st8 st9 st10">中国</text>
		<g>
			<path class="st0" d="M410.2,141.2c-9.4-4.4-15.2-7.8-17.6-10c-5.3-5.1-12.3-26.6-17.6-24.1c-5.3,2.4-12.2,34.3-17.5,40.3
				c-5.3,5.9-12.3-0.7-17.5-0.7c-5.3,0-12.3-2.4-17.5,0.7c-5.3,3.1-12.3,21.1-17.5,20.1s-12.3-28.6-17.6-26.8
				c-5.3,1.8-12.2,30-17.5,38.9c-5.3,9-12.3,17.1-17.5,20.8c-5.3,3.7-12.3-0.1-17.5,4.1s-12.3,14.1-17.5,23.5s-12.2,33.2-17.5,38.9
				c5.3,0,12.3,0,17.6,0s12.3,0,17.6,0s12.3,0,17.6,0c5.3,0,12.3,0,17.6,0c5.3,0,12.3,0,17.5,0c5.3,0,12.3,0,17.5,0s12.3,0,17.5,0
				c5.3,0,12.3,0,17.5,0c5.3,0,12.3,0,17.5,0c5.3,0,12.3,0,17.5,0c5.3,0,12.3,0,17.5,0c2.3,0,8.2,0,17.5,0L410.2,141.2L410.2,141.2z
				"/>
			<g>
				<path class="st1" d="M164.7,267.1c-5.3,0-12.3-0.6-17.6-0.6c-5.3-0.1-12.3-0.1-17.6,0c-2.3,0.1-8.2,0.3-17.6,0.7"/>
				<path class="st1" d="M410.2,141.3c-9.4-4.4-15.2-7.8-17.6-10.1c-5.3-5.1-12.3-26.6-17.6-24.2c-5.3,2.4-12.2,34.4-17.5,40.3
					c-5.3,5.9-12.3-0.7-17.5-0.7c-5.3,0-12.3-2.4-17.5,0.7c-5.3,3.1-12.3,21.2-17.5,20.2s-12.3-28.7-17.6-26.8s-12.2,30-17.5,39
					s-12.3,17.1-17.5,20.8c-5.3,3.7-12.3-0.1-17.5,4.1c-5.3,4.1-12.3,14.1-17.5,23.5s-12.2,33.2-17.5,39"/>
				<path class="st1" d="M185.7,267.1c-1.2-0.4-2.4-0.7-3.5-0.7c-5.3,0-12.3,0.7-17.6,0.7"/>
			</g>
			<g>
				<g class="st6">
					<path class="st4" d="M129.6,267.1c-2.3,0-8.2,0-17.6,0C121.4,267.1,127.2,267.1,129.6,267.1z"/>
					<path class="st4" d="M147.1,266.4c-5.3,0.1-12.3,0.6-17.6,0.7c5.3,0,12.3,0,17.6,0s12.3,0,17.6,0s12.3,0,17.6,0
						c-5.3-0.1-12.3-0.6-17.6-0.6C159.4,266.3,152.4,266.3,147.1,266.4z"/>
					<path class="st4" d="M410.2,112.9c-9.4-1-15.2-2.8-17.5-5.3c-5.3-5.8-12.3-36.5-17.6-33.5c-5.3,2.9-12.2,44.1-17.5,53.1
						s-12.3,4.8-17.5,6.7s-12.3,2.6-17.5,6.1c-5.3,3.4-12.3,15.2-17.5,16.8s-12.3-14.1-17.5-6c-5.3,8.1-12.2,47.5-17.5,59.8
						c-5.2,12.3-12.3,20-17.5,22.2c-5.3,2.2-12.3-8.8-17.6-7.4c-5.3,1.4-12.3,10.6-17.5,16.8s-12.5,21-17.7,24.8
						c5.3,0,12.3,0,17.6,0s12.3,0,17.6,0s12.3,0,17.6,0s12.3,0,17.5,0c5.3,0,12.3,0,17.5,0c5.3,0,12.3,0,17.5,0c5.3,0,12.3,0,17.5,0
						c5.3,0,12.3,0,17.5,0c5.3,0,12.3,0,17.5,0c5.3,0,12.3,0,17.5,0c5.3,0,12.3,0,17.5,0c2.3,0,8.2,0,17.5,0L410.2,112.9
						L410.2,112.9z"/>
				</g>
				<g>
					<path class="st5" d="M112,267.1c9.4,0,15.2,0,17.5,0"/>
					<path class="st5" d="M182.2,267c-5.3-0.1-12.3-0.6-17.6-0.7c-5.3-0.1-12.3-0.1-17.6,0s-12.3,0.6-17.6,0.7"/>
					<path class="st5" d="M410.2,112.9c-9.4-1-15.2-2.8-17.5-5.3c-5.3-5.8-12.3-36.5-17.6-33.5c-5.3,2.9-12.2,44.1-17.5,53.1
						s-12.3,4.8-17.5,6.7s-12.3,2.6-17.5,6.1c-5.3,3.4-12.3,15.2-17.5,16.8s-12.3-14.1-17.5-6c-5.3,8.1-12.2,47.5-17.5,59.8
						c-5.2,12.3-12.3,20-17.5,22.2c-5.3,2.2-12.3-8.8-17.6-7.4c-5.3,1.4-12.3,10.6-17.5,16.8s-12.5,21-17.7,24.8"/>
				</g>
			</g>
		</g>
		<g>
			<g>
				<path class="st0" d="M542.5,239.7c9.3-6.1,15.2-10.4,17.5-12.8c5.3-5.4,12.3-20.1,17.5-23.5c5.3-3.4,12.3,1.8,17.5,0.6
					s12.3-8.1,17.5-8.1s12.3,8.3,17.6,8s12.3-8.3,17.5-10.1c5.3-1.8,12.3-3,17.5-2c5.3,1,12.3,12,17.6,8.7s12.2-29.8,17.5-30.9
					c5.3-1.1,12.3,21.7,17.6,23.5s12.3-12.5,17.5-11.4c5.3,1.1,12.3,17,17.6,18.8s12.3-6.5,17.5-6.7s12.3,6.7,17.5,5.4
					c5.3-1.3,12.3-12.5,17.5-14.1s12.3,1.3,17.5,3.3c2.3,0.9,8.2,4.2,17.6,10.1l0.1,68.5c-9.4,0-15.2,0-17.5,0c-5.3,0-12.3,0-17.5,0
					c-5.3,0-12.3,0-17.5,0c-5.3,0-12.3,0-17.5,0s-12.3,0-17.5,0s-12.3,0-17.5,0s-12.3,0-17.5,0s-12.3,0-17.5,0c-5.3,0-12.3,0-17.5,0
					s-12.3,0-17.5,0c-5.3,0-12.3,0-17.5,0s-12.3,0-17.5,0c-5.3,0-12.3,0-17.5,0c-5.3,0-12.3,0-17.5,0s-12.3,0-17.5,0
					c-5.3,0-12.3,0-17.5,0c-2.3,0-8.2,0-17.5,0L542.5,239.7L542.5,239.7z"/>
				<path class="st1" d="M542.5,239.7c9.3-6.1,15.2-10.4,17.5-12.8c5.3-5.4,12.3-20.1,17.5-23.5c5.3-3.4,12.3,1.8,17.5,0.6
					s12.3-8.1,17.5-8.1s12.3,8.3,17.6,8s12.3-8.3,17.5-10.1c5.3-1.8,12.3-3,17.5-2c5.3,1,12.3,12,17.6,8.7s12.2-29.8,17.5-30.9
					c5.3-1.1,12.3,21.7,17.6,23.5s12.3-12.5,17.5-11.4c5.3,1.1,12.3,17,17.6,18.8s12.3-6.5,17.5-6.7s12.3,6.7,17.5,5.4
					c5.3-1.3,12.3-12.5,17.5-14.1s12.3,1.3,17.5,3.3c2.3,0.9,8.2,4.2,17.6,10.1"/>
			</g>
			<g>
				<g class="st6">
					<path class="st4" d="M542.6,259.8c9.3-7,15.2-11.3,17.5-12.8c5.3-3.3,12.3-7.4,17.5-9.4c5.3-2,12.3-3.4,17.5-4.1s12.3-1,17.5,0
						c5.3,1,12.3,6.3,17.6,6.7s12.3-3.1,17.5-4.1s12.3-1.8,17.5-2c5.3-0.2,12.3,2.6,17.5,0.6c5.3-1.9,12.3-12.4,17.5-13.4
						s12.3,9.4,17.6,6.7s12.3-22.6,17.5-24.9c5.3-2.2,12.3,8.6,17.6,10.1c5.3,1.4,12.3,0.5,17.5-0.7c5.3-1.2,12.3-5.6,17.5-7.4
						c5.3-1.8,12.3-5.6,17.5-4.7c5.3,0.9,12.3,10.4,17.6,10.7c2.3,0.1,8.2-2.8,17.5-8.8l0.1,64.5c-9.4,0-15.2,0-17.5,0
						c-5.3,0-12.3,0-17.5,0c-5.3,0-12.3,0-17.5,0s-12.3,0-17.5,0c-5.3,0-12.3,0-17.5,0c-5.3,0-12.3,0-17.5,0s-12.3,0-17.5,0
						s-12.3,0-17.5,0c-5.3,0-12.3,0-17.5,0s-12.3,0-17.5,0c-5.3,0-12.3,0-17.5,0s-12.3,0-17.5,0c-5.3,0-12.3,0-17.5,0
						c-5.3,0-12.3,0-17.5,0s-12.3,0-17.5,0c-5.3,0-12.3,0-17.5,0c-2.3,0-8.2,0-17.5,0L542.6,259.8L542.6,259.8z"/>
				</g>
				<path class="st5" d="M542.6,259.8c9.3-7,15.2-11.3,17.5-12.8c5.3-3.3,12.3-7.4,17.5-9.4c5.3-2,12.3-3.4,17.5-4.1s12.3-1,17.5,0
					c5.3,1,12.3,6.3,17.6,6.7s12.3-3.1,17.5-4.1s12.3-1.8,17.5-2c5.3-0.2,12.3,2.6,17.5,0.6c5.3-1.9,12.3-12.4,17.5-13.4
					s12.3,9.4,17.6,6.7s12.3-22.6,17.5-24.9c5.3-2.2,12.3,8.6,17.6,10.1c5.3,1.4,12.3,0.5,17.5-0.7c5.3-1.2,12.3-5.6,17.5-7.4
					c5.3-1.8,12.3-5.6,17.5-4.7c5.3,0.9,12.3,10.4,17.6,10.7c2.3,0.1,8.2-2.8,17.5-8.8"/>
			</g>
		</g>
		<g>
			<g>
				<path class="st0" d="M542.5,296.3c9.4,11.5,15.2,18,17.6,19.5c5.3,3.3,12.3,4.4,17.5,2.7s12.3-13.1,17.5-14.1s12.3,6.8,17.6,7.4
					s12.3-2.6,17.5-3.4c5.3-0.8,12.3-2.1,17.5-2c5.3,0.1,12.3,4.7,17.5,2.7s12.3-15.7,17.5-16.1s12.3,10.1,17.6,13.4
					s12.3,7.5,17.6,8.7s12.3,0.3,17.5-0.7s12.3-5.2,17.5-6.1c5.3-0.8,12.3,1.9,17.5,0.6s12.3-6.6,17.5-8.8c5.3-2.1,12.3-6,17.5-5.4
					c5.3,0.6,12.3,9.2,17.6,9.4c2.3,0.1,8.2-2.6,17.5-8.1v28.2c-9.4,0-15.2,0-17.5,0c-5.3,0-12.3,0-17.5,0c-5.3,0-12.3,0-17.5,0
					c-5.3,0-12.3,0-17.5,0s-12.3,0-17.5,0s-12.3,0-17.5,0s-12.3,0-17.5,0s-12.3,0-17.5,0c-5.3,0-12.3,0-17.5,0c-5.3,0-12.3,0-17.5,0
					s-12.3,0-17.5,0c-5.3,0-12.3,0-17.5,0c-5.3,0-12.3,0-17.5,0s-12.3,0-17.5,0c-5.3,0-12.3,0-17.5,0s-12.3,0-17.5,0
					c-2.3,0-8.2,0-17.5,0L542.5,296.3L542.5,296.3z"/>
				<path class="st1" d="M542.5,296.3c9.4,11.5,15.2,18,17.6,19.5c5.3,3.3,12.3,4.4,17.5,2.7s12.3-13.1,17.5-14.1s12.3,6.8,17.6,7.4
					s12.3-2.6,17.5-3.4c5.3-0.8,12.3-2.1,17.5-2c5.3,0.1,12.3,4.7,17.5,2.7s12.3-15.7,17.5-16.1s12.3,10.1,17.6,13.4
					s12.3,7.5,17.6,8.7s12.3,0.3,17.5-0.7s12.3-5.2,17.5-6.1c5.3-0.8,12.3,1.9,17.5,0.6s12.3-6.6,17.5-8.8c5.3-2.1,12.3-6,17.5-5.4
					c5.3,0.6,12.3,9.2,17.6,9.4c2.3,0.1,8.2-2.6,17.5-8.1"/>
			</g>
			<g>
				<g class="st6">
					<path class="st4" d="M542.6,320.5c9.4,1.6,15.2,2.5,17.5,2.7c5.3,0.3,12.3-0.8,17.5-0.7c5.3,0.1,12.3,1.2,17.5,1.3
						s12.3-0.7,17.5-0.7c5.3,0,12.3,0.5,17.5,0.6c5.3,0.2,12.3,0.9,17.5,0.6s12.3-0.6,17.5-2c5.3-1.4,12.3-6.7,17.5-7.4
						c5.3-0.7,12.3,2.2,17.5,2.7c5.3,0.5,12.3,0.5,17.5,0.6s12.3,1,17.5,0.6c5.3-0.3,12.3-1.9,17.5-2.7c5.3-0.8,12.3-2,17.5-2.7
						s12.3-1.4,17.5-2c5.3-0.6,12.3-1.1,17.5-2s12.3-3.1,17.5-4c2.3-0.4,8.2-1.1,17.5-2v20.8c-9.4,0-15.2,0-17.5,0
						c-5.3,0-12.3,0-17.5,0c-5.3,0-12.3,0-17.5,0c-5.3,0-12.3,0-17.5,0c-5.3,0-12.3,0-17.5,0c-5.3,0-12.3,0-17.5,0s-12.3,0-17.5,0
						s-12.3,0-17.5,0s-12.3,0-17.5,0c-5.3,0-12.3,0-17.5,0c-5.3,0-12.3,0-17.5,0c-5.3,0-12.3,0-17.5,0c-5.3,0-12.3,0-17.5,0
						s-12.3,0-17.5,0c-5.3,0-12.3,0-17.5,0c-5.3,0-12.3,0-17.5,0c-2.3,0-8.2,0-17.5,0V320.5L542.6,320.5z"/>
				</g>
				<path class="st5" d="M542.6,320.5c9.4,1.6,15.2,2.5,17.5,2.7c5.3,0.3,12.3-0.8,17.5-0.7c5.3,0.1,12.3,1.2,17.5,1.3
					s12.3-0.7,17.5-0.7c5.3,0,12.3,0.5,17.5,0.6c5.3,0.2,12.3,0.9,17.5,0.6s12.3-0.6,17.5-2c5.3-1.4,12.3-6.7,17.5-7.4
					c5.3-0.7,12.3,2.2,17.5,2.7c5.3,0.5,12.3,0.5,17.5,0.6s12.3,1,17.5,0.6c5.3-0.3,12.3-1.9,17.5-2.7c5.3-0.8,12.3-2,17.5-2.7
					s12.3-1.4,17.5-2c5.3-0.6,12.3-1.1,17.5-2s12.3-3.1,17.5-4c2.3-0.4,8.2-1.1,17.5-2"/>
			</g>
		</g>
		<g>
			<path class="st0" d="M112,381.8c9.4,0.2,15.2,0.2,17.5,0c5.3-0.4,12.3-1.7,17.6-2.7s12.3-1.6,17.5-4s12.3-9.8,17.5-12.1
				s12.3-4.9,17.5-3.4c5.3,1.5,12.3,12.8,17.6,13.4s12.3-9.8,17.5-9.4c5.3,0.4,12.3,11.3,17.6,12.1c5.3,0.8,12.3-6.2,17.5-6.7
				s12.3,3,17.5,3.3c5.3,0.3,12.3,3.2,17.5-1.4s12.2-27.8,17.5-28.9s12.3,18.6,17.6,21.5c5.3,2.8,12.3-3.4,17.5-2.7
				s12.3,6.4,17.6,7.4s12.3,0.8,17.5-0.7c2.3-0.7,8.2-3.8,17.5-9.4v23.5c-9.4,0-15.2,0-17.5,0c-5.3,0-12.3,0-17.5,0
				c-5.3,0-12.3,0-17.5,0c-5.3,0-12.3,0-17.5,0c-5.3,0-12.3,0-17.5,0c-5.3,0-12.3,0-17.5,0s-12.3,0-17.5,0s-12.3,0-17.5,0
				s-12.3,0-17.6,0s-12.3,0-17.6,0s-12.3,0-17.6,0s-12.3,0-17.6,0s-12.3,0-17.6,0s-12.3,0-17.6,0s-12.3,0-17.6,0s-12.3,0-17.6,0
				C127.2,381.7,121.4,381.7,112,381.8L112,381.8z"/>
			<path class="st1" d="M129.6,381.8c-2.3,0-8.2,0-17.6,0C121.4,382,127.2,381.9,129.6,381.8c5.3-0.4,12.3-1.7,17.6-2.7
				s12.3-1.6,17.5-4s12.3-9.8,17.5-12.1s12.3-4.9,17.5-3.4c5.3,1.5,12.3,12.8,17.6,13.4s12.3-9.8,17.5-9.4
				c5.3,0.4,12.3,11.3,17.6,12.1c5.3,0.8,12.3-6.2,17.5-6.7s12.3,3,17.5,3.3c5.3,0.3,12.3,3.2,17.5-1.4s12.2-27.8,17.5-28.9
				s12.3,18.6,17.6,21.5c5.3,2.8,12.3-3.4,17.5-2.7s12.3,6.4,17.6,7.4s12.3,0.8,17.5-0.7c2.3-0.7,8.2-3.8,17.5-9.4"/>
		</g>
		<g>
			<g class="st6">
				<path class="st4" d="M112,381.8c9.4,0,15.2,0,17.5,0c5.3,0,12.3,0.2,17.6,0s12.3-0.8,17.6-1.4s12.3-2.4,17.6-2.7
					c5.3-0.3,12.3,0,17.6,0.6s12.3,4.4,17.6,3.3s12.3-10,17.5-10.1c5.3-0.1,12.3,8.6,17.6,9.4c5.3,0.8,12.3-3.7,17.5-4
					s12.3,2.3,17.5,2c5.3-0.3,12.3-1.1,17.5-4s12.3-14.6,17.5-15.5s12.3,9.1,17.6,10s12.3-2.7,17.5-4c5.3-1.3,12.3-4.6,17.5-4.7
					c5.3-0.1,12.3,5.3,17.5,4c2.3-0.6,8.2-4.8,17.5-12.8v29.5c-9.4,0-15.2,0-17.5,0c-5.3,0-12.3,0-17.5,0c-5.3,0-12.3,0-17.5,0
					s-12.3,0-17.5,0s-12.3,0-17.5,0c-5.3,0-12.3,0-17.5,0s-12.3,0-17.5,0s-12.3,0-17.5,0c-5.3,0-12.3,0-17.6,0s-12.3,0-17.6,0
					s-12.3,0-17.6,0s-12.3,0-17.6,0s-12.3,0-17.6,0s-12.3,0-17.6,0s-12.3,0-17.6,0s-12.3,0-17.6,0
					C127.2,381.8,121.4,381.8,112,381.8L112,381.8z"/>
			</g>
			<path class="st5" d="M147.1,381.8c-5.3,0-12.3,0-17.6,0c-2.3,0-8.2,0-17.6,0c9.4,0,15.2,0,17.6,0
				C134.8,381.8,141.8,382,147.1,381.8s12.3-0.8,17.6-1.4s12.3-2.4,17.6-2.7c5.3-0.3,12.3,0,17.6,0.6s12.3,4.4,17.6,3.3
				s12.3-10,17.5-10.1c5.3-0.1,12.3,8.6,17.6,9.4c5.3,0.8,12.3-3.7,17.5-4s12.3,2.3,17.5,2c5.3-0.3,12.3-1.1,17.5-4
				s12.3-14.6,17.5-15.5s12.3,9.1,17.6,10s12.3-2.7,17.5-4c5.3-1.3,12.3-4.6,17.5-4.7c5.3-0.1,12.3,5.3,17.5,4
				c2.3-0.6,8.2-4.8,17.5-12.8"/>
		</g>
		<g>
			<g>
				<g>
					<path class="st0" d="M560.1,381.8c-0.3,0-0.8,0-1.2,0C559.4,381.9,559.8,381.9,560.1,381.8z"/>
					<path class="st0" d="M542.6,381.9c8,0,13.5,0,16.3,0c-2.9-0.5-8.3-4.1-16.3-10.7V381.9L542.6,381.9z"/>
					<path class="st0" d="M840.9,351.3c-9.4,1.8-15.2,2.7-17.5,2.7c-5.3,0-12.3-2.2-17.5-2.7c-5.3-0.5-12.3-1.8-17.5-0.6
						c-5.3,1.1-12.3,6.9-17.5,8.1c-5.3,1.2-12.3-0.8-17.5,0c-5.3,0.8-12.3,3.8-17.5,5.4c-5.3,1.6-12.3,5-17.5,5.4
						c-5.3,0.4-12.3-3.3-17.5-2.7c-5.3,0.6-12.3,4.5-17.5,6.7c-3.1,1.3-6.8,5.8-10.4,8.1c3.6,0,7.3,0,10.4,0c5.3,0,12.3,0,17.5,0
						c5.3,0,12.3,0,17.5,0c5.3,0,12.3,0,17.5,0c5.3,0,12.3,0,17.5,0c5.3,0,12.3,0,17.5,0c5.3,0,12.3,0,17.5,0s12.3,0,17.5,0
						c5.3,0,12.3,0,17.5,0c2.3,0,8.2,0,17.5,0V351.3L840.9,351.3z"/>
					<path class="st0" d="M577.7,361.7c-5.3,0-12.3,18.8-17.5,20.2c5.3,0,12.3,0,17.5,0c5.3,0,12.3,0,17.5,0
						C590,381.8,582.9,361.7,577.7,361.7L577.7,361.7z"/>
					<path class="st0" d="M647.8,338.1c-5.3-2.2-12.3,25.4-17.5,28.9c-5.3,3.5-12.3-7.6-17.5-5.4s-12.3,20.2-17.5,20.2
						c5.3,0,12.3,0,17.5,0c5.3,0,12.3,0,17.5,0c5.3,0,12.3,0,17.5,0c5.3,0,12.3,0,17.5,0C660.1,376.4,653.1,340.3,647.8,338.1
						L647.8,338.1z"/>
				</g>
				<g>
					<path class="st1" d="M560.1,381.8c-0.3,0-0.8,0-1.2,0C559.4,381.9,559.8,381.9,560.1,381.8z"/>
					<path class="st1" d="M558.9,381.8c-2.9-0.5-8.3-4.1-16.3-10.7"/>
					<path class="st1" d="M840.9,351.3c-9.4,1.8-15.2,2.7-17.5,2.7c-5.3,0-12.3-2.2-17.5-2.7c-5.3-0.5-12.3-1.8-17.5-0.6
						c-5.3,1.1-12.3,6.9-17.5,8.1c-5.3,1.2-12.3-0.8-17.5,0c-5.3,0.8-12.3,3.8-17.5,5.4c-5.3,1.6-12.3,5-17.5,5.4
						c-5.3,0.4-12.3-3.3-17.5-2.7c-5.3,0.6-12.3,4.5-17.5,6.7c-3.1,1.3-6.8,5.8-10.4,8.1"/>
					<path class="st1" d="M595.2,381.8c-5.3,0-12.3-20.1-17.6-20.1s-12.3,18.8-17.5,20.2"/>
					<path class="st1" d="M665.4,381.7c-5.3-5.3-12.3-41.4-17.6-43.6s-12.3,25.4-17.5,28.9c-5.3,3.5-12.3-7.6-17.5-5.4
						s-12.3,20.2-17.5,20.2"/>
				</g>
			</g>
			<g>
				<g class="st6">
					<path class="st4" d="M542.6,381.9c9.4,0,15.2,0,17.5,0c5.3,0,12.3,0,17.5,0s12.3,0.1,17.5,0c5.3-0.1,12.3-0.7,17.5-0.7
						s12.3,0.9,17.5,0.6c5.3-0.2,12.3-2,17.5-2s12.3,1.7,17.5,2c5.3,0.3,12.3,0,17.5,0s12.3,0,17.5,0c5.3,0,12.3,0.1,17.5,0
						c5.3-0.1,12.3-0.7,17.5-0.7c5.3,0,12.3,0.8,17.5,0.6s12.3-1.1,17.5-1.4c5.3-0.3,12.3,0.5,17.5-0.7c5.3-1.2,12.3-6.1,17.5-7.4
						c5.3-1.3,12.3-1,17.5-1.4c2.3-0.2,8.2-0.6,17.5-1.4v12.1c-9.3,0-15.2,0-17.5,0c-5.3,0-12.3,0-17.5,0c-5.3,0-12.3,0-17.5,0
						s-12.3,0-17.5,0c-5.3,0-12.3,0-17.5,0s-12.3,0-17.5,0s-12.3,0-17.5,0s-12.3,0-17.5,0c-5.3,0-12.3,0-17.5,0s-12.3,0-17.5,0
						s-12.3,0-17.5,0s-12.3,0-17.5,0c-5.3,0-12.3,0-17.5,0c-5.3,0-12.3,0-17.5,0c-5.3,0-12.3,0-17.5,0c-5.3,0-12.3,0-17.5,0
						C557.8,381.9,551.9,381.9,542.6,381.9L542.6,381.9z"/>
				</g>
				<path class="st5" d="M595.2,381.8c-5.3,0-12.3,0-17.5,0c-5.3,0-12.3,0-17.5,0c-2.3,0-8.2,0-17.5,0c9.4,0,15.2,0,17.5,0
					c5.3,0,12.3,0,17.5,0S590,382,595.2,381.8c5.3-0.1,12.3-0.7,17.5-0.7s12.3,0.9,17.5,0.6c5.3-0.2,12.3-2,17.5-2s12.3,1.7,17.5,2
					c5.3,0.3,12.3,0,17.5,0s12.3,0,17.5,0c5.3,0,12.3,0.1,17.5,0c5.3-0.1,12.3-0.7,17.5-0.7c5.3,0,12.3,0.8,17.5,0.6
					s12.3-1.1,17.5-1.4c5.3-0.3,12.3,0.5,17.5-0.7c5.3-1.2,12.3-6.1,17.5-7.4c5.3-1.3,12.3-1,17.5-1.4c2.3-0.2,8.2-0.6,17.5-1.4"/>
			</g>
		</g>
		<g>
			<g>
				<path class="st0" d="M410.3,489.5c-9.4-0.6-15.2-1-17.5-1.2c-5.3-0.5-12.3-1.9-17.5-1.8c-5.3,0.1-12.3,2.2-17.5,2.5
					c-5.3,0.3-12.3,0-17.5-0.6c-5.3-0.6-12.3-4.9-17.5-3.7c-4.2,1-9.5,9.8-14.2,11.8c4.7,0,10,0,14.2,0c5.3,0,12.3,0,17.5,0
					c5.3,0,12.3,0,17.5,0c5.3,0,12.3,0,17.5,0c5.3,0,12.3,0,17.5,0c2.3,0,8.2,0,17.5,0V489.5L410.3,489.5z"/>
				<path class="st0" d="M252.4,476.1c-5.3-2.9-12.3,1.4-17.6,1.3s-12.3-4.7-17.6-1.8c-5.3,2.9-12.3,17.9-17.5,21.1
					c5.3,0,12.3,0,17.6,0s12.3,0,17.6,0s12.3,0,17.6,0c4.9,0,11.2,0,16.3,0C263.6,495.2,257.2,478.7,252.4,476.1L252.4,476.1z"/>
				<path class="st0" d="M287.5,465.5c-5.3,0-12.2,29.4-17.5,31c5.3,0,12.3,0,17.5,0s12.3,0,17.5,0
					C299.8,493.6,292.7,465.5,287.5,465.5L287.5,465.5z"/>
			</g>
			<g>
				<path class="st1" d="M410.3,489.5c0,0-15.2-1-17.5-1.2c-5.3-0.5-12.3-1.9-17.5-1.8c-5.3,0.1-12.3,2.2-17.5,2.5
					c-5.3,0.3-12.3,0-17.5-0.6c-5.3-0.6-12.3-4.9-17.5-3.7c-4.2,1-9.5,9.8-14.2,11.8"/>
				<path class="st1" d="M268.7,496.5c-5.1-1.3-11.5-17.8-16.3-20.5c-5.3-2.9-12.3,1.4-17.6,1.3s-12.3-4.7-17.6-1.8
					c-5.3,2.9-12.3,17.9-17.5,21.1"/>
				<path class="st1" d="M305,496.5c-5.3-2.9-12.3-31-17.6-31c-5.3,0-12.2,29.4-17.5,31"/>
			</g>
		</g>
		<g>
			<g class="st6">
				<path class="st4" d="M234.9,490.3c-5.3,0.8-12.3,1.6-17.6,2.5s-12.3,3.2-17.5,3.7c5.3,0,12.3,0,17.6,0s12.3,0,17.6,0
					s12.3,0,17.6,0c4.5,0,10.3,0,15.2,0c-4.9-1.1-10.7-8.5-15.2-9.3C247.1,486.3,240.1,489.5,234.9,490.3L234.9,490.3z"/>
				<path class="st4" d="M410.3,477.7c-9.4,2.5-15.2,3.9-17.5,4.4c-5.3,1-12.3,1.9-17.5,2.5c-5.3,0.6-12.3,1.2-17.5,1.3
					c-5.3,0.1-12.3-0.9-17.5-0.6c-5.3,0.3-12.3,0.8-17.5,2.5c-4.4,1.4-9.9,7.5-14.7,8.7c4.8,0,10.4,0,14.7,0c5.3,0,12.3,0,17.5,0
					c5.3,0,12.3,0,17.5,0c5.3,0,12.3,0,17.5,0c5.3,0,12.3,0,17.5,0c2.3,0,8.2,0,17.5,0V477.7L410.3,477.7z"/>
				<path class="st4" d="M287.5,477.3c-5.3,0-12.3,17.8-17.5,19.2c5.3,0,12.3,0,17.5,0c5.3,0,12.3,0,17.5,0
					C299.8,494.9,292.7,477.3,287.5,477.3L287.5,477.3z"/>
			</g>
			<g>
				<path class="st5" d="M267.6,496.5c-4.9-1.1-10.7-8.5-15.2-9.3c-5.3-0.9-12.3,2.3-17.5,3.1c-5.3,0.8-12.3,1.6-17.6,2.5
					s-12.3,3.2-17.5,3.7"/>
				<path class="st5" d="M410.3,477.7c-9.4,2.5-15.2,3.9-17.5,4.4c-5.3,1-12.3,1.9-17.5,2.5c-5.3,0.6-12.3,1.2-17.5,1.3
					c-5.3,0.1-12.3-0.9-17.5-0.6c-5.3,0.3-12.3,0.8-17.5,2.5c-4.4,1.4-9.9,7.5-14.7,8.7"/>
				<path class="st5" d="M305,496.5c-5.3-1.6-12.3-19.2-17.6-19.2c-5.3,0-12.3,17.8-17.5,19.2"/>
			</g>
		</g>
		<g>
			<path class="st4" d="M234.9,610.9c5.3,0,12.3,0,17.6,0c5.3,0,12.3,0,17.5,0c-5.3-0.1-12.3-0.6-17.6-0.6
				C247.1,610.3,240.1,610.8,234.9,610.9L234.9,610.9z"/>
			<path class="st5" d="M270,610.9c-5.3-0.1-12.3-0.6-17.6-0.6c-5.3,0-12.3,0.5-17.6,0.6"/>
			<path class="st4" d="M410.3,610.1c-9.4,0-15.2,0-17.5,0c-5.3,0-12.3-0.1-17.5,0c-5.3,0.1-12.3,0.8-17.5,0.9c5.3,0,12.3,0,17.5,0
				c5.3,0,12.3,0,17.5,0c2.3,0,8.2,0,17.5,0V610.1z"/>
			<path class="st5" d="M410.3,610.1c-9.4,0-15.2,0-17.5,0c-5.3,0-12.3-0.1-17.5,0c-5.3,0.1-12.3,0.8-17.5,0.9"/>
		</g>
		<g>
			<g>
				<path class="st0" d="M542.6,604.6c9.4,1,15.2,1.7,17.5,2c5.3,0.7,12.3,2.3,17.5,2.7c5.3,0.4,12.3,0.4,17.5,0s12.3-2.5,17.5-2.7
					c5.3-0.2,12.3,0.7,17.5,1.3c5.3,0.6,12.3,2.6,17.5,2.7c5.3,0.1,12.3-1.9,17.5-2c5.3-0.1,12.3,1.4,17.5,1.3s12.3-1.7,17.5-2
					c5.3-0.3,12.3-0.2,17.5,0c5.3,0.2,12.3,1.6,17.5,1.3s12.3-2.7,17.5-3.4c5.3-0.7,12.3-0.5,17.5-1.4c5.3-0.8,12.3-4.3,17.5-4
					s12.3,5.7,17.5,6c5.3,0.3,12.3-3.6,17.5-4c2.3-0.2,8.2,0.3,17.5,1.3v7.4c-9.3,0-15.2,0-17.5,0c-5.3,0-12.3,0-17.5,0
					c-5.3,0-12.3,0-17.5,0s-12.3,0-17.5,0s-12.3,0-17.5,0s-12.3,0-17.5,0s-12.3,0-17.5,0s-12.3,0-17.5,0c-5.3,0-12.3,0-17.5,0
					c-5.3,0-12.3,0-17.5,0c-5.3,0-12.3,0-17.5,0c-5.3,0-12.3,0-17.5,0c-5.3,0-12.3,0-17.5,0s-12.3,0-17.5,0c-5.3,0-12.3,0-17.5,0
					s-12.3,0-17.5,0c-2.3,0-8.2,0-17.5,0V604.6L542.6,604.6z"/>
				<path class="st1" d="M542.6,604.6c9.4,1,15.2,1.7,17.5,2c5.3,0.7,12.3,2.3,17.5,2.7c5.3,0.4,12.3,0.4,17.5,0s12.3-2.5,17.5-2.7
					c5.3-0.2,12.3,0.7,17.5,1.3c5.3,0.6,12.3,2.6,17.5,2.7c5.3,0.1,12.3-1.9,17.5-2c5.3-0.1,12.3,1.4,17.5,1.3s12.3-1.7,17.5-2
					c5.3-0.3,12.3-0.2,17.5,0c5.3,0.2,12.3,1.6,17.5,1.3s12.3-2.7,17.5-3.4c5.3-0.7,12.3-0.5,17.5-1.4c5.3-0.8,12.3-4.3,17.5-4
					s12.3,5.7,17.5,6c5.3,0.3,12.3-3.6,17.5-4c2.3-0.2,8.2,0.3,17.5,1.3"/>
			</g>
			<g>
				<g class="st6">
					<path class="st4" d="M840.9,604.2c-9.4-0.9-15.2-1.3-17.5-1.3c-5.3,0-12.3,1.4-17.5,1.4c-5.3,0-12.3-1.7-17.5-1.3
						s-12.3,3.4-17.5,4c-5.3,0.6-12.3-0.2-17.5,0c-5.3,0.2-12.3,0.8-17.5,1.4c-5.3,0.6-12.3,2.3-17.5,2.7c5.3,0,12.3,0,17.5,0
						c5.3,0,12.3,0,17.5,0c5.3,0,12.3,0,17.5,0c5.3,0,12.3,0,17.5,0s12.3,0,17.5,0c5.3,0,12.3,0,17.5,0c2.3,0,8.2,0,17.5,0V604.2
						L840.9,604.2z"/>
					<path class="st4" d="M665.4,609.8c-5.3-0.8-12.3-4.3-17.5-4.7c-5.3-0.4-12.3,1.4-17.5,2c-5.3,0.6-12.3,1.4-17.5,2
						c-5.3,0.6-12.3,1.7-17.5,2c5.3,0,12.3,0,17.5,0c5.3,0,12.3,0,17.5,0c5.3,0,12.3,0,17.5,0c5.3,0,12.3,0,17.5,0
						c5.3,0,12.3,0,17.5,0c5.3,0,12.3,0,17.5,0c-5.3-0.1-12.3-0.5-17.5-0.7C677.7,610.3,670.7,610.6,665.4,609.8L665.4,609.8z"/>
					<path class="st4" d="M542.6,610.6v0.7c9.4,0,15.2,0,17.5,0c5.3,0,12.3,0,17.5,0c-5.3-0.2-12.3-1.2-17.5-1.3
						C557.8,609.9,551.9,610.1,542.6,610.6L542.6,610.6z"/>
				</g>
				<g>
					<path class="st5" d="M840.9,604.2c-9.4-0.9-15.2-1.3-17.5-1.3c-5.3,0-12.3,1.4-17.5,1.4c-5.3,0-12.3-1.7-17.5-1.3
						s-12.3,3.4-17.5,4c-5.3,0.6-12.3-0.2-17.5,0c-5.3,0.2-12.3,0.8-17.5,1.4c-5.3,0.6-12.3,2.3-17.5,2.7"/>
					<path class="st5" d="M700.5,611.1c-5.3-0.1-12.3-0.5-17.5-0.7c-5.3-0.2-12.3,0.2-17.5-0.7s-12.3-4.3-17.5-4.7
						c-5.3-0.4-12.3,1.4-17.5,2c-5.3,0.6-12.3,1.4-17.5,2c-5.3,0.6-12.3,1.7-17.5,2"/>
					<path class="st5" d="M577.7,611.2c-5.3-0.2-12.3-1.2-17.5-1.3c-2.3,0-8.2,0.2-17.5,0.7"/>
				</g>
			</g>
		</g>
		<g>
			<g>
				<path class="st0" d="M410.3,654.9c-9.4,2.1-15.2,3.2-17.5,3.4c-5.3,0.3-12.3-1.7-17.5-1.3c-5.3,0.4-12.3,3.2-17.5,4
					s-12.3,1-17.5,1.4c-5.3,0.4-12.3,0.7-17.5,1.4c-5.3,0.7-12.3,2.7-17.5,3.4c-5.3,0.7-12.3,1.2-17.5,1.4c5.3,0,12.3,0,17.5,0
					c5.3,0,12.3,0,17.5,0c5.3,0,12.3,0,17.5,0s12.3,0,17.5,0c5.3,0,12.3,0,17.5,0c5.3,0,12.3,0,17.5,0c2.3,0,8.2,0,17.5,0V654.9
					L410.3,654.9z"/>
				<path class="st0" d="M234.9,668.6c5.3,0,12.3,0,17.6,0c5.3,0,12.3,0,17.5,0c-5.3-0.1-12.3-0.7-17.6-0.7S240.1,668.5,234.9,668.6
					L234.9,668.6z"/>
				<path class="st0" d="M182.2,667.3c-5.3,0.1-12.3,1.1-17.6,0.7c-5.3-0.4-12.3-3.4-17.6-3.3c-5.3,0.1-12.3,3.4-17.5,4
					c5.3,0,12.3,0,17.6,0s12.3,0,17.6,0s12.3,0,17.6,0s12.3,0,17.6,0s12.3,0,17.6,0c-5.3-0.2-12.3-1.1-17.6-1.3
					C194.5,667.1,187.5,667.2,182.2,667.3L182.2,667.3z"/>
			</g>
			<g>
				<path class="st1" d="M410.3,654.9c-9.4,2.1-15.2,3.2-17.5,3.4c-5.3,0.3-12.3-1.7-17.5-1.3c-5.3,0.4-12.3,3.2-17.5,4
					s-12.3,1-17.5,1.4c-5.3,0.4-12.3,0.7-17.5,1.4c-5.3,0.7-12.3,2.7-17.5,3.4c-5.3,0.7-12.3,1.2-17.5,1.4"/>
				<path class="st1" d="M270,668.5c-5.3-0.1-12.3-0.7-17.6-0.7s-12.3,0.6-17.6,0.7"/>
				<path class="st1" d="M217.3,668.6c-5.3-0.2-12.3-1.1-17.6-1.3s-12.3-0.1-17.6,0s-12.3,1.1-17.6,0.7c-5.3-0.4-12.3-3.4-17.6-3.3
					c-5.3,0.1-12.3,3.4-17.5,4"/>
			</g>
		</g>
		<g>
			<g>
				<g>
					<path class="st0" d="M840.9,724.9c-9.4-0.3-15.2-0.5-17.5-0.7c-5.3-0.4-12.3-1.6-17.5-2c-5.3-0.4-12.3-0.6-17.5-0.7
						c-5.3-0.1-12.3-0.3-17.5,0c-5.3,0.3-12.3,1.4-17.5,2c-5.3,0.6-12.3,1.7-17.5,2c5.3,0,12.3,0,17.5,0c5.3,0,12.3,0,17.5,0
						c5.3,0,12.3,0,17.5,0c5.3,0,12.3,0,17.5,0c5.3,0,12.3,0,17.5,0c2.3,0,8.2,0,17.5,0V724.9L840.9,724.9z"/>
					<path class="st0" d="M647.9,723.1c-5.3-0.6-12.3-5.3-17.5-5.3c-5.3-0.1-12.3,4.1-17.5,4.7c-5.3,0.6-12.3-0.8-17.5-0.7
						c-5.3,0.1-12.3,1.2-17.5,1.4c-5.3,0.2-12.3-0.1-17.5,0c-2.3,0-8.2,0.3-17.5,0.7v2c9.4,0,15.2,0,17.5,0c5.3,0,12.3,0,17.5,0
						c5.3,0,12.3,0,17.5,0c5.3,0,12.3,0,17.5,0c5.3,0,12.3,0,17.5,0c5.3,0,12.3,0,17.5,0c5.3,0,12.3,0,17.5,0c5.3,0,12.3,0,17.5,0
						c-5.3-0.6-12.3-3.6-17.5-4C660.1,721.3,653.1,723.7,647.9,723.1L647.9,723.1z"/>
				</g>
				<g>
					<path class="st1" d="M840.9,724.9c-9.4-0.3-15.2-0.5-17.5-0.7c-5.3-0.4-12.3-1.6-17.5-2c-5.3-0.4-12.3-0.6-17.5-0.7
						c-5.3-0.1-12.3-0.3-17.5,0c-5.3,0.3-12.3,1.4-17.5,2c-5.3,0.6-12.3,1.7-17.5,2"/>
					<path class="st1" d="M683,725.7c-5.3-0.6-12.3-3.6-17.5-4c-5.3-0.4-12.3,2-17.5,1.4c-5.3-0.6-12.3-5.3-17.5-5.3
						c-5.3-0.1-12.3,4.1-17.5,4.7c-5.3,0.6-12.3-0.8-17.5-0.7c-5.3,0.1-12.3,1.2-17.5,1.4c-5.3,0.2-12.3-0.1-17.5,0
						c-2.3,0-8.2,0.3-17.5,0.7"/>
				</g>
			</g>
			<g>
				<g class="st6">
					<path class="st4" d="M840.9,724.9c-9.4-0.3-15.2-0.6-17.5-0.7c-5.3-0.2-12.3-0.3-17.5-0.7c-5.3-0.3-12.3-1-17.5-1.3
						c-5.3-0.3-12.3-0.3-17.5-0.7c-5.3-0.3-12.3-1.7-17.5-1.3s-12.3,3.4-17.5,4c-5.3,0.6-12.3-0.2-17.5,0
						c-5.3,0.2-12.3,1.2-17.5,1.4c5.3,0,12.3,0,17.5,0c5.3,0,12.3,0,17.5,0c5.3,0,12.3,0,17.5,0c5.3,0,12.3,0,17.5,0
						c5.3,0,12.3,0,17.5,0c5.3,0,12.3,0,17.5,0c5.3,0,12.3,0,17.5,0c2.3,0,8.2,0,17.5,0V724.9L840.9,724.9z"/>
					<path class="st4" d="M630.3,725.8c5.3,0,12.3,0,17.5,0c5.3,0,12.3,0,17.5,0c-5.3-0.1-12.3-0.7-17.5-0.7
						C642.6,725.1,635.6,725.7,630.3,725.8L630.3,725.8z"/>
					<path class="st4" d="M577.7,725.9c-5.3,0-12.3,0-17.5,0C565.4,725.9,572.4,726,577.7,725.9z"/>
					<path class="st4" d="M577.7,725.9c5.3,0,12.3,0,17.5,0c5.3,0,12.3,0,17.5,0c-5.3-0.1-12.3-0.7-17.5-0.7
						S582.9,725.8,577.7,725.9L577.7,725.9z"/>
				</g>
				<g>
					<path class="st5" d="M840.9,724.9c-9.4-0.3-15.2-0.6-17.5-0.7c-5.3-0.2-12.3-0.3-17.5-0.7c-5.3-0.3-12.3-1-17.5-1.3
						c-5.3-0.3-12.3-0.3-17.5-0.7c-5.3-0.3-12.3-1.7-17.5-1.3s-12.3,3.4-17.5,4c-5.3,0.6-12.3-0.2-17.5,0
						c-5.3,0.2-12.3,1.2-17.5,1.4"/>
					<path class="st5" d="M665.4,725.8c-5.3-0.1-12.3-0.7-17.5-0.7c-5.3,0-12.3,0.6-17.5,0.7"/>
					<path class="st5" d="M612.8,725.8c-5.3-0.1-12.3-0.7-17.5-0.7c-5.3,0-12.3,0.6-17.5,0.7"/>
				</g>
			</g>
		</g>
		<g>
			<path class="st0" d="M112,324c9.3-7.5,15.2-11.8,17.5-12.8c5.3-2.3,12.3-2.7,17.6-2.7s12.3,4.5,17.6,2.7s12.3-12.2,17.5-14.8
				c5.3-2.6,12.3-2.2,17.6-2.7s12.3,0.2,17.6-0.7c5.3-0.9,12.3-4,17.5-5.4c5.3-1.4,12.3,5.6,17.5-4c5.2-9.7,12.2-54.1,17.5-60.5
				s12.3,15.3,17.6,18.1c5.3,2.8,12.3-1.1,17.5,0.6c5.3,1.7,12.3,14.7,17.6,10.7c5.3-3.9,12.2-35.6,17.5-36.9
				c5.3-1.3,12.3,25.6,17.6,28.2c5.3,2.6,12.3-9.1,17.5-10.8s12.3-3.5,17.5,0c2.3,1.6,8.2,9.4,17.6,23.5l0.1,67.2
				c-9.4,0-15.2,0-17.5,0c-5.3,0-12.3,0-17.5,0c-5.3,0-12.3,0-17.5,0c-5.3,0-12.3,0-17.5,0s-12.3,0-17.5,0s-12.3,0-17.5,0
				c-5.3,0-12.3,0-17.5,0s-12.3,0-17.5,0s-12.3,0-17.6,0s-12.3,0-17.6,0s-12.3,0-17.6,0s-12.3,0-17.6,0s-12.3,0-17.6,0
				s-12.3,0-17.6,0s-12.3,0-17.6,0s-12.3,0-17.6,0C127.2,323.9,121.4,323.9,112,324L112,324z"/>
			<path class="st1" d="M112,324c9.3-7.5,15.2-11.8,17.5-12.8c5.3-2.3,12.3-2.7,17.6-2.7s12.3,4.5,17.6,2.7s12.3-12.2,17.5-14.8
				c5.3-2.6,12.3-2.2,17.6-2.7s12.3,0.2,17.6-0.7c5.3-0.9,12.3-4,17.5-5.4c5.3-1.4,12.3,5.6,17.5-4c5.2-9.7,12.2-54.1,17.5-60.5
				s12.3,15.3,17.6,18.1c5.3,2.8,12.3-1.1,17.5,0.6c5.3,1.7,12.3,14.7,17.6,10.7c5.3-3.9,12.2-35.6,17.5-36.9
				c5.3-1.3,12.3,25.6,17.6,28.2c5.3,2.6,12.3-9.1,17.5-10.8s12.3-3.5,17.5,0c2.3,1.6,8.2,9.4,17.6,23.5"/>
			<g class="st6">
				<path class="st4" d="M112,324.5c9.4,0.1,15.2,0.1,17.5,0c5.3-0.3,12.3-1.7,17.6-2s12.3,0.9,17.6,0s12.3-5.8,17.5-6.1
					s12.3,3.6,17.6,4s12.3-0.4,17.6-1.4s12.3-3.6,17.5-5.4c5.3-1.8,12.3-1.5,17.5-6.7c5.2-5.2,12.3-25,17.5-28.2
					c5.3-3.2,12.3,6.2,17.6,6.7c5.3,0.5,12.3-2.8,17.5-3.4c5.2-0.6,12.3,3.5,17.5-0.7c5.3-4.2,12.3-26.4,17.5-27.6
					c5.3-1.1,12.3,19.9,17.6,20.1s12.3-16.4,17.5-18.8s12.3,1.1,17.5,2.7c2.3,0.7,8.2,3.4,17.6,8l0.1,58.4c-9.4,0-15.2,0-17.5,0
					c-5.3,0-12.3,0-17.5,0c-5.3,0-12.3,0-17.5,0c-5.3,0-12.3,0-17.5,0c-5.3,0-12.3,0-17.5,0c-5.3,0-12.3,0-17.5,0s-12.3,0-17.5,0
					s-12.3,0-17.5,0c-5.3,0-12.3,0-17.6,0s-12.3,0-17.6,0s-12.3,0-17.6,0s-12.3,0-17.6,0s-12.3,0-17.6,0s-12.3,0-17.6,0
					s-12.3,0-17.6,0s-12.3,0-17.6,0C127.2,324.4,121.4,324.4,112,324.5L112,324.5z"/>
			</g>
			<path class="st5" d="M129.6,324.4c-2.3,0-8.2,0-17.6,0C121.4,324.6,127.2,324.6,129.6,324.4c5.3-0.3,12.3-1.7,17.6-2
				s12.3,0.9,17.6,0s12.3-5.8,17.5-6.1s12.3,3.6,17.6,4s12.3-0.4,17.6-1.4s12.3-3.6,17.5-5.4c5.3-1.8,12.3-1.5,17.5-6.7
				c5.2-5.2,12.3-25,17.5-28.2c5.3-3.2,12.3,6.2,17.6,6.7c5.3,0.5,12.3-2.8,17.5-3.4c5.2-0.6,12.3,3.5,17.5-0.7
				c5.3-4.2,12.3-26.4,17.5-27.6c5.3-1.1,12.3,19.9,17.6,20.1s12.3-16.4,17.5-18.8s12.3,1.1,17.5,2.7c2.3,0.7,8.2,3.4,17.6,8"/>
		</g>
		<g>
			<path class="st0" d="M410.3,411.2c-9.4-0.1-15.2-0.1-17.5,0c-5.3,0.2-12.3,2.3-17.5,1.3s-12.3-7.6-17.6-8
				c-5.3-0.5-12.3,4.8-17.5,5s-12.3-1.9-17.5-3.7c-5.3-1.9-12.3-13.7-17.6-8.7s-12.2,35.9-17.5,42.2c5.3,0,12.3,0,17.5,0
				c5.3,0,12.3,0,17.5,0c5.3,0,12.3,0,17.5,0c5.3,0,12.3,0,17.5,0c5.3,0,12.3,0,17.5,0c5.3,0,12.3,0,17.5,0c2.3,0,8.2,0,17.5,0
				L410.3,411.2L410.3,411.2z"/>
			<path class="st1" d="M410.3,411.2c-9.4-0.1-15.2-0.1-17.5,0c-5.3,0.2-12.3,2.3-17.5,1.3s-12.3-7.6-17.6-8
				c-5.3-0.5-12.3,4.8-17.5,5s-12.3-1.9-17.5-3.7c-5.3-1.9-12.3-13.7-17.6-8.7s-12.2,35.9-17.5,42.2"/>
		</g>
		<g>
			<g class="st6">
				<path class="st4" d="M410.3,423.3c-9.5-3.1-15.5-4.9-17.8-5.2c-5.4-0.9-12.5-1.5-17.8-0.6c-5.3,1-12.5,6-17.8,7
					c-5.3,1.1-12.5-0.3-17.8,0s-12.5,0.7-17.8,2.4c-5.3,1.7-12.5,6.9-17.8,8.8c-5.3,1.8-12.5,3-17.8,3.5c5.4,0,12.5,0,17.8,0
					c5.4,0,12.5,0,17.8,0s12.5,0,17.8,0s12.5,0,17.8,0c5.4,0,12.5,0,17.8,0c5.4,0,12.5,0,17.8,0c2.4,0,8.3,0,17.8,0V423.3
					L410.3,423.3z"/>
			</g>
			<path class="st5" d="M410.3,423.3c-9.5-3.1-15.5-4.9-17.8-5.2c-5.4-0.9-12.5-1.5-17.8-0.6c-5.3,1-12.5,6-17.8,7
				c-5.3,1.1-12.5-0.3-17.8,0s-12.5,0.7-17.8,2.4c-5.3,1.7-12.5,6.9-17.8,8.8c-5.3,1.8-12.5,3-17.8,3.5"/>
		</g>
		<g>
			<path class="st11" d="M410.3,540.8c-9.4,4.5-15.2,6.8-17.5,6.8c-5.3,0.2-12.3-5.6-17.5-5.6c-5.3,0-12.3,5-17.5,5.6
				s-12.3-2.3-17.5-1.8c-5.3,0.5-12.3,4.3-17.5,5s-12.3-1.1-17.5-0.6c-5.3,0.5-12.3,3.2-17.5,3.7c5.3,0,12.3,0,17.5,0
				c5.3,0,12.3,0,17.5,0c5.3,0,12.3,0,17.5,0c5.3,0,12.3,0,17.5,0c5.3,0,12.3,0,17.5,0c5.3,0,12.3,0,17.5,0c2.3,0,8.2,0,17.5,0
				V540.8L410.3,540.8z"/>
			<path class="st5" d="M410.3,540.8c-9.4,4.5-15.2,6.8-17.5,6.8c-5.3,0.2-12.3-5.6-17.5-5.6c-5.3,0-12.3,5-17.5,5.6
				s-12.3-2.3-17.5-1.8c-5.3,0.5-12.3,4.3-17.5,5s-12.3-1.1-17.5-0.6c-5.3,0.5-12.3,3.2-17.5,3.7"/>
		</g>
		<g>
			<g class="st6">
				<path class="st4" d="M410.3,656.2c-9.4-0.2-15.2-0.2-17.5,0c-5.3,0.5-12.3,2.4-17.5,3.1c-5.3,0.8-12.3,1.3-17.5,1.9
					c-5.3,0.6-12.3,1.7-17.5,1.9c-5.3,0.2-12.3-1.3-17.5-0.6c-5.3,0.8-12.3,4.7-17.5,5.6c-2.6,0.5-5.6,0.6-8.6,0.6c3,0,6,0,8.6,0
					c5.3,0,12.3,0,17.5,0c5.3,0,12.3,0,17.5,0c5.3,0,12.3,0,17.5,0c5.3,0,12.3,0,17.5,0c5.3,0,12.3,0,17.5,0c2.3,0,8.2,0,17.5,0
					V656.2L410.3,656.2z"/>
			</g>
			<path class="st5" d="M410.3,656.2c-9.4-0.2-15.2-0.2-17.5,0c-5.3,0.5-12.3,2.4-17.5,3.1c-5.3,0.8-12.3,1.3-17.5,1.9
				c-5.3,0.6-12.3,1.7-17.5,1.9c-5.3,0.2-12.3-1.3-17.5-0.6c-5.3,0.8-12.3,4.7-17.5,5.6c-2.6,0.5-5.6,0.6-8.6,0.6"/>
		</g>
	</g>
	<g>
		<text transform="matrix(1 0 0 1 328.58 45.7034)" class="st12 st8 st13">男运动员</text>
		<text transform="matrix(1 0 0 1 472.9 45.7735)" class="st12 st8 st13">女运动员</text>
		<path class="st0" d="M301.5,27.6c-3.1,0-7.2,19.9-10.4,21.4c3.1,0,7.3,0,10.4,0s7.3,0,10.4,0C308.8,49,304.6,27.6,301.5,27.6
			L301.5,27.6z"/>
		<path class="st14" d="M311.9,49c-3.1,0-7.3-21.4-10.4-21.4s-7.2,19.9-10.4,21.4"/>
		<path class="st4" d="M446.6,27.6c-3.1,0-7.2,19.9-10.4,21.4c3.1,0,7.3,0,10.4,0s7.3,0,10.4,0C453.9,49,449.7,27.6,446.6,27.6
			L446.6,27.6z"/>
		<path class="st15" d="M457,49c-3.1,0-7.3-21.4-10.4-21.4s-7.2,19.9-10.4,21.4"/>
	</g>
</g>
<text transform="matrix(1 0 0 1 2 11.3335)" class="st8 st16">注：按照前18 届亚运会所获奖牌总数排序，选取排名后前20位的国家。</text>
</svg>
