<?xml version="1.0" encoding="utf-8"?>
<!-- Generator: Adobe Illustrator 26.4.1, SVG Export Plug-In . SVG Version: 6.00 Build 0)  -->
<svg version="1.1" id="_图层_2" xmlns="http://www.w3.org/2000/svg" xmlns:xlink="http://www.w3.org/1999/xlink" x="0px" y="0px"
	 viewBox="0 0 841.2 739.7" style="enable-background:new 0 0 841.2 739.7;" xml:space="preserve">
<style type="text/css">
	.st0{opacity:0.3;}
	.st1{fill:#EAEAEA;}
	.st2{fill:none;stroke:#808080;stroke-width:0.75;}
	.st3{fill:none;stroke:#000000;}
	
		.st4{opacity:0.3;fill:none;stroke:#8A8A8A;stroke-width:0.5;stroke-miterlimit:10;stroke-dasharray:0,0,1.73,1.73;enable-background:new    ;}
	.st5{fill:none;stroke:#8A8A8A;stroke-width:0.5;stroke-miterlimit:10;stroke-dasharray:0,0,1.73,1.73;}
	.st6{fill:#FF94D9;}
	.st7{fill:none;stroke:#D11851;stroke-width:0.75;stroke-miterlimit:10;}
	.st8{opacity:0.65;}
	.st9{opacity:0.3;fill:#EAEAEA;enable-background:new    ;}
	.st10{opacity:0.3;fill:none;stroke:#808080;stroke-width:0.75;enable-background:new    ;}
	.st11{fill:#1A1A1A;}
	.st12{font-family:'AdobeSongStd-Light-GBpc-EUC-H';}
	.st13{font-size:14px;}
	.st14{letter-spacing:2.3;}
	.st15{fill:#FF71D4;}
	.st16{fill:#FF73D4;}
	.st17{fill:none;stroke:#CE0076;stroke-width:2;stroke-miterlimit:10;}
	.st18{opacity:0.3;fill:#FF94D9;enable-background:new    ;}
	.st19{opacity:0.3;fill:none;stroke:#D11851;stroke-width:0.75;stroke-miterlimit:10;enable-background:new    ;}
	.st20{opacity:0.65;fill:#FF94D9;enable-background:new    ;}
	.st21{fill:#4D4D4D;}
	.st22{font-size:17.09px;}
	.st23{fill:none;stroke:#808080;stroke-width:0.88;}
	.st24{fill:none;stroke:#D11851;stroke-width:0.88;stroke-miterlimit:10;}
	.st25{font-size:12px;}
</style>
<g id="_图层_1-2">
	<g>
		<g class="st0">
			<g>
				<path class="st1" d="M234.9,724.1c-5.3,0-12.3,0-17.6,0C222.6,724.1,229.6,724.2,234.9,724.1z"/>
				<path class="st1" d="M410.3,715.8c-9.4,0.9-15.2,1.3-17.5,1.3c-5.3-0.1-12.3-0.1-17.5-1.8s-12.3-9.6-17.6-9.9
					s-12.3,5.8-17.5,8.1s-12.3,6.1-17.5,6.8s-12.3-1.9-17.5-1.8c-5.3,0.1-12.3,2-17.5,2.5c-5.3,0.5-12.3,0.3-17.5,0.6
					c-5.3,0.4-12.3,1.5-17.6,1.9c-5.3,0.4-12.3,0.5-17.6,0.6c5.3,0,12.3,0,17.6,0c5.3,0,12.3,0,17.6,0c5.3,0,12.3,0,17.5,0
					c5.3,0,12.3,0,17.5,0c5.3,0,12.3,0,17.5,0c5.3,0,12.3,0,17.5,0c5.3,0,12.3,0,17.5,0c5.3,0,12.3,0,17.5,0c5.3,0,12.3,0,17.5,0
					c2.3,0,8.2,0,17.5,0L410.3,715.8L410.3,715.8z"/>
			</g>
			<g>
				<path class="st1" d="M234.9,724.1c-5.3,0-12.3,0-17.6,0C222.6,724.1,229.6,724.2,234.9,724.1z"/>
				<path class="st2" d="M410.3,715.8c-9.4,0.9-15.2,1.3-17.5,1.3c-5.3-0.1-12.3-0.1-17.5-1.8s-12.3-9.6-17.6-9.9
					s-12.3,5.8-17.5,8.1s-12.3,6.1-17.5,6.8s-12.3-1.9-17.5-1.8c-5.3,0.1-12.3,2-17.5,2.5c-5.3,0.5-12.3,0.3-17.5,0.6
					c-5.3,0.4-12.3,1.5-17.6,1.9c-5.3,0.4-12.3,0.5-17.6,0.6"/>
			</g>
		</g>
		<g>
			<line class="st3" x1="536.1" y1="265.3" x2="529.6" y2="265.3"/>
			<line class="st3" x1="536.1" y1="609.4" x2="529.6" y2="609.4"/>
			<line class="st3" x1="536.1" y1="724.1" x2="529.6" y2="724.1"/>
			<line class="st3" x1="536.1" y1="666.8" x2="529.6" y2="666.8"/>
			<line class="st3" x1="536.1" y1="322.7" x2="529.6" y2="322.7"/>
			<line class="st3" x1="536.1" y1="380" x2="529.6" y2="380"/>
			<line class="st3" x1="536.1" y1="437.4" x2="529.6" y2="437.4"/>
			<line class="st3" x1="536.1" y1="494.7" x2="529.6" y2="494.7"/>
			<line class="st3" x1="536.1" y1="552.1" x2="529.6" y2="552.1"/>
		</g>
		<g>
			<line class="st3" x1="105.5" y1="666.8" x2="99.1" y2="666.8"/>
			<line class="st3" x1="105.5" y1="265.3" x2="99.1" y2="265.3"/>
			<line class="st3" x1="105.5" y1="552.1" x2="99.1" y2="552.1"/>
			<line class="st3" x1="105.5" y1="609.4" x2="99.1" y2="609.4"/>
			<line class="st3" x1="105.5" y1="724.1" x2="99.1" y2="724.1"/>
			<line class="st3" x1="105.5" y1="322.7" x2="99.1" y2="322.7"/>
			<line class="st3" x1="105.5" y1="380" x2="99.1" y2="380"/>
			<line class="st3" x1="105.5" y1="437.4" x2="99.1" y2="437.4"/>
			<line class="st3" x1="105.5" y1="494.7" x2="99.1" y2="494.7"/>
		</g>
		<g>
			<line class="st4" x1="112" y1="666.7" x2="410.3" y2="666.7"/>
			<line class="st5" x1="112" y1="265.3" x2="410.3" y2="265.3"/>
			<line class="st4" x1="112" y1="552" x2="410.3" y2="552"/>
			<line class="st4" x1="112" y1="609.4" x2="410.3" y2="609.4"/>
			<line class="st4" x1="112" y1="724.1" x2="410.3" y2="724.1"/>
			<line class="st4" x1="112" y1="322.7" x2="410.3" y2="322.7"/>
			<line class="st5" x1="112" y1="380" x2="410.3" y2="380"/>
			<line class="st4" x1="112" y1="437.3" x2="410.3" y2="437.3"/>
			<line class="st5" x1="112" y1="494.7" x2="410.3" y2="494.7"/>
		</g>
		<g class="st0">
			<line class="st5" x1="542.6" y1="666.8" x2="840.9" y2="666.8"/>
			<line class="st5" x1="542.6" y1="265.3" x2="840.9" y2="265.3"/>
			<line class="st5" x1="542.6" y1="552.1" x2="840.9" y2="552.1"/>
			<line class="st5" x1="542.6" y1="609.4" x2="840.9" y2="609.4"/>
			<line class="st5" x1="542.6" y1="724.1" x2="840.9" y2="724.1"/>
			<line class="st5" x1="542.6" y1="322.7" x2="840.9" y2="322.7"/>
			<line class="st5" x1="542.6" y1="380" x2="840.9" y2="380"/>
			<line class="st5" x1="542.6" y1="437.4" x2="840.9" y2="437.4"/>
			<line class="st5" x1="542.6" y1="494.7" x2="840.9" y2="494.7"/>
		</g>
		<g class="st0">
			<g>
				<path class="st6" d="M410.3,724.1v-1.2c-9.4-0.1-15.2-0.1-17.5,0c-4,0.2-9.1,1-13.6,1.3c4.5,0,9.6,0,13.6,0
					C395.1,724.1,401,724.1,410.3,724.1z"/>
				<path class="st6" d="M340.1,724.2c5.3,0,12.3,0,17.5,0c5.3,0,12.3,0,17.5,0c-5.3-0.4-12.3-3.7-17.5-3.7
					C352.4,720.4,345.4,723.6,340.1,724.2L340.1,724.2z"/>
			</g>
			<g>
				<path class="st7" d="M410.3,722.8c-9.4-0.1-15.2-0.1-17.5,0c-4,0.2-9.1,1-13.6,1.3"/>
				<path class="st7" d="M375.2,724.1c-5.3-0.4-12.3-3.7-17.5-3.7c-5.3,0-12.3,3.2-17.5,3.7"/>
			</g>
		</g>
		<g class="st0">
			<g>
				<g>
					<path class="st1" d="M840.9,661.1c-9.4-1.4-15.2-2-17.5-2c-5.3,0.1-12.3,2.2-17.5,2.7c-5.3,0.5-12.3,0.7-17.5,0.7
						c-5.3,0-12.3-0.2-17.5-0.7c-5.3-0.5-12.3-2.8-17.5-2.7s-12.3,4-17.5,3.4c-5.3-0.6-12.3-8-17.6-7.4s-12.3,10.4-17.5,11.4
						c5.3,0,12.3,0,17.5,0c5.3,0,12.3,0,17.5,0c5.3,0,12.3,0,17.5,0c5.3,0,12.3,0,17.5,0c5.3,0,12.3,0,17.5,0c5.3,0,12.3,0,17.5,0
						c5.3,0,12.3,0,17.5,0c2.3,0,8.2,0,17.5,0L840.9,661.1L840.9,661.1z"/>
					<path class="st1" d="M665.4,660.7c-5.3-0.7-12.3-4.2-17.5-3.3s-12.3,8-17.5,9.4c5.3,0,12.3,0,17.5,0c5.3,0,12.3,0,17.5,0
						c5.3,0,12.3,0,17.5,0c4.2,0,9.6,0,14.3,0c-4.7-0.7-10.1-4-14.3-4.7C677.7,661.1,670.7,661.4,665.4,660.7L665.4,660.7z"/>
				</g>
				<g>
					<path class="st2" d="M840.9,661.1c-9.4-1.4-15.2-2-17.5-2c-5.3,0.1-12.3,2.2-17.5,2.7c-5.3,0.5-12.3,0.7-17.5,0.7
						c-5.3,0-12.3-0.2-17.5-0.7c-5.3-0.5-12.3-2.8-17.5-2.7s-12.3,4-17.5,3.4c-5.3-0.6-12.3-8-17.6-7.4s-12.3,10.4-17.5,11.4"/>
					<path class="st2" d="M697.3,666.7c-4.7-0.7-10.1-4-14.3-4.7c-5.3-0.9-12.3-0.6-17.5-1.3c-5.3-0.7-12.3-4.2-17.5-3.3
						s-12.3,8-17.5,9.4"/>
				</g>
			</g>
			<g>
				<g class="st8">
					<path class="st6" d="M683,666.6c-5.3,0-12.3,0-17.5,0C670.7,666.8,677.7,666.6,683,666.6z"/>
					<path class="st6" d="M630.3,666.7c-5.3,0-12.3,0-17.5,0C618,666.7,625.1,666.8,630.3,666.7z"/>
					<path class="st6" d="M840.9,658.4c-9.4,0.8-15.2,1.2-17.5,1.4c-5.3,0.3-12.3,0.5-17.5,0.7c-5.3,0.2-12.3,0.4-17.5,0.7
						c-5.3,0.3-12.3,0.8-17.5,1.4s-12.3,1.6-17.5,2c-5.3,0.4-12.3,0.4-17.5,0.7s-12.3,1.2-17.5,1.4c5.3,0,12.3,0,17.5,0
						c5.3,0,12.3,0,17.5,0c5.3,0,12.3,0,17.5,0c5.3,0,12.3,0,17.5,0s12.3,0,17.5,0c5.3,0,12.3,0,17.5,0c2.3,0,8.2,0,17.5,0V658.4
						L840.9,658.4z"/>
					<path class="st6" d="M630.3,666.7c5.3,0,12.3,0,17.5,0c5.3,0,12.3,0,17.5,0c-5.3-0.1-12.3-0.7-17.5-0.7
						S635.6,666.6,630.3,666.7L630.3,666.7z"/>
				</g>
				<g>
					<path class="st7" d="M683,666.6c-5.3,0-12.3,0-17.5,0C670.7,666.8,677.7,666.6,683,666.6z"/>
					<path class="st7" d="M630.3,666.7c-5.3,0-12.3,0-17.5,0C618,666.7,625.1,666.8,630.3,666.7z"/>
					<path class="st7" d="M840.9,658.4c-9.4,0.8-15.2,1.2-17.5,1.4c-5.3,0.3-12.3,0.5-17.5,0.7c-5.3,0.2-12.3,0.4-17.5,0.7
						c-5.3,0.3-12.3,0.8-17.5,1.4s-12.3,1.6-17.5,2c-5.3,0.4-12.3,0.4-17.5,0.7s-12.3,1.2-17.5,1.4"/>
					<path class="st7" d="M665.4,666.7c-5.3-0.1-12.3-0.7-17.5-0.7c-5.3,0-12.3,0.6-17.5,0.7"/>
				</g>
			</g>
		</g>
		<g>
			<path class="st9" d="M112,609.5c9.3-4.7,15.2-7.6,17.5-8.8c5.3-2.6,12.3-7.7,17.5-8.8s12.3,0.2,17.6,2s12.3,8.8,17.6,10
				s12.3-1.1,17.6-1.4c5.3-0.3,12.3,0,17.6-0.7s12.3-4,17.5-4s12.3,3.2,17.6,4c5.3,0.8,12.3,1.4,17.6,1.3s12.3-1.9,17.5-2
				s12.3,1.5,17.5,1.3c5.3-0.2,12.3-2.4,17.5-2.7c5.3-0.3,12.3-0.3,17.5,0.7s12.3,5.4,17.5,6c5.3,0.6,12.3-2,17.5-2
				c5.3,0,12.3,1.6,17.5,2c2.3,0.2,8.2,0.4,17.5,0.7v2c-9.4,0-15.2,0-17.5,0c-5.3,0-12.3,0-17.5,0c-5.3,0-12.3,0-17.5,0
				s-12.3,0-17.5,0s-12.3,0-17.5,0s-12.3,0-17.5,0s-12.3,0-17.5,0s-12.3,0-17.5,0c-5.3,0-12.3,0-17.6,0s-12.3,0-17.6,0
				s-12.3,0-17.6,0s-12.3,0-17.6,0s-12.3,0-17.6,0s-12.3,0-17.6,0s-12.3,0-17.6,0s-12.3,0-17.6,0C127.2,609.4,121.4,609.4,112,609.5
				L112,609.5z"/>
			<path class="st10" d="M112,609.5c9.3-4.7,15.2-7.6,17.5-8.8c5.3-2.6,12.3-7.7,17.5-8.8s12.3,0.2,17.6,2s12.3,8.8,17.6,10
				s12.3-1.1,17.6-1.4c5.3-0.3,12.3,0,17.6-0.7s12.3-4,17.5-4s12.3,3.2,17.6,4c5.3,0.8,12.3,1.4,17.6,1.3s12.3-1.9,17.5-2
				s12.3,1.5,17.5,1.3c5.3-0.2,12.3-2.4,17.5-2.7c5.3-0.3,12.3-0.3,17.5,0.7s12.3,5.4,17.5,6c5.3,0.6,12.3-2,17.5-2
				c5.3,0,12.3,1.6,17.5,2c2.3,0.2,8.2,0.4,17.5,0.7"/>
		</g>
		<g class="st0">
			<g>
				<path class="st1" d="M542.6,552c9.4,0.1,15.2,0.1,17.5,0c5.3-0.2,12.3-0.2,17.5-1.4c5.3-1.2,12.3-5.5,17.5-6.7
					c5.3-1.2,12.3-1.5,17.5-1.4c5.3,0.1,12.3,1,17.5,2c5.3,1,12.3,4.1,17.5,4.7c5.3,0.6,12.3-0.8,17.5-0.7
					c5.3,0.1,12.3,1.3,17.5,1.3c5.3,0,12.3-1,17.5-1.4c5.3-0.4,12.3-0.3,17.5-1.4c5.3-1,12.3-3.8,17.5-5.4
					c5.3-1.6,12.3-5.1,17.5-5.4c5.3-0.3,12.3,3.2,17.5,3.3c5.3,0.1,12.3-2,17.5-2.7c5.3-0.7,12.3-2.4,17.5-2
					c5.2,0.4,12.3,4.5,17.5,4.7c2.3,0.1,8.2-1,17.5-3.4v15.4c-9.4,0-15.2,0-17.5,0c-5.3,0-12.3,0-17.5,0c-5.3,0-12.3,0-17.5,0
					c-5.3,0-12.3,0-17.5,0c-5.3,0-12.3,0-17.5,0s-12.3,0-17.5,0s-12.3,0-17.5,0c-5.3,0-12.3,0-17.5,0c-5.3,0-12.3,0-17.5,0
					c-5.3,0-12.3,0-17.5,0s-12.3,0-17.5,0s-12.3,0-17.5,0c-5.3,0-12.3,0-17.5,0c-5.3,0-12.3,0-17.5,0s-12.3,0-17.5,0
					c-5.3,0-12.3,0-17.5,0C557.8,552,551.9,552,542.6,552L542.6,552z"/>
				<path class="st2" d="M560.1,552c-2.3,0-8.2,0-17.5,0C551.9,552.1,557.8,552.1,560.1,552c5.3-0.2,12.3-0.2,17.5-1.4
					c5.3-1.2,12.3-5.5,17.5-6.7c5.3-1.2,12.3-1.5,17.5-1.4c5.3,0.1,12.3,1,17.5,2c5.3,1,12.3,4.1,17.5,4.7
					c5.3,0.6,12.3-0.8,17.5-0.7c5.3,0.1,12.3,1.3,17.5,1.3c5.3,0,12.3-1,17.5-1.4c5.3-0.4,12.3-0.3,17.5-1.4
					c5.3-1,12.3-3.8,17.5-5.4c5.3-1.6,12.3-5.1,17.5-5.4c5.3-0.3,12.3,3.2,17.5,3.3c5.3,0.1,12.3-2,17.5-2.7
					c5.3-0.7,12.3-2.4,17.5-2c5.2,0.4,12.3,4.5,17.5,4.7c2.3,0.1,8.2-1,17.5-3.4"/>
			</g>
			<g>
				<g class="st8">
					<path class="st6" d="M542.6,552c9.4,0,15.2,0,17.5,0c5.3-0.1,12.3-0.4,17.5-0.7c5.3-0.3,12.3-1.1,17.5-1.4
						c5.3-0.3,12.3-0.7,17.5-0.7s12.3,0.3,17.5,0.7c5.3,0.3,12.3,1.1,17.5,1.3s12.3,0,17.5,0c5.3,0,12.3,0.2,17.5,0
						c5.3-0.2,12.3-1.4,17.5-1.4s12.3,1.5,17.5,1.3s12.3-2,17.5-2.7c5.3-0.7,12.3-1.2,17.5-2c5.3-0.8,12.3-1.9,17.5-3.4
						s12.3-6.2,17.5-6.7c5.3-0.5,12.3,2.5,17.5,3.3c5.3,0.8,12.3,1.6,17.5,2c2.3,0.2,8.2,0.4,17.5,0.7v9.4c-9.3,0-15.2,0-17.5,0
						c-5.3,0-12.3,0-17.5,0c-5.3,0-12.3,0-17.5,0c-5.3,0-12.3,0-17.5,0s-12.3,0-17.5,0s-12.3,0-17.5,0c-5.3,0-12.3,0-17.5,0
						c-5.3,0-12.3,0-17.5,0c-5.3,0-12.3,0-17.5,0s-12.3,0-17.5,0s-12.3,0-17.5,0s-12.3,0-17.5,0s-12.3,0-17.5,0
						c-5.3,0-12.3,0-17.5,0s-12.3,0-17.5,0c-5.3,0-12.3,0-17.5,0C557.8,552,551.9,552,542.6,552L542.6,552z"/>
				</g>
				<path class="st7" d="M560.1,552c-2.3,0-8.2,0-17.5,0C551.9,552,557.8,552,560.1,552c5.3-0.1,12.3-0.4,17.5-0.7
					c5.3-0.3,12.3-1.1,17.5-1.4c5.3-0.3,12.3-0.7,17.5-0.7s12.3,0.3,17.5,0.7c5.3,0.3,12.3,1.1,17.5,1.3s12.3,0,17.5,0
					c5.3,0,12.3,0.2,17.5,0c5.3-0.2,12.3-1.4,17.5-1.4s12.3,1.5,17.5,1.3s12.3-2,17.5-2.7c5.3-0.7,12.3-1.2,17.5-2
					c5.3-0.8,12.3-1.9,17.5-3.4s12.3-6.2,17.5-6.7c5.3-0.5,12.3,2.5,17.5,3.3c5.3,0.8,12.3,1.6,17.5,2c2.3,0.2,8.2,0.4,17.5,0.7"/>
			</g>
		</g>
		<g>
			<path class="st9" d="M410.3,524.6c-9.4,3.4-15.2,5.3-17.5,5.6c-5.3,0.7-12.3-1.7-17.5-1.2c-5.3,0.5-12.3,4.4-17.5,4.4
				s-12.3-3.9-17.5-4.3c-5.3-0.5-12.3,0.7-17.5,1.3c-5.3,0.6-12.3-0.8-17.5,2.5c-5.3,3.3-12.3,16.4-17.5,19.2c5.3,0,12.3,0,17.5,0
				c5.3,0,12.3,0,17.5,0s12.3,0,17.5,0s12.3,0,17.5,0c5.3,0,12.3,0,17.5,0c5.3,0,12.3,0,17.5,0c2.3,0,8.2,0,17.5,0V524.6
				L410.3,524.6z"/>
			<path class="st10" d="M410.3,524.6c-9.4,3.4-15.2,5.3-17.5,5.6c-5.3,0.7-12.3-1.7-17.5-1.2c-5.3,0.5-12.3,4.4-17.5,4.4
				s-12.3-3.9-17.5-4.3c-5.3-0.5-12.3,0.7-17.5,1.3c-5.3,0.6-12.3-0.8-17.5,2.5c-5.3,3.3-12.3,16.4-17.5,19.2"/>
		</g>
		<g class="st0">
			<g>
				<path class="st1" d="M542.6,482.7c9.3-7,15.2-10.9,17.5-11.4c5.3-1.3,12.3,1.2,17.5,2.7c5.3,1.5,12.3,6.8,17.6,7.4
					s12.3-3.8,17.5-3.4c5.3,0.4,12.3,4.4,17.5,6c5.3,1.6,12.3,3.7,17.5,4.7c5.3,1,12.3,2.4,17.5,2s12.3-4.1,17.5-4.7
					c5.3-0.6,12.3,0.1,17.5,0.6c5.3,0.5,12.3,2.6,17.5,2.7s12.3-1.4,17.5-2s12.3-1.3,17.5-2c5.3-0.7,12.3-2.6,17.5-2.7
					c5.3-0.1,12.3,1.5,17.5,2s12.3,0.9,17.5,1.3s12.3,1,17.5,1.3c2.3,0.1,8.2,0.4,17.5,0.6v6.7c-9.3,0-15.2,0-17.5,0
					c-5.3,0-12.3,0-17.5,0c-5.3,0-12.3,0-17.5,0c-5.3,0-12.3,0-17.5,0s-12.3,0-17.5,0c-5.3,0-12.3,0-17.5,0s-12.3,0-17.5,0
					c-5.3,0-12.3,0-17.5,0s-12.3,0-17.5,0s-12.3,0-17.5,0s-12.3,0-17.5,0c-5.3,0-12.3,0-17.5,0c-5.3,0-12.3,0-17.5,0
					c-5.3,0-12.3,0-17.5,0c-5.3,0-12.3,0-17.5,0c-5.3,0-12.3,0-17.5,0c-2.3,0-8.2,0-17.5,0L542.6,482.7L542.6,482.7z"/>
				<path class="st2" d="M542.6,482.7c9.3-7,15.2-10.9,17.5-11.4c5.3-1.3,12.3,1.2,17.5,2.7c5.3,1.5,12.3,6.8,17.6,7.4
					s12.3-3.8,17.5-3.4c5.3,0.4,12.3,4.4,17.5,6c5.3,1.6,12.3,3.7,17.5,4.7c5.3,1,12.3,2.4,17.5,2s12.3-4.1,17.5-4.7
					c5.3-0.6,12.3,0.1,17.5,0.6c5.3,0.5,12.3,2.6,17.5,2.7s12.3-1.4,17.5-2s12.3-1.3,17.5-2c5.3-0.7,12.3-2.6,17.5-2.7
					c5.3-0.1,12.3,1.5,17.5,2s12.3,0.9,17.5,1.3s12.3,1,17.5,1.3c2.3,0.1,8.2,0.4,17.5,0.6"/>
			</g>
			<g>
				<g class="st8">
					<path class="st6" d="M542.6,494.8c9.4-2.8,15.2-4.6,17.5-5.4c5.3-1.7,12.3-5.4,17.5-6.1c5.3-0.7,12.3,0.8,17.5,1.3
						c5.3,0.5,12.3,0.9,17.5,2c5.3,1.1,12.3,4.4,17.5,5.4c5.3,1,12.3,1.5,17.5,1.3s12.3-2.7,17.5-2.7s12.3,2.7,17.5,2.7
						c5.3,0,12.3-2.7,17.5-2.7c5.3,0,12.3,2.3,17.5,2.7c5.3,0.4,12.3,0.1,17.5,0c5.3-0.1,12.3,0.1,17.5-0.7
						c5.3-0.8,12.3-4.6,17.5-4.7c5.3-0.1,12.3,3.3,17.5,4c5.3,0.7,12.3,0.7,17.5,0.6c5.3,0,12.3,0.1,17.5-0.7
						c2.3-0.4,8.2-1.9,17.5-4.7v7.4c-9.3,0-15.2,0-17.5,0c-5.3,0-12.3,0-17.5,0c-5.3,0-12.3,0-17.5,0s-12.3,0-17.5,0s-12.3,0-17.5,0
						s-12.3,0-17.5,0s-12.3,0-17.5,0s-12.3,0-17.5,0c-5.3,0-12.3,0-17.5,0s-12.3,0-17.5,0s-12.3,0-17.5,0c-5.3,0-12.3,0-17.5,0
						c-5.3,0-12.3,0-17.5,0s-12.3,0-17.5,0c-5.3,0-12.3,0-17.5,0c-5.3,0-12.3,0-17.5,0C557.7,494.8,551.9,494.8,542.6,494.8
						L542.6,494.8z"/>
				</g>
				<path class="st7" d="M542.6,494.8c9.4-2.8,15.2-4.6,17.5-5.4c5.3-1.7,12.3-5.4,17.5-6.1c5.3-0.7,12.3,0.8,17.5,1.3
					c5.3,0.5,12.3,0.9,17.5,2c5.3,1.1,12.3,4.4,17.5,5.4c5.3,1,12.3,1.5,17.5,1.3s12.3-2.7,17.5-2.7s12.3,2.7,17.5,2.7
					c5.3,0,12.3-2.7,17.5-2.7c5.3,0,12.3,2.3,17.5,2.7c5.3,0.4,12.3,0.1,17.5,0c5.3-0.1,12.3,0.1,17.5-0.7
					c5.3-0.8,12.3-4.6,17.5-4.7c5.3-0.1,12.3,3.3,17.5,4c5.3,0.7,12.3,0.7,17.5,0.6c5.3,0,12.3,0.1,17.5-0.7
					c2.3-0.4,8.2-1.9,17.5-4.7"/>
			</g>
		</g>
		<g class="st0">
			<g>
				<path class="st1" d="M840.9,396.7c-9.3,19.8-15.2,30.8-17.5,32.9c-5.3,4.7-12.3-1.1-17.5-1.3s-12.3,0.1-17.5,0
					s-12.3-0.5-17.5-0.6c-5.3-0.2-12.3-0.6-17.5-0.6c-5.3-0.1-12.3,0.1-17.5,0s-12.3-0.8-17.5-0.6s-12.3,1.1-17.5,1.4
					c-5.3,0.3-12.3,1.6-17.5,0.7c-5.3-0.9-12.3-7.3-17.6-6.7c-5.3,0.6-12.3,9.9-17.5,10.8c-5.3,0.9-12.3-4-17.5-4.7
					c-5.3-0.7-12.3,1.6-17.5,0c-5.3-1.6-12.3-11.8-17.6-10.7c-5.3,1.1-12.3,15.3-17.5,18.1s-12.3,0.7-17.5,0.7
					c-2.3,0-8.2-0.2-17.5-0.6v2c9.4,0,15.2,0,17.5,0c5.3,0,12.3,0,17.5,0c5.3,0,12.3,0,17.5,0c5.3,0,12.3,0,17.5,0
					c5.3,0,12.3,0,17.5,0c5.3,0,12.3,0,17.5,0c5.3,0,12.3,0,17.5,0c5.3,0,12.3,0,17.5,0c5.3,0,12.3,0,17.5,0c5.3,0,12.3,0,17.5,0
					c5.3,0,12.3,0,17.5,0c5.3,0,12.3,0,17.5,0s12.3,0,17.5,0c5.3,0,12.3,0,17.5,0c5.3,0,12.3,0,17.5,0c5.3,0,12.3,0,17.5,0
					c2.3,0,8.2,0,17.5,0L840.9,396.7L840.9,396.7z"/>
				<path class="st2" d="M840.9,396.7c-9.3,19.8-15.2,30.8-17.5,32.9c-5.3,4.7-12.3-1.1-17.5-1.3s-12.3,0.1-17.5,0
					s-12.3-0.5-17.5-0.6c-5.3-0.2-12.3-0.6-17.5-0.6c-5.3-0.1-12.3,0.1-17.5,0s-12.3-0.8-17.5-0.6s-12.3,1.1-17.5,1.4
					c-5.3,0.3-12.3,1.6-17.5,0.7c-5.3-0.9-12.3-7.3-17.6-6.7c-5.3,0.6-12.3,9.9-17.5,10.8c-5.3,0.9-12.3-4-17.5-4.7
					c-5.3-0.7-12.3,1.6-17.5,0c-5.3-1.6-12.3-11.8-17.6-10.7c-5.3,1.1-12.3,15.3-17.5,18.1s-12.3,0.7-17.5,0.7
					c-2.3,0-8.2-0.2-17.5-0.6"/>
			</g>
			<g>
				<g class="st8">
					<path class="st6" d="M542.6,435.9c9.4,0.9,15.2,1.3,17.5,1.3c5.3,0,12.3,0.7,17.5-1.4c5.3-2,12.3-11.1,17.5-12.1
						s12.3,4,17.5,5.4c5.3,1.4,12.3,3.4,17.5,4c5.3,0.6,12.3,0.5,17.5,0s12.3-3.8,17.5-3.4c5.3,0.4,12.3,5.6,17.5,6
						c5.3,0.4,12.3-1.8,17.5-3.4c5.3-1.6,12.3-6.9,17.5-7.4s12.3,3.5,17.5,4s12.3-1,17.5-0.7c5.3,0.3,12.3,2.1,17.5,2.7
						s12.3,1.3,17.5,1.3c5.3,0,12.3-0.8,17.5-1.4c5.3-0.6,12.3,0.7,17.5-2.7c2.3-1.5,8.2-8.2,17.5-20.2v28.9c-9.4,0-15.2,0-17.5,0
						c-5.3,0-12.3,0-17.5,0c-5.3,0-12.3,0-17.5,0c-5.3,0-12.3,0-17.5,0s-12.3,0-17.5,0s-12.3,0-17.5,0s-12.3,0-17.5,0
						s-12.3,0-17.5,0s-12.3,0-17.5,0c-5.3,0-12.3,0-17.5,0c-5.3,0-12.3,0-17.5,0c-5.3,0-12.3,0-17.5,0c-5.3,0-12.3,0-17.5,0
						s-12.3,0-17.5,0c-5.3,0-12.3,0-17.5,0c-5.3,0-12.3,0-17.5,0c-2.3,0-8.2,0-17.5,0V435.9L542.6,435.9z"/>
				</g>
				<path class="st7" d="M542.6,435.9c9.4,0.9,15.2,1.3,17.5,1.3c5.3,0,12.3,0.7,17.5-1.4c5.3-2,12.3-11.1,17.5-12.1
					s12.3,4,17.5,5.4c5.3,1.4,12.3,3.4,17.5,4c5.3,0.6,12.3,0.5,17.5,0s12.3-3.8,17.5-3.4c5.3,0.4,12.3,5.6,17.5,6
					c5.3,0.4,12.3-1.8,17.5-3.4c5.3-1.6,12.3-6.9,17.5-7.4s12.3,3.5,17.5,4s12.3-1,17.5-0.7c5.3,0.3,12.3,2.1,17.5,2.7
					s12.3,1.3,17.5,1.3c5.3,0,12.3-0.8,17.5-1.4c5.3-0.6,12.3,0.7,17.5-2.7c2.3-1.5,8.2-8.2,17.5-20.2"/>
			</g>
		</g>
		<text transform="matrix(0.88 0 0 1 29.21 329.7265)" class="st11 st12 st13 st14">大韩民国</text>
		<text transform="matrix(0.88 0 0 1 58.4097 387.0268)" class="st11 st12 st13 st14">泰国</text>
		<text transform="matrix(0.88 0 0 1 14.5996 444.2665)" class="st11 st12 st13 st14">哈萨克斯坦</text>
		<text transform="matrix(0.88 0 0 1 58.4097 501.6171)" class="st11 st12 st13 st14">朝鲜</text>
		<text transform="matrix(0.88 0 0 1 0 558.9462)" class="st11 st12 st13 st14">乌兹别克斯坦</text>
		<text transform="matrix(0.88 0 0 1 29.21 616.1962)" class="st11 st12 st13 st14">巴基斯坦</text>
		<text transform="matrix(0.88 0 0 1 58.4097 673.5869)" class="st11 st12 st13 st14">越南</text>
		<text transform="matrix(0.88 0 0 1 43.8096 730.9267)" class="st11 st12 st13 st14">卡塔尔</text>
		<text transform="matrix(0.88 0 0 1 490.0693 272.3671)" class="st11 st12 st13 st14">日本</text>
		<text transform="matrix(0.88 0 0 1 490.0693 329.7665)" class="st11 st12 st13 st14">印度</text>
		<text transform="matrix(0.88 0 0 1 490.0693 387.0966)" class="st11 st12 st13 st14">伊朗</text>
		<text transform="matrix(0.88 0 0 1 446.2695 444.3867)" class="st11 st12 st13 st14">印度尼西亚</text>
		<text transform="matrix(0.88 0 0 1 475.4697 501.6962)" class="st11 st12 st13 st14">菲律宾</text>
		<text transform="matrix(0.88 0 0 1 460.8691 559.0068)" class="st11 st12 st13 st14">马来西亚</text>
		<text transform="matrix(0.88 0 0 1 475.4697 616.3369)" class="st11 st12 st13 st14">新加坡</text>
		<text transform="matrix(0.88 0 0 1 490.0693 673.6064)" class="st11 st12 st13 st14">蒙古</text>
		<text transform="matrix(0.88 0 0 1 490.0693 730.997)" class="st11 st12 st13 st14">缅甸</text>
		<text transform="matrix(0.88 0 0 1 58.4097 272.4169)" class="st11 st12 st13 st14">中国</text>
		<g>
			<path class="st1" d="M410.2,139.3c-9.4-4.4-15.2-7.8-17.6-10c-5.3-5.1-12.3-26.6-17.6-24.1c-5.3,2.4-12.2,34.3-17.5,40.3
				c-5.3,5.9-12.3-0.7-17.5-0.7c-5.3,0-12.3-2.4-17.5,0.7c-5.3,3.1-12.3,21.1-17.5,20.1s-12.3-28.6-17.6-26.8
				c-5.3,1.8-12.2,30-17.5,38.9c-5.3,9-12.3,17.1-17.5,20.8c-5.3,3.7-12.3-0.1-17.5,4.1s-12.3,14.1-17.5,23.5s-12.2,33.2-17.5,38.9
				c5.3,0,12.3,0,17.6,0s12.3,0,17.6,0s12.3,0,17.6,0c5.3,0,12.3,0,17.6,0c5.3,0,12.3,0,17.5,0c5.3,0,12.3,0,17.5,0s12.3,0,17.5,0
				c5.3,0,12.3,0,17.5,0c5.3,0,12.3,0,17.5,0c5.3,0,12.3,0,17.5,0c5.3,0,12.3,0,17.5,0c2.3,0,8.2,0,17.5,0L410.2,139.3L410.2,139.3z
				"/>
			<g>
				<path class="st2" d="M164.7,265.2c-5.3,0-12.3-0.6-17.6-0.6c-5.3-0.1-12.3-0.1-17.6,0c-2.3,0.1-8.2,0.3-17.6,0.7"/>
				<path class="st2" d="M410.2,139.4c-9.4-4.4-15.2-7.8-17.6-10.1c-5.3-5.1-12.3-26.6-17.6-24.2c-5.3,2.4-12.2,34.4-17.5,40.3
					c-5.3,5.9-12.3-0.7-17.5-0.7c-5.3,0-12.3-2.4-17.5,0.7c-5.3,3.1-12.3,21.2-17.5,20.2s-12.3-28.7-17.6-26.8s-12.2,30-17.5,39
					s-12.3,17.1-17.5,20.8c-5.3,3.7-12.3-0.1-17.5,4.1c-5.3,4.1-12.3,14.1-17.5,23.5s-12.2,33.2-17.5,39"/>
				<path class="st2" d="M185.7,265.2c-1.2-0.4-2.4-0.7-3.5-0.7c-5.3,0-12.3,0.7-17.6,0.7"/>
			</g>
			<g>
				<g class="st8">
					<path class="st15" d="M129.6,265.2c-2.3,0-8.2,0-17.6,0C121.4,265.2,127.2,265.2,129.6,265.2z"/>
					<path class="st15" d="M147.1,264.5c-5.3,0.1-12.3,0.6-17.6,0.7c5.3,0,12.3,0,17.6,0s12.3,0,17.6,0s12.3,0,17.6,0
						c-5.3-0.1-12.3-0.6-17.6-0.6C159.4,264.4,152.4,264.4,147.1,264.5z"/>
					<path class="st16" d="M410.2,111c-9.4-1-15.2-2.8-17.5-5.3c-5.3-5.8-12.3-36.5-17.6-33.5c-5.3,2.9-12.2,44.1-17.5,53.1
						s-12.3,4.8-17.5,6.7s-12.3,2.6-17.5,6.1c-5.3,3.4-12.3,15.2-17.5,16.8s-12.3-14.1-17.5-6c-5.3,8.1-12.2,47.5-17.5,59.8
						c-5.2,12.3-12.3,20-17.5,22.2c-5.3,2.2-12.3-8.8-17.6-7.4c-5.3,1.4-12.3,10.6-17.5,16.8s-12.5,21-17.7,24.8
						c5.3,0,12.3,0,17.6,0s12.3,0,17.6,0s12.3,0,17.6,0s12.3,0,17.5,0c5.3,0,12.3,0,17.5,0c5.3,0,12.3,0,17.5,0c5.3,0,12.3,0,17.5,0
						c5.3,0,12.3,0,17.5,0c5.3,0,12.3,0,17.5,0c5.3,0,12.3,0,17.5,0c5.3,0,12.3,0,17.5,0c2.3,0,8.2,0,17.5,0L410.2,111L410.2,111z"
						/>
				</g>
				<g>
					<path class="st17" d="M112,265.2c9.4,0,15.2,0,17.5,0"/>
					<path class="st17" d="M182.2,265.1c-5.3-0.1-12.3-0.6-17.6-0.7c-5.3-0.1-12.3-0.1-17.6,0s-12.3,0.6-17.6,0.7"/>
					<path class="st17" d="M410.2,111c-9.4-1-15.2-2.8-17.5-5.3c-5.3-5.8-12.3-36.5-17.6-33.5c-5.3,2.9-12.2,44.1-17.5,53.1
						s-12.3,4.8-17.5,6.7s-12.3,2.6-17.5,6.1c-5.3,3.4-12.3,15.2-17.5,16.8s-12.3-14.1-17.5-6c-5.3,8.1-12.2,47.5-17.5,59.8
						c-5.2,12.3-12.3,20-17.5,22.2c-5.3,2.2-12.3-8.8-17.6-7.4c-5.3,1.4-12.3,10.6-17.5,16.8s-12.5,21-17.7,24.8"/>
				</g>
			</g>
		</g>
		<g class="st0">
			<g>
				<path class="st1" d="M542.5,237.8c9.3-6.1,15.2-10.4,17.5-12.8c5.3-5.4,12.3-20.1,17.5-23.5c5.3-3.4,12.3,1.8,17.5,0.6
					s12.3-8.1,17.5-8.1s12.3,8.3,17.6,8s12.3-8.3,17.5-10.1c5.3-1.8,12.3-3,17.5-2c5.3,1,12.3,12,17.6,8.7s12.2-29.8,17.5-30.9
					c5.3-1.1,12.3,21.7,17.6,23.5s12.3-12.5,17.5-11.4c5.3,1.1,12.3,17,17.6,18.8s12.3-6.5,17.5-6.7s12.3,6.7,17.5,5.4
					c5.3-1.3,12.3-12.5,17.5-14.1s12.3,1.3,17.5,3.3c2.3,0.9,8.2,4.2,17.6,10.1l0.1,68.5c-9.4,0-15.2,0-17.5,0c-5.3,0-12.3,0-17.5,0
					c-5.3,0-12.3,0-17.5,0c-5.3,0-12.3,0-17.5,0s-12.3,0-17.5,0s-12.3,0-17.5,0s-12.3,0-17.5,0s-12.3,0-17.5,0c-5.3,0-12.3,0-17.5,0
					s-12.3,0-17.5,0c-5.3,0-12.3,0-17.5,0s-12.3,0-17.5,0c-5.3,0-12.3,0-17.5,0c-5.3,0-12.3,0-17.5,0s-12.3,0-17.5,0
					c-5.3,0-12.3,0-17.5,0c-2.3,0-8.2,0-17.5,0L542.5,237.8L542.5,237.8z"/>
				<path class="st2" d="M542.5,237.8c9.3-6.1,15.2-10.4,17.5-12.8c5.3-5.4,12.3-20.1,17.5-23.5c5.3-3.4,12.3,1.8,17.5,0.6
					s12.3-8.1,17.5-8.1s12.3,8.3,17.6,8s12.3-8.3,17.5-10.1c5.3-1.8,12.3-3,17.5-2c5.3,1,12.3,12,17.6,8.7s12.2-29.8,17.5-30.9
					c5.3-1.1,12.3,21.7,17.6,23.5s12.3-12.5,17.5-11.4c5.3,1.1,12.3,17,17.6,18.8s12.3-6.5,17.5-6.7s12.3,6.7,17.5,5.4
					c5.3-1.3,12.3-12.5,17.5-14.1s12.3,1.3,17.5,3.3c2.3,0.9,8.2,4.2,17.6,10.1"/>
			</g>
			<g>
				<g class="st8">
					<path class="st6" d="M542.6,257.9c9.3-7,15.2-11.3,17.5-12.8c5.3-3.3,12.3-7.4,17.5-9.4c5.3-2,12.3-3.4,17.5-4.1s12.3-1,17.5,0
						c5.3,1,12.3,6.3,17.6,6.7s12.3-3.1,17.5-4.1s12.3-1.8,17.5-2c5.3-0.2,12.3,2.6,17.5,0.6c5.3-1.9,12.3-12.4,17.5-13.4
						s12.3,9.4,17.6,6.7s12.3-22.6,17.5-24.9c5.3-2.2,12.3,8.6,17.6,10.1c5.3,1.4,12.3,0.5,17.5-0.7c5.3-1.2,12.3-5.6,17.5-7.4
						c5.3-1.8,12.3-5.6,17.5-4.7c5.3,0.9,12.3,10.4,17.6,10.7c2.3,0.1,8.2-2.8,17.5-8.8l0.1,64.5c-9.4,0-15.2,0-17.5,0
						c-5.3,0-12.3,0-17.5,0c-5.3,0-12.3,0-17.5,0s-12.3,0-17.5,0c-5.3,0-12.3,0-17.5,0c-5.3,0-12.3,0-17.5,0s-12.3,0-17.5,0
						s-12.3,0-17.5,0c-5.3,0-12.3,0-17.5,0s-12.3,0-17.5,0c-5.3,0-12.3,0-17.5,0s-12.3,0-17.5,0c-5.3,0-12.3,0-17.5,0
						c-5.3,0-12.3,0-17.5,0s-12.3,0-17.5,0c-5.3,0-12.3,0-17.5,0c-2.3,0-8.2,0-17.5,0L542.6,257.9L542.6,257.9z"/>
				</g>
				<path class="st7" d="M542.6,257.9c9.3-7,15.2-11.3,17.5-12.8c5.3-3.3,12.3-7.4,17.5-9.4c5.3-2,12.3-3.4,17.5-4.1s12.3-1,17.5,0
					c5.3,1,12.3,6.3,17.6,6.7s12.3-3.1,17.5-4.1s12.3-1.8,17.5-2c5.3-0.2,12.3,2.6,17.5,0.6c5.3-1.9,12.3-12.4,17.5-13.4
					s12.3,9.4,17.6,6.7s12.3-22.6,17.5-24.9c5.3-2.2,12.3,8.6,17.6,10.1c5.3,1.4,12.3,0.5,17.5-0.7c5.3-1.2,12.3-5.6,17.5-7.4
					c5.3-1.8,12.3-5.6,17.5-4.7c5.3,0.9,12.3,10.4,17.6,10.7c2.3,0.1,8.2-2.8,17.5-8.8"/>
			</g>
		</g>
		<g class="st0">
			<g>
				<path class="st1" d="M542.5,294.4c9.4,11.5,15.2,18,17.6,19.5c5.3,3.3,12.3,4.4,17.5,2.7s12.3-13.1,17.5-14.1s12.3,6.8,17.6,7.4
					s12.3-2.6,17.5-3.4c5.3-0.8,12.3-2.1,17.5-2c5.3,0.1,12.3,4.7,17.5,2.7s12.3-15.7,17.5-16.1s12.3,10.1,17.6,13.4
					s12.3,7.5,17.6,8.7s12.3,0.3,17.5-0.7s12.3-5.2,17.5-6.1c5.3-0.8,12.3,1.9,17.5,0.6s12.3-6.6,17.5-8.8c5.3-2.1,12.3-6,17.5-5.4
					c5.3,0.6,12.3,9.2,17.6,9.4c2.3,0.1,8.2-2.6,17.5-8.1v28.2c-9.4,0-15.2,0-17.5,0c-5.3,0-12.3,0-17.5,0c-5.3,0-12.3,0-17.5,0
					c-5.3,0-12.3,0-17.5,0s-12.3,0-17.5,0s-12.3,0-17.5,0s-12.3,0-17.5,0s-12.3,0-17.5,0c-5.3,0-12.3,0-17.5,0c-5.3,0-12.3,0-17.5,0
					s-12.3,0-17.5,0c-5.3,0-12.3,0-17.5,0c-5.3,0-12.3,0-17.5,0s-12.3,0-17.5,0c-5.3,0-12.3,0-17.5,0s-12.3,0-17.5,0
					c-2.3,0-8.2,0-17.5,0L542.5,294.4L542.5,294.4z"/>
				<path class="st2" d="M542.5,294.4c9.4,11.5,15.2,18,17.6,19.5c5.3,3.3,12.3,4.4,17.5,2.7s12.3-13.1,17.5-14.1s12.3,6.8,17.6,7.4
					s12.3-2.6,17.5-3.4c5.3-0.8,12.3-2.1,17.5-2c5.3,0.1,12.3,4.7,17.5,2.7s12.3-15.7,17.5-16.1s12.3,10.1,17.6,13.4
					s12.3,7.5,17.6,8.7s12.3,0.3,17.5-0.7s12.3-5.2,17.5-6.1c5.3-0.8,12.3,1.9,17.5,0.6s12.3-6.6,17.5-8.8c5.3-2.1,12.3-6,17.5-5.4
					c5.3,0.6,12.3,9.2,17.6,9.4c2.3,0.1,8.2-2.6,17.5-8.1"/>
			</g>
			<g>
				<g class="st8">
					<path class="st6" d="M542.6,318.6c9.4,1.6,15.2,2.5,17.5,2.7c5.3,0.3,12.3-0.8,17.5-0.7c5.3,0.1,12.3,1.2,17.5,1.3
						s12.3-0.7,17.5-0.7c5.3,0,12.3,0.5,17.5,0.6c5.3,0.2,12.3,0.9,17.5,0.6s12.3-0.6,17.5-2c5.3-1.4,12.3-6.7,17.5-7.4
						c5.3-0.7,12.3,2.2,17.5,2.7c5.3,0.5,12.3,0.5,17.5,0.6s12.3,1,17.5,0.6c5.3-0.3,12.3-1.9,17.5-2.7c5.3-0.8,12.3-2,17.5-2.7
						s12.3-1.4,17.5-2c5.3-0.6,12.3-1.1,17.5-2s12.3-3.1,17.5-4c2.3-0.4,8.2-1.1,17.5-2v20.8c-9.4,0-15.2,0-17.5,0
						c-5.3,0-12.3,0-17.5,0c-5.3,0-12.3,0-17.5,0c-5.3,0-12.3,0-17.5,0c-5.3,0-12.3,0-17.5,0c-5.3,0-12.3,0-17.5,0s-12.3,0-17.5,0
						s-12.3,0-17.5,0s-12.3,0-17.5,0c-5.3,0-12.3,0-17.5,0c-5.3,0-12.3,0-17.5,0c-5.3,0-12.3,0-17.5,0c-5.3,0-12.3,0-17.5,0
						s-12.3,0-17.5,0c-5.3,0-12.3,0-17.5,0c-5.3,0-12.3,0-17.5,0c-2.3,0-8.2,0-17.5,0V318.6L542.6,318.6z"/>
				</g>
				<path class="st7" d="M542.6,318.6c9.4,1.6,15.2,2.5,17.5,2.7c5.3,0.3,12.3-0.8,17.5-0.7c5.3,0.1,12.3,1.2,17.5,1.3
					s12.3-0.7,17.5-0.7c5.3,0,12.3,0.5,17.5,0.6c5.3,0.2,12.3,0.9,17.5,0.6s12.3-0.6,17.5-2c5.3-1.4,12.3-6.7,17.5-7.4
					c5.3-0.7,12.3,2.2,17.5,2.7c5.3,0.5,12.3,0.5,17.5,0.6s12.3,1,17.5,0.6c5.3-0.3,12.3-1.9,17.5-2.7c5.3-0.8,12.3-2,17.5-2.7
					s12.3-1.4,17.5-2c5.3-0.6,12.3-1.1,17.5-2s12.3-3.1,17.5-4c2.3-0.4,8.2-1.1,17.5-2"/>
			</g>
		</g>
		<g>
			<path class="st1" d="M112,379.9c9.4,0.2,15.2,0.2,17.5,0c5.3-0.4,12.3-1.7,17.6-2.7s12.3-1.6,17.5-4s12.3-9.8,17.5-12.1
				s12.3-4.9,17.5-3.4c5.3,1.5,12.3,12.8,17.6,13.4s12.3-9.8,17.5-9.4c5.3,0.4,12.3,11.3,17.6,12.1c5.3,0.8,12.3-6.2,17.5-6.7
				s12.3,3,17.5,3.3c5.3,0.3,12.3,3.2,17.5-1.4s12.2-27.8,17.5-28.9s12.3,18.6,17.6,21.5c5.3,2.8,12.3-3.4,17.5-2.7
				s12.3,6.4,17.6,7.4s12.3,0.8,17.5-0.7c2.3-0.7,8.2-3.8,17.5-9.4v23.5c-9.4,0-15.2,0-17.5,0c-5.3,0-12.3,0-17.5,0
				c-5.3,0-12.3,0-17.5,0c-5.3,0-12.3,0-17.5,0c-5.3,0-12.3,0-17.5,0c-5.3,0-12.3,0-17.5,0s-12.3,0-17.5,0s-12.3,0-17.5,0
				s-12.3,0-17.6,0s-12.3,0-17.6,0s-12.3,0-17.6,0s-12.3,0-17.6,0s-12.3,0-17.6,0s-12.3,0-17.6,0s-12.3,0-17.6,0s-12.3,0-17.6,0
				C127.2,379.8,121.4,379.8,112,379.9L112,379.9z"/>
			<path class="st2" d="M129.6,379.9c-2.3,0-8.2,0-17.6,0C121.4,380.1,127.2,380,129.6,379.9c5.3-0.4,12.3-1.7,17.6-2.7
				s12.3-1.6,17.5-4s12.3-9.8,17.5-12.1s12.3-4.9,17.5-3.4c5.3,1.5,12.3,12.8,17.6,13.4s12.3-9.8,17.5-9.4
				c5.3,0.4,12.3,11.3,17.6,12.1c5.3,0.8,12.3-6.2,17.5-6.7s12.3,3,17.5,3.3c5.3,0.3,12.3,3.2,17.5-1.4s12.2-27.8,17.5-28.9
				s12.3,18.6,17.6,21.5c5.3,2.8,12.3-3.4,17.5-2.7s12.3,6.4,17.6,7.4s12.3,0.8,17.5-0.7c2.3-0.7,8.2-3.8,17.5-9.4"/>
		</g>
		<g>
			<g class="st8">
				<path class="st16" d="M112,379.9c9.4,0,15.2,0,17.5,0c5.3,0,12.3,0.2,17.6,0s12.3-0.8,17.6-1.4s12.3-2.4,17.6-2.7
					c5.3-0.3,12.3,0,17.6,0.6s12.3,4.4,17.6,3.3s12.3-10,17.5-10.1c5.3-0.1,12.3,8.6,17.6,9.4c5.3,0.8,12.3-3.7,17.5-4
					s12.3,2.3,17.5,2c5.3-0.3,12.3-1.1,17.5-4s12.3-14.6,17.5-15.5s12.3,9.1,17.6,10s12.3-2.7,17.5-4c5.3-1.3,12.3-4.6,17.5-4.7
					c5.3-0.1,12.3,5.3,17.5,4c2.3-0.6,8.2-4.8,17.5-12.8v29.5c-9.4,0-15.2,0-17.5,0c-5.3,0-12.3,0-17.5,0c-5.3,0-12.3,0-17.5,0
					s-12.3,0-17.5,0s-12.3,0-17.5,0c-5.3,0-12.3,0-17.5,0s-12.3,0-17.5,0s-12.3,0-17.5,0c-5.3,0-12.3,0-17.6,0s-12.3,0-17.6,0
					s-12.3,0-17.6,0s-12.3,0-17.6,0s-12.3,0-17.6,0s-12.3,0-17.6,0s-12.3,0-17.6,0s-12.3,0-17.6,0
					C127.2,379.9,121.4,379.9,112,379.9L112,379.9z"/>
			</g>
			<path class="st17" d="M147.1,379.9c-5.3,0-12.3,0-17.6,0c-2.3,0-8.2,0-17.6,0c9.4,0,15.2,0,17.6,0
				C134.8,379.9,141.8,380.1,147.1,379.9s12.3-0.8,17.6-1.4s12.3-2.4,17.6-2.7c5.3-0.3,12.3,0,17.6,0.6s12.3,4.4,17.6,3.3
				s12.3-10,17.5-10.1c5.3-0.1,12.3,8.6,17.6,9.4c5.3,0.8,12.3-3.7,17.5-4s12.3,2.3,17.5,2c5.3-0.3,12.3-1.1,17.5-4
				s12.3-14.6,17.5-15.5s12.3,9.1,17.6,10s12.3-2.7,17.5-4c5.3-1.3,12.3-4.6,17.5-4.7c5.3-0.1,12.3,5.3,17.5,4
				c2.3-0.6,8.2-4.8,17.5-12.8"/>
		</g>
		<g class="st0">
			<g>
				<g>
					<path class="st1" d="M560.1,379.9c-0.3,0-0.8,0-1.2,0C559.4,380,559.8,380,560.1,379.9z"/>
					<path class="st1" d="M542.6,380c8,0,13.5,0,16.3,0c-2.9-0.5-8.3-4.1-16.3-10.7V380L542.6,380z"/>
					<path class="st1" d="M840.9,349.4c-9.4,1.8-15.2,2.7-17.5,2.7c-5.3,0-12.3-2.2-17.5-2.7c-5.3-0.5-12.3-1.8-17.5-0.6
						c-5.3,1.1-12.3,6.9-17.5,8.1c-5.3,1.2-12.3-0.8-17.5,0c-5.3,0.8-12.3,3.8-17.5,5.4c-5.3,1.6-12.3,5-17.5,5.4
						c-5.3,0.4-12.3-3.3-17.5-2.7c-5.3,0.6-12.3,4.5-17.5,6.7c-3.1,1.3-6.8,5.8-10.4,8.1c3.6,0,7.3,0,10.4,0c5.3,0,12.3,0,17.5,0
						c5.3,0,12.3,0,17.5,0c5.3,0,12.3,0,17.5,0c5.3,0,12.3,0,17.5,0c5.3,0,12.3,0,17.5,0c5.3,0,12.3,0,17.5,0s12.3,0,17.5,0
						c5.3,0,12.3,0,17.5,0c2.3,0,8.2,0,17.5,0V349.4L840.9,349.4z"/>
					<path class="st1" d="M577.7,359.8c-5.3,0-12.3,18.8-17.5,20.2c5.3,0,12.3,0,17.5,0c5.3,0,12.3,0,17.5,0
						C590,379.9,582.9,359.8,577.7,359.8L577.7,359.8z"/>
					<path class="st1" d="M647.8,336.2c-5.3-2.2-12.3,25.4-17.5,28.9c-5.3,3.5-12.3-7.6-17.5-5.4s-12.3,20.2-17.5,20.2
						c5.3,0,12.3,0,17.5,0c5.3,0,12.3,0,17.5,0c5.3,0,12.3,0,17.5,0c5.3,0,12.3,0,17.5,0C660.1,374.5,653.1,338.4,647.8,336.2
						L647.8,336.2z"/>
				</g>
				<g>
					<path class="st2" d="M560.1,379.9c-0.3,0-0.8,0-1.2,0C559.4,380,559.8,380,560.1,379.9z"/>
					<path class="st2" d="M558.9,379.9c-2.9-0.5-8.3-4.1-16.3-10.7"/>
					<path class="st2" d="M840.9,349.4c-9.4,1.8-15.2,2.7-17.5,2.7c-5.3,0-12.3-2.2-17.5-2.7c-5.3-0.5-12.3-1.8-17.5-0.6
						c-5.3,1.1-12.3,6.9-17.5,8.1c-5.3,1.2-12.3-0.8-17.5,0c-5.3,0.8-12.3,3.8-17.5,5.4c-5.3,1.6-12.3,5-17.5,5.4
						c-5.3,0.4-12.3-3.3-17.5-2.7c-5.3,0.6-12.3,4.5-17.5,6.7c-3.1,1.3-6.8,5.8-10.4,8.1"/>
					<path class="st2" d="M595.2,379.9c-5.3,0-12.3-20.1-17.6-20.1s-12.3,18.8-17.5,20.2"/>
					<path class="st2" d="M665.4,379.8c-5.3-5.3-12.3-41.4-17.6-43.6s-12.3,25.4-17.5,28.9c-5.3,3.5-12.3-7.6-17.5-5.4
						s-12.3,20.2-17.5,20.2"/>
				</g>
			</g>
			<g>
				<g class="st8">
					<path class="st6" d="M542.6,380c9.4,0,15.2,0,17.5,0c5.3,0,12.3,0,17.5,0s12.3,0.1,17.5,0c5.3-0.1,12.3-0.7,17.5-0.7
						s12.3,0.9,17.5,0.6c5.3-0.2,12.3-2,17.5-2s12.3,1.7,17.5,2c5.3,0.3,12.3,0,17.5,0s12.3,0,17.5,0c5.3,0,12.3,0.1,17.5,0
						c5.3-0.1,12.3-0.7,17.5-0.7c5.3,0,12.3,0.8,17.5,0.6s12.3-1.1,17.5-1.4c5.3-0.3,12.3,0.5,17.5-0.7c5.3-1.2,12.3-6.1,17.5-7.4
						c5.3-1.3,12.3-1,17.5-1.4c2.3-0.2,8.2-0.6,17.5-1.4v12.1c-9.3,0-15.2,0-17.5,0c-5.3,0-12.3,0-17.5,0c-5.3,0-12.3,0-17.5,0
						s-12.3,0-17.5,0c-5.3,0-12.3,0-17.5,0s-12.3,0-17.5,0s-12.3,0-17.5,0s-12.3,0-17.5,0c-5.3,0-12.3,0-17.5,0s-12.3,0-17.5,0
						s-12.3,0-17.5,0s-12.3,0-17.5,0c-5.3,0-12.3,0-17.5,0c-5.3,0-12.3,0-17.5,0c-5.3,0-12.3,0-17.5,0c-5.3,0-12.3,0-17.5,0
						C557.8,380,551.9,380,542.6,380L542.6,380z"/>
				</g>
				<path class="st7" d="M595.2,379.9c-5.3,0-12.3,0-17.5,0c-5.3,0-12.3,0-17.5,0c-2.3,0-8.2,0-17.5,0c9.4,0,15.2,0,17.5,0
					c5.3,0,12.3,0,17.5,0S590,380.1,595.2,379.9c5.3-0.1,12.3-0.7,17.5-0.7s12.3,0.9,17.5,0.6c5.3-0.2,12.3-2,17.5-2
					s12.3,1.7,17.5,2c5.3,0.3,12.3,0,17.5,0s12.3,0,17.5,0c5.3,0,12.3,0.1,17.5,0c5.3-0.1,12.3-0.7,17.5-0.7
					c5.3,0,12.3,0.8,17.5,0.6s12.3-1.1,17.5-1.4c5.3-0.3,12.3,0.5,17.5-0.7c5.3-1.2,12.3-6.1,17.5-7.4c5.3-1.3,12.3-1,17.5-1.4
					c2.3-0.2,8.2-0.6,17.5-1.4"/>
			</g>
		</g>
		<g>
			<g>
				<path class="st1" d="M410.3,487.6c-9.4-0.6-15.2-1-17.5-1.2c-5.3-0.5-12.3-1.9-17.5-1.8c-5.3,0.1-12.3,2.2-17.5,2.5
					c-5.3,0.3-12.3,0-17.5-0.6c-5.3-0.6-12.3-4.9-17.5-3.7c-4.2,1-9.5,9.8-14.2,11.8c4.7,0,10,0,14.2,0c5.3,0,12.3,0,17.5,0
					c5.3,0,12.3,0,17.5,0c5.3,0,12.3,0,17.5,0c5.3,0,12.3,0,17.5,0c2.3,0,8.2,0,17.5,0V487.6L410.3,487.6z"/>
				<path class="st1" d="M252.4,474.2c-5.3-2.9-12.3,1.4-17.6,1.3s-12.3-4.7-17.6-1.8c-5.3,2.9-12.3,17.9-17.5,21.1
					c5.3,0,12.3,0,17.6,0s12.3,0,17.6,0s12.3,0,17.6,0c4.9,0,11.2,0,16.3,0C263.6,493.3,257.2,476.8,252.4,474.2L252.4,474.2z"/>
				<path class="st1" d="M287.5,463.6c-5.3,0-12.2,29.4-17.5,31c5.3,0,12.3,0,17.5,0s12.3,0,17.5,0
					C299.8,491.7,292.7,463.6,287.5,463.6L287.5,463.6z"/>
			</g>
			<g>
				<path class="st2" d="M410.3,487.6c0,0-15.2-1-17.5-1.2c-5.3-0.5-12.3-1.9-17.5-1.8c-5.3,0.1-12.3,2.2-17.5,2.5
					c-5.3,0.3-12.3,0-17.5-0.6c-5.3-0.6-12.3-4.9-17.5-3.7c-4.2,1-9.5,9.8-14.2,11.8"/>
				<path class="st2" d="M268.7,494.6c-5.1-1.3-11.5-17.8-16.3-20.5c-5.3-2.9-12.3,1.4-17.6,1.3s-12.3-4.7-17.6-1.8
					c-5.3,2.9-12.3,17.9-17.5,21.1"/>
				<path class="st2" d="M305,494.6c-5.3-2.9-12.3-31-17.6-31c-5.3,0-12.2,29.4-17.5,31"/>
			</g>
		</g>
		<g>
			<g class="st8">
				<path class="st16" d="M234.9,488.4c-5.3,0.8-12.3,1.6-17.6,2.5s-12.3,3.2-17.5,3.7c5.3,0,12.3,0,17.6,0s12.3,0,17.6,0
					s12.3,0,17.6,0c4.5,0,10.3,0,15.2,0c-4.9-1.1-10.7-8.5-15.2-9.3C247.1,484.4,240.1,487.6,234.9,488.4L234.9,488.4z"/>
				<path class="st16" d="M410.3,475.8c-9.4,2.5-15.2,3.9-17.5,4.4c-5.3,1-12.3,1.9-17.5,2.5c-5.3,0.6-12.3,1.2-17.5,1.3
					c-5.3,0.1-12.3-0.9-17.5-0.6c-5.3,0.3-12.3,0.8-17.5,2.5c-4.4,1.4-9.9,7.5-14.7,8.7c4.8,0,10.4,0,14.7,0c5.3,0,12.3,0,17.5,0
					c5.3,0,12.3,0,17.5,0c5.3,0,12.3,0,17.5,0c5.3,0,12.3,0,17.5,0c2.3,0,8.2,0,17.5,0V475.8L410.3,475.8z"/>
				<path class="st16" d="M287.5,475.4c-5.3,0-12.3,17.8-17.5,19.2c5.3,0,12.3,0,17.5,0c5.3,0,12.3,0,17.5,0
					C299.8,493,292.7,475.4,287.5,475.4L287.5,475.4z"/>
			</g>
			<g>
				<path class="st17" d="M267.6,494.6c-4.9-1.1-10.7-8.5-15.2-9.3c-5.3-0.9-12.3,2.3-17.5,3.1c-5.3,0.8-12.3,1.6-17.6,2.5
					s-12.3,3.2-17.5,3.7"/>
				<path class="st17" d="M410.3,475.8c-9.4,2.5-15.2,3.9-17.5,4.4c-5.3,1-12.3,1.9-17.5,2.5c-5.3,0.6-12.3,1.2-17.5,1.3
					c-5.3,0.1-12.3-0.9-17.5-0.6c-5.3,0.3-12.3,0.8-17.5,2.5c-4.4,1.4-9.9,7.5-14.7,8.7"/>
				<path class="st17" d="M305,494.6c-5.3-1.6-12.3-19.2-17.6-19.2c-5.3,0-12.3,17.8-17.5,19.2"/>
			</g>
		</g>
		<g class="st0">
			<path class="st6" d="M234.9,609c5.3,0,12.3,0,17.6,0c5.3,0,12.3,0,17.5,0c-5.3-0.1-12.3-0.6-17.6-0.6
				C247.1,608.4,240.1,608.9,234.9,609L234.9,609z"/>
			<path class="st7" d="M270,609c-5.3-0.1-12.3-0.6-17.6-0.6c-5.3,0-12.3,0.5-17.6,0.6"/>
			<path class="st6" d="M410.3,608.2c-9.4,0-15.2,0-17.5,0c-5.3,0-12.3-0.1-17.5,0c-5.3,0.1-12.3,0.8-17.5,0.9c5.3,0,12.3,0,17.5,0
				c5.3,0,12.3,0,17.5,0c2.3,0,8.2,0,17.5,0V608.2z"/>
			<path class="st7" d="M410.3,608.2c-9.4,0-15.2,0-17.5,0c-5.3,0-12.3-0.1-17.5,0c-5.3,0.1-12.3,0.8-17.5,0.9"/>
		</g>
		<g class="st0">
			<g>
				<path class="st1" d="M542.6,602.7c9.4,1,15.2,1.7,17.5,2c5.3,0.7,12.3,2.3,17.5,2.7c5.3,0.4,12.3,0.4,17.5,0s12.3-2.5,17.5-2.7
					c5.3-0.2,12.3,0.7,17.5,1.3c5.3,0.6,12.3,2.6,17.5,2.7c5.3,0.1,12.3-1.9,17.5-2c5.3-0.1,12.3,1.4,17.5,1.3s12.3-1.7,17.5-2
					c5.3-0.3,12.3-0.2,17.5,0c5.3,0.2,12.3,1.6,17.5,1.3s12.3-2.7,17.5-3.4c5.3-0.7,12.3-0.5,17.5-1.4c5.3-0.8,12.3-4.3,17.5-4
					s12.3,5.7,17.5,6c5.3,0.3,12.3-3.6,17.5-4c2.3-0.2,8.2,0.3,17.5,1.3v7.4c-9.3,0-15.2,0-17.5,0c-5.3,0-12.3,0-17.5,0
					c-5.3,0-12.3,0-17.5,0s-12.3,0-17.5,0s-12.3,0-17.5,0s-12.3,0-17.5,0s-12.3,0-17.5,0s-12.3,0-17.5,0c-5.3,0-12.3,0-17.5,0
					c-5.3,0-12.3,0-17.5,0c-5.3,0-12.3,0-17.5,0c-5.3,0-12.3,0-17.5,0c-5.3,0-12.3,0-17.5,0s-12.3,0-17.5,0c-5.3,0-12.3,0-17.5,0
					s-12.3,0-17.5,0c-2.3,0-8.2,0-17.5,0V602.7L542.6,602.7z"/>
				<path class="st2" d="M542.6,602.7c9.4,1,15.2,1.7,17.5,2c5.3,0.7,12.3,2.3,17.5,2.7c5.3,0.4,12.3,0.4,17.5,0s12.3-2.5,17.5-2.7
					c5.3-0.2,12.3,0.7,17.5,1.3c5.3,0.6,12.3,2.6,17.5,2.7c5.3,0.1,12.3-1.9,17.5-2c5.3-0.1,12.3,1.4,17.5,1.3s12.3-1.7,17.5-2
					c5.3-0.3,12.3-0.2,17.5,0c5.3,0.2,12.3,1.6,17.5,1.3s12.3-2.7,17.5-3.4c5.3-0.7,12.3-0.5,17.5-1.4c5.3-0.8,12.3-4.3,17.5-4
					s12.3,5.7,17.5,6c5.3,0.3,12.3-3.6,17.5-4c2.3-0.2,8.2,0.3,17.5,1.3"/>
			</g>
			<g>
				<g class="st8">
					<path class="st6" d="M840.9,602.3c-9.4-0.9-15.2-1.3-17.5-1.3c-5.3,0-12.3,1.4-17.5,1.4c-5.3,0-12.3-1.7-17.5-1.3
						s-12.3,3.4-17.5,4c-5.3,0.6-12.3-0.2-17.5,0c-5.3,0.2-12.3,0.8-17.5,1.4c-5.3,0.6-12.3,2.3-17.5,2.7c5.3,0,12.3,0,17.5,0
						c5.3,0,12.3,0,17.5,0c5.3,0,12.3,0,17.5,0c5.3,0,12.3,0,17.5,0s12.3,0,17.5,0c5.3,0,12.3,0,17.5,0c2.3,0,8.2,0,17.5,0V602.3
						L840.9,602.3z"/>
					<path class="st6" d="M665.4,607.9c-5.3-0.8-12.3-4.3-17.5-4.7c-5.3-0.4-12.3,1.4-17.5,2c-5.3,0.6-12.3,1.4-17.5,2
						c-5.3,0.6-12.3,1.7-17.5,2c5.3,0,12.3,0,17.5,0c5.3,0,12.3,0,17.5,0c5.3,0,12.3,0,17.5,0c5.3,0,12.3,0,17.5,0
						c5.3,0,12.3,0,17.5,0c5.3,0,12.3,0,17.5,0c-5.3-0.1-12.3-0.5-17.5-0.7C677.7,608.4,670.7,608.7,665.4,607.9L665.4,607.9z"/>
					<path class="st6" d="M542.6,608.7v0.7c9.4,0,15.2,0,17.5,0c5.3,0,12.3,0,17.5,0c-5.3-0.2-12.3-1.2-17.5-1.3
						C557.8,608,551.9,608.2,542.6,608.7L542.6,608.7z"/>
				</g>
				<g>
					<path class="st7" d="M840.9,602.3c-9.4-0.9-15.2-1.3-17.5-1.3c-5.3,0-12.3,1.4-17.5,1.4c-5.3,0-12.3-1.7-17.5-1.3
						s-12.3,3.4-17.5,4c-5.3,0.6-12.3-0.2-17.5,0c-5.3,0.2-12.3,0.8-17.5,1.4c-5.3,0.6-12.3,2.3-17.5,2.7"/>
					<path class="st7" d="M700.5,609.2c-5.3-0.1-12.3-0.5-17.5-0.7c-5.3-0.2-12.3,0.2-17.5-0.7s-12.3-4.3-17.5-4.7
						c-5.3-0.4-12.3,1.4-17.5,2c-5.3,0.6-12.3,1.4-17.5,2c-5.3,0.6-12.3,1.7-17.5,2"/>
					<path class="st7" d="M577.7,609.3c-5.3-0.2-12.3-1.2-17.5-1.3c-2.3,0-8.2,0.2-17.5,0.7"/>
				</g>
			</g>
		</g>
		<g class="st0">
			<g>
				<path class="st1" d="M410.3,653c-9.4,2.1-15.2,3.2-17.5,3.4c-5.3,0.3-12.3-1.7-17.5-1.3c-5.3,0.4-12.3,3.2-17.5,4
					s-12.3,1-17.5,1.4c-5.3,0.4-12.3,0.7-17.5,1.4c-5.3,0.7-12.3,2.7-17.5,3.4c-5.3,0.7-12.3,1.2-17.5,1.4c5.3,0,12.3,0,17.5,0
					c5.3,0,12.3,0,17.5,0c5.3,0,12.3,0,17.5,0s12.3,0,17.5,0c5.3,0,12.3,0,17.5,0c5.3,0,12.3,0,17.5,0c2.3,0,8.2,0,17.5,0V653
					L410.3,653z"/>
				<path class="st1" d="M234.9,666.7c5.3,0,12.3,0,17.6,0c5.3,0,12.3,0,17.5,0c-5.3-0.1-12.3-0.7-17.6-0.7S240.1,666.6,234.9,666.7
					L234.9,666.7z"/>
				<path class="st1" d="M182.2,665.4c-5.3,0.1-12.3,1.1-17.6,0.7c-5.3-0.4-12.3-3.4-17.6-3.3c-5.3,0.1-12.3,3.4-17.5,4
					c5.3,0,12.3,0,17.6,0s12.3,0,17.6,0s12.3,0,17.6,0s12.3,0,17.6,0s12.3,0,17.6,0c-5.3-0.2-12.3-1.1-17.6-1.3
					C194.5,665.2,187.5,665.3,182.2,665.4L182.2,665.4z"/>
			</g>
			<g>
				<path class="st2" d="M410.3,653c-9.4,2.1-15.2,3.2-17.5,3.4c-5.3,0.3-12.3-1.7-17.5-1.3c-5.3,0.4-12.3,3.2-17.5,4
					s-12.3,1-17.5,1.4c-5.3,0.4-12.3,0.7-17.5,1.4c-5.3,0.7-12.3,2.7-17.5,3.4c-5.3,0.7-12.3,1.2-17.5,1.4"/>
				<path class="st2" d="M270,666.6c-5.3-0.1-12.3-0.7-17.6-0.7s-12.3,0.6-17.6,0.7"/>
				<path class="st2" d="M217.3,666.7c-5.3-0.2-12.3-1.1-17.6-1.3s-12.3-0.1-17.6,0s-12.3,1.1-17.6,0.7c-5.3-0.4-12.3-3.4-17.6-3.3
					c-5.3,0.1-12.3,3.4-17.5,4"/>
			</g>
		</g>
		<g class="st0">
			<g>
				<g>
					<path class="st1" d="M840.9,723c-9.4-0.3-15.2-0.5-17.5-0.7c-5.3-0.4-12.3-1.6-17.5-2c-5.3-0.4-12.3-0.6-17.5-0.7
						c-5.3-0.1-12.3-0.3-17.5,0c-5.3,0.3-12.3,1.4-17.5,2c-5.3,0.6-12.3,1.7-17.5,2c5.3,0,12.3,0,17.5,0c5.3,0,12.3,0,17.5,0
						c5.3,0,12.3,0,17.5,0c5.3,0,12.3,0,17.5,0c5.3,0,12.3,0,17.5,0c2.3,0,8.2,0,17.5,0V723L840.9,723z"/>
					<path class="st1" d="M647.9,721.2c-5.3-0.6-12.3-5.3-17.5-5.3c-5.3-0.1-12.3,4.1-17.5,4.7c-5.3,0.6-12.3-0.8-17.5-0.7
						c-5.3,0.1-12.3,1.2-17.5,1.4c-5.3,0.2-12.3-0.1-17.5,0c-2.3,0-8.2,0.3-17.5,0.7v2c9.4,0,15.2,0,17.5,0c5.3,0,12.3,0,17.5,0
						c5.3,0,12.3,0,17.5,0c5.3,0,12.3,0,17.5,0c5.3,0,12.3,0,17.5,0c5.3,0,12.3,0,17.5,0c5.3,0,12.3,0,17.5,0c5.3,0,12.3,0,17.5,0
						c-5.3-0.6-12.3-3.6-17.5-4C660.1,719.4,653.1,721.8,647.9,721.2L647.9,721.2z"/>
				</g>
				<g>
					<path class="st2" d="M840.9,723c-9.4-0.3-15.2-0.5-17.5-0.7c-5.3-0.4-12.3-1.6-17.5-2c-5.3-0.4-12.3-0.6-17.5-0.7
						c-5.3-0.1-12.3-0.3-17.5,0c-5.3,0.3-12.3,1.4-17.5,2c-5.3,0.6-12.3,1.7-17.5,2"/>
					<path class="st2" d="M683,723.8c-5.3-0.6-12.3-3.6-17.5-4c-5.3-0.4-12.3,2-17.5,1.4c-5.3-0.6-12.3-5.3-17.5-5.3
						c-5.3-0.1-12.3,4.1-17.5,4.7c-5.3,0.6-12.3-0.8-17.5-0.7c-5.3,0.1-12.3,1.2-17.5,1.4c-5.3,0.2-12.3-0.1-17.5,0
						c-2.3,0-8.2,0.3-17.5,0.7"/>
				</g>
			</g>
			<g>
				<g class="st8">
					<path class="st6" d="M840.9,723c-9.4-0.3-15.2-0.6-17.5-0.7c-5.3-0.2-12.3-0.3-17.5-0.7c-5.3-0.3-12.3-1-17.5-1.3
						c-5.3-0.3-12.3-0.3-17.5-0.7c-5.3-0.3-12.3-1.7-17.5-1.3s-12.3,3.4-17.5,4c-5.3,0.6-12.3-0.2-17.5,0
						c-5.3,0.2-12.3,1.2-17.5,1.4c5.3,0,12.3,0,17.5,0c5.3,0,12.3,0,17.5,0c5.3,0,12.3,0,17.5,0c5.3,0,12.3,0,17.5,0
						c5.3,0,12.3,0,17.5,0c5.3,0,12.3,0,17.5,0c5.3,0,12.3,0,17.5,0c2.3,0,8.2,0,17.5,0V723L840.9,723z"/>
					<path class="st6" d="M630.3,723.9c5.3,0,12.3,0,17.5,0c5.3,0,12.3,0,17.5,0c-5.3-0.1-12.3-0.7-17.5-0.7
						C642.6,723.2,635.6,723.8,630.3,723.9L630.3,723.9z"/>
					<path class="st6" d="M577.7,724c-5.3,0-12.3,0-17.5,0C565.4,724,572.4,724.1,577.7,724z"/>
					<path class="st6" d="M577.7,724c5.3,0,12.3,0,17.5,0c5.3,0,12.3,0,17.5,0c-5.3-0.1-12.3-0.7-17.5-0.7S582.9,723.9,577.7,724
						L577.7,724z"/>
				</g>
				<g>
					<path class="st7" d="M840.9,723c-9.4-0.3-15.2-0.6-17.5-0.7c-5.3-0.2-12.3-0.3-17.5-0.7c-5.3-0.3-12.3-1-17.5-1.3
						c-5.3-0.3-12.3-0.3-17.5-0.7c-5.3-0.3-12.3-1.7-17.5-1.3s-12.3,3.4-17.5,4c-5.3,0.6-12.3-0.2-17.5,0
						c-5.3,0.2-12.3,1.2-17.5,1.4"/>
					<path class="st7" d="M665.4,723.9c-5.3-0.1-12.3-0.7-17.5-0.7c-5.3,0-12.3,0.6-17.5,0.7"/>
					<path class="st7" d="M612.8,723.9c-5.3-0.1-12.3-0.7-17.5-0.7c-5.3,0-12.3,0.6-17.5,0.7"/>
				</g>
			</g>
		</g>
		<g>
			<path class="st9" d="M112,322.1c9.3-7.5,15.2-11.8,17.5-12.8c5.3-2.3,12.3-2.7,17.6-2.7s12.3,4.5,17.6,2.7s12.3-12.2,17.5-14.8
				c5.3-2.6,12.3-2.2,17.6-2.7s12.3,0.2,17.6-0.7c5.3-0.9,12.3-4,17.5-5.4c5.3-1.4,12.3,5.6,17.5-4c5.2-9.7,12.2-54.1,17.5-60.5
				s12.3,15.3,17.6,18.1c5.3,2.8,12.3-1.1,17.5,0.6c5.3,1.7,12.3,14.7,17.6,10.7c5.3-3.9,12.2-35.6,17.5-36.9
				c5.3-1.3,12.3,25.6,17.6,28.2c5.3,2.6,12.3-9.1,17.5-10.8s12.3-3.5,17.5,0c2.3,1.6,8.2,9.4,17.6,23.5l0.1,67.2
				c-9.4,0-15.2,0-17.5,0c-5.3,0-12.3,0-17.5,0c-5.3,0-12.3,0-17.5,0c-5.3,0-12.3,0-17.5,0s-12.3,0-17.5,0s-12.3,0-17.5,0
				c-5.3,0-12.3,0-17.5,0s-12.3,0-17.5,0s-12.3,0-17.6,0s-12.3,0-17.6,0s-12.3,0-17.6,0s-12.3,0-17.6,0s-12.3,0-17.6,0
				s-12.3,0-17.6,0s-12.3,0-17.6,0s-12.3,0-17.6,0C127.2,322,121.4,322,112,322.1L112,322.1z"/>
			<path class="st10" d="M112,322.1c9.3-7.5,15.2-11.8,17.5-12.8c5.3-2.3,12.3-2.7,17.6-2.7s12.3,4.5,17.6,2.7s12.3-12.2,17.5-14.8
				c5.3-2.6,12.3-2.2,17.6-2.7s12.3,0.2,17.6-0.7c5.3-0.9,12.3-4,17.5-5.4c5.3-1.4,12.3,5.6,17.5-4c5.2-9.7,12.2-54.1,17.5-60.5
				s12.3,15.3,17.6,18.1c5.3,2.8,12.3-1.1,17.5,0.6c5.3,1.7,12.3,14.7,17.6,10.7c5.3-3.9,12.2-35.6,17.5-36.9
				c5.3-1.3,12.3,25.6,17.6,28.2c5.3,2.6,12.3-9.1,17.5-10.8s12.3-3.5,17.5,0c2.3,1.6,8.2,9.4,17.6,23.5"/>
			<g class="st8">
				<path class="st18" d="M112,322.6c9.4,0.1,15.2,0.1,17.5,0c5.3-0.3,12.3-1.7,17.6-2s12.3,0.9,17.6,0s12.3-5.8,17.5-6.1
					s12.3,3.6,17.6,4s12.3-0.4,17.6-1.4s12.3-3.6,17.5-5.4c5.3-1.8,12.3-1.5,17.5-6.7c5.2-5.2,12.3-25,17.5-28.2
					c5.3-3.2,12.3,6.2,17.6,6.7c5.3,0.5,12.3-2.8,17.5-3.4c5.2-0.6,12.3,3.5,17.5-0.7c5.3-4.2,12.3-26.4,17.5-27.6
					c5.3-1.1,12.3,19.9,17.6,20.1s12.3-16.4,17.5-18.8s12.3,1.1,17.5,2.7c2.3,0.7,8.2,3.4,17.6,8l0.1,58.4c-9.4,0-15.2,0-17.5,0
					c-5.3,0-12.3,0-17.5,0c-5.3,0-12.3,0-17.5,0c-5.3,0-12.3,0-17.5,0c-5.3,0-12.3,0-17.5,0c-5.3,0-12.3,0-17.5,0s-12.3,0-17.5,0
					s-12.3,0-17.5,0c-5.3,0-12.3,0-17.6,0s-12.3,0-17.6,0s-12.3,0-17.6,0s-12.3,0-17.6,0s-12.3,0-17.6,0s-12.3,0-17.6,0
					s-12.3,0-17.6,0s-12.3,0-17.6,0C127.2,322.5,121.4,322.5,112,322.6L112,322.6z"/>
			</g>
			<path class="st19" d="M129.6,322.5c-2.3,0-8.2,0-17.6,0C121.4,322.7,127.2,322.7,129.6,322.5c5.3-0.3,12.3-1.7,17.6-2
				s12.3,0.9,17.6,0s12.3-5.8,17.5-6.1s12.3,3.6,17.6,4s12.3-0.4,17.6-1.4s12.3-3.6,17.5-5.4c5.3-1.8,12.3-1.5,17.5-6.7
				c5.2-5.2,12.3-25,17.5-28.2c5.3-3.2,12.3,6.2,17.6,6.7c5.3,0.5,12.3-2.8,17.5-3.4c5.2-0.6,12.3,3.5,17.5-0.7
				c5.3-4.2,12.3-26.4,17.5-27.6c5.3-1.1,12.3,19.9,17.6,20.1s12.3-16.4,17.5-18.8s12.3,1.1,17.5,2.7c2.3,0.7,8.2,3.4,17.6,8"/>
		</g>
		<g>
			<path class="st9" d="M410.3,409.3c-9.4-0.1-15.2-0.1-17.5,0c-5.3,0.2-12.3,2.3-17.5,1.3s-12.3-7.6-17.6-8
				c-5.3-0.5-12.3,4.8-17.5,5s-12.3-1.9-17.5-3.7c-5.3-1.9-12.3-13.7-17.6-8.7s-12.2,35.9-17.5,42.2c5.3,0,12.3,0,17.5,0
				c5.3,0,12.3,0,17.5,0c5.3,0,12.3,0,17.5,0c5.3,0,12.3,0,17.5,0c5.3,0,12.3,0,17.5,0c5.3,0,12.3,0,17.5,0c2.3,0,8.2,0,17.5,0
				L410.3,409.3L410.3,409.3z"/>
			<path class="st10" d="M410.3,409.3c-9.4-0.1-15.2-0.1-17.5,0c-5.3,0.2-12.3,2.3-17.5,1.3s-12.3-7.6-17.6-8
				c-5.3-0.5-12.3,4.8-17.5,5s-12.3-1.9-17.5-3.7c-5.3-1.9-12.3-13.7-17.6-8.7s-12.2,35.9-17.5,42.2"/>
		</g>
		<g class="st0">
			<g class="st8">
				<path class="st6" d="M410.3,421.4c-9.5-3.1-15.5-4.9-17.8-5.2c-5.4-0.9-12.5-1.5-17.8-0.6c-5.3,1-12.5,6-17.8,7
					c-5.3,1.1-12.5-0.3-17.8,0s-12.5,0.7-17.8,2.4c-5.3,1.7-12.5,6.9-17.8,8.8c-5.3,1.8-12.5,3-17.8,3.5c5.4,0,12.5,0,17.8,0
					c5.4,0,12.5,0,17.8,0s12.5,0,17.8,0s12.5,0,17.8,0c5.4,0,12.5,0,17.8,0c5.4,0,12.5,0,17.8,0c2.4,0,8.3,0,17.8,0V421.4
					L410.3,421.4z"/>
			</g>
			<path class="st7" d="M410.3,421.4c-9.5-3.1-15.5-4.9-17.8-5.2c-5.4-0.9-12.5-1.5-17.8-0.6c-5.3,1-12.5,6-17.8,7
				c-5.3,1.1-12.5-0.3-17.8,0s-12.5,0.7-17.8,2.4c-5.3,1.7-12.5,6.9-17.8,8.8c-5.3,1.8-12.5,3-17.8,3.5"/>
		</g>
		<g class="st0">
			<path class="st20" d="M410.3,538.9c-9.4,4.5-15.2,6.8-17.5,6.8c-5.3,0.2-12.3-5.6-17.5-5.6c-5.3,0-12.3,5-17.5,5.6
				s-12.3-2.3-17.5-1.8c-5.3,0.5-12.3,4.3-17.5,5s-12.3-1.1-17.5-0.6c-5.3,0.5-12.3,3.2-17.5,3.7c5.3,0,12.3,0,17.5,0
				c5.3,0,12.3,0,17.5,0c5.3,0,12.3,0,17.5,0c5.3,0,12.3,0,17.5,0c5.3,0,12.3,0,17.5,0c5.3,0,12.3,0,17.5,0c2.3,0,8.2,0,17.5,0
				V538.9L410.3,538.9z"/>
			<path class="st7" d="M410.3,538.9c-9.4,4.5-15.2,6.8-17.5,6.8c-5.3,0.2-12.3-5.6-17.5-5.6c-5.3,0-12.3,5-17.5,5.6
				s-12.3-2.3-17.5-1.8c-5.3,0.5-12.3,4.3-17.5,5s-12.3-1.1-17.5-0.6c-5.3,0.5-12.3,3.2-17.5,3.7"/>
		</g>
		<g class="st0">
			<g class="st8">
				<path class="st6" d="M410.3,654.3c-9.4-0.2-15.2-0.2-17.5,0c-5.3,0.5-12.3,2.4-17.5,3.1c-5.3,0.8-12.3,1.3-17.5,1.9
					c-5.3,0.6-12.3,1.7-17.5,1.9c-5.3,0.2-12.3-1.3-17.5-0.6c-5.3,0.8-12.3,4.7-17.5,5.6c-2.6,0.5-5.6,0.6-8.6,0.6c3,0,6,0,8.6,0
					c5.3,0,12.3,0,17.5,0c5.3,0,12.3,0,17.5,0c5.3,0,12.3,0,17.5,0c5.3,0,12.3,0,17.5,0c5.3,0,12.3,0,17.5,0c2.3,0,8.2,0,17.5,0
					V654.3L410.3,654.3z"/>
			</g>
			<path class="st7" d="M410.3,654.3c-9.4-0.2-15.2-0.2-17.5,0c-5.3,0.5-12.3,2.4-17.5,3.1c-5.3,0.8-12.3,1.3-17.5,1.9
				c-5.3,0.6-12.3,1.7-17.5,1.9c-5.3,0.2-12.3-1.3-17.5-0.6c-5.3,0.8-12.3,4.7-17.5,5.6c-2.6,0.5-5.6,0.6-8.6,0.6"/>
		</g>
	</g>
	<g>
		<text transform="matrix(1 0 0 1 328.58 43.8066)" class="st21 st12 st22">男运动员</text>
		<text transform="matrix(1 0 0 1 472.9 43.8766)" class="st21 st12 st22">女运动员</text>
		<path class="st1" d="M301.5,25.7c-3.1,0-7.2,19.9-10.4,21.4c3.1,0,7.3,0,10.4,0s7.3,0,10.4,0C308.8,47.1,304.6,25.7,301.5,25.7
			L301.5,25.7z"/>
		<path class="st23" d="M311.9,47.1c-3.1,0-7.3-21.4-10.4-21.4s-7.2,19.9-10.4,21.4"/>
		<path class="st6" d="M446.6,25.7c-3.1,0-7.2,19.9-10.4,21.4c3.1,0,7.3,0,10.4,0s7.3,0,10.4,0C453.9,47.1,449.7,25.7,446.6,25.7
			L446.6,25.7z"/>
		<path class="st24" d="M457,47.1c-3.1,0-7.3-21.4-10.4-21.4s-7.2,19.9-10.4,21.4"/>
	</g>
</g>
<text transform="matrix(1 0 0 1 1.6286 14.8628)" class="st12 st25">注：按照前18 届亚运会所获奖牌总数排序，选取排名后前20位的国家。</text>
</svg>
