<?xml version="1.0" encoding="utf-8"?>
<!-- Generator: Adobe Illustrator 26.4.1, SVG Export Plug-In . SVG Version: 6.00 Build 0)  -->
<svg version="1.1" id="_图层_2" xmlns="http://www.w3.org/2000/svg" xmlns:xlink="http://www.w3.org/1999/xlink" x="0px" y="0px"
	 viewBox="0 0 841.2 699.1" style="enable-background:new 0 0 841.2 699.1;" xml:space="preserve">
<style type="text/css">
	.st0{fill:#EAEAEA;}
	.st1{fill:none;stroke:#808080;stroke-width:0.75;}
	.st2{fill:none;stroke:#000000;}
	.st3{fill:none;stroke:#8A8A8A;stroke-width:0.5;stroke-miterlimit:10;stroke-dasharray:0,0,1.73,1.73;}
	.st4{fill:none;stroke:#8A8A8A;stroke-width:0.5;stroke-miterlimit:10;stroke-dasharray:0,0,1.96,1.96;}
	.st5{fill:#FF94D9;}
	.st6{fill:none;stroke:#D11851;stroke-width:0.75;stroke-miterlimit:10;}
	.st7{fill:#1A1A1A;}
	.st8{font-family:'AdobeSongStd-Light-GBpc-EUC-H';}
	.st9{font-size:14px;}
	.st10{letter-spacing:2.3;}
	.st11{opacity:0.65;}
	.st12{fill:#4D4D4D;}
	.st13{font-size:17.09px;}
	.st14{fill:none;stroke:#808080;stroke-width:0.88;}
	.st15{fill:none;stroke:#D11851;stroke-width:0.88;stroke-miterlimit:10;}
</style>
<g id="_图层_1-2">
	<g>
		<g>
			<path class="st0" d="M182.2,459.5c-5.3,0-12.3-0.7-17.6-0.7s-12.3,0.6-17.6,0.7s-12.3-0.1-17.6,0c-2.3,0.1-8.2,0.3-17.6,0.7v0.7
				c9.4,0,15.2,0,17.6,0c5.3,0,12.3,0,17.6,0s12.3,0,17.6,0s12.3,0,17.6,0s12.3,0,17.6,0s12.3,0,17.6,0c-5.3-0.3-12.3-1.8-17.6-2
				C194.5,458.6,187.5,459.5,182.2,459.5L182.2,459.5z"/>
			<path class="st1" d="M217.3,460.8c-5.3-0.3-12.3-1.8-17.6-2s-12.3,0.7-17.6,0.7s-12.3-0.7-17.6-0.7s-12.3,0.6-17.6,0.7
				s-12.3-0.1-17.6,0c-2.3,0.1-8.2,0.3-17.6,0.7"/>
		</g>
		<g>
			<path class="st0" d="M357.7,402.9c-5.3,0-12.3,0.1-17.5,0c-5.3-0.1-12.3-0.6-17.5-0.6c-5.3,0-12.3,0.5-17.5,0.6
				c-5.3,0.1-12.3,0.7-17.5,0s-12.3-4.4-17.5-4.3c-5.3,0.1-12.3,4.2-17.5,5c5.3,0,12.3,0,17.5,0c5.3,0,12.3,0,17.5,0
				c5.3,0,12.3,0,17.5,0c5.3,0,12.3,0,17.5,0c5.3,0,12.3,0,17.5,0s12.3,0,17.5,0c5.3,0,12.3,0,17.5,0s12.3,0,17.5,0
				c-5.3-0.1-12.3-0.5-17.5-0.6C370,402.8,363,402.9,357.7,402.9L357.7,402.9z"/>
			<path class="st1" d="M392.8,403.5c-5.3-0.1-12.3-0.5-17.5-0.6c-5.3-0.1-12.3,0-17.5,0c-5.3,0-12.3,0.1-17.5,0
				c-5.3-0.1-12.3-0.6-17.5-0.6c-5.3,0-12.3,0.5-17.5,0.6c-5.3,0.1-12.3,0.7-17.5,0s-12.3-4.4-17.5-4.3c-5.3,0.1-12.3,4.2-17.5,5"/>
		</g>
		<g>
			<g>
				<path class="st0" d="M287.5,346.3c5.3,0,12.3,0,17.5,0c4.4,0,10.1,0,14.9,0c-4.8-0.2-10.5-1.2-14.9-1.2
					C299.8,345,292.8,346.1,287.5,346.3z"/>
				<path class="st0" d="M410.3,343c-9.4,0.4-15.2,0.6-17.5,0.6c-5.3,0.1-12.3,0-17.5,0c-5.3,0-12.3,0.1-17.5,0s-12.3-1-17.5-0.6
					c-5.3,0.4-12.3,2.8-17.5,3.1c5.3,0,12.3,0,17.5,0c5.3,0,12.3,0,17.5,0c5.3,0,12.3,0,17.5,0c5.3,0,12.3,0,17.5,0
					c2.3,0,8.2,0,17.5,0V343z"/>
			</g>
			<g>
				<path class="st1" d="M320,346.2c-4.8-0.2-10.5-1.2-14.9-1.2c-5.3,0-12.3,1.1-17.5,1.3"/>
				<path class="st1" d="M410.3,343c-9.4,0.4-15.2,0.6-17.5,0.6c-5.3,0.1-12.3,0-17.5,0c-5.3,0-12.3,0.1-17.5,0s-12.3-1-17.5-0.6
					c-5.3,0.4-12.3,2.8-17.5,3.1"/>
			</g>
		</g>
		<g>
			<path class="st0" d="M410.3,280.7c-9.4,3.8-15.2,5.9-17.5,6.2c-5.3,0.8-12.3-0.7-17.5-1.2s-12.3-2.7-17.5-2.5
				c-5.3,0.2-12.3,3-17.5,3.7s-12.3,1.3-17.5,1.3c-5.3-0.1-12.3-1.9-17.5-1.8s-12.3,2.1-17.5,2.5c5.3,0,12.3,0,17.5,0
				c5.3,0,12.3,0,17.5,0c5.3,0,12.3,0,17.5,0s12.3,0,17.5,0c5.3,0,12.3,0,17.5,0c5.3,0,12.3,0,17.5,0c2.3,0,8.2,0,17.5,0V280.7
				L410.3,280.7z"/>
			<path class="st1" d="M410.3,280.7c-9.4,3.8-15.2,5.9-17.5,6.2c-5.3,0.8-12.3-0.7-17.5-1.2s-12.3-2.7-17.5-2.5
				c-5.3,0.2-12.3,3-17.5,3.7s-12.3,1.3-17.5,1.3c-5.3-0.1-12.3-1.9-17.5-1.8s-12.3,2.1-17.5,2.5"/>
		</g>
		<g>
			<path class="st0" d="M410.7,165.4c-9.4,3.4-15.2,5.2-17.5,5.6c-5.3,0.8-12.3,0.1-17.5,0c-5.3-0.1-12.3-0.3-17.5-0.6
				c-5.3-0.3-12.3-1.3-17.5-1.2c-5.3,0.1-12.3,2-17.5,1.9c-5.3-0.1-12.3-2.9-17.5-2.5c-5.3,0.5-12.3,4.8-17.5,5.6
				c5.3,0,12.3,0,17.5,0c5.3,0,12.3,0,17.5,0c5.3,0,12.3,0,17.5,0c5.3,0,12.3,0,17.5,0c5.3,0,12.3,0,17.5,0s12.3,0,17.5,0
				c2.3,0,8.2,0,17.5,0V165.4L410.7,165.4z"/>
			<path class="st1" d="M410.7,165.4c-9.4,3.4-15.2,5.2-17.5,5.6c-5.3,0.8-12.3,0.1-17.5,0c-5.3-0.1-12.3-0.3-17.5-0.6
				c-5.3-0.3-12.3-1.3-17.5-1.2c-5.3,0.1-12.3,2-17.5,1.9c-5.3-0.1-12.3-2.9-17.5-2.5c-5.3,0.5-12.3,4.8-17.5,5.6"/>
		</g>
		<g>
			<g>
				<path class="st0" d="M410.3,112.9c-9.4-1.9-15.2-2.7-17.5-2.5c-5.3,0.6-12.3,6.5-17.5,6.2c5.3,0,12.3,0,17.5,0
					c2.3,0,8.2,0,17.5,0V112.9L410.3,112.9z"/>
				<path class="st0" d="M252.4,112.5c-5.3,0.8-12.3,3.2-17.5,3.7s-12.3-0.1-17.6,0s-12.3,0.5-17.6,0.6c5.3,0,12.3,0,17.6,0
					s12.3,0,17.6,0s12.3,0,17.6,0c5.3,0,12.3,0,17.6,0c5.3,0,12.3,0,17.5,0c-5.3,0-12.3-4.9-17.5-5.6
					C264.7,110.6,257.7,111.7,252.4,112.5L252.4,112.5z"/>
				<path class="st0" d="M340.1,111.8c-5.3-0.1-12.3-3.6-17.5-3.7c-5.3-0.1-12.3,1.8-17.5,3.1c-5.3,1.3-12.3,5.6-17.5,5.6
					c5.3,0,12.3,0,17.5,0c5.3,0,12.3,0,17.5,0c5.3,0,12.3,0,17.5,0c5.3,0,12.3,0,17.5,0s12.3,0,17.5,0c-5.3-0.3-12.3-7.3-17.6-8
					C352.2,108.1,345.4,111.9,340.1,111.8L340.1,111.8z"/>
			</g>
			<g>
				<path class="st1" d="M410.3,112.9c-9.4-1.9-15.2-2.7-17.5-2.5c-5.3,0.6-12.3,6.5-17.5,6.2"/>
				<path class="st1" d="M287.5,116.8c-5.3,0-12.3-4.9-17.5-5.6c-5.3-0.7-12.3,0.5-17.6,1.3s-12.3,3.2-17.5,3.7s-12.3-0.1-17.6,0
					s-12.3,0.5-17.6,0.6"/>
				<path class="st1" d="M375.2,116.7c-5.3-0.3-12.3-7.3-17.6-8c-5.3-0.7-12.3,3.2-17.5,3.1s-12.3-3.6-17.5-3.7
					c-5.3-0.1-12.3,1.8-17.5,3.1c-5.3,1.3-12.3,5.6-17.5,5.6"/>
			</g>
		</g>
		<g>
			<line class="st2" x1="536.1" y1="116.9" x2="529.6" y2="116.9"/>
			<line class="st2" x1="536.1" y1="231.6" x2="529.6" y2="231.6"/>
			<line class="st2" x1="536.1" y1="174.2" x2="529.6" y2="174.2"/>
			<line class="st2" x1="536.1" y1="346.3" x2="529.6" y2="346.3"/>
			<line class="st2" x1="536.1" y1="288.9" x2="529.6" y2="288.9"/>
			<line class="st2" x1="536.1" y1="461" x2="529.6" y2="461"/>
			<line class="st2" x1="536.1" y1="518.3" x2="529.6" y2="518.3"/>
			<line class="st2" x1="536.1" y1="575.7" x2="529.6" y2="575.7"/>
			<line class="st2" x1="536.1" y1="633" x2="529.6" y2="633"/>
			<line class="st2" x1="536.1" y1="690.4" x2="529.6" y2="690.4"/>
			<line class="st2" x1="536.1" y1="403.6" x2="529.6" y2="403.6"/>
		</g>
		<g>
			<line class="st2" x1="105.5" y1="116.9" x2="99.1" y2="116.9"/>
			<line class="st2" x1="105.5" y1="174.2" x2="99.1" y2="174.2"/>
			<line class="st2" x1="105.5" y1="231.6" x2="99.1" y2="231.6"/>
			<line class="st2" x1="105.5" y1="346.3" x2="99.1" y2="346.3"/>
			<line class="st2" x1="105.5" y1="403.6" x2="99.1" y2="403.6"/>
			<line class="st2" x1="105.5" y1="461" x2="99.1" y2="461"/>
			<line class="st2" x1="105.5" y1="518.3" x2="99.1" y2="518.3"/>
			<line class="st2" x1="105.5" y1="575.7" x2="99.1" y2="575.7"/>
			<line class="st2" x1="105.5" y1="690.4" x2="99.1" y2="690.4"/>
			<line class="st2" x1="105.5" y1="633" x2="99.1" y2="633"/>
			<line class="st2" x1="105.5" y1="288.9" x2="99.1" y2="288.9"/>
		</g>
		<g>
			<line class="st3" x1="112" y1="116.8" x2="410.3" y2="116.8"/>
			<line class="st3" x1="112" y1="174.1" x2="410.3" y2="174.1"/>
			<line class="st3" x1="112" y1="231.5" x2="410.3" y2="231.5"/>
			<line class="st3" x1="112" y1="346.2" x2="410.3" y2="346.2"/>
			<line class="st3" x1="112" y1="403.5" x2="410.3" y2="403.5"/>
			<line class="st3" x1="112" y1="460.9" x2="410.3" y2="460.9"/>
			<line class="st3" x1="112" y1="518.2" x2="410.3" y2="518.2"/>
			<line class="st3" x1="112" y1="575.6" x2="410.3" y2="575.6"/>
			<line class="st3" x1="112" y1="632.9" x2="410.3" y2="632.9"/>
			<line class="st4" x1="112" y1="690.3" x2="410.3" y2="690.3"/>
			<line class="st3" x1="112" y1="288.8" x2="410.3" y2="288.8"/>
		</g>
		<g>
			<line class="st3" x1="542.6" y1="116.8" x2="840.9" y2="116.8"/>
			<line class="st3" x1="542.6" y1="174.2" x2="840.9" y2="174.2"/>
			<line class="st3" x1="542.6" y1="231.5" x2="840.9" y2="231.5"/>
			<line class="st3" x1="542.6" y1="346.2" x2="840.9" y2="346.2"/>
			<line class="st3" x1="542.6" y1="403.6" x2="840.9" y2="403.6"/>
			<line class="st3" x1="542.6" y1="460.9" x2="840.9" y2="460.9"/>
			<line class="st3" x1="542.6" y1="518.3" x2="840.9" y2="518.3"/>
			<line class="st3" x1="542.6" y1="575.6" x2="840.9" y2="575.6"/>
			<line class="st3" x1="542.6" y1="633" x2="840.9" y2="633"/>
			<line class="st3" x1="542.6" y1="690.3" x2="840.9" y2="690.3"/>
			<line class="st3" x1="542.6" y1="288.9" x2="840.9" y2="288.9"/>
		</g>
		<g>
			<path class="st0" d="M770.7,689.6c-5.3,0.1-12.3,0.6-17.5,0.7c5.3,0,12.3,0,17.5,0c5.3,0,12.3,0,17.5,0c5.3,0,12.3,0,17.5,0
				c-5.3-0.1-12.3-0.6-17.5-0.7S776,689.5,770.7,689.6L770.7,689.6z"/>
			<path class="st1" d="M805.8,690.3c-5.3-0.1-12.3-0.6-17.5-0.7c-5.3-0.1-12.3-0.1-17.5,0c-5.3,0.1-12.3,0.6-17.5,0.7"/>
		</g>
		<g>
			<g>
				<path class="st0" d="M392.8,574.9c-5.3-0.1-12.3,0-17.5,0c-5.3,0-12.3,0-17.5,0c-5.3,0-12.3,0-17.5,0c-5.3,0-12.3,0-17.5,0
					c-5.3,0-12.3,0-17.5,0c-5.3,0-12.3,0-17.5,0s-12.3-0.1-17.5,0c-5.3,0.1-12.3,0.5-17.6,0.6c5.3,0,12.3,0,17.6,0
					c5.3,0,12.3,0,17.5,0c5.3,0,12.3,0,17.5,0c5.3,0,12.3,0,17.5,0s12.3,0,17.5,0s12.3,0,17.5,0c5.3,0,12.3,0,17.5,0
					c5.3,0,12.3,0,17.5,0c2.3,0,8.2,0,17.5,0C401,575.1,395.1,574.9,392.8,574.9z"/>
				<path class="st1" d="M410.3,575.5c-9.4-0.4-15.2-0.6-17.5-0.6c-5.3-0.1-12.3,0-17.5,0c-5.3,0-12.3,0-17.5,0
					c-5.3,0-12.3,0-17.5,0c-5.3,0-12.3,0-17.5,0c-5.3,0-12.3,0-17.5,0c-5.3,0-12.3,0-17.5,0s-12.3-0.1-17.5,0
					c-5.3,0.1-12.3,0.5-17.6,0.6"/>
			</g>
			<g>
				<path class="st5" d="M392.8,574.4c-5.3-0.2-12.3-0.2-17.5,0c-5.3,0.2-12.3,1.1-17.5,1.3c5.3,0,12.3,0,17.5,0
					c5.3,0,12.3,0,17.5,0c2.3,0,8.2,0,17.5,0C401,574.9,395.1,574.4,392.8,574.4z"/>
				<path class="st6" d="M410.3,575.6c-9.4-0.7-15.2-1.1-17.5-1.2c-5.3-0.2-12.3-0.2-17.5,0c-5.3,0.2-12.3,1.1-17.5,1.3"/>
			</g>
		</g>
		<g>
			<g>
				<g>
					<path class="st0" d="M252.4,517.6c-5.3,0-12.3-0.7-17.6-0.6c-5.3,0.1-12.3,1.1-17.6,1.3c5.3,0,12.3,0,17.6,0s12.3,0,17.6,0
						c5.3,0,12.3,0,17.5,0c5.3,0,12.3,0,17.5,0c-5.3-0.2-12.3-1.1-17.5-1.2C264.7,516.9,257.7,517.6,252.4,517.6L252.4,517.6z"/>
					<path class="st0" d="M410.3,516.8c-9.4,0-15.2,0-17.5,0c-5.3,0-12.3,0-17.5,0c-5.3,0-12.3-0.1-17.5,0
						c-5.3,0.1-12.3,0.4-17.5,0.6c-5.3,0.2-12.3,0.5-17.5,0.6c5.3,0,12.3,0,17.5,0s12.3,0,17.5,0c5.3,0,12.3,0,17.5,0
						c5.3,0,12.3,0,17.5,0c2.3,0,8.2,0,17.5,0V516.8z"/>
				</g>
				<g>
					<path class="st1" d="M287.5,518.2c-5.3-0.2-12.3-1.1-17.5-1.2c-5.3-0.1-12.3,0.6-17.6,0.6s-12.3-0.7-17.6-0.6
						c-5.3,0.1-12.3,1.1-17.6,1.3"/>
					<path class="st1" d="M410.3,516.8c-9.4,0-15.2,0-17.5,0c-5.3,0-12.3,0-17.5,0c-5.3,0-12.3-0.1-17.5,0
						c-5.3,0.1-12.3,0.4-17.5,0.6c-5.3,0.2-12.3,0.5-17.5,0.6"/>
				</g>
			</g>
			<g>
				<g>
					<path class="st5" d="M357.7,517.7c-5.3,0.1-12.3,0.5-17.5,0.6c5.3,0,12.3,0,17.5,0c5.3,0,12.3,0,17.5,0c4,0,9.1,0,13.6,0
						c-4.5-0.1-9.6-0.5-13.6-0.6C370,517.6,363,517.6,357.7,517.7z"/>
					<path class="st5" d="M410.3,516.4c-9.4,1.2-15.2,1.8-17.5,1.9c2.3,0,8.2,0,17.5,0V516.4z"/>
				</g>
				<g>
					<path class="st6" d="M388.9,518.2c-4.5-0.1-9.6-0.5-13.6-0.6c-5.3-0.1-12.3-0.1-17.5,0c-5.3,0.1-12.3,0.5-17.5,0.6"/>
					<path class="st6" d="M410.3,516.4c-9.4,1.2-15.2,1.8-17.5,1.9"/>
				</g>
			</g>
		</g>
		<g>
			<g>
				<g>
					<path class="st0" d="M700.5,518.3c5.3,0,12.3,0,17.5,0c5.3,0,12.3,0,17.5,0c-5.3,0-12.3-0.7-17.5-0.7S705.8,518.2,700.5,518.3
						L700.5,518.3z"/>
					<path class="st0" d="M840.9,516.8c-9.4,0-15.2,0-17.5,0c-5.3,0.1-12.3,0.6-17.5,0.7c-5.3,0.1-12.3,0.1-17.5,0
						c-5.3-0.1-12.3-0.7-17.5-0.7c-5.3,0-12.3,0.5-17.5,0.7c-5.3,0.2-12.3,0.7-17.5,0.7c5.3,0,12.3,0,17.5,0c5.3,0,12.3,0,17.5,0
						c5.3,0,12.3,0,17.5,0c5.3,0,12.3,0,17.5,0c5.3,0,12.3,0,17.5,0c2.3,0,8.2,0,17.5,0V516.8L840.9,516.8z"/>
				</g>
				<g>
					<path class="st1" d="M735.6,518.2c-5.3,0-12.3-0.7-17.5-0.7c-5.3,0-12.3,0.6-17.5,0.7"/>
					<path class="st1" d="M840.9,516.8c-9.4,0-15.2,0-17.5,0c-5.3,0.1-12.3,0.6-17.5,0.7c-5.3,0.1-12.3,0.1-17.5,0
						c-5.3-0.1-12.3-0.7-17.5-0.7c-5.3,0-12.3,0.5-17.5,0.7c-5.3,0.2-12.3,0.7-17.5,0.7"/>
				</g>
			</g>
			<g>
				<path class="st5" d="M840.9,516.2c-9.4,0.8-15.2,1.3-17.5,1.4c-5.3,0.2-12.3-0.1-17.5,0c-5.3,0.1-12.3,0.6-17.5,0.7
					c5.3,0,12.3,0,17.5,0c5.3,0,12.3,0,17.5,0c2.3,0,8.2,0,17.5,0V516.2L840.9,516.2z"/>
				<path class="st6" d="M840.9,516.2c-9.4,0.8-15.2,1.3-17.5,1.4c-5.3,0.2-12.3-0.1-17.5,0c-5.3,0.1-12.3,0.6-17.5,0.7"/>
			</g>
		</g>
		<g>
			<path class="st5" d="M164.7,459.6c-5.3,0.2-12.3,1.2-17.6,1.4c5.3,0,12.3,0,17.6,0s12.3,0,17.6,0s12.3,0,17.6,0
				c-5.3-0.2-12.3-1.1-17.6-1.3C177,459.4,169.9,459.4,164.7,459.6z"/>
			<path class="st6" d="M199.8,460.9c-5.3-0.2-12.3-1.1-17.6-1.3c-5.3-0.2-12.3-0.2-17.6,0s-12.3,1.2-17.6,1.4"/>
		</g>
		<g>
			<g>
				<g>
					<path class="st0" d="M840.9,459.4c-9.4-1-15.2-1.4-17.5-1.3c-5.3,0.2-12.3,2.4-17.5,2.7c5.3,0,12.3,0,17.5,0
						c2.3,0,8.2,0,17.5,0V459.4L840.9,459.4z"/>
					<path class="st0" d="M770.7,458.9c-5.3,0-12.3,1.7-17.5,1.4c-5.3-0.3-12.3-3.4-17.5-3.3c-5.3,0.1-12.3,3.4-17.5,4.1
						c5.3,0,12.3,0,17.5,0c5.3,0,12.3,0,17.5,0c5.3,0,12.3,0,17.5,0c5.3,0,12.3,0,17.5,0c3.3,0,7.3,0,11.1,0
						c-3.8-0.1-7.8-0.5-11.1-0.7C783,459.9,776,458.9,770.7,458.9L770.7,458.9z"/>
				</g>
				<g>
					<path class="st1" d="M840.9,459.4c-9.4-1-15.2-1.4-17.5-1.3c-5.3,0.2-12.3,2.4-17.5,2.7"/>
					<path class="st1" d="M799.3,460.8c-3.8-0.1-7.8-0.5-11.1-0.7c-5.2-0.2-12.2-1.2-17.5-1.2s-12.3,1.7-17.5,1.4
						c-5.3-0.3-12.3-3.4-17.5-3.3c-5.3,0.1-12.3,3.4-17.5,4.1"/>
				</g>
			</g>
			<g>
				<g>
					<path class="st5" d="M840.9,460.1c-9.4-0.5-15.2-0.7-17.5-0.7c-5.3,0.1-12.3,1.2-17.5,1.4c5.3,0,12.3,0,17.5,0
						c2.3,0,8.2,0,17.5,0V460.1L840.9,460.1z"/>
					<path class="st5" d="M753.2,460.2c-5.3,0-12.3-0.1-17.5,0c-5.3,0.1-12.3,0.6-17.5,0.7c5.3,0,12.3,0,17.5,0c5.3,0,12.3,0,17.5,0
						c5.3,0,12.3,0,17.5,0c5.3,0,12.3,0,17.5,0c-5.3-0.1-12.3-0.6-17.5-0.7C765.4,460.1,758.4,460.2,753.2,460.2L753.2,460.2z"/>
				</g>
				<g>
					<path class="st6" d="M840.9,460.1c-9.4-0.5-15.2-0.7-17.5-0.7c-5.3,0.1-12.3,1.2-17.5,1.4"/>
					<path class="st6" d="M788.2,460.9c-5.3-0.1-12.3-0.6-17.5-0.7c-5.3-0.1-12.3,0-17.5,0c-5.3,0-12.3-0.1-17.5,0
						c-5.3,0.1-12.3,0.6-17.5,0.7"/>
				</g>
			</g>
		</g>
		<g>
			<g>
				<path class="st5" d="M410.3,403.5v-0.6c-9.4,0-15.2,0-17.5,0c-4.5,0.1-10.4,0.6-15.3,0.6c4.9,0,10.8,0,15.3,0
					C395.1,403.5,401,403.5,410.3,403.5z"/>
				<path class="st5" d="M340.1,402.3c-5.3,0-12.3-0.1-17.5,0c-5.3,0.1-12.3,0.4-17.5,0.6c-5.3,0.2-12.3,0.5-17.5,0.6
					c5.3,0,12.3,0,17.5,0c5.3,0,12.3,0,17.5,0s12.3,0,17.5,0s12.3,0,17.5,0c5.3,0,12.3,0,17.5,0c-5.3-0.1-12.3-1-17.5-1.2
					S345.4,402.3,340.1,402.3z"/>
			</g>
			<g>
				<path class="st6" d="M410.3,402.9c-9.4,0-15.2,0-17.5,0c-4.5,0.1-10.4,0.6-15.3,0.6"/>
				<path class="st6" d="M375.2,403.5c-5.3-0.1-12.3-1-17.5-1.2c-5.3-0.2-12.3,0-17.5,0c-5.3,0-12.3-0.1-17.5,0
					c-5.3,0.1-12.3,0.4-17.5,0.6c-5.3,0.2-12.3,0.5-17.5,0.6"/>
			</g>
		</g>
		<g>
			<g>
				<g>
					<path class="st0" d="M647.9,402.2c-5.3,0.2-12.3,1.2-17.5,1.4c5.3,0,12.3,0,17.5,0c5.3,0,12.3,0,17.5,0c5.3,0,12.3,0,17.5,0
						c-5.3-0.2-12.3-1.1-17.5-1.3S653.1,402,647.9,402.2z"/>
					<path class="st0" d="M823.3,402.7c-5.3,0-12.3,0.7-17.5,0.7c5.3,0,12.3,0,17.5,0c2.3,0,8.2,0,17.5,0
						C831.5,402.9,825.7,402.7,823.3,402.7L823.3,402.7z"/>
					<path class="st0" d="M700.5,403.5c5.3,0,12.3,0,17.5,0c5.3,0,12.3,0,17.5,0c-5.3,0-12.3-2-17.5-2S705.8,403.2,700.5,403.5
						L700.5,403.5z"/>
					<path class="st0" d="M770.7,400.7c-5.3-0.2-12.3,0.3-17.5,0.7c-5.3,0.4-12.3,2-17.5,2c5.3,0,12.3,0,17.5,0c5.3,0,12.3,0,17.5,0
						c5.3,0,12.3,0,17.5,0c5.3,0,12.3,0,17.5,0c-5.3,0-12.3-0.2-17.5-0.7C783,402.3,776,400.9,770.7,400.7L770.7,400.7z"/>
				</g>
				<g>
					<path class="st1" d="M683,403.5c-5.3-0.2-12.3-1.1-17.5-1.3s-12.3-0.2-17.5,0c-5.3,0.2-12.3,1.2-17.5,1.4"/>
					<path class="st1" d="M840.9,403.3c-9.4-0.4-15.2-0.7-17.5-0.7c-5.3,0-12.3,0.7-17.5,0.7"/>
					<path class="st1" d="M735.6,403.5c-5.3,0-12.3-2-17.5-2c-5.3,0-12.3,1.7-17.5,2"/>
					<path class="st1" d="M805.8,403.4c-5.3,0-12.3-0.2-17.5-0.7c-5.3-0.4-12.3-1.8-17.5-2c-5.3-0.2-12.3,0.3-17.5,0.7
						c-5.3,0.4-12.3,2-17.5,2"/>
				</g>
			</g>
			<g>
				<g>
					<path class="st5" d="M840.9,403.4c-9.4-0.4-15.2-0.7-17.5-0.7c-4.6,0-10.5,0.6-15.5,0.7c4.9,0,10.9,0,15.5,0
						C825.7,403.5,831.5,403.5,840.9,403.4L840.9,403.4z"/>
					<path class="st5" d="M770.7,402.2c-5.3,0-12.3,0-17.5,0c-5.3,0-12.3-0.2-17.5,0c-5.3,0.2-12.3,1.2-17.5,1.4
						c5.3,0,12.3,0,17.5,0c5.3,0,12.3,0,17.5,0c5.3,0,12.3,0,17.5,0c5.3,0,12.3,0,17.5,0c5.3,0,12.3,0,17.5,0
						c-5.3-0.1-12.3-1.1-17.5-1.3S776,402.2,770.7,402.2z"/>
				</g>
				<g>
					<path class="st6" d="M840.9,403.4c-9.4-0.4-15.2-0.7-17.5-0.7c-4.6,0-10.5,0.6-15.5,0.7"/>
					<path class="st6" d="M805.8,403.5c-5.3-0.1-12.3-1.1-17.5-1.3s-12.3,0-17.5,0c-5.3,0-12.3,0-17.5,0c-5.3,0-12.3-0.2-17.5,0
						c-5.3,0.2-12.3,1.2-17.5,1.4"/>
				</g>
			</g>
		</g>
		<g>
			<g>
				<path class="st5" d="M322.6,346.3c5.3,0,12.3,0,17.5,0c5.3,0,12.3,0,17.5,0c-5.3-0.1-12.3-0.6-17.5-0.6
					C334.9,345.6,327.9,346.2,322.6,346.3z"/>
				<path class="st5" d="M392.8,345.6c-5.3,0-12.3,0.5-17.5,0.6c5.3,0,12.3,0,17.5,0c2.3,0,8.2,0,17.5,0
					C401,345.8,395.1,345.6,392.8,345.6z"/>
			</g>
			<g>
				<path class="st6" d="M357.7,346.2c-5.3-0.1-12.3-0.6-17.5-0.6c-5.3,0-12.3,0.5-17.5,0.6"/>
				<path class="st6" d="M410.3,346.2c-9.4-0.4-15.2-0.6-17.5-0.6c-5.3,0-12.3,0.5-17.5,0.6"/>
			</g>
		</g>
		<g>
			<g>
				<g>
					<path class="st0" d="M665.4,345.5c-5.3,0.3-12.3,0.6-17.5,0.7c5.3,0,12.3,0,17.5,0s12.3,0,17.5,0c5.3,0,12.3,0,17.5,0
						c-5.3,0-12.3-1.9-17.5-2S670.7,345.2,665.4,345.5L665.4,345.5z"/>
					<path class="st0" d="M840.9,345.3c-7.9,0.4-13.2,0.7-16.1,0.7c2.9,0,8.3,0,16.1,0V345.3z"/>
					<path class="st0" d="M788.2,342c-5.3-0.1-12.3,2-17.5,2c-5.3,0-12.3-1.7-17.5-2c-5.3-0.3-12.3-0.3-17.5,0
						c-5.3,0.3-12.3,1.4-17.5,2c-5.3,0.6-12.3,2-17.5,2c5.3,0,12.3,0,17.5,0c5.3,0,12.3,0,17.5,0c5.3,0,12.3,0,17.5,0
						c5.3,0,12.3,0,17.5,0c5.3,0,12.3,0,17.5,0c5.3,0,12.3,0,17.5,0c5.3,0,12.3,0,17.5,0c-5.3-0.1-12.3-0.7-17.5-1.3
						C800.5,344.1,793.5,342.2,788.2,342L788.2,342z"/>
				</g>
				<g>
					<path class="st1" d="M700.5,346.2c-5.3,0-12.3-1.9-17.5-2c-5.3-0.1-12.3,1.1-17.5,1.4c-5.3,0.3-12.3,0.6-17.5,0.7"/>
					<path class="st1" d="M840.9,345.3c-7.9,0.4-13.2,0.7-16.1,0.7"/>
					<path class="st1" d="M823.3,346c-5.3-0.1-12.3-0.7-17.5-1.3c-5.3-0.6-12.3-2.6-17.5-2.7s-12.3,2-17.5,2c-5.3,0-12.3-1.7-17.5-2
						c-5.3-0.3-12.3-0.3-17.5,0c-5.3,0.3-12.3,1.4-17.5,2c-5.3,0.6-12.3,2-17.5,2"/>
				</g>
			</g>
			<g>
				<path class="st5" d="M718.1,346.2c5.3,0,12.3,0,17.5,0c5.3,0,12.3,0,17.5,0c-5.3-0.1-12.3-0.7-17.5-0.7
					C730.3,345.6,723.3,346.1,718.1,346.2L718.1,346.2z"/>
				<path class="st6" d="M753.2,346.2c-5.3-0.1-12.3-0.7-17.5-0.7c-5.3,0-12.3,0.6-17.5,0.7"/>
			</g>
		</g>
		<g>
			<path class="st5" d="M410.3,288.1c-9.4,0-15.2,0.1-17.5,0c-5.3-0.1-12.3-0.2-17.5-0.6c-5.3-0.4-12.3-2-17.5-1.8
				c-5.3,0.2-12.3,2.7-17.5,3.1c5.3,0,12.3,0,17.5,0c5.3,0,12.3,0,17.5,0c5.3,0,12.3,0,17.5,0c2.3,0,8.2,0,17.5,0V288.1L410.3,288.1
				z"/>
			<path class="st6" d="M410.3,288.1c-9.4,0-15.2,0.1-17.5,0c-5.3-0.1-12.3-0.2-17.5-0.6c-5.3-0.4-12.3-2-17.5-1.8
				c-5.3,0.2-12.3,2.7-17.5,3.1"/>
		</g>
		<g>
			<g>
				<path class="st0" d="M129.6,229.4c-2.3,0.1-8.2,0.8-17.6,2c9.4,0,15.2,0,17.6,0c5.3,0,12.3,0,17.6,0c3.9,0,8.9,0,13.3,0
					c-4.4-0.2-9.4-1.1-13.3-1.3C141.9,229.7,134.8,229.2,129.6,229.4L129.6,229.4z"/>
				<path class="st0" d="M199.8,225.9c-5.3,0.4-12.3,0.5-17.6,1.4c-5.3,0.8-12.3,3.6-17.5,4c5.3,0,12.3,0,17.6,0s12.3,0,17.6,0
					s12.3,0,17.6,0s12.3,0,17.6,0c-5.3-1-12.3-5.9-17.6-6.7S205,225.5,199.8,225.9L199.8,225.9z"/>
			</g>
			<g>
				<path class="st1" d="M160.4,231.3c-4.4-0.2-9.4-1.1-13.3-1.3c-5.3-0.3-12.3-0.9-17.6-0.7c-2.3,0.1-8.2,0.8-17.6,2"/>
				<path class="st1" d="M234.9,231.2c-5.3-1-12.3-5.9-17.6-6.7s-12.3,1-17.6,1.4s-12.3,0.5-17.6,1.4c-5.3,0.8-12.3,3.6-17.5,4"/>
			</g>
		</g>
		<g>
			<g>
				<path class="st5" d="M410.3,116.1c-9.4,0-15.2,0-17.5,0c-5.3,0.1-12.3,0.5-17.5,0.6c5.3,0,12.3,0,17.5,0c2.3,0,8.2,0,17.5,0
					V116.1z"/>
				<path class="st5" d="M305,116.8c5.3,0,12.3,0,17.5,0c5.3,0,12.3,0,17.5,0c-5.3-0.1-12.3-0.6-17.5-0.6S310.3,116.7,305,116.8z"/>
				<path class="st5" d="M252.4,115c-5.3,0.1-12.3,1.6-17.6,1.9c5.3,0,12.3,0,17.6,0c5.3,0,12.3,0,17.5,0s12.3,0,17.5,0
					c-5.3-0.1-12.3-0.3-17.5-0.6C264.7,116,257.7,114.9,252.4,115L252.4,115z"/>
			</g>
			<g>
				<path class="st6" d="M410.3,116.1c-9.4,0-15.2,0-17.5,0c-5.3,0.1-12.3,0.5-17.5,0.6"/>
				<path class="st6" d="M340.1,116.8c-5.3-0.1-12.3-0.6-17.5-0.6c-5.3,0-12.3,0.5-17.5,0.6"/>
				<path class="st6" d="M287.5,116.8c-5.3-0.1-12.3-0.3-17.5-0.6c-5.3-0.3-12.3-1.3-17.6-1.2s-12.3,1.6-17.6,1.9"/>
			</g>
		</g>
		<text transform="matrix(0.88 0 0 1 43.8096 123.5396)" class="st7 st8 st9 st10">科威特</text>
		<text transform="matrix(0.88 0 0 1 0 180.8194)" class="st7 st8 st9 st10">吉尔吉斯斯坦</text>
		<text transform="matrix(0.88 0 0 1 37.25 238.1797)" class="st7 st8 st9 st10">以色列</text>
		<text transform="matrix(0.88 0 0 1 43.8096 295.6094)" class="st7 st8 st9 st10">阿联酋</text>
		<text transform="matrix(0.88 0 0 1 14.5996 352.7491)" class="st7 st8 st9 st10">塔吉克斯坦</text>
		<text transform="matrix(0.88 0 0 1 43.8096 410.1089)" class="st7 st8 st9 st10">尼泊尔</text>
		<text transform="matrix(0.88 0 0 1 58.4097 467.4297)" class="st7 st8 st9 st10">锡兰</text>
		<text transform="matrix(0.88 0 0 1 43.8096 524.6895)" class="st7 st8 st9 st10">黎巴嫩</text>
		<text transform="matrix(0.88 0 0 1 29.21 581.9795)" class="st7 st8 st9 st10">孟加拉国</text>
		<text transform="matrix(0.88 0 0 1 58.4097 638.9893)" class="st7 st8 st9 st10">阿曼</text>
		<text transform="matrix(0.88 0 0 1 29.21 696.5596)" class="st7 st8 st9 st10">巴勒斯坦</text>
		<text transform="matrix(0.88 0 0 1 491.3301 295.7491)" class="st7 st8 st9 st10">约旦</text>
		<text transform="matrix(0.88 0 0 1 476.7295 352.709)" class="st7 st8 st9 st10">叙利亚</text>
		<text transform="matrix(0.88 0 0 1 462.1299 410.1695)" class="st7 st8 st9 st10">斯里兰卡</text>
		<text transform="matrix(0.88 0 0 1 447.5195 467.4492)" class="st7 st8 st9 st10">土库曼斯坦</text>
		<text transform="matrix(0.88 0 0 1 491.3301 524.8896)" class="st7 st8 st9 st10">老挝</text>
		<text transform="matrix(0.88 0 0 1 476.7295 582.1094)" class="st7 st8 st9 st10">阿富汗</text>
		<text transform="matrix(0.88 0 0 1 476.7295 639.459)" class="st7 st8 st9 st10">柬埔寨</text>
		<text transform="matrix(0.88 0 0 1 491.3301 696.7998)" class="st7 st8 st9 st10">也门</text>
		<text transform="matrix(0.88 0 0 1 490.0693 123.5894)" class="st7 st8 st9 st10">文莱</text>
		<text transform="matrix(0.88 0 0 1 447.0195 180.8897)" class="st7 st8 st9 st10">沙特阿拉伯</text>
		<text transform="matrix(0.88 0 0 1 476.2197 238.1397)" class="st7 st8 st9 st10">伊拉克</text>
		<g>
			<g>
				<g>
					<path class="st0" d="M683,116.2c-5.3,0.2-12.3,0.6-17.5,0.7c5.3,0,12.3,0,17.5,0c5.3,0,12.3,0,17.5,0c5.3,0,12.3,0,17.5,0
						c-5.3-0.2-12.3-1.2-17.5-1.3S688.2,116,683,116.2L683,116.2z"/>
					<path class="st0" d="M840.9,111.3c-9.4-1-15.2-1.5-17.5-1.3c-5.3,0.3-12.3,3.9-17.5,3.4c-5.3-0.5-12.3-6.4-17.6-6.7
						c-5.3-0.3-12.3,3.3-17.5,4.7c-5.3,1.4-12.3,3.9-17.5,4.7c-5.3,0.8-12.3,0.6-17.5,0.7c5.3,0,12.3,0,17.5,0c5.3,0,12.3,0,17.5,0
						c5.3,0,12.3,0,17.5,0c5.3,0,12.3,0,17.5,0c5.3,0,12.3,0,17.5,0c2.3,0,8.2,0,17.5,0L840.9,111.3L840.9,111.3z"/>
				</g>
				<g>
					<path class="st1" d="M718.1,116.8c-5.3-0.2-12.3-1.2-17.5-1.3s-12.4,0.4-17.6,0.6c-5.3,0.2-12.3,0.6-17.5,0.7"/>
					<path class="st1" d="M840.9,111.3c-9.4-1-15.2-1.5-17.5-1.3c-5.3,0.3-12.3,3.9-17.5,3.4c-5.3-0.5-12.3-6.4-17.6-6.7
						c-5.3-0.3-12.3,3.3-17.5,4.7c-5.3,1.4-12.3,3.9-17.5,4.7c-5.3,0.8-12.3,0.6-17.5,0.7"/>
				</g>
			</g>
			<g>
				<g class="st11">
					<path class="st5" d="M840.9,108c-9.4,2.7-15.2,4.3-17.5,4.7c-5.3,0.9-12.3,1.4-17.5,1.4c-5.3,0-12.3-1.7-17.5-1.3
						s-12.3,3.4-17.5,4c5.3,0,12.3,0,17.5,0c5.3,0,12.3,0,17.5,0c5.3,0,12.3,0,17.5,0c2.3,0,8.2,0,17.5,0V108L840.9,108z"/>
					<path class="st5" d="M718.1,116.8c5.3,0,12.3,0,17.5,0c5.3,0,12.3,0,17.5,0c-5.3-0.2-12.3-1.3-17.5-1.3
						C730.3,115.5,723.3,116.6,718.1,116.8L718.1,116.8z"/>
				</g>
				<g>
					<path class="st6" d="M840.9,108c-9.4,2.7-15.2,4.3-17.5,4.7c-5.3,0.9-12.3,1.4-17.5,1.4c-5.3,0-12.3-1.7-17.5-1.3
						s-12.3,3.4-17.5,4"/>
					<path class="st6" d="M753.2,116.8c-5.3-0.2-12.3-1.3-17.5-1.3c-5.3,0-12.3,1.2-17.5,1.4"/>
				</g>
			</g>
		</g>
		<g>
			<g>
				<path class="st0" d="M718.1,173.5c-5.3,0.8-12.3,0-17.5,0c-5.3,0-12.3-0.1-17.5,0c-5.3,0.1-12.3,0.6-17.5,0.7
					c5.3,0,12.3,0,17.5,0c5.3,0,12.3,0,17.5,0c5.3,0,12.3,0,17.5,0c5.3,0,12.3,0,17.5,0c5.3,0,12.3,0,17.5,0
					c-5.3-0.1-12.3-5.9-17.5-6C730.4,168.1,723.3,172.6,718.1,173.5L718.1,173.5z"/>
				<path class="st0" d="M840.9,169.9c-9.4-0.1-15.2-0.3-17.5-0.7c-5.3-0.7-12.3-3.3-17.5-4c-5.3-0.7-12.3-1.2-17.5-0.7
					c-5.3,0.5-12.3,2.6-17.5,4c-5.3,1.4-12.3,5.5-17.5,5.4c5.3,0,12.3,0,17.5,0c5.3,0,12.3,0,17.5,0c5.3,0,12.3,0,17.5,0
					c5.3,0,12.3,0,17.5,0c2.3,0,8.2,0,17.5,0V169.9L840.9,169.9z"/>
			</g>
			<g>
				<path class="st1" d="M753.2,174.1c-5.3-0.1-12.3-5.9-17.5-6s-12.3,4.6-17.5,5.4c-5.3,0.8-12.3,0-17.5,0c-5.3,0-12.3-0.1-17.5,0
					c-5.3,0.1-12.3,0.6-17.5,0.7"/>
				<path class="st1" d="M840.9,169.9c-9.4-0.1-15.2-0.3-17.5-0.7c-5.3-0.7-12.3-3.3-17.5-4c-5.3-0.7-12.3-1.2-17.5-0.7
					c-5.3,0.5-12.3,2.6-17.5,4c-5.3,1.4-12.3,5.5-17.5,5.4"/>
			</g>
		</g>
		<g>
			<g>
				<path class="st0" d="M683,225.4c-5.3-0.5-12.3-2.5-17.5-2s-12.3,4.2-17.5,5.4c-5.3,1.2-12.3,2.3-17.5,2.7c5.3,0,12.3,0,17.5,0
					c5.3,0,12.3,0,17.5,0c5.3,0,12.3,0,17.5,0c5.3,0,12.3,0,17.5,0c5.3,0,12.3,0,17.5,0c-5.3-0.7-12.3-3.8-17.5-4.7
					C695.2,225.9,688.2,226,683,225.4L683,225.4z"/>
				<path class="st0" d="M840.9,229.3c-9.4-0.4-15.2-0.7-17.5-0.7c-5.3,0-12.3,0.6-17.5,0.7s-12.3-0.3-17.5,0
					c-5.3,0.3-12.3,1.7-17.5,2c5.3,0,12.3,0,17.5,0c5.3,0,12.3,0,17.5,0c5.3,0,12.3,0,17.5,0c2.3,0,8.2,0,17.5,0V229.3L840.9,229.3z
					"/>
			</g>
			<g>
				<path class="st1" d="M718.1,231.4c-5.3-0.7-12.3-3.8-17.5-4.7c-5.3-0.9-12.3-0.8-17.5-1.3c-5.3-0.5-12.3-2.5-17.5-2
					s-12.3,4.2-17.5,5.4c-5.3,1.2-12.3,2.3-17.5,2.7"/>
				<path class="st1" d="M840.9,229.3c-9.4-0.4-15.2-0.7-17.5-0.7c-5.3,0-12.3,0.6-17.5,0.7s-12.3-0.3-17.5,0
					c-5.3,0.3-12.3,1.7-17.5,2"/>
			</g>
		</g>
		<g>
			<g>
				<path class="st5" d="M199.8,228c-5.3,0.1-12.3-0.5-17.6,0s-12.3,2.9-17.6,3.4c5.3,0,12.3,0,17.6,0s12.3,0,17.6,0s12.3,0,17.6,0
					s12.3,0,17.6,0c-5.3-0.6-12.3-3.5-17.6-4C212,226.8,205,227.9,199.8,228L199.8,228z"/>
				<path class="st5" d="M112,231.5c9.4,0,15.2,0,17.5,0c5.3,0,12.3,0,17.6,0c-5.3-0.1-12.3-0.7-17.6-0.7
					C127.2,230.8,121.4,231,112,231.5L112,231.5z"/>
			</g>
			<g>
				<path class="st6" d="M234.9,231.3c-5.3-0.6-12.3-3.5-17.6-4s-12.3,0.6-17.6,0.7c-5.3,0.1-12.3-0.5-17.6,0s-12.3,2.9-17.6,3.4"/>
				<path class="st6" d="M147.1,231.4c-5.3-0.1-12.3-0.7-17.6-0.7c-2.3,0-8.2,0.2-17.6,0.7"/>
			</g>
		</g>
		<g>
			<g>
				<g>
					<path class="st0" d="M683,288.9c5.3,0,12.3,0,17.5,0s12.3,0,17.5,0c-5.3,0-12.3-2.7-17.5-2.7
						C695.2,286.2,688.2,288.5,683,288.9L683,288.9z"/>
					<path class="st0" d="M840.9,282c-9.4,2.4-15.2,3.7-17.5,4c-5.3,0.7-12.3,1-17.5,0.7c-5.3-0.3-12.3-2.8-17.5-2.7
						c-5.3,0.1-12.3,3.1-17.5,3.4c-5.3,0.3-12.3-1.1-17.5-1.3c-5.2-0.2-12.3-0.4-17.5,0s-12.3,2.7-17.5,2.7c5.3,0,12.3,0,17.5,0
						c5.3,0,12.3,0,17.5,0c5.3,0,12.3,0,17.5,0c5.3,0,12.3,0,17.5,0c5.3,0,12.3,0,17.5,0c5.3,0,12.3,0,17.5,0c2.3,0,8.2,0,17.5,0
						V282L840.9,282z"/>
				</g>
				<g>
					<path class="st1" d="M718.1,288.8c-5.3,0-12.3-2.7-17.5-2.7c-5.3,0-12.3,2.3-17.5,2.7"/>
					<path class="st1" d="M840.9,282c-9.4,2.4-15.2,3.7-17.5,4c-5.3,0.7-12.3,1-17.5,0.7c-5.3-0.3-12.3-2.8-17.5-2.7
						c-5.3,0.1-12.3,3.1-17.5,3.4c-5.3,0.3-12.3-1.1-17.5-1.3c-5.2-0.2-12.3-0.4-17.5,0s-12.3,2.7-17.5,2.7"/>
				</g>
			</g>
			<g>
				<g>
					<path class="st5" d="M735.6,288.9c5.3,0,12.3,0,17.5,0c5.3,0,12.3,0,17.5,0c-5.3,0-12.3-0.7-17.5-0.7
						C747.9,288.2,740.9,288.8,735.6,288.9L735.6,288.9z"/>
					<path class="st5" d="M788.2,288.2c-5.3,0.3-12.3,0.7-17.5,0.7c5.3,0,12.3,0,17.5,0c5.3,0,12.3,0,17.5,0c5.3,0,12.3,0,17.5,0
						c-5.3-0.1-12.3-1.9-17.5-2C800.5,286.7,793.5,287.9,788.2,288.2L788.2,288.2z"/>
					<path class="st5" d="M840.9,287.4c-8.6,0.9-14.2,1.3-16.9,1.4c2.7,0,8.3,0,16.9,0V287.4L840.9,287.4z"/>
				</g>
				<g>
					<path class="st6" d="M770.7,288.8c-5.3,0-12.3-0.7-17.5-0.7c-5.3,0-12.3,0.6-17.5,0.7"/>
					<path class="st6" d="M823.3,288.8c-5.3-0.1-12.3-1.9-17.5-2c-5.3-0.1-12.3,1.1-17.5,1.4c-5.3,0.3-12.3,0.7-17.5,0.7"/>
					<path class="st6" d="M840.9,287.4c-8.6,0.9-14.2,1.3-16.9,1.4"/>
				</g>
			</g>
		</g>
		<g>
			<g>
				<g>
					<path class="st0" d="M542.6,575.6c9.4,0,15.2,0,17.5,0c5.3,0,12.3,0,17.5,0c-5.3,0-12.3-0.7-17.5-0.7
						C557.8,575,551.9,575.2,542.6,575.6L542.6,575.6z"/>
					<path class="st0" d="M577.7,575.6c5.3,0,12.3,0,17.5,0c5.3,0,12.3,0,17.5,0c-5.3-0.1-12.3-0.7-17.5-0.7
						S582.9,575.6,577.7,575.6L577.7,575.6z"/>
					<path class="st0" d="M630.3,575.5c5.3,0,12.3,0,17.5,0c5.3,0,12.3,0,17.5,0c-5.3,0-12.3-0.7-17.5-0.7S635.6,575.4,630.3,575.5
						L630.3,575.5z"/>
					<path class="st0" d="M840.9,573.9c-9.4,0.1-15.2,0.1-17.5,0c-5.3-0.1-12.3-0.8-17.5-0.7c-5.3,0.1-12.3,1.1-17.5,1.4
						c-5.3,0.3-12.3,0.6-17.5,0.7c5.3,0,12.3,0,17.5,0c5.3,0,12.3,0,17.5,0c5.3,0,12.3,0,17.5,0c2.3,0,8.2,0,17.5,0V573.9
						L840.9,573.9z"/>
					<path class="st0" d="M665.4,575.5c5.3,0,12.3,0,17.5,0c5.3,0,12.3,0,17.5,0c-5.3-0.1-12.3-0.7-17.5-0.7
						S670.7,575.5,665.4,575.5L665.4,575.5z"/>
				</g>
				<g>
					<path class="st1" d="M577.7,575.6c-5.3,0-12.3-0.7-17.5-0.7c-2.3,0-8.2,0.2-17.5,0.7"/>
					<path class="st1" d="M612.8,575.6c-5.3-0.1-12.3-0.7-17.5-0.7c-5.3,0-12.3,0.7-17.5,0.7"/>
					<path class="st1" d="M665.4,575.5c-5.3,0-12.3-0.7-17.5-0.7c-5.3,0-12.3,0.6-17.5,0.7"/>
					<path class="st1" d="M840.9,573.9c-9.4,0.1-15.2,0.1-17.5,0c-5.3-0.1-12.3-0.8-17.5-0.7c-5.3,0.1-12.3,1.1-17.5,1.4
						c-5.3,0.3-12.3,0.6-17.5,0.7"/>
					<path class="st1" d="M700.5,575.4c-5.3-0.1-12.3-0.7-17.5-0.7c-5.3,0-12.3,0.7-17.5,0.7"/>
				</g>
			</g>
			<g>
				<path class="st5" d="M753.2,575.6c5.3,0,12.3,0,17.5,0c5.3,0,12.3,0,17.5,0c-5.3-0.1-12.3-0.7-17.5-0.7
					C765.4,575,758.4,575.5,753.2,575.6L753.2,575.6z"/>
				<path class="st6" d="M788.2,575.6c-5.3-0.1-12.3-0.7-17.5-0.7c-5.3,0-12.3,0.6-17.5,0.7"/>
			</g>
		</g>
		<g>
			<g>
				<g>
					<path class="st0" d="M577.7,633c5.3,0,12.3,0,17.5,0c3.8,0,8.5,0,12.8,0c-4.3-0.2-9-0.7-12.8-0.7
						C590,632.3,582.9,632.9,577.7,633L577.7,633z"/>
					<path class="st0" d="M840.9,631.3c-9.4,0.8-15.2,1.3-17.5,1.4c2.3,0,8.2,0,17.5,0V631.3z"/>
					<path class="st0" d="M612.8,632.9c5.3,0,12.3,0,17.5,0s12.3,0,17.5,0c-5.3-0.4-12.3-2.7-17.5-2.7S618,632.6,612.8,632.9
						L612.8,632.9z"/>
				</g>
				<g>
					<path class="st1" d="M608,633c-4.3-0.2-9-0.7-12.8-0.7c-5.3,0-12.3,0.6-17.5,0.7"/>
					<path class="st1" d="M840.9,631.3c-9.4,0.8-15.2,1.3-17.5,1.4"/>
					<path class="st1" d="M647.9,632.9c-5.3-0.4-12.3-2.7-17.5-2.7c-5.3,0-12.3,2.4-17.5,2.7"/>
				</g>
			</g>
			<g>
				<g>
					<path class="st5" d="M840.9,632c-9.4,0-15.2,0-17.5,0c-5.3,0.1-12.3,0.6-17.5,0.7c5.3,0,12.3,0,17.5,0c2.3,0,8.2,0,17.5,0V632
						L840.9,632z"/>
					<path class="st5" d="M612.8,633c5.3,0,12.3,0,17.5,0c5.3,0,12.3,0,17.5,0c-5.3-0.1-12.3-0.7-17.5-0.7S618,632.9,612.8,633
						L612.8,633z"/>
				</g>
				<g>
					<path class="st6" d="M840.9,632c-9.4,0-15.2,0-17.5,0c-5.3,0.1-12.3,0.6-17.5,0.7"/>
					<path class="st6" d="M647.9,632.9c-5.3-0.1-12.3-0.7-17.5-0.7c-5.3,0-12.3,0.6-17.5,0.7"/>
				</g>
			</g>
		</g>
		<g>
			<g>
				<path class="st0" d="M270,632.3c-5.3,0.1-12.3,0.5-17.6,0.6c5.3,0,12.3,0,17.6,0c5.3,0,12.3,0,17.5,0c5.3,0,12.3,0,17.5,0
					c-5.3,0-12.3-0.5-17.5-0.6C282.2,632.2,275.2,632.2,270,632.3z"/>
				<path class="st0" d="M305,632.8c5.3,0,12.3,0,17.5,0c5.3,0,12.3,0,17.5,0c-5.3-0.1-12.3-0.6-17.5-0.6S310.3,632.8,305,632.8z"/>
				<path class="st0" d="M357.7,632.8c5.3,0,12.3,0,17.5,0c5.3,0,12.3,0,17.5,0c-5.3-0.1-12.3-0.6-17.5-0.6
					C370,632.1,363,632.7,357.7,632.8z"/>
			</g>
			<g>
				<path class="st1" d="M305,632.8c-5.3,0-12.3-0.5-17.5-0.6c-5.3-0.1-12.3-0.1-17.5,0c-5.3,0.1-12.3,0.5-17.6,0.6"/>
				<path class="st1" d="M340.1,632.8c-5.3-0.1-12.3-0.6-17.5-0.6c-5.3,0-12.3,0.6-17.5,0.6"/>
				<path class="st1" d="M392.8,632.7c-5.3-0.1-12.3-0.6-17.5-0.6c-5.3,0-12.3,0.5-17.5,0.6"/>
			</g>
		</g>
		<g>
			<path class="st0" d="M340.1,689.6c-5.3,0.1-12.3,0.5-17.5,0.6c5.3,0,12.3,0,17.5,0c5.3,0,12.3,0,17.5,0
				C357.7,690.2,345.4,689.5,340.1,689.6z"/>
			<path class="st1" d="M357.7,690.2c0,0-12.3-0.7-17.5-0.6c-5.3,0.1-12.3,0.5-17.5,0.6"/>
		</g>
		<g>
			<g>
				<path class="st5" d="M410.3,174.1V171c-9.4,1.5-15.2,2.3-17.5,2.5c-3.8,0.3-8.6,0.6-12.9,0.6c4.3,0,9.1,0,12.9,0
					C395.1,174.1,401,174.1,410.3,174.1z"/>
				<path class="st5" d="M340.1,171.7c-5.3,0.1-12.3,1.5-17.5,1.9s-12.3,0.5-17.5,0.6c5.3,0,12.3,0,17.5,0c5.3,0,12.3,0,17.5,0
					c5.3,0,12.3,0,17.5,0c5.3,0,12.3,0,17.5,0c-5.3-0.1-12.3-0.8-17.5-1.2S345.4,171.6,340.1,171.7z"/>
			</g>
			<g>
				<path class="st6" d="M410.3,171c-9.4,1.5-15.2,2.3-17.5,2.5c-3.8,0.3-8.6,0.6-12.9,0.6"/>
				<path class="st6" d="M375.2,174.2c-5.3-0.1-12.3-0.8-17.5-1.2s-12.3-1.3-17.5-1.2c-5.3,0.1-12.3,1.5-17.5,1.9
					s-12.3,0.5-17.5,0.6"/>
			</g>
		</g>
		<text transform="matrix(0.88 0 0 1 1.3324 15.5538)" class="st7 st8 st9 st10">注：按照前18 届亚运会所获奖牌总数排序，选取排名后20位的国家。</text>
	</g>
</g>
<g>
	<text transform="matrix(1 0 0 1 328.5804 59.1732)" class="st12 st8 st13">男运动员</text>
	<text transform="matrix(1 0 0 1 472.9005 59.2434)" class="st12 st8 st13">女运动员</text>
	<path class="st0" d="M301.5,41.1c-3.1,0-7.2,19.9-10.4,21.4c3.1,0,7.3,0,10.4,0s7.3,0,10.4,0C308.8,62.5,304.6,41.1,301.5,41.1
		L301.5,41.1z"/>
	<path class="st14" d="M311.9,62.5c-3.1,0-7.3-21.4-10.4-21.4s-7.2,19.9-10.4,21.4"/>
	<path class="st5" d="M446.6,41.1c-3.1,0-7.2,19.9-10.4,21.4c3.1,0,7.3,0,10.4,0s7.3,0,10.4,0C453.9,62.5,449.7,41.1,446.6,41.1
		L446.6,41.1z"/>
	<path class="st15" d="M457,62.5c-3.1,0-7.3-21.4-10.4-21.4s-7.2,19.9-10.4,21.4"/>
</g>
</svg>
