<?xml version="1.0" encoding="utf-8"?>
<!-- Generator: Adobe Illustrator 26.4.1, SVG Export Plug-In . SVG Version: 6.00 Build 0)  -->
<svg version="1.1" id="_图层_2" xmlns="http://www.w3.org/2000/svg" xmlns:xlink="http://www.w3.org/1999/xlink" x="0px" y="0px"
	 viewBox="0 0 841.2 699.1" style="enable-background:new 0 0 841.2 699.1;" xml:space="preserve">
<style type="text/css">
	.st0{opacity:0.3;fill:#EAEAEA;enable-background:new    ;}
	.st1{opacity:0.3;fill:none;stroke:#808080;stroke-width:0.75;enable-background:new    ;}
	.st2{opacity:0.21;}
	.st3{fill:#EAEAEA;}
	.st4{fill:none;stroke:#808080;stroke-width:0.75;}
	.st5{fill:none;stroke:#000000;}
	
		.st6{opacity:0.3;fill:none;stroke:#8A8A8A;stroke-width:0.5;stroke-miterlimit:10;stroke-dasharray:0,0,1.73,1.73;enable-background:new    ;}
	
		.st7{opacity:0.3;fill:none;stroke:#8A8A8A;stroke-width:0.5;stroke-miterlimit:10;stroke-dasharray:0,0,1.96,1.96;enable-background:new    ;}
	.st8{fill:none;stroke:#8A8A8A;stroke-width:0.5;stroke-miterlimit:10;stroke-dasharray:0,0,1.73,1.73;}
	.st9{fill:#FF94D9;}
	.st10{fill:none;stroke:#D11851;stroke-width:0.75;stroke-miterlimit:10;}
	.st11{fill:#1A1A1A;}
	.st12{font-family:'AdobeSongStd-Light-GBpc-EUC-H';}
	.st13{font-size:14px;}
	.st14{letter-spacing:2.3;}
	.st15{opacity:0.65;}
	.st16{opacity:0.3;fill:#FF94D9;enable-background:new    ;}
	.st17{opacity:0.3;fill:none;stroke:#D11851;stroke-width:0.75;stroke-miterlimit:10;enable-background:new    ;}
	.st18{fill:#FF0BA2;}
	.st19{fill:none;stroke:#CE0076;stroke-width:2;stroke-miterlimit:10;}
	.st20{font-family:'ArialMT';}
	.st21{fill:none;stroke:#1A1A1A;stroke-width:0.8984;stroke-miterlimit:10;}
	.st22{fill:#4D4D4D;}
	.st23{font-size:17.09px;}
	.st24{fill:none;stroke:#808080;stroke-width:0.88;}
	.st25{fill:none;stroke:#D11851;stroke-width:0.88;stroke-miterlimit:10;}
</style>
<g id="_图层_1-2">
	<g>
		<g>
			<path class="st0" d="M182.2,452.8c-5.3,0-12.3-0.7-17.6-0.7s-12.3,0.6-17.6,0.7s-12.3-0.1-17.6,0c-2.3,0.1-8.2,0.3-17.6,0.7v0.7
				c9.4,0,15.2,0,17.6,0c5.3,0,12.3,0,17.6,0s12.3,0,17.6,0s12.3,0,17.6,0s12.3,0,17.6,0s12.3,0,17.6,0c-5.3-0.3-12.3-1.8-17.6-2
				C194.5,451.9,187.5,452.8,182.2,452.8L182.2,452.8z"/>
			<path class="st1" d="M217.3,454.1c-5.3-0.3-12.3-1.8-17.6-2s-12.3,0.7-17.6,0.7s-12.3-0.7-17.6-0.7s-12.3,0.6-17.6,0.7
				s-12.3-0.1-17.6,0c-2.3,0.1-8.2,0.3-17.6,0.7"/>
		</g>
		<g class="st2">
			<path class="st3" d="M357.7,396.2c-5.3,0-12.3,0.1-17.5,0c-5.3-0.1-12.3-0.6-17.5-0.6c-5.3,0-12.3,0.5-17.5,0.6
				c-5.3,0.1-12.3,0.7-17.5,0s-12.3-4.4-17.5-4.3c-5.3,0.1-12.3,4.2-17.5,5c5.3,0,12.3,0,17.5,0c5.3,0,12.3,0,17.5,0
				c5.3,0,12.3,0,17.5,0c5.3,0,12.3,0,17.5,0c5.3,0,12.3,0,17.5,0s12.3,0,17.5,0c5.3,0,12.3,0,17.5,0s12.3,0,17.5,0
				c-5.3-0.1-12.3-0.5-17.5-0.6C370,396.1,363,396.2,357.7,396.2L357.7,396.2z"/>
			<path class="st4" d="M392.8,396.8c-5.3-0.1-12.3-0.5-17.5-0.6c-5.3-0.1-12.3,0-17.5,0c-5.3,0-12.3,0.1-17.5,0
				c-5.3-0.1-12.3-0.6-17.5-0.6c-5.3,0-12.3,0.5-17.5,0.6c-5.3,0.1-12.3,0.7-17.5,0s-12.3-4.4-17.5-4.3c-5.3,0.1-12.3,4.2-17.5,5"/>
		</g>
		<g class="st2">
			<g>
				<path class="st3" d="M287.5,339.6c5.3,0,12.3,0,17.5,0c4.4,0,10.1,0,14.9,0c-4.8-0.2-10.5-1.2-14.9-1.2
					C299.8,338.3,292.8,339.4,287.5,339.6z"/>
				<path class="st3" d="M410.3,336.3c-9.4,0.4-15.2,0.6-17.5,0.6c-5.3,0.1-12.3,0-17.5,0c-5.3,0-12.3,0.1-17.5,0s-12.3-1-17.5-0.6
					c-5.3,0.4-12.3,2.8-17.5,3.1c5.3,0,12.3,0,17.5,0c5.3,0,12.3,0,17.5,0c5.3,0,12.3,0,17.5,0c5.3,0,12.3,0,17.5,0
					c2.3,0,8.2,0,17.5,0V336.3z"/>
			</g>
			<g>
				<path class="st4" d="M320,339.5c-4.8-0.2-10.5-1.2-14.9-1.2c-5.3,0-12.3,1.1-17.5,1.3"/>
				<path class="st4" d="M410.3,336.3c-9.4,0.4-15.2,0.6-17.5,0.6c-5.3,0.1-12.3,0-17.5,0c-5.3,0-12.3,0.1-17.5,0s-12.3-1-17.5-0.6
					c-5.3,0.4-12.3,2.8-17.5,3.1"/>
			</g>
		</g>
		<g class="st2">
			<path class="st3" d="M410.3,274c-9.4,3.8-15.2,5.9-17.5,6.2c-5.3,0.8-12.3-0.7-17.5-1.2s-12.3-2.7-17.5-2.5
				c-5.3,0.2-12.3,3-17.5,3.7s-12.3,1.3-17.5,1.3c-5.3-0.1-12.3-1.9-17.5-1.8s-12.3,2.1-17.5,2.5c5.3,0,12.3,0,17.5,0
				c5.3,0,12.3,0,17.5,0c5.3,0,12.3,0,17.5,0s12.3,0,17.5,0c5.3,0,12.3,0,17.5,0c5.3,0,12.3,0,17.5,0c2.3,0,8.2,0,17.5,0V274
				L410.3,274z"/>
			<path class="st4" d="M410.3,274c-9.4,3.8-15.2,5.9-17.5,6.2c-5.3,0.8-12.3-0.7-17.5-1.2s-12.3-2.7-17.5-2.5
				c-5.3,0.2-12.3,3-17.5,3.7s-12.3,1.3-17.5,1.3c-5.3-0.1-12.3-1.9-17.5-1.8s-12.3,2.1-17.5,2.5"/>
		</g>
		<g class="st2">
			<path class="st3" d="M410.7,158.7c-9.4,3.4-15.2,5.2-17.5,5.6c-5.3,0.8-12.3,0.1-17.5,0c-5.3-0.1-12.3-0.3-17.5-0.6
				c-5.3-0.3-12.3-1.3-17.5-1.2c-5.3,0.1-12.3,2-17.5,1.9c-5.3-0.1-12.3-2.9-17.5-2.5c-5.3,0.5-12.3,4.8-17.5,5.6
				c5.3,0,12.3,0,17.5,0c5.3,0,12.3,0,17.5,0c5.3,0,12.3,0,17.5,0c5.3,0,12.3,0,17.5,0c5.3,0,12.3,0,17.5,0s12.3,0,17.5,0
				c2.3,0,8.2,0,17.5,0V158.7L410.7,158.7z"/>
			<path class="st4" d="M410.7,158.7c-9.4,3.4-15.2,5.2-17.5,5.6c-5.3,0.8-12.3,0.1-17.5,0c-5.3-0.1-12.3-0.3-17.5-0.6
				c-5.3-0.3-12.3-1.3-17.5-1.2c-5.3,0.1-12.3,2-17.5,1.9c-5.3-0.1-12.3-2.9-17.5-2.5c-5.3,0.5-12.3,4.8-17.5,5.6"/>
		</g>
		<g class="st2">
			<g>
				<path class="st3" d="M410.3,106.2c-9.4-1.9-15.2-2.7-17.5-2.5c-5.3,0.6-12.3,6.5-17.5,6.2c5.3,0,12.3,0,17.5,0
					c2.3,0,8.2,0,17.5,0V106.2L410.3,106.2z"/>
				<path class="st3" d="M252.4,105.8c-5.3,0.8-12.3,3.2-17.5,3.7s-12.3-0.1-17.6,0s-12.3,0.5-17.6,0.6c5.3,0,12.3,0,17.6,0
					s12.3,0,17.6,0s12.3,0,17.6,0c5.3,0,12.3,0,17.6,0c5.3,0,12.3,0,17.5,0c-5.3,0-12.3-4.9-17.5-5.6
					C264.7,103.9,257.7,105,252.4,105.8L252.4,105.8z"/>
				<path class="st3" d="M340.1,105.1c-5.3-0.1-12.3-3.6-17.5-3.7c-5.3-0.1-12.3,1.8-17.5,3.1c-5.3,1.3-12.3,5.6-17.5,5.6
					c5.3,0,12.3,0,17.5,0c5.3,0,12.3,0,17.5,0c5.3,0,12.3,0,17.5,0c5.3,0,12.3,0,17.5,0s12.3,0,17.5,0c-5.3-0.3-12.3-7.3-17.6-8
					C352.2,101.4,345.4,105.2,340.1,105.1L340.1,105.1z"/>
			</g>
			<g>
				<path class="st4" d="M410.3,106.2c-9.4-1.9-15.2-2.7-17.5-2.5c-5.3,0.6-12.3,6.5-17.5,6.2"/>
				<path class="st4" d="M287.5,110.1c-5.3,0-12.3-4.9-17.5-5.6c-5.3-0.7-12.3,0.5-17.6,1.3s-12.3,3.2-17.5,3.7s-12.3-0.1-17.6,0
					s-12.3,0.5-17.6,0.6"/>
				<path class="st4" d="M375.2,110c-5.3-0.3-12.3-7.3-17.6-8c-5.3-0.7-12.3,3.2-17.5,3.1s-12.3-3.6-17.5-3.7
					c-5.3-0.1-12.3,1.8-17.5,3.1c-5.3,1.3-12.3,5.6-17.5,5.6"/>
			</g>
		</g>
		<g>
			<line class="st5" x1="536.1" y1="110.2" x2="529.6" y2="110.2"/>
			<line class="st5" x1="536.1" y1="224.9" x2="529.6" y2="224.9"/>
			<line class="st5" x1="536.1" y1="167.5" x2="529.6" y2="167.5"/>
			<line class="st5" x1="536.1" y1="339.6" x2="529.6" y2="339.6"/>
			<line class="st5" x1="536.1" y1="282.2" x2="529.6" y2="282.2"/>
			<line class="st5" x1="536.1" y1="454.3" x2="529.6" y2="454.3"/>
			<line class="st5" x1="536.1" y1="511.6" x2="529.6" y2="511.6"/>
			<line class="st5" x1="536.1" y1="569" x2="529.6" y2="569"/>
			<line class="st5" x1="536.1" y1="626.3" x2="529.6" y2="626.3"/>
			<line class="st5" x1="536.1" y1="683.7" x2="529.6" y2="683.7"/>
			<line class="st5" x1="536.1" y1="396.9" x2="529.6" y2="396.9"/>
		</g>
		<g>
			<line class="st5" x1="105.5" y1="110.2" x2="99.1" y2="110.2"/>
			<line class="st5" x1="105.5" y1="167.5" x2="99.1" y2="167.5"/>
			<line class="st5" x1="105.5" y1="224.9" x2="99.1" y2="224.9"/>
			<line class="st5" x1="105.5" y1="339.6" x2="99.1" y2="339.6"/>
			<line class="st5" x1="105.5" y1="396.9" x2="99.1" y2="396.9"/>
			<line class="st5" x1="105.5" y1="454.3" x2="99.1" y2="454.3"/>
			<line class="st5" x1="105.5" y1="511.6" x2="99.1" y2="511.6"/>
			<line class="st5" x1="105.5" y1="569" x2="99.1" y2="569"/>
			<line class="st5" x1="105.5" y1="683.7" x2="99.1" y2="683.7"/>
			<line class="st5" x1="105.5" y1="626.3" x2="99.1" y2="626.3"/>
			<line class="st5" x1="105.5" y1="282.2" x2="99.1" y2="282.2"/>
		</g>
		<g>
			<line class="st6" x1="112" y1="110.1" x2="410.3" y2="110.1"/>
			<line class="st6" x1="112" y1="167.4" x2="410.3" y2="167.4"/>
			<line class="st6" x1="112" y1="224.8" x2="410.3" y2="224.8"/>
			<line class="st6" x1="112" y1="339.5" x2="410.3" y2="339.5"/>
			<line class="st6" x1="112" y1="396.8" x2="410.3" y2="396.8"/>
			<line class="st6" x1="112" y1="454.2" x2="410.3" y2="454.2"/>
			<line class="st6" x1="112" y1="511.5" x2="410.3" y2="511.5"/>
			<line class="st6" x1="112" y1="568.9" x2="410.3" y2="568.9"/>
			<line class="st6" x1="112" y1="626.2" x2="410.3" y2="626.2"/>
			<line class="st7" x1="112" y1="683.6" x2="410.3" y2="683.6"/>
			<line class="st6" x1="112" y1="282.1" x2="410.3" y2="282.1"/>
		</g>
		<g>
			<line class="st6" x1="542.6" y1="110.1" x2="840.9" y2="110.1"/>
			<line class="st6" x1="542.6" y1="167.5" x2="840.9" y2="167.5"/>
			<line class="st6" x1="542.6" y1="224.8" x2="840.9" y2="224.8"/>
			<line class="st6" x1="542.6" y1="339.5" x2="840.9" y2="339.5"/>
			<line class="st6" x1="542.6" y1="396.9" x2="840.9" y2="396.9"/>
			<line class="st6" x1="542.6" y1="454.2" x2="840.9" y2="454.2"/>
			<line class="st6" x1="542.6" y1="511.6" x2="840.9" y2="511.6"/>
			<line class="st8" x1="542.6" y1="568.9" x2="840.9" y2="568.9"/>
			<line class="st6" x1="542.6" y1="626.3" x2="840.9" y2="626.3"/>
			<line class="st6" x1="542.6" y1="683.6" x2="840.9" y2="683.6"/>
			<line class="st6" x1="542.6" y1="282.2" x2="840.9" y2="282.2"/>
		</g>
		<g class="st2">
			<path class="st3" d="M770.7,682.9c-5.3,0.1-12.3,0.6-17.5,0.7c5.3,0,12.3,0,17.5,0c5.3,0,12.3,0,17.5,0c5.3,0,12.3,0,17.5,0
				c-5.3-0.1-12.3-0.6-17.5-0.7S776,682.8,770.7,682.9L770.7,682.9z"/>
			<path class="st4" d="M805.8,683.6c-5.3-0.1-12.3-0.6-17.5-0.7c-5.3-0.1-12.3-0.1-17.5,0c-5.3,0.1-12.3,0.6-17.5,0.7"/>
		</g>
		<g class="st2">
			<g>
				<path class="st3" d="M392.8,568.2c-5.3-0.1-12.3,0-17.5,0c-5.3,0-12.3,0-17.5,0c-5.3,0-12.3,0-17.5,0c-5.3,0-12.3,0-17.5,0
					c-5.3,0-12.3,0-17.5,0c-5.3,0-12.3,0-17.5,0s-12.3-0.1-17.5,0c-5.3,0.1-12.3,0.5-17.6,0.6c5.3,0,12.3,0,17.6,0
					c5.3,0,12.3,0,17.5,0c5.3,0,12.3,0,17.5,0c5.3,0,12.3,0,17.5,0s12.3,0,17.5,0s12.3,0,17.5,0c5.3,0,12.3,0,17.5,0
					c5.3,0,12.3,0,17.5,0c2.3,0,8.2,0,17.5,0C401,568.4,395.1,568.2,392.8,568.2z"/>
				<path class="st4" d="M410.3,568.8c-9.4-0.4-15.2-0.6-17.5-0.6c-5.3-0.1-12.3,0-17.5,0c-5.3,0-12.3,0-17.5,0
					c-5.3,0-12.3,0-17.5,0c-5.3,0-12.3,0-17.5,0c-5.3,0-12.3,0-17.5,0c-5.3,0-12.3,0-17.5,0s-12.3-0.1-17.5,0
					c-5.3,0.1-12.3,0.5-17.6,0.6"/>
			</g>
			<g>
				<path class="st9" d="M392.8,567.7c-5.3-0.2-12.3-0.2-17.5,0c-5.3,0.2-12.3,1.1-17.5,1.3c5.3,0,12.3,0,17.5,0
					c5.3,0,12.3,0,17.5,0c2.3,0,8.2,0,17.5,0C401,568.2,395.1,567.7,392.8,567.7z"/>
				<path class="st10" d="M410.3,568.9c-9.4-0.7-15.2-1.1-17.5-1.2c-5.3-0.2-12.3-0.2-17.5,0c-5.3,0.2-12.3,1.1-17.5,1.3"/>
			</g>
		</g>
		<g class="st2">
			<g>
				<g>
					<path class="st3" d="M252.4,510.9c-5.3,0-12.3-0.7-17.6-0.6s-12.3,1.1-17.6,1.3c5.3,0,12.3,0,17.6,0s12.3,0,17.6,0
						c5.3,0,12.3,0,17.5,0c5.3,0,12.3,0,17.5,0c-5.3-0.2-12.3-1.1-17.5-1.2C264.7,510.2,257.7,510.9,252.4,510.9L252.4,510.9z"/>
					<path class="st3" d="M410.3,510.1c-9.4,0-15.2,0-17.5,0c-5.3,0-12.3,0-17.5,0c-5.3,0-12.3-0.1-17.5,0
						c-5.3,0.1-12.3,0.4-17.5,0.6c-5.3,0.2-12.3,0.5-17.5,0.6c5.3,0,12.3,0,17.5,0s12.3,0,17.5,0c5.3,0,12.3,0,17.5,0
						c5.3,0,12.3,0,17.5,0c2.3,0,8.2,0,17.5,0V510.1z"/>
				</g>
				<g>
					<path class="st4" d="M287.5,511.5c-5.3-0.2-12.3-1.1-17.5-1.2c-5.3-0.1-12.3,0.6-17.6,0.6s-12.3-0.7-17.6-0.6
						s-12.3,1.1-17.6,1.3"/>
					<path class="st4" d="M410.3,510.1c-9.4,0-15.2,0-17.5,0c-5.3,0-12.3,0-17.5,0c-5.3,0-12.3-0.1-17.5,0
						c-5.3,0.1-12.3,0.4-17.5,0.6c-5.3,0.2-12.3,0.5-17.5,0.6"/>
				</g>
			</g>
			<g>
				<g>
					<path class="st9" d="M357.7,511c-5.3,0.1-12.3,0.5-17.5,0.6c5.3,0,12.3,0,17.5,0c5.3,0,12.3,0,17.5,0c4,0,9.1,0,13.6,0
						c-4.5-0.1-9.6-0.5-13.6-0.6C370,510.9,363,510.9,357.7,511z"/>
					<path class="st9" d="M410.3,509.7c-9.4,1.2-15.2,1.8-17.5,1.9c2.3,0,8.2,0,17.5,0V509.7z"/>
				</g>
				<g>
					<path class="st10" d="M388.9,511.5c-4.5-0.1-9.6-0.5-13.6-0.6c-5.3-0.1-12.3-0.1-17.5,0c-5.3,0.1-12.3,0.5-17.5,0.6"/>
					<path class="st10" d="M410.3,509.7c-9.4,1.2-15.2,1.8-17.5,1.9"/>
				</g>
			</g>
		</g>
		<g class="st2">
			<g>
				<g>
					<path class="st3" d="M700.5,511.6c5.3,0,12.3,0,17.5,0c5.3,0,12.3,0,17.5,0c-5.3,0-12.3-0.7-17.5-0.7S705.8,511.5,700.5,511.6
						L700.5,511.6z"/>
					<path class="st3" d="M840.9,510.1c-9.4,0-15.2,0-17.5,0c-5.3,0.1-12.3,0.6-17.5,0.7c-5.3,0.1-12.3,0.1-17.5,0
						c-5.3-0.1-12.3-0.7-17.5-0.7c-5.3,0-12.3,0.5-17.5,0.7c-5.3,0.2-12.3,0.7-17.5,0.7c5.3,0,12.3,0,17.5,0c5.3,0,12.3,0,17.5,0
						c5.3,0,12.3,0,17.5,0c5.3,0,12.3,0,17.5,0c5.3,0,12.3,0,17.5,0c2.3,0,8.2,0,17.5,0V510.1L840.9,510.1z"/>
				</g>
				<g>
					<path class="st4" d="M735.6,511.5c-5.3,0-12.3-0.7-17.5-0.7c-5.3,0-12.3,0.6-17.5,0.7"/>
					<path class="st4" d="M840.9,510.1c-9.4,0-15.2,0-17.5,0c-5.3,0.1-12.3,0.6-17.5,0.7c-5.3,0.1-12.3,0.1-17.5,0
						c-5.3-0.1-12.3-0.7-17.5-0.7c-5.3,0-12.3,0.5-17.5,0.7c-5.3,0.2-12.3,0.7-17.5,0.7"/>
				</g>
			</g>
			<g>
				<path class="st9" d="M840.9,509.5c-9.4,0.8-15.2,1.3-17.5,1.4c-5.3,0.2-12.3-0.1-17.5,0c-5.3,0.1-12.3,0.6-17.5,0.7
					c5.3,0,12.3,0,17.5,0c5.3,0,12.3,0,17.5,0c2.3,0,8.2,0,17.5,0V509.5L840.9,509.5z"/>
				<path class="st10" d="M840.9,509.5c-9.4,0.8-15.2,1.3-17.5,1.4c-5.3,0.2-12.3-0.1-17.5,0c-5.3,0.1-12.3,0.6-17.5,0.7"/>
			</g>
		</g>
		<g class="st2">
			<path class="st9" d="M164.7,452.9c-5.3,0.2-12.3,1.2-17.6,1.4c5.3,0,12.3,0,17.6,0s12.3,0,17.6,0s12.3,0,17.6,0
				c-5.3-0.2-12.3-1.1-17.6-1.3C177,452.7,169.9,452.7,164.7,452.9z"/>
			<path class="st10" d="M199.8,454.2c-5.3-0.2-12.3-1.1-17.6-1.3c-5.3-0.2-12.3-0.2-17.6,0s-12.3,1.2-17.6,1.4"/>
		</g>
		<g class="st2">
			<g>
				<g>
					<path class="st3" d="M840.9,452.7c-9.4-1-15.2-1.4-17.5-1.3c-5.3,0.2-12.3,2.4-17.5,2.7c5.3,0,12.3,0,17.5,0
						c2.3,0,8.2,0,17.5,0V452.7L840.9,452.7z"/>
					<path class="st3" d="M770.7,452.2c-5.3,0-12.3,1.7-17.5,1.4c-5.3-0.3-12.3-3.4-17.5-3.3c-5.3,0.1-12.3,3.4-17.5,4.1
						c5.3,0,12.3,0,17.5,0c5.3,0,12.3,0,17.5,0c5.3,0,12.3,0,17.5,0c5.3,0,12.3,0,17.5,0c3.3,0,7.3,0,11.1,0
						c-3.8-0.1-7.8-0.5-11.1-0.7C783,453.2,776,452.2,770.7,452.2L770.7,452.2z"/>
				</g>
				<g>
					<path class="st4" d="M840.9,452.7c-9.4-1-15.2-1.4-17.5-1.3c-5.3,0.2-12.3,2.4-17.5,2.7"/>
					<path class="st4" d="M799.3,454.1c-3.8-0.1-7.8-0.5-11.1-0.7c-5.2-0.2-12.2-1.2-17.5-1.2s-12.3,1.7-17.5,1.4
						c-5.3-0.3-12.3-3.4-17.5-3.3c-5.3,0.1-12.3,3.4-17.5,4.1"/>
				</g>
			</g>
			<g>
				<g>
					<path class="st9" d="M840.9,453.4c-9.4-0.5-15.2-0.7-17.5-0.7c-5.3,0.1-12.3,1.2-17.5,1.4c5.3,0,12.3,0,17.5,0
						c2.3,0,8.2,0,17.5,0V453.4L840.9,453.4z"/>
					<path class="st9" d="M753.2,453.5c-5.3,0-12.3-0.1-17.5,0c-5.3,0.1-12.3,0.6-17.5,0.7c5.3,0,12.3,0,17.5,0c5.3,0,12.3,0,17.5,0
						c5.3,0,12.3,0,17.5,0c5.3,0,12.3,0,17.5,0c-5.3-0.1-12.3-0.6-17.5-0.7C765.4,453.4,758.4,453.5,753.2,453.5L753.2,453.5z"/>
				</g>
				<g>
					<path class="st10" d="M840.9,453.4c-9.4-0.5-15.2-0.7-17.5-0.7c-5.3,0.1-12.3,1.2-17.5,1.4"/>
					<path class="st10" d="M788.2,454.2c-5.3-0.1-12.3-0.6-17.5-0.7c-5.3-0.1-12.3,0-17.5,0c-5.3,0-12.3-0.1-17.5,0
						c-5.3,0.1-12.3,0.6-17.5,0.7"/>
				</g>
			</g>
		</g>
		<g class="st2">
			<g>
				<path class="st9" d="M410.3,396.8v-0.6c-9.4,0-15.2,0-17.5,0c-4.5,0.1-10.4,0.6-15.3,0.6c4.9,0,10.8,0,15.3,0
					C395.1,396.8,401,396.8,410.3,396.8z"/>
				<path class="st9" d="M340.1,395.6c-5.3,0-12.3-0.1-17.5,0c-5.3,0.1-12.3,0.4-17.5,0.6c-5.3,0.2-12.3,0.5-17.5,0.6
					c5.3,0,12.3,0,17.5,0c5.3,0,12.3,0,17.5,0s12.3,0,17.5,0s12.3,0,17.5,0c5.3,0,12.3,0,17.5,0c-5.3-0.1-12.3-1-17.5-1.2
					S345.4,395.6,340.1,395.6z"/>
			</g>
			<g>
				<path class="st10" d="M410.3,396.2c-9.4,0-15.2,0-17.5,0c-4.5,0.1-10.4,0.6-15.3,0.6"/>
				<path class="st10" d="M375.2,396.8c-5.3-0.1-12.3-1-17.5-1.2c-5.3-0.2-12.3,0-17.5,0c-5.3,0-12.3-0.1-17.5,0
					c-5.3,0.1-12.3,0.4-17.5,0.6c-5.3,0.2-12.3,0.5-17.5,0.6"/>
			</g>
		</g>
		<g class="st2">
			<g>
				<g>
					<path class="st3" d="M647.9,395.5c-5.3,0.2-12.3,1.2-17.5,1.4c5.3,0,12.3,0,17.5,0c5.3,0,12.3,0,17.5,0c5.3,0,12.3,0,17.5,0
						c-5.3-0.2-12.3-1.1-17.5-1.3S653.1,395.3,647.9,395.5z"/>
					<path class="st3" d="M823.3,396c-5.3,0-12.3,0.7-17.5,0.7c5.3,0,12.3,0,17.5,0c2.3,0,8.2,0,17.5,0
						C831.5,396.2,825.7,396,823.3,396L823.3,396z"/>
					<path class="st3" d="M700.5,396.8c5.3,0,12.3,0,17.5,0c5.3,0,12.3,0,17.5,0c-5.3,0-12.3-2-17.5-2S705.8,396.5,700.5,396.8
						L700.5,396.8z"/>
					<path class="st3" d="M770.7,394c-5.3-0.2-12.3,0.3-17.5,0.7c-5.3,0.4-12.3,2-17.5,2c5.3,0,12.3,0,17.5,0c5.3,0,12.3,0,17.5,0
						c5.3,0,12.3,0,17.5,0c5.3,0,12.3,0,17.5,0c-5.3,0-12.3-0.2-17.5-0.7C783,395.6,776,394.2,770.7,394L770.7,394z"/>
				</g>
				<g>
					<path class="st4" d="M683,396.8c-5.3-0.2-12.3-1.1-17.5-1.3s-12.3-0.2-17.5,0c-5.3,0.2-12.3,1.2-17.5,1.4"/>
					<path class="st4" d="M840.9,396.6c-9.4-0.4-15.2-0.7-17.5-0.7c-5.3,0-12.3,0.7-17.5,0.7"/>
					<path class="st4" d="M735.6,396.8c-5.3,0-12.3-2-17.5-2c-5.3,0-12.3,1.7-17.5,2"/>
					<path class="st4" d="M805.8,396.7c-5.3,0-12.3-0.2-17.5-0.7c-5.3-0.4-12.3-1.8-17.5-2c-5.3-0.2-12.3,0.3-17.5,0.7
						c-5.3,0.4-12.3,2-17.5,2"/>
				</g>
			</g>
			<g>
				<g>
					<path class="st9" d="M840.9,396.7c-9.4-0.4-15.2-0.7-17.5-0.7c-4.6,0-10.5,0.6-15.5,0.7c4.9,0,10.9,0,15.5,0
						C825.7,396.8,831.5,396.8,840.9,396.7L840.9,396.7z"/>
					<path class="st9" d="M770.7,395.5c-5.3,0-12.3,0-17.5,0c-5.3,0-12.3-0.2-17.5,0c-5.3,0.2-12.3,1.2-17.5,1.4
						c5.3,0,12.3,0,17.5,0c5.3,0,12.3,0,17.5,0c5.3,0,12.3,0,17.5,0c5.3,0,12.3,0,17.5,0c5.3,0,12.3,0,17.5,0
						c-5.3-0.1-12.3-1.1-17.5-1.3S776,395.5,770.7,395.5z"/>
				</g>
				<g>
					<path class="st10" d="M840.9,396.7c-9.4-0.4-15.2-0.7-17.5-0.7c-4.6,0-10.5,0.6-15.5,0.7"/>
					<path class="st10" d="M805.8,396.8c-5.3-0.1-12.3-1.1-17.5-1.3s-12.3,0-17.5,0c-5.3,0-12.3,0-17.5,0c-5.3,0-12.3-0.2-17.5,0
						c-5.3,0.2-12.3,1.2-17.5,1.4"/>
				</g>
			</g>
		</g>
		<g class="st2">
			<g>
				<path class="st9" d="M322.6,339.6c5.3,0,12.3,0,17.5,0c5.3,0,12.3,0,17.5,0c-5.3-0.1-12.3-0.6-17.5-0.6
					C334.9,338.9,327.9,339.5,322.6,339.6z"/>
				<path class="st9" d="M392.8,338.9c-5.3,0-12.3,0.5-17.5,0.6c5.3,0,12.3,0,17.5,0c2.3,0,8.2,0,17.5,0
					C401,339.1,395.1,338.9,392.8,338.9z"/>
			</g>
			<g>
				<path class="st10" d="M357.7,339.5c-5.3-0.1-12.3-0.6-17.5-0.6c-5.3,0-12.3,0.5-17.5,0.6"/>
				<path class="st10" d="M410.3,339.5c-9.4-0.4-15.2-0.6-17.5-0.6c-5.3,0-12.3,0.5-17.5,0.6"/>
			</g>
		</g>
		<g class="st2">
			<g>
				<g>
					<path class="st3" d="M665.4,338.8c-5.3,0.3-12.3,0.6-17.5,0.7c5.3,0,12.3,0,17.5,0s12.3,0,17.5,0c5.3,0,12.3,0,17.5,0
						c-5.3,0-12.3-1.9-17.5-2S670.7,338.5,665.4,338.8L665.4,338.8z"/>
					<path class="st3" d="M840.9,338.6c-7.9,0.4-13.2,0.7-16.1,0.7c2.9,0,8.3,0,16.1,0V338.6z"/>
					<path class="st3" d="M788.2,335.3c-5.3-0.1-12.3,2-17.5,2c-5.3,0-12.3-1.7-17.5-2c-5.3-0.3-12.3-0.3-17.5,0
						c-5.3,0.3-12.3,1.4-17.5,2c-5.3,0.6-12.3,2-17.5,2c5.3,0,12.3,0,17.5,0c5.3,0,12.3,0,17.5,0c5.3,0,12.3,0,17.5,0
						c5.3,0,12.3,0,17.5,0c5.3,0,12.3,0,17.5,0c5.3,0,12.3,0,17.5,0c5.3,0,12.3,0,17.5,0c-5.3-0.1-12.3-0.7-17.5-1.3
						C800.5,337.4,793.5,335.5,788.2,335.3L788.2,335.3z"/>
				</g>
				<g>
					<path class="st4" d="M700.5,339.5c-5.3,0-12.3-1.9-17.5-2c-5.3-0.1-12.3,1.1-17.5,1.4c-5.3,0.3-12.3,0.6-17.5,0.7"/>
					<path class="st4" d="M840.9,338.6c-7.9,0.4-13.2,0.7-16.1,0.7"/>
					<path class="st4" d="M823.3,339.3c-5.3-0.1-12.3-0.7-17.5-1.3c-5.3-0.6-12.3-2.6-17.5-2.7s-12.3,2-17.5,2
						c-5.3,0-12.3-1.7-17.5-2c-5.3-0.3-12.3-0.3-17.5,0c-5.3,0.3-12.3,1.4-17.5,2c-5.3,0.6-12.3,2-17.5,2"/>
				</g>
			</g>
			<g>
				<path class="st9" d="M718.1,339.5c5.3,0,12.3,0,17.5,0c5.3,0,12.3,0,17.5,0c-5.3-0.1-12.3-0.7-17.5-0.7
					C730.3,338.9,723.3,339.4,718.1,339.5L718.1,339.5z"/>
				<path class="st10" d="M753.2,339.5c-5.3-0.1-12.3-0.7-17.5-0.7c-5.3,0-12.3,0.6-17.5,0.7"/>
			</g>
		</g>
		<g class="st2">
			<path class="st9" d="M410.3,281.4c-9.4,0-15.2,0.1-17.5,0c-5.3-0.1-12.3-0.2-17.5-0.6c-5.3-0.4-12.3-2-17.5-1.8
				c-5.3,0.2-12.3,2.7-17.5,3.1c5.3,0,12.3,0,17.5,0c5.3,0,12.3,0,17.5,0c5.3,0,12.3,0,17.5,0c2.3,0,8.2,0,17.5,0V281.4L410.3,281.4
				z"/>
			<path class="st10" d="M410.3,281.4c-9.4,0-15.2,0.1-17.5,0c-5.3-0.1-12.3-0.2-17.5-0.6c-5.3-0.4-12.3-2-17.5-1.8
				c-5.3,0.2-12.3,2.7-17.5,3.1"/>
		</g>
		<g>
			<g>
				<path class="st0" d="M129.6,222.7c-2.3,0.1-8.2,0.8-17.6,2c9.4,0,15.2,0,17.6,0c5.3,0,12.3,0,17.6,0c3.9,0,8.9,0,13.3,0
					c-4.4-0.2-9.4-1.1-13.3-1.3C141.9,223,134.8,222.5,129.6,222.7L129.6,222.7z"/>
				<path class="st0" d="M199.8,219.2c-5.3,0.4-12.3,0.5-17.6,1.4c-5.3,0.8-12.3,3.6-17.5,4c5.3,0,12.3,0,17.6,0s12.3,0,17.6,0
					s12.3,0,17.6,0s12.3,0,17.6,0c-5.3-1-12.3-5.9-17.6-6.7S205,218.8,199.8,219.2L199.8,219.2z"/>
			</g>
			<g>
				<path class="st1" d="M160.4,224.6c-4.4-0.2-9.4-1.1-13.3-1.3c-5.3-0.3-12.3-0.9-17.6-0.7c-2.3,0.1-8.2,0.8-17.6,2"/>
				<path class="st1" d="M234.9,224.5c-5.3-1-12.3-5.9-17.6-6.7s-12.3,1-17.6,1.4s-12.3,0.5-17.6,1.4c-5.3,0.8-12.3,3.6-17.5,4"/>
			</g>
		</g>
		<g class="st2">
			<g>
				<path class="st9" d="M410.3,109.4c-9.4,0-15.2,0-17.5,0c-5.3,0.1-12.3,0.5-17.5,0.6c5.3,0,12.3,0,17.5,0c2.3,0,8.2,0,17.5,0
					V109.4z"/>
				<path class="st9" d="M305,110.1c5.3,0,12.3,0,17.5,0c5.3,0,12.3,0,17.5,0c-5.3-0.1-12.3-0.6-17.5-0.6S310.3,110,305,110.1z"/>
				<path class="st9" d="M252.4,108.3c-5.3,0.1-12.3,1.6-17.6,1.9c5.3,0,12.3,0,17.6,0c5.3,0,12.3,0,17.5,0s12.3,0,17.5,0
					c-5.3-0.1-12.3-0.3-17.5-0.6C264.7,109.3,257.7,108.2,252.4,108.3L252.4,108.3z"/>
			</g>
			<g>
				<path class="st10" d="M410.3,109.4c-9.4,0-15.2,0-17.5,0c-5.3,0.1-12.3,0.5-17.5,0.6"/>
				<path class="st10" d="M340.1,110.1c-5.3-0.1-12.3-0.6-17.5-0.6c-5.3,0-12.3,0.5-17.5,0.6"/>
				<path class="st10" d="M287.5,110.1c-5.3-0.1-12.3-0.3-17.5-0.6c-5.3-0.3-12.3-1.3-17.6-1.2c-5.3,0.1-12.3,1.6-17.6,1.9"/>
			</g>
		</g>
		<text transform="matrix(0.88 0 0 1 43.8096 116.7828)" class="st11 st12 st13 st14">科威特</text>
		<text transform="matrix(0.88 0 0 1 0 174.0626)" class="st11 st12 st13 st14">吉尔吉斯斯坦</text>
		<text transform="matrix(0.88 0 0 1 37.25 231.4229)" class="st11 st12 st13 st14">以色列</text>
		<text transform="matrix(0.88 0 0 1 43.8096 288.8526)" class="st11 st12 st13 st14">阿联酋</text>
		<text transform="matrix(0.88 0 0 1 14.5996 345.9923)" class="st11 st12 st13 st14">塔吉克斯坦</text>
		<text transform="matrix(0.88 0 0 1 43.8096 403.3526)" class="st11 st12 st13 st14">尼泊尔</text>
		<text transform="matrix(0.88 0 0 1 58.4097 460.6739)" class="st11 st12 st13 st14">锡兰</text>
		<text transform="matrix(0.88 0 0 1 43.8096 517.9337)" class="st11 st12 st13 st14">黎巴嫩</text>
		<text transform="matrix(0.88 0 0 1 29.21 575.2238)" class="st11 st12 st13 st14">孟加拉国</text>
		<text transform="matrix(0.88 0 0 1 58.4097 632.2335)" class="st11 st12 st13 st14">阿曼</text>
		<text transform="matrix(0.88 0 0 1 29.21 689.8038)" class="st11 st12 st13 st14">巴勒斯坦</text>
		<text transform="matrix(0.88 0 0 1 491.3301 288.9923)" class="st11 st12 st13 st14">约旦</text>
		<text transform="matrix(0.88 0 0 1 476.7295 345.9522)" class="st11 st12 st13 st14">叙利亚</text>
		<text transform="matrix(0.88 0 0 1 462.1299 403.4132)" class="st11 st12 st13 st14">斯里兰卡</text>
		<text transform="matrix(0.88 0 0 1 447.5195 460.6935)" class="st11 st12 st13 st14">土库曼斯坦</text>
		<text transform="matrix(0.88 0 0 1 491.3301 518.1339)" class="st11 st12 st13 st14">老挝</text>
		<text transform="matrix(0.88 0 0 1 476.7295 575.3536)" class="st11 st12 st13 st14">阿富汗</text>
		<text transform="matrix(0.88 0 0 1 476.7295 632.7032)" class="st11 st12 st13 st14">柬埔寨</text>
		<text transform="matrix(0.88 0 0 1 491.3301 690.0441)" class="st11 st12 st13 st14">也门</text>
		<text transform="matrix(0.88 0 0 1 490.0693 116.8326)" class="st11 st12 st13 st14">文莱</text>
		<text transform="matrix(0.88 0 0 1 447.0195 174.1329)" class="st11 st12 st13 st14">沙特阿拉伯</text>
		<text transform="matrix(0.88 0 0 1 476.2197 231.3829)" class="st11 st12 st13 st14">伊拉克</text>
		<g class="st2">
			<g>
				<g>
					<path class="st3" d="M683,109.5c-5.3,0.2-12.3,0.6-17.5,0.7c5.3,0,12.3,0,17.5,0c5.3,0,12.3,0,17.5,0c5.3,0,12.3,0,17.5,0
						c-5.3-0.2-12.3-1.2-17.5-1.3C695.3,108.8,688.2,109.3,683,109.5L683,109.5z"/>
					<path class="st3" d="M840.9,104.6c-9.4-1-15.2-1.5-17.5-1.3c-5.3,0.3-12.3,3.9-17.5,3.4c-5.3-0.5-12.3-6.4-17.6-6.7
						c-5.3-0.3-12.3,3.3-17.5,4.7c-5.3,1.4-12.3,3.9-17.5,4.7c-5.3,0.8-12.3,0.6-17.5,0.7c5.3,0,12.3,0,17.5,0c5.3,0,12.3,0,17.5,0
						c5.3,0,12.3,0,17.5,0c5.3,0,12.3,0,17.5,0c5.3,0,12.3,0,17.5,0c2.3,0,8.2,0,17.5,0L840.9,104.6L840.9,104.6z"/>
				</g>
				<g>
					<path class="st4" d="M718.1,110.1c-5.3-0.2-12.3-1.2-17.5-1.3s-12.4,0.4-17.6,0.6c-5.3,0.2-12.3,0.6-17.5,0.7"/>
					<path class="st4" d="M840.9,104.6c-9.4-1-15.2-1.5-17.5-1.3c-5.3,0.3-12.3,3.9-17.5,3.4c-5.3-0.5-12.3-6.4-17.6-6.7
						c-5.3-0.3-12.3,3.3-17.5,4.7c-5.3,1.4-12.3,3.9-17.5,4.7c-5.3,0.8-12.3,0.6-17.5,0.7"/>
				</g>
			</g>
			<g>
				<g class="st15">
					<path class="st9" d="M840.9,101.3c-9.4,2.7-15.2,4.3-17.5,4.7c-5.3,0.9-12.3,1.4-17.5,1.4c-5.3,0-12.3-1.7-17.5-1.3
						s-12.3,3.4-17.5,4c5.3,0,12.3,0,17.5,0c5.3,0,12.3,0,17.5,0c5.3,0,12.3,0,17.5,0c2.3,0,8.2,0,17.5,0V101.3L840.9,101.3z"/>
					<path class="st9" d="M718.1,110.1c5.3,0,12.3,0,17.5,0c5.3,0,12.3,0,17.5,0c-5.3-0.2-12.3-1.3-17.5-1.3
						C730.3,108.8,723.3,109.9,718.1,110.1L718.1,110.1z"/>
				</g>
				<g>
					<path class="st10" d="M840.9,101.3c-9.4,2.7-15.2,4.3-17.5,4.7c-5.3,0.9-12.3,1.4-17.5,1.4c-5.3,0-12.3-1.7-17.5-1.3
						s-12.3,3.4-17.5,4"/>
					<path class="st10" d="M753.2,110.1c-5.3-0.2-12.3-1.3-17.5-1.3c-5.3,0-12.3,1.2-17.5,1.4"/>
				</g>
			</g>
		</g>
		<g class="st2">
			<g>
				<path class="st3" d="M718.1,166.8c-5.3,0.8-12.3,0-17.5,0c-5.3,0-12.3-0.1-17.5,0c-5.3,0.1-12.3,0.6-17.5,0.7
					c5.3,0,12.3,0,17.5,0c5.3,0,12.3,0,17.5,0c5.3,0,12.3,0,17.5,0c5.3,0,12.3,0,17.5,0c5.3,0,12.3,0,17.5,0
					c-5.3-0.1-12.3-5.9-17.5-6C730.4,161.4,723.3,165.9,718.1,166.8L718.1,166.8z"/>
				<path class="st3" d="M840.9,163.2c-9.4-0.1-15.2-0.3-17.5-0.7c-5.3-0.7-12.3-3.3-17.5-4c-5.3-0.7-12.3-1.2-17.5-0.7
					c-5.3,0.5-12.3,2.6-17.5,4c-5.3,1.4-12.3,5.5-17.5,5.4c5.3,0,12.3,0,17.5,0c5.3,0,12.3,0,17.5,0c5.3,0,12.3,0,17.5,0
					c5.3,0,12.3,0,17.5,0c2.3,0,8.2,0,17.5,0V163.2L840.9,163.2z"/>
			</g>
			<g>
				<path class="st4" d="M753.2,167.4c-5.3-0.1-12.3-5.9-17.5-6s-12.3,4.6-17.5,5.4c-5.3,0.8-12.3,0-17.5,0c-5.3,0-12.3-0.1-17.5,0
					c-5.3,0.1-12.3,0.6-17.5,0.7"/>
				<path class="st4" d="M840.9,163.2c-9.4-0.1-15.2-0.3-17.5-0.7c-5.3-0.7-12.3-3.3-17.5-4c-5.3-0.7-12.3-1.2-17.5-0.7
					c-5.3,0.5-12.3,2.6-17.5,4c-5.3,1.4-12.3,5.5-17.5,5.4"/>
			</g>
		</g>
		<g class="st2">
			<g>
				<path class="st3" d="M683,218.7c-5.3-0.5-12.3-2.5-17.5-2s-12.3,4.2-17.5,5.4c-5.3,1.2-12.3,2.3-17.5,2.7c5.3,0,12.3,0,17.5,0
					c5.3,0,12.3,0,17.5,0c5.3,0,12.3,0,17.5,0c5.3,0,12.3,0,17.5,0c5.3,0,12.3,0,17.5,0c-5.3-0.7-12.3-3.8-17.5-4.7
					C695.2,219.2,688.2,219.3,683,218.7L683,218.7z"/>
				<path class="st3" d="M840.9,222.6c-9.4-0.4-15.2-0.7-17.5-0.7c-5.3,0-12.3,0.6-17.5,0.7s-12.3-0.3-17.5,0
					c-5.3,0.3-12.3,1.7-17.5,2c5.3,0,12.3,0,17.5,0c5.3,0,12.3,0,17.5,0c5.3,0,12.3,0,17.5,0c2.3,0,8.2,0,17.5,0V222.6L840.9,222.6z
					"/>
			</g>
			<g>
				<path class="st4" d="M718.1,224.7c-5.3-0.7-12.3-3.8-17.5-4.7c-5.3-0.9-12.3-0.8-17.5-1.3c-5.3-0.5-12.3-2.5-17.5-2
					s-12.3,4.2-17.5,5.4c-5.3,1.2-12.3,2.3-17.5,2.7"/>
				<path class="st4" d="M840.9,222.6c-9.4-0.4-15.2-0.7-17.5-0.7c-5.3,0-12.3,0.6-17.5,0.7s-12.3-0.3-17.5,0
					c-5.3,0.3-12.3,1.7-17.5,2"/>
			</g>
		</g>
		<g>
			<g>
				<path class="st16" d="M199.8,221.3c-5.3,0.1-12.3-0.5-17.6,0s-12.3,2.9-17.6,3.4c5.3,0,12.3,0,17.6,0s12.3,0,17.6,0
					s12.3,0,17.6,0s12.3,0,17.6,0c-5.3-0.6-12.3-3.5-17.6-4C212,220.1,205,221.2,199.8,221.3L199.8,221.3z"/>
				<path class="st16" d="M112,224.8c9.4,0,15.2,0,17.5,0c5.3,0,12.3,0,17.6,0c-5.3-0.1-12.3-0.7-17.6-0.7
					C127.2,224.1,121.4,224.3,112,224.8L112,224.8z"/>
			</g>
			<g>
				<path class="st17" d="M234.9,224.6c-5.3-0.6-12.3-3.5-17.6-4s-12.3,0.6-17.6,0.7c-5.3,0.1-12.3-0.5-17.6,0s-12.3,2.9-17.6,3.4"
					/>
				<path class="st17" d="M147.1,224.7c-5.3-0.1-12.3-0.7-17.6-0.7c-2.3,0-8.2,0.2-17.6,0.7"/>
			</g>
		</g>
		<g class="st2">
			<g>
				<g>
					<path class="st3" d="M683,282.2c5.3,0,12.3,0,17.5,0s12.3,0,17.5,0c-5.3,0-12.3-2.7-17.5-2.7
						C695.2,279.5,688.2,281.8,683,282.2L683,282.2z"/>
					<path class="st3" d="M840.9,275.3c-9.4,2.4-15.2,3.7-17.5,4c-5.3,0.7-12.3,1-17.5,0.7c-5.3-0.3-12.3-2.8-17.5-2.7
						c-5.3,0.1-12.3,3.1-17.5,3.4c-5.3,0.3-12.3-1.1-17.5-1.3c-5.2-0.2-12.3-0.4-17.5,0s-12.3,2.7-17.5,2.7c5.3,0,12.3,0,17.5,0
						c5.3,0,12.3,0,17.5,0c5.3,0,12.3,0,17.5,0c5.3,0,12.3,0,17.5,0c5.3,0,12.3,0,17.5,0c5.3,0,12.3,0,17.5,0c2.3,0,8.2,0,17.5,0
						V275.3L840.9,275.3z"/>
				</g>
				<g>
					<path class="st4" d="M718.1,282.1c-5.3,0-12.3-2.7-17.5-2.7c-5.3,0-12.3,2.3-17.5,2.7"/>
					<path class="st4" d="M840.9,275.3c-9.4,2.4-15.2,3.7-17.5,4c-5.3,0.7-12.3,1-17.5,0.7c-5.3-0.3-12.3-2.8-17.5-2.7
						c-5.3,0.1-12.3,3.1-17.5,3.4c-5.3,0.3-12.3-1.1-17.5-1.3c-5.2-0.2-12.3-0.4-17.5,0s-12.3,2.7-17.5,2.7"/>
				</g>
			</g>
			<g>
				<g>
					<path class="st9" d="M735.6,282.2c5.3,0,12.3,0,17.5,0c5.3,0,12.3,0,17.5,0c-5.3,0-12.3-0.7-17.5-0.7
						C747.9,281.5,740.9,282.1,735.6,282.2L735.6,282.2z"/>
					<path class="st9" d="M788.2,281.5c-5.3,0.3-12.3,0.7-17.5,0.7c5.3,0,12.3,0,17.5,0c5.3,0,12.3,0,17.5,0c5.3,0,12.3,0,17.5,0
						c-5.3-0.1-12.3-1.9-17.5-2C800.5,280,793.5,281.2,788.2,281.5L788.2,281.5z"/>
					<path class="st9" d="M840.9,280.7c-8.6,0.9-14.2,1.3-16.9,1.4c2.7,0,8.3,0,16.9,0V280.7L840.9,280.7z"/>
				</g>
				<g>
					<path class="st10" d="M770.7,282.1c-5.3,0-12.3-0.7-17.5-0.7c-5.3,0-12.3,0.6-17.5,0.7"/>
					<path class="st10" d="M823.3,282.1c-5.3-0.1-12.3-1.9-17.5-2c-5.3-0.1-12.3,1.1-17.5,1.4c-5.3,0.3-12.3,0.7-17.5,0.7"/>
					<path class="st10" d="M840.9,280.7c-8.6,0.9-14.2,1.3-16.9,1.4"/>
				</g>
			</g>
		</g>
		<g>
			<g>
				<g>
					<path class="st3" d="M542.6,568.9c9.4,0,15.2,0,17.5,0c5.3,0,12.3,0,17.5,0c-5.3,0-12.3-0.7-17.5-0.7
						C557.8,568.3,551.9,568.5,542.6,568.9L542.6,568.9z"/>
					<path class="st3" d="M577.7,568.9c5.3,0,12.3,0,17.5,0c5.3,0,12.3,0,17.5,0c-5.3-0.1-12.3-0.7-17.5-0.7
						S582.9,568.9,577.7,568.9L577.7,568.9z"/>
					<path class="st3" d="M630.3,568.8c5.3,0,12.3,0,17.5,0c5.3,0,12.3,0,17.5,0c-5.3,0-12.3-0.7-17.5-0.7S635.6,568.7,630.3,568.8
						L630.3,568.8z"/>
					<path class="st3" d="M840.9,567.2c-9.4,0.1-15.2,0.1-17.5,0c-5.3-0.1-12.3-0.8-17.5-0.7c-5.3,0.1-12.3,1.1-17.5,1.4
						c-5.3,0.3-12.3,0.6-17.5,0.7c5.3,0,12.3,0,17.5,0c5.3,0,12.3,0,17.5,0c5.3,0,12.3,0,17.5,0c2.3,0,8.2,0,17.5,0V567.2
						L840.9,567.2z"/>
					<path class="st3" d="M665.4,568.8c5.3,0,12.3,0,17.5,0c5.3,0,12.3,0,17.5,0c-5.3-0.1-12.3-0.7-17.5-0.7
						S670.7,568.8,665.4,568.8L665.4,568.8z"/>
				</g>
				<g>
					<path class="st4" d="M577.7,568.9c-5.3,0-12.3-0.7-17.5-0.7c-2.3,0-8.2,0.2-17.5,0.7"/>
					<path class="st4" d="M612.8,568.9c-5.3-0.1-12.3-0.7-17.5-0.7c-5.3,0-12.3,0.7-17.5,0.7"/>
					<path class="st4" d="M665.4,568.8c-5.3,0-12.3-0.7-17.5-0.7c-5.3,0-12.3,0.6-17.5,0.7"/>
					<path class="st4" d="M840.9,567.2c-9.4,0.1-15.2,0.1-17.5,0c-5.3-0.1-12.3-0.8-17.5-0.7c-5.3,0.1-12.3,1.1-17.5,1.4
						c-5.3,0.3-12.3,0.6-17.5,0.7"/>
					<path class="st4" d="M700.5,568.7c-5.3-0.1-12.3-0.7-17.5-0.7c-5.3,0-12.3,0.7-17.5,0.7"/>
				</g>
			</g>
			<g>
				<path class="st18" d="M753.2,568.9c5.3,0,12.3,0,17.5,0c5.3,0,12.3,0,17.5,0c-5.3-0.1-12.3-0.7-17.5-0.7
					C765.4,568.3,758.4,568.8,753.2,568.9L753.2,568.9z"/>
				<path class="st19" d="M788.2,568.9c-5.3-0.1-12.3-0.7-17.5-0.7c-5.3,0-12.3,0.6-17.5,0.7"/>
			</g>
		</g>
		<g class="st2">
			<g>
				<g>
					<path class="st3" d="M577.7,626.3c5.3,0,12.3,0,17.5,0c3.8,0,8.5,0,12.8,0c-4.3-0.2-9-0.7-12.8-0.7
						C590,625.6,582.9,626.2,577.7,626.3L577.7,626.3z"/>
					<path class="st3" d="M840.9,624.6c-9.4,0.8-15.2,1.3-17.5,1.4c2.3,0,8.2,0,17.5,0V624.6z"/>
					<path class="st3" d="M612.8,626.2c5.3,0,12.3,0,17.5,0s12.3,0,17.5,0c-5.3-0.4-12.3-2.7-17.5-2.7S618,625.9,612.8,626.2
						L612.8,626.2z"/>
				</g>
				<g>
					<path class="st4" d="M608,626.3c-4.3-0.2-9-0.7-12.8-0.7c-5.3,0-12.3,0.6-17.5,0.7"/>
					<path class="st4" d="M840.9,624.6c-9.4,0.8-15.2,1.3-17.5,1.4"/>
					<path class="st4" d="M647.9,626.2c-5.3-0.4-12.3-2.7-17.5-2.7c-5.3,0-12.3,2.4-17.5,2.7"/>
				</g>
			</g>
			<g>
				<g>
					<path class="st9" d="M840.9,625.3c-9.4,0-15.2,0-17.5,0c-5.3,0.1-12.3,0.6-17.5,0.7c5.3,0,12.3,0,17.5,0c2.3,0,8.2,0,17.5,0
						V625.3L840.9,625.3z"/>
					<path class="st9" d="M612.8,626.3c5.3,0,12.3,0,17.5,0c5.3,0,12.3,0,17.5,0c-5.3-0.1-12.3-0.7-17.5-0.7S618,626.2,612.8,626.3
						L612.8,626.3z"/>
				</g>
				<g>
					<path class="st10" d="M840.9,625.3c-9.4,0-15.2,0-17.5,0c-5.3,0.1-12.3,0.6-17.5,0.7"/>
					<path class="st10" d="M647.9,626.2c-5.3-0.1-12.3-0.7-17.5-0.7c-5.3,0-12.3,0.6-17.5,0.7"/>
				</g>
			</g>
		</g>
		<g class="st2">
			<g>
				<path class="st3" d="M270,625.6c-5.3,0.1-12.3,0.5-17.6,0.6c5.3,0,12.3,0,17.6,0c5.3,0,12.3,0,17.5,0c5.3,0,12.3,0,17.5,0
					c-5.3,0-12.3-0.5-17.5-0.6C282.2,625.5,275.2,625.5,270,625.6z"/>
				<path class="st3" d="M305,626.1c5.3,0,12.3,0,17.5,0c5.3,0,12.3,0,17.5,0c-5.3-0.1-12.3-0.6-17.5-0.6S310.3,626.1,305,626.1z"/>
				<path class="st3" d="M357.7,626.1c5.3,0,12.3,0,17.5,0c5.3,0,12.3,0,17.5,0c-5.3-0.1-12.3-0.6-17.5-0.6
					C370,625.4,363,626,357.7,626.1z"/>
			</g>
			<g>
				<path class="st4" d="M305,626.1c-5.3,0-12.3-0.5-17.5-0.6c-5.3-0.1-12.3-0.1-17.5,0c-5.3,0.1-12.3,0.5-17.6,0.6"/>
				<path class="st4" d="M340.1,626.1c-5.3-0.1-12.3-0.6-17.5-0.6c-5.3,0-12.3,0.6-17.5,0.6"/>
				<path class="st4" d="M392.8,626c-5.3-0.1-12.3-0.6-17.5-0.6c-5.3,0-12.3,0.5-17.5,0.6"/>
			</g>
		</g>
		<g class="st2">
			<path class="st3" d="M340.1,682.9c-5.3,0.1-12.3,0.5-17.5,0.6c5.3,0,12.3,0,17.5,0c5.3,0,12.3,0,17.5,0
				C357.7,683.5,345.4,682.8,340.1,682.9z"/>
			<path class="st4" d="M357.7,683.5c0,0-12.3-0.7-17.5-0.6c-5.3,0.1-12.3,0.5-17.5,0.6"/>
		</g>
		<g class="st2">
			<g>
				<path class="st9" d="M410.3,167.4v-3.1c-9.4,1.5-15.2,2.3-17.5,2.5c-3.8,0.3-8.6,0.6-12.9,0.6c4.3,0,9.1,0,12.9,0
					C395.1,167.4,401,167.4,410.3,167.4z"/>
				<path class="st9" d="M340.1,165c-5.3,0.1-12.3,1.5-17.5,1.9s-12.3,0.5-17.5,0.6c5.3,0,12.3,0,17.5,0c5.3,0,12.3,0,17.5,0
					c5.3,0,12.3,0,17.5,0c5.3,0,12.3,0,17.5,0c-5.3-0.1-12.3-0.8-17.5-1.2S345.4,164.9,340.1,165z"/>
			</g>
			<g>
				<path class="st10" d="M410.3,164.3c-9.4,1.5-15.2,2.3-17.5,2.5c-3.8,0.3-8.6,0.6-12.9,0.6"/>
				<path class="st10" d="M375.2,167.5c-5.3-0.1-12.3-0.8-17.5-1.2s-12.3-1.3-17.5-1.2c-5.3,0.1-12.3,1.5-17.5,1.9
					s-12.3,0.5-17.5,0.6"/>
			</g>
		</g>
	</g>
</g>
<g>
	<text transform="matrix(0.88 0 0 1 532.8496 538.63)" class="st11 st20 st13 st14">2002</text>
	<text transform="matrix(0.88 0 0 1 568.3135 538.3458)" class="st11 st12 st13 st14">年釜山亚运会，</text>
	<text transform="matrix(0.88 0 0 1 532.8496 555.3077)" class="st11 st12 st13 st14">阿富汗女子跆拳道选手茹亚</text>
	<text transform="matrix(0.88 0 0 1 704.9775 555.5919)" class="st11 st20 st13 st14">·</text>
	<text transform="matrix(0.88 0 0 1 711.0488 555.3077)" class="st11 st12 st13 st14">扎马尼夺得铜牌</text>
</g>
<path class="st21" d="M753.2,570c0-5.1-4.1-9.2-9.2-9.2"/>
<g>
	<text transform="matrix(1 0 0 1 328.5804 52.4167)" class="st22 st12 st23">男运动员</text>
	<text transform="matrix(1 0 0 1 472.9005 52.4869)" class="st22 st12 st23">女运动员</text>
	<path class="st3" d="M301.5,34.4c-3.1,0-7.2,19.9-10.4,21.4c3.1,0,7.3,0,10.4,0s7.3,0,10.4,0C308.8,55.8,304.6,34.4,301.5,34.4
		L301.5,34.4z"/>
	<path class="st24" d="M311.9,55.8c-3.1,0-7.3-21.4-10.4-21.4s-7.2,19.9-10.4,21.4"/>
	<path class="st9" d="M446.6,34.4c-3.1,0-7.2,19.9-10.4,21.4c3.1,0,7.3,0,10.4,0s7.3,0,10.4,0C453.9,55.8,449.7,34.4,446.6,34.4
		L446.6,34.4z"/>
	<path class="st25" d="M457,55.8c-3.1,0-7.3-21.4-10.4-21.4s-7.2,19.9-10.4,21.4"/>
</g>
<text transform="matrix(0.88 0 0 1 1.333 12.9088)" class="st11 st12 st13 st14">注：按照前18 届亚运会所获奖牌总数排序，选取排名后20位的国家。</text>
</svg>
