<?xml version="1.0" encoding="UTF-8"?>
<svg id="_图层_2" data-name="图层 2" xmlns="http://www.w3.org/2000/svg" xmlns:xlink="http://www.w3.org/1999/xlink" viewBox="0 0 913.79 289.16">
  <defs>
    <style>
      .cls-1, .cls-2, .cls-3, .cls-4, .cls-5, .cls-6, .cls-7, .cls-8, .cls-9 {
        fill: none;
      }

      .cls-2 {
        stroke-dasharray: 0 0 .88 .88;
      }

      .cls-2, .cls-3, .cls-4 {
        stroke-width: .2px;
      }

      .cls-2, .cls-3, .cls-4, .cls-10, .cls-5, .cls-6, .cls-7, .cls-8, .cls-9 {
        stroke-miterlimit: 10;
      }

      .cls-2, .cls-4, .cls-5 {
        stroke: #333;
      }

      .cls-11 {
        clip-path: url(#clippath);
      }

      .cls-12 {
        letter-spacing: 0em;
      }

      .cls-3 {
        stroke: #ababab;
      }

      .cls-3, .cls-4 {
        stroke-dasharray: 0 0 .88 .88;
      }

      .cls-10 {
        stroke-width: 1.02px;
      }

      .cls-10, .cls-13 {
        fill: #fff;
      }

      .cls-10, .cls-6, .cls-7, .cls-8, .cls-9 {
        stroke: #1a1a1a;
      }

      .cls-14 {
        fill: #eaeaea;
      }

      .cls-15 {
        fill: #ffe1f2;
      }

      .cls-16 {
        fill: #ffbbe0;
      }

      .cls-17 {
        fill: #ff0098;
      }

      .cls-18 {
        fill: #efefef;
      }

      .cls-19, .cls-20, .cls-21, .cls-22, .cls-23 {
        fill: #1a1a1a;
      }

      .cls-24 {
        fill: gray;
      }

      .cls-20 {
        font-family: MiSans-ExtraLight, MiSans;
        font-weight: 200;
      }

      .cls-20, .cls-25, .cls-21, .cls-23 {
        letter-spacing: .02em;
      }

      .cls-20, .cls-21 {
        font-size: 14px;
      }

      .cls-5 {
        stroke-width: .1px;
      }

      .cls-6 {
        stroke-width: .53px;
      }

      .cls-21 {
        font-family: MiSans-Normal, MiSans;
      }

      .cls-22, .cls-23 {
        font-family: MiSans-Regular, MiSans;
        font-size: 10px;
      }

      .cls-7 {
        stroke-width: .23px;
      }

      .cls-8 {
        stroke-dasharray: 0 0 .97 .97;
        stroke-width: .25px;
      }

      .cls-9 {
        stroke-width: .45px;
      }
    </style>
    <clipPath id="clippath">
      <path class="cls-1" d="M569.51,159.98h0s0,0,0,0c-11.45,.64-24.37,2.41-37.87,5.38-13.51,2.96-25.99,6.76-36.65,10.97h0c-2.34,.92-4.72,1.91-7.15,2.97-4.98-20.94-1.94-43.75,10.2-63.44,2.48,.97,4.89,1.96,7.2,2.98h0c10.52,4.57,22.03,10.71,33.68,18.16,11.65,7.46,22.04,15.33,30.59,22.96h0Zm81.75-19.32c-2.81,1.17-5.87,2.43-7.23,2.96h0c-10.67,4.22-23.15,8.02-36.65,10.98-13.49,2.96-26.41,4.75-37.85,5.4,8.56,7.64,18.94,15.52,30.57,22.96,11.65,7.46,23.15,13.59,33.67,18.16h.02c1.35,.6,4.37,1.85,7.14,3,12.19-19.67,15.28-42.49,10.34-63.45Z"/>
    </clipPath>
  </defs>
  <g id="_图层_2-2" data-name="图层 2">
    <g>
      <path class="cls-19" d="M403.96,5.18l2.58,2.43c-.19,.3-.5,.42-1.16,.51-.62,4.31-1.57,8.39-3.62,11.87,5.68,3.6,3.07,6.65,.94,5.39-.61-.99-1.52-2.07-2.58-3.12-1.88,2.25-4.49,4.13-8.06,5.57l-.25-.39c3.11-1.74,5.29-3.93,6.91-6.53-1.76-1.47-3.68-2.85-5.4-3.83,.88-2.19,2.08-5.9,3.09-9.44h-3.27l-.23-.87h3.72c.76-2.7,1.42-5.15,1.7-6.74l3.81,.6c-.11,.36-.33,.69-1.21,.78-.37,1.38-.9,3.27-1.51,5.36h2.97l1.58-1.59Zm-4.83,2.46c-1,3.27-2.22,6.86-3.31,9.59,1.56,.54,2.89,1.11,4,1.65,1.54-3.33,2.32-7.13,2.78-11.24h-3.48Zm21.28-2.04c-.22,.27-.71,.51-1.35,.66l-.89,18.76c-.04,.27-1.43,1.05-2.48,1.05h-.45l.16-3.36h-5.58l-.15,3.12c-.02,.33-1.1,1.02-2.33,1.02h-.48l1.11-23.31,2.85,1.32h5.13l1.55-1.68,2.91,2.43Zm-4.97,16.24l.77-16.15h-5.58l-.77,16.15h5.58Z"/>
      <path class="cls-19" d="M434.57,1.32c-.17,.36-.54,.63-1.2,.6-1.01,2.34-2.13,4.49-3.4,6.47l1.47,.57c-.1,.3-.38,.48-.93,.57l-.83,17.5c-.07,.24-1.24,.87-2.38,.87h-.51l.77-16.18c-1.21,1.47-2.5,2.79-3.87,3.9l-.38-.27c2.7-3.69,5.58-9.5,7.21-15.28l4.05,1.26Zm14.91,0s1.96,1.62,3.14,2.79c-.11,.33-.41,.48-.86,.48h-2.28l-.93,19.54c-.1,2.04-.71,3.51-4.5,3.78-.02-.87-.22-1.59-.71-2.04-.55-.45-1.37-.78-3.07-1.02l.02-.42s3.77,.24,4.55,.24c.6,0,.79-.21,.81-.66l.92-19.42h-13.17l-.2-.87h14.37l1.91-2.4Zm-6.97,18.61c-.07,.15-1.35,.69-2.25,.69h-.42l.1-2.1h-3.96l-.09,1.8c-.01,.27-1.15,.87-2.26,.87h-.42l.63-13.3,2.7,1.17h3.51l1.45-1.53,2.83,2.28c-.22,.24-.71,.51-1.38,.63l-.45,9.5Zm-2.53-2.28l.37-7.73h-3.96l-.37,7.73h3.96Z"/>
      <path class="cls-19" d="M461.4,4.25c-.11,.45-.37,.78-1.24,.9l-1.03,21.79c-.02,.33-1.18,.93-2.2,.93h-.48l1.14-24.03,3.82,.42Zm-1.3-4.25c6.94,1.08,4.81,6.05,2.28,4.43-.32-1.41-1.53-3.18-2.56-4.23l.28-.21Zm15.8,21.69c.62,.24,.73,.51,.71,.93-.04,.87-.84,1.29-3.75,1.29h-1.65c-1.86,0-2.11-.51-2.04-1.95l.27-5.69h-1.47c-.47,3.6-1.65,6.92-7.46,9.23l-.34-.45c4.38-2.58,5.07-5.66,5.34-8.78h-.51l-.02,.51c-.01,.21-1.15,.78-2.17,.78h-.36l.42-8.93,2.59,1.11h4.41c.79-1.56,1.67-3.66,2.2-5.18l3.48,1.23c-.17,.33-.57,.57-1.19,.48-.86,1.02-2.18,2.37-3.46,3.48h1.71l1.26-1.26,2.46,1.92c-.16,.21-.56,.39-1.01,.48l-.26,5.54c-.04,.21-1.29,.75-2.14,.75h-.39l.04-.9h-.87v.21s-.25,5.03-.25,5.03c-.01,.3,.04,.39,.55,.39h2.19c.21,0,.33-.06,.46-.27,.2-.36,.58-1.56,.94-2.85h.36l-.05,2.91Zm-11.26-16.93c5.95,1.74,3.68,5.87,1.63,4.26-.21-1.35-1.15-3.03-2-4.08l.37-.18Zm.39,10.64h7.56l.23-4.79h-7.56l-.23,4.79Zm17.68-12.23c-.22,.24-.68,.51-1.29,.6l-.98,20.56c-.09,1.95-.6,3.18-4.13,3.51-.05-.87-.2-1.53-.63-1.92-.49-.45-1.25-.75-2.8-.99l.02-.45s3.41,.24,4.1,.24c.6,0,.76-.21,.78-.69l.99-20.74h-12.21l-.23-.87h12.18l1.36-1.53,2.83,2.28Z"/>
      <path class="cls-19" d="M495.95,20.83c-.95,.96-2.81,2.91-5.03,4.85-.21,.63-.62,1.02-.93,1.23l-1.83-3.15c1.2-.66,1.39-.87,1.42-1.5l.63-13.27h-3.51l-.23-.87h3.81l1.38-1.32,2.39,2.04c-.16,.21-.53,.45-1.2,.57l-.61,12.77c1.11-.51,2.3-1.08,3.53-1.68l.17,.33ZM489.31,.21c7.36,1.65,5.11,6.8,2.52,5.09-.37-1.68-1.72-3.63-2.83-4.88l.31-.21Zm21.77,16.51s1.79,1.44,2.88,2.49c-.08,.33-.38,.48-.83,.48h-8.34c-2.11,4.11-5.78,6.71-12.09,8.24l-.19-.39c4.94-1.65,7.94-4.17,9.67-7.85h-8.01l-.2-.87h8.58c.98-2.4,1.45-5.24,1.61-8.63l4.11,.66c-.11,.36-.33,.54-1.11,.54-.41,2.88-1,5.33-1.94,7.43h4.11l1.75-2.1Zm-8.5-7.97l.17-3.54h-6.24l-.2-.87h6.48l.2-4.32,3.7,.36c-.08,.39-.36,.66-1.09,.78l-.15,3.18h3.09l1.72-2.04s1.73,1.41,2.82,2.43c-.11,.33-.41,.48-.83,.48h-6.84l-.17,3.54h5.1l1.57-1.53,2.61,2.61c-.25,.24-.58,.27-1.15,.3-.89,1.17-2.44,2.76-3.69,3.72l-.32-.21c.35-1.08,.82-2.76,1.15-4.02h-15.51l-.2-.87h7.77Zm-6.36,5.69c6.44,.24,4.87,4.85,2.53,3.6-.39-1.17-1.68-2.61-2.78-3.36l.25-.24Zm1.65-3.87c6.33,0,4.85,4.67,2.5,3.48-.43-1.14-1.65-2.52-2.79-3.21l.28-.27Zm7.37,10.25c10,2.25,8.64,8.15,5.68,6.68-1.01-2.16-3.85-4.85-5.97-6.38l.28-.3Z"/>
    </g>
    <line class="cls-7" x1="199.37" y1="75.9" x2="199.37" y2="284.91"/>
    <line class="cls-7" x1="446.13" y1="75.9" x2="446.13" y2="284.91"/>
    <line class="cls-7" x1="692.88" y1="75.9" x2="692.88" y2="284.91"/>
    <g>
      <text class="cls-21" transform="translate(63.09 147.56)"><tspan x="0" y="0">男运动员</tspan></text>
      <text class="cls-21" transform="translate(63.09 184.54)"><tspan x="0" y="0">女运动员</tspan></text>
      <circle class="cls-24" cx="42.15" cy="143.3" r="9.57"/>
      <circle class="cls-17" cx="42.15" cy="180.21" r="9.57"/>
    </g>
    <text class="cls-20" transform="translate(249.83 267.54)"><tspan x="0" y="0">线条长度代表奖牌数量</tspan></text>
    <text class="cls-20" transform="translate(501.06 267.54)"><tspan x="0" y="0">对称轴代表同一大类、</tspan><tspan x="0" y="17.68">同一个赛事</tspan></text>
    <text class="cls-20" transform="translate(725.45 267.54)"><tspan x="0" y="0">半圆面积代表男/女性</tspan><tspan x="0" y="17.68">在本届亚运会获得的奖牌总数</tspan></text>
    <g>
      <g>
        <ellipse class="cls-2" cx="322.75" cy="159.8" rx="83.99" ry="83.89"/>
        <ellipse class="cls-2" cx="322.75" cy="159.8" rx="73.48" ry="73.4"/>
        <ellipse class="cls-2" cx="322.75" cy="159.8" rx="62.98" ry="62.91"/>
        <ellipse class="cls-2" cx="322.75" cy="159.8" rx="52.49" ry="52.43"/>
        <ellipse class="cls-2" cx="322.75" cy="159.8" rx="41.99" ry="41.94"/>
        <ellipse class="cls-2" cx="322.75" cy="159.8" rx="31.49" ry="31.46"/>
        <ellipse class="cls-2" cx="322.75" cy="159.8" rx="20.99" ry="20.97"/>
        <ellipse class="cls-2" cx="322.75" cy="159.8" rx="10.5" ry="10.49"/>
        <circle class="cls-2" cx="322.75" cy="159.8" r="1.05"/>
      </g>
      <g>
        <path class="cls-24" d="M247.42,169.21c24.08-5.93,48.94-9.28,73.73-9.13-12.35,.6-24.6,2.22-36.69,4.53-12.06,2.33-23.96,5.57-35.57,9.51-3.35,1.04-4.86-3.93-1.46-4.91h0Z"/>
        <path class="cls-17" d="M390.73,152c-22.8,5.09-46.21,8.21-69.57,8.08,11.64-.55,23.2-2,34.63-4.08,11.4-2.05,22.64-5.09,33.64-8.65,3.18-.94,4.53,3.79,1.3,4.65h0Z"/>
      </g>
      <g>
        <text class="cls-23" transform="translate(308.47 163.59)"><tspan x="0" y="0">1</tspan></text>
        <text class="cls-22" transform="translate(299.96 142.59)"><tspan class="cls-12" x="0" y="0">2</tspan><tspan class="cls-25" x="5.7" y="0">0</tspan></text>
        <text class="cls-23" transform="translate(299.55 121.59)"><tspan x="0" y="0">40</tspan></text>
        <text class="cls-23" transform="translate(299.4 100.59)"><tspan x="0" y="0">60</tspan></text>
        <text class="cls-23" transform="translate(288.96 79.65)"><tspan x="0" y="0">80块</tspan></text>
      </g>
      <g>
        <line class="cls-9" x1="322.75" y1="159.97" x2="322.75" y2="75.91"/>
        <g>
          <line class="cls-9" x1="315.9" y1="75.91" x2="322.75" y2="75.91"/>
          <line class="cls-9" x1="315.9" y1="159.97" x2="322.75" y2="159.97"/>
          <line class="cls-9" x1="315.9" y1="138.95" x2="322.75" y2="138.95"/>
          <line class="cls-9" x1="315.9" y1="117.94" x2="322.75" y2="117.94"/>
          <line class="cls-9" x1="315.9" y1="96.92" x2="322.75" y2="96.92"/>
        </g>
      </g>
    </g>
    <text class="cls-20" transform="translate(0 267.54)"><tspan x="0" y="0">灰色代表男性运动员数据</tspan><tspan x="0" y="17.68">红色代表女性运动员数据</tspan></text>
    <g>
      <path class="cls-18" d="M828.15,127.13c-1.18,12.03-3.21,23.24-5.75,32.96-2.56,9.69-4.56,20.93-5.75,32.96-1.18,12.03-1.41,23.44-.79,33.47h0c.14,2.2,.31,4.48,.54,6.79,.03,.25,.06,.48,.08,.73-16.93-1.35-33.5-8.54-46.49-21.5-28.96-28.96-28.96-75.96,0-104.92,15.98-15.98,37.42-23.13,58.32-21.5,.03,.25,.06,.51,.08,.73,.23,2.31,.42,4.59,.54,6.79h0c.62,10.03,.39,21.44-.79,33.47Z"/>
      <path class="cls-16" d="M862.24,199.88c-12.76,12.76-30.09,18.09-46.71,16.06-.03-7.21,.34-14.9,1.13-22.88,1.18-12.03,3.21-23.24,5.75-32.96,2.56-9.69,4.56-20.93,5.75-32.96,.79-7.97,1.16-15.67,1.13-22.88,12.06,1.47,23.72,6.82,32.99,16.06,21.95,21.98,21.95,57.59-.03,79.57Z"/>
    </g>
    <g>
      <g>
        <text class="cls-22" transform="translate(477.87 168.36) rotate(-92.19)"><tspan x="0" y="0">竞</tspan></text>
        <text class="cls-22" transform="translate(477.49 158.36) rotate(-86.04)"><tspan x="0" y="0">技</tspan></text>
        <text class="cls-22" transform="translate(478.18 148.38) rotate(-79.86)"><tspan x="0" y="0">性</tspan></text>
        <text class="cls-22" transform="translate(479.95 138.49) rotate(-73.67)"><tspan x="0" y="0">比</tspan></text>
        <text class="cls-22" transform="translate(482.76 128.9) rotate(-67.56)"><tspan x="0" y="0">赛</tspan></text>
      </g>
      <g>
        <text class="cls-22" transform="translate(659.98 201.45) rotate(-67.19)"><tspan x="0" y="0">竞</tspan></text>
        <text class="cls-22" transform="translate(664.1 191.55) rotate(-73.6)"><tspan x="0" y="0">技</tspan></text>
        <text class="cls-22" transform="translate(667.09 181.26) rotate(-80.05)"><tspan x="0" y="0">性</tspan></text>
        <text class="cls-22" transform="translate(668.9 170.66) rotate(-86.55)"><tspan x="0" y="0">比</tspan></text>
        <text class="cls-22" transform="translate(669.51 159.97) rotate(-93)"><tspan x="0" y="0">赛</tspan></text>
      </g>
      <g>
        <g>
          <circle class="cls-3" cx="569.5" cy="159.98" r="84.07"/>
          <circle class="cls-3" cx="569.5" cy="159.98" r="73.55"/>
          <circle class="cls-3" cx="569.5" cy="159.98" r="63.04"/>
          <circle class="cls-3" cx="569.5" cy="159.98" r="52.53"/>
          <circle class="cls-3" cx="569.5" cy="159.98" r="42.03"/>
          <circle class="cls-3" cx="569.5" cy="159.98" r="31.52"/>
          <circle class="cls-3" cx="569.5" cy="159.98" r="21.01"/>
          <circle class="cls-3" cx="569.5" cy="159.98" r="10.51"/>
          <circle class="cls-3" cx="569.5" cy="159.98" r="1.05"/>
        </g>
        <g>
          <g>
            <path class="cls-3" d="M547.34,86.96h0c5.03,10.32,9.8,22.46,13.82,35.69,4.02,13.23,6.81,25.97,8.35,37.33"/>
            <path class="cls-3" d="M591.67,233h0c-5.03-10.32-9.8-22.46-13.82-35.69-4.02-13.23-6.79-25.97-8.34-37.33"/>
          </g>
          <g>
            <path class="cls-3" d="M576.97,84.03h0c.71,11.46,.47,24.5-.89,38.26-1.35,13.76-3.65,26.59-6.57,37.68"/>
            <path class="cls-3" d="M562.04,235.92h0c-.71-11.46-.47-24.5,.89-38.26,1.35-13.76,3.66-26.59,6.58-37.68"/>
          </g>
          <g>
            <path class="cls-3" d="M543.79,80.01c1.26,2.35,2.44,4.67,3.55,6.94h0"/>
            <path class="cls-3" d="M595.22,239.94c-1.26-2.35-2.44-4.67-3.55-6.94h0"/>
          </g>
          <g>
            <path class="cls-3" d="M576.35,76.26c.26,2.66,.47,5.25,.62,7.77h0"/>
            <path class="cls-3" d="M562.66,243.7c-.26-2.66-.47-5.25-.62-7.77h0"/>
          </g>
        </g>
      </g>
      <path class="cls-13" d="M569.51,159.98h0s0,0,0,0c-11.45,.64-24.37,2.41-37.87,5.38-13.51,2.96-25.99,6.76-36.65,10.97h0c-2.34,.92-4.72,1.91-7.15,2.97-4.98-20.94-1.94-43.75,10.2-63.44,2.48,.97,4.89,1.96,7.2,2.98h0c10.52,4.57,22.03,10.71,33.68,18.16,11.65,7.46,22.04,15.33,30.59,22.96h0Zm81.75-19.32c-2.81,1.17-5.87,2.43-7.23,2.96h0c-10.67,4.22-23.15,8.02-36.65,10.98-13.49,2.96-26.41,4.75-37.85,5.4,8.56,7.64,18.94,15.52,30.57,22.96,11.65,7.46,23.15,13.59,33.67,18.16h.02c1.35,.6,4.37,1.85,7.14,3,12.19-19.67,15.28-42.49,10.34-63.45Z"/>
      <g class="cls-11">
        <g>
          <ellipse class="cls-5" cx="569.52" cy="160.07" rx="83.98" ry="83.8"/>
          <g>
            <ellipse class="cls-8" cx="569.51" cy="160.15" rx="84.41" ry="84.23"/>
            <ellipse class="cls-8" cx="569.51" cy="160.15" rx="73.84" ry="73.69"/>
            <ellipse class="cls-8" cx="569.51" cy="160.15" rx="63.3" ry="63.16"/>
            <ellipse class="cls-8" cx="569.51" cy="160.15" rx="52.75" ry="52.64"/>
            <ellipse class="cls-8" cx="569.51" cy="160.15" rx="42.2" ry="42.11"/>
            <ellipse class="cls-8" cx="569.51" cy="160.15" rx="31.65" ry="31.58"/>
            <ellipse class="cls-8" cx="569.51" cy="160.15" rx="21.1" ry="21.05"/>
            <ellipse class="cls-8" cx="569.51" cy="160.15" rx="10.55" ry="10.53"/>
            <circle class="cls-8" cx="569.51" cy="160.15" r="1.06"/>
          </g>
          <g>
            <g>
              <path class="cls-14" d="M535.98,148.76c10.88,3.12,21.59,6.83,31.93,11.32-10.63-3.76-21.52-6.69-32.5-9.04-1.56-.36-.98-2.69,.57-2.28h0Z"/>
              <path class="cls-15" d="M587.68,167.63c-6.7-2.25-13.3-4.74-19.77-7.55,6.64,2.35,13.39,4.37,20.19,6.13,.96,.26,.53,1.73-.42,1.42h0Z"/>
            </g>
            <g>
              <path class="cls-14" d="M542.45,152.87c8.61,1.98,17.13,4.35,25.46,7.21-8.51-2.28-17.14-4.03-25.81-5.4-1.23-.22-.88-2.06,.35-1.81h0Z"/>
              <path class="cls-15" d="M591.31,166.81c-7.91-1.88-15.73-4.09-23.4-6.73,7.83,2.09,15.76,3.75,23.74,5.07,1.13,.21,.8,1.91-.33,1.66h0Z"/>
            </g>
            <g>
              <path class="cls-14" d="M539.82,154.58c9.46,1.34,18.86,3.12,28.09,5.5-9.37-1.73-18.82-2.85-28.29-3.52-1.34-.12-1.14-2.14,.21-1.98h0Z"/>
              <path class="cls-15" d="M594.94,165.43c-9.11-1.32-18.15-3.06-27.03-5.35,9.02,1.67,18.12,2.77,27.24,3.44,1.29,.12,1.09,2.06-.21,1.9h0Z"/>
            </g>
            <g>
              <path class="cls-14" d="M541.71,156.98c8.79,.6,17.55,1.59,26.2,3.1-8.74-.93-17.51-1.32-26.26-1.33-1.2-.03-1.14-1.82,.06-1.77h0Z"/>
              <path class="cls-15" d="M590.01,162.9c-7.41-.62-14.8-1.54-22.1-2.82,7.38,.77,14.78,1.17,22.18,1.27,1.05,.04,.98,1.61-.08,1.55h0Z"/>
            </g>
            <g>
              <path class="cls-14" d="M488.38,164.41c26.2-5.02,53.02-6.62,79.53-4.33-19.85-.5-39.66,1.37-59.09,5.17-6.46,1.27-12.86,2.76-19.17,4.51-3.63,.9-4.94-4.49-1.27-5.34h0Z"/>
              <path class="cls-15" d="M625.16,159.23c-8.43,.79-20.3,1.86-28.65,1.88-9.56,.16-19.11-.12-28.6-1.03,9.52,.25,19.04-.13,28.5-.94,8.22-.59,19.93-2.46,28.17-3.82,2.72-.47,3.34,3.57,.58,3.92h0Z"/>
            </g>
            <g>
              <path class="cls-24" d="M494.18,169.21c24.08-5.93,48.94-9.28,73.73-9.13-12.35,.6-24.6,2.22-36.69,4.53-12.06,2.33-23.96,5.57-35.57,9.51-3.35,1.04-4.86-3.93-1.46-4.91h0Z"/>
              <path class="cls-17" d="M637.48,152c-22.8,5.09-46.21,8.21-69.57,8.08,11.64-.55,23.2-2,34.63-4.08,11.4-2.05,22.64-5.09,33.65-8.65,3.18-.94,4.53,3.79,1.3,4.65h0Z"/>
            </g>
            <g>
              <path class="cls-14" d="M560.1,163.32l7.81-3.24-7.55,3.79c-.36,.2-.64-.39-.26-.54h0Z"/>
              <path class="cls-15" d="M575.72,156.84l-7.81,3.24,7.55-3.79c.36-.2,.64,.39,.26,.54h0Z"/>
            </g>
            <g>
              <path class="cls-14" d="M565.32,161.91l2.59-1.83-2.44,2.02c-.12,.11-.28-.1-.15-.19h0Z"/>
              <path class="cls-15" d="M570.5,158.25l-2.59,1.83,2.44-2.02c.12-.11,.28,.1,.15,.19h0Z"/>
            </g>
            <g>
              <path class="cls-14" d="M565.19,161.7l2.72-1.62-2.59,1.82c-.13,.1-.27-.12-.13-.2h0Z"/>
              <path class="cls-15" d="M570.63,158.46l-2.72,1.62,2.59-1.82c.13-.1,.27,.12,.13,.2h0Z"/>
            </g>
            <g>
              <path class="cls-14" d="M565.07,161.48l2.84-1.4-2.73,1.61c-.14,.09-.26-.14-.11-.21h0Z"/>
              <path class="cls-15" d="M570.75,158.68l-2.84,1.4,2.73-1.61c.14-.09,.26,.14,.11,.21h0Z"/>
            </g>
            <g>
              <path class="cls-14" d="M564.88,161.02l3.03-.94-2.95,1.17c-.15,.06-.24-.18-.08-.22h0Z"/>
              <path class="cls-15" d="M570.94,159.14l-3.03,.94,2.95-1.17c.15-.06,.24,.18,.08,.22h0Z"/>
            </g>
            <g>
              <path class="cls-14" d="M564.82,160.78l3.09-.7-3.03,.93c-.15,.05-.22-.2-.06-.23h0Z"/>
              <path class="cls-15" d="M571,159.38l-3.09,.7,3.03-.93c.15-.05,.22,.2,.06,.23h0Z"/>
            </g>
            <g>
              <path class="cls-14" d="M564.77,160.54l3.14-.46-3.09,.69c-.16,.04-.2-.21-.04-.23h0Z"/>
              <path class="cls-15" d="M571.05,159.62l-3.14,.46,3.09-.69c.16-.04,.21,.21,.04,.23h0Z"/>
            </g>
            <g>
              <path class="cls-14" d="M564.75,160.29l3.16-.21-3.14,.45c-.16,.03-.19-.23-.03-.24h0Z"/>
              <path class="cls-15" d="M571.07,159.87l-3.16,.21,3.14-.44c.16-.03,.19,.23,.03,.24h0Z"/>
            </g>
            <g>
              <path class="cls-14" d="M563.07,164.18l4.84-4.1-4.53,4.43c-.21,.23-.55-.13-.31-.33h0Z"/>
              <path class="cls-15" d="M572.75,155.98l-4.84,4.1,4.53-4.43c.21-.23,.55,.13,.31,.33h0Z"/>
            </g>
            <g>
              <path class="cls-14" d="M556.15,172.25c3.79-4.19,7.7-8.27,11.76-12.17-3.76,4.2-7.35,8.54-10.8,12.98-.53,.67-1.53-.17-.97-.81h0Z"/>
              <path class="cls-15" d="M579.7,147.81c-3.79,4.23-7.72,8.33-11.79,12.27,3.79-4.21,7.41-8.57,10.88-13.03,.5-.63,1.44,.16,.91,.76h0Z"/>
            </g>
            <g>
              <path class="cls-14" d="M559.77,169.82l8.14-9.74-7.42,10.27c-.34,.52-1.11-.05-.72-.53h0Z"/>
              <path class="cls-15" d="M576.05,150.34l-8.14,9.74,7.42-10.27c.34-.52,1.11,.05,.72,.53h0Z"/>
            </g>
            <g>
              <path class="cls-14" d="M562.34,167.8l5.57-7.72-5,8.08c-.22,.4-.84,.01-.57-.36h0Z"/>
              <path class="cls-15" d="M569.81,157.54l-1.9,2.54,1.7-2.68c.08-.14,.29,0,.2,.13h0Z"/>
            </g>
            <g>
              <path class="cls-14" d="M558.84,175.61c2.84-5.29,5.85-10.48,9.07-15.53-2.86,5.26-5.49,10.64-7.94,16.09-.36,.77-1.53,.2-1.13-.56h0Z"/>
              <path class="cls-15" d="M576.98,144.55c-2.84,5.29-5.85,10.48-9.07,15.53,2.86-5.26,5.49-10.64,7.94-16.09,.35-.77,1.53-.2,1.13,.56h0Z"/>
            </g>
            <g>
              <path class="cls-14" d="M562.99,176.29c1.46-5.46,3.09-10.88,4.92-16.21-1.46,5.45-2.7,10.95-3.77,16.48-.16,.79-1.36,.51-1.16-.27h0Z"/>
              <path class="cls-15" d="M572.83,143.87c-1.46,5.46-3.09,10.88-4.92,16.21,1.46-5.45,2.7-10.95,3.77-16.48,.16-.79,1.36-.51,1.16,.27h0Z"/>
            </g>
            <g>
              <path class="cls-14" d="M561.73,175.85c1.88-5.33,3.93-10.6,6.18-15.77-1.88,5.32-3.55,10.7-5.05,16.13-.22,.77-1.39,.41-1.13-.36h0Z"/>
              <path class="cls-15" d="M574.09,144.31c-1.88,5.33-3.93,10.6-6.18,15.77,1.88-5.32,3.55-10.7,5.05-16.13,.22-.77,1.39-.41,1.13,.36h0Z"/>
            </g>
            <g>
              <path class="cls-14" d="M560.51,175.32c2.29-5.17,4.75-10.26,7.4-15.24-2.29,5.15-4.38,10.39-6.3,15.68-.28,.75-1.42,.3-1.1-.44h0Z"/>
              <path class="cls-15" d="M575.31,144.84c-2.29,5.17-4.75,10.26-7.4,15.24,2.29-5.15,4.38-10.39,6.3-15.68,.28-.75,1.42-.3,1.1,.44h0Z"/>
            </g>
            <path class="cls-15" d="M565.66,169.66l2.25-9.58-1.58,9.7c-.06,.46-.77,.34-.67-.12h0Z"/>
            <g>
              <path class="cls-14" d="M567.37,163.21l.54-3.13-.3,3.16c-.01,.16-.26,.13-.24-.03h0Z"/>
              <path class="cls-14" d="M568.45,156.95l-.54,3.13,.3-3.16c.01-.16,.27-.13,.24,.03h0Z"/>
            </g>
            <g>
              <path class="cls-15" d="M566.97,175.03c.16-5,.46-9.98,.94-14.95-.13,4.99-.09,9.97,.1,14.95,.02,.7-1.06,.71-1.04,0h0Z"/>
              <path class="cls-14" d="M568.85,145.3l-.94,14.78-.1-14.78c-.04-.72,1.08-.73,1.04,0h0Z"/>
            </g>
            <g>
              <path class="cls-15" d="M568.36,179.12c-.39-6.35-.56-12.7-.45-19.04,.33,6.33,.95,12.64,1.78,18.91,.11,.89-1.26,1.03-1.33,.13h0Z"/>
              <path class="cls-14" d="M566.99,134.69c.71,8.45,1.06,16.93,.92,25.39-.45-8.45-1.38-16.84-2.67-25.17-.16-1.19,1.63-1.41,1.76-.21h0Z"/>
            </g>
            <g>
              <path class="cls-15" d="M579.22,220.49c-5.84-19.69-9.87-39.95-11.31-60.41,1.28,10.15,3.26,20.19,5.73,30.09,2.48,9.89,5.45,19.66,8.92,29.22,.75,2.26-2.59,3.38-3.34,1.11h0Z"/>
              <path class="cls-14" d="M560.28,111.93c3.86,15.8,6.61,31.92,7.63,48.15-1.07-8.04-2.56-16.01-4.4-23.89-1.82-7.87-4.02-15.65-6.47-23.35-.66-2.22,2.64-3.17,3.25-.92h0Z"/>
            </g>
            <g>
              <path class="cls-14" d="M568.53,164.26l-.62-4.18,.93,4.12c.05,.2-.28,.27-.3,.06h0Z"/>
              <path class="cls-14" d="M567.29,155.9l.62,4.18-.93-4.12c-.05-.2,.28-.27,.3-.06h0Z"/>
            </g>
            <g>
              <path class="cls-15" d="M573.15,179.64c-2.01-6.46-3.78-12.98-5.24-19.56,1.92,6.47,4.13,12.83,6.57,19.1,.34,.89-1.04,1.37-1.33,.46h0Z"/>
              <path class="cls-14" d="M562.08,138.64c2.25,7.07,4.23,14.22,5.83,21.44-2.1-7.09-4.57-14.07-7.29-20.92-.38-.98,1.13-1.52,1.46-.52h0Z"/>
            </g>
            <g>
              <path class="cls-15" d="M576.73,184.17c-3.33-7.89-6.32-15.92-8.82-24.09,3.06,7.97,6.58,15.75,10.43,23.34,.52,1.08-1.11,1.85-1.61,.74h0Z"/>
              <path class="cls-14" d="M557.53,132.34c3.97,9.06,7.49,18.31,10.38,27.74-3.54-9.2-7.68-18.14-12.24-26.84-.62-1.25,1.27-2.17,1.86-.89h0Z"/>
            </g>
            <g>
              <path class="cls-15" d="M575.61,177.5c-2.79-5.71-5.38-11.52-7.7-17.42,2.73,5.72,5.71,11.31,8.88,16.79,.44,.78-.77,1.43-1.18,.63h0Z"/>
              <path class="cls-14" d="M554.36,131.37c5.07,9.31,9.66,18.88,13.55,28.71-4.56-9.54-9.78-18.72-15.45-27.59-.78-1.28,1.15-2.43,1.9-1.12h0Z"/>
            </g>
            <g>
              <path class="cls-15" d="M580.25,182.28c-4.47-7.21-8.63-14.6-12.34-22.2,4.23,7.32,8.88,14.38,13.81,21.21,.69,.97-.83,2-1.47,.99h0Z"/>
              <path class="cls-14" d="M555.57,137.88c4.47,7.21,8.63,14.6,12.34,22.2-4.23-7.32-8.88-14.38-13.81-21.21-.69-.97,.83-2,1.47-.99h0Z"/>
            </g>
            <g>
              <path class="cls-15" d="M589.22,186.42c-7.65-8.35-14.83-17.1-21.31-26.34,7.1,8.76,14.85,16.95,22.99,24.69,1.14,1.12-.57,2.81-1.68,1.65h0Z"/>
              <path class="cls-14" d="M546.6,133.74c7.64,8.35,14.83,17.1,21.31,26.34-7.11-8.76-14.85-16.95-22.99-24.69-1.14-1.12,.57-2.81,1.68-1.65h0Z"/>
            </g>
            <g>
              <path class="cls-15" d="M587.09,188.01c-6.97-8.92-13.45-18.22-19.18-27.93,6.4,9.29,13.47,18.06,20.98,26.42,1.04,1.21-.79,2.76-1.8,1.51h0Z"/>
              <path class="cls-14" d="M548.73,132.15c6.97,8.92,13.45,18.22,19.18,27.93-6.4-9.29-13.47-18.06-20.98-26.42-1.04-1.21,.79-2.76,1.8-1.51h0Z"/>
            </g>
            <g>
              <path class="cls-15" d="M576.26,169.65l-8.35-9.57,8.98,8.94c.46,.42-.22,1.09-.64,.63h0Z"/>
              <path class="cls-14" d="M538.28,129.78c10.62,9.37,20.63,19.43,29.63,30.3-9.72-10.22-20.35-19.49-31.49-28.03-1.56-1.24,.33-3.56,1.86-2.27h0Z"/>
            </g>
            <g>
              <path class="cls-15" d="M573.03,163.83l-5.12-3.75,5.37,3.37c.27,.16,0,.57-.25,.38h0Z"/>
              <path class="cls-14" d="M562.79,156.33l5.12,3.75-5.37-3.37c-.27-.16,0-.57,.25-.38h0Z"/>
            </g>
            <g>
              <path class="cls-15" d="M572.72,164.22l-4.81-4.14,5.09,3.78c.26,.18-.05,.57-.28,.36h0Z"/>
              <path class="cls-14" d="M563.1,155.94l4.81,4.14-5.09-3.78c-.26-.18,.05-.57,.28-.36h0Z"/>
            </g>
            <g>
              <path class="cls-15" d="M578.8,166.6l-10.89-6.52,11.3,5.72c.56,.26,.13,1.11-.41,.79h0Z"/>
              <path class="cls-14" d="M557.02,153.56l10.89,6.52-11.3-5.72c-.56-.26-.13-1.11,.41-.79h0Z"/>
            </g>
            <g>
              <path class="cls-15" d="M585.08,168.32c-5.83-2.53-11.57-5.27-17.17-8.24,5.79,2.58,11.69,4.9,17.66,7,.85,.31,.34,1.59-.49,1.24h0Z"/>
              <path class="cls-14" d="M550.74,151.84c5.83,2.53,11.57,5.27,17.17,8.24-5.79-2.58-11.69-4.9-17.66-7-.85-.31-.34-1.59,.49-1.24h0Z"/>
            </g>
          </g>
        </g>
      </g>
      <g>
        <g>
          <path class="cls-4" d="M505.23,118.85h0c10.52,4.57,22.03,10.71,33.68,18.16,11.65,7.45,22.04,15.32,30.59,22.96"/>
          <path class="cls-4" d="M633.78,201.11h0c-10.52-4.57-22.03-10.71-33.68-18.16-11.65-7.45-22.03-15.33-30.59-22.97"/>
        </g>
        <g>
          <path class="cls-4" d="M644.04,143.61h-.01c-10.67,4.21-23.15,8.01-36.65,10.98-13.51,2.97-26.42,4.75-37.87,5.4"/>
          <path class="cls-4" d="M494.97,176.34h.01c10.67-4.21,23.15-8.01,36.65-10.98,13.51-2.97,26.42-4.74,37.87-5.38"/>
        </g>
        <g>
          <path class="cls-4" d="M498.02,115.87c2.49,.97,4.89,1.97,7.21,2.98h0"/>
          <path class="cls-4" d="M640.99,204.08c-2.49-.97-4.89-1.97-7.21-2.98h0"/>
        </g>
        <g>
          <path class="cls-4" d="M651.24,140.62c-2.44,1.07-4.85,2.07-7.2,2.99h-.01"/>
          <path class="cls-4" d="M487.77,179.34c2.44-1.07,4.85-2.07,7.2-2.99h.01"/>
        </g>
      </g>
      <text class="cls-23" transform="translate(555.48 98.79)"><tspan x="0" y="0">田径</tspan></text>
      <circle class="cls-10" cx="506.6" cy="166.74" r="2.45"/>
      <path class="cls-6" d="M585.42,98.79c23.24,6.04,41.63,25.08,46.2,49.46"/>
      <circle class="cls-10" cx="631.47" cy="148.52" r="2.45"/>
      <path class="cls-6" d="M506.41,165.16c-2.25-28.25,14.49-53.64,39.54-63.65"/>
      <path class="cls-8" d="M487.68,179.34c-.97-4.12-1.64-8.37-1.99-12.72-1.47-18.52,3.19-36.11,12.26-50.79"/>
      <path class="cls-8" d="M651.32,140.63c.97,4.12,1.64,8.37,1.98,12.72,1.47,18.53-3.19,36.13-12.28,50.82"/>
    </g>
  </g>
</svg>