<?xml version="1.0" encoding="UTF-8"?>
<svg id="_图层_2" data-name="图层 2" xmlns="http://www.w3.org/2000/svg" viewBox="0 0 1548.47 673.71">
  <defs>
    <style>
      .cls-1 {
        fill: #fff;
      }
    </style>
  </defs>
  <g id="_图层_1-2" data-name="图层 1">
    <g>
      <path d="M595.85,673.06v-1.27h22.78v1.27h-22.78Zm6.89,0l10.72-47.48h-7.35v-1.27h16.19l-11.05,48.75h-8.52Z"/>
      <path d="M634.81,673.71v-1.17c2.6,0,5.06-.53,7.39-1.59,2.33-1.06,4.48-2.51,6.47-4.34,1.98-1.83,3.76-3.91,5.35-6.24,1.58-2.33,2.93-4.78,4.05-7.34,1.12-2.57,1.97-5.12,2.57-7.67,.6-2.55,.89-4.93,.89-7.17l.2-4.58c0-1.71-.19-3.22-.57-4.52-.38-1.3-.96-2.32-1.72-3.05-.77-.74-1.73-1.1-2.88-1.1-1.28,0-2.48,.45-3.61,1.36s-2.16,2.12-3.1,3.62-1.76,3.16-2.44,4.97c-.68,1.81-1.21,3.63-1.58,5.46-.37,1.83-.55,3.52-.55,5.05,0,2.88,.34,5.06,1.02,6.55,.68,1.48,1.77,2.23,3.27,2.23,1.58,0,3.01-.48,4.29-1.43,1.28-.95,2.4-2.21,3.38-3.77,.97-1.56,1.79-3.26,2.45-5.1,.66-1.84,1.16-3.66,1.51-5.46,.35-1.8,.52-3.4,.52-4.81h1.14c0,1.21-.12,2.61-.36,4.19-.24,1.58-.62,3.22-1.14,4.92-.52,1.7-1.18,3.35-1.97,4.96s-1.74,3.05-2.86,4.34c-1.12,1.29-2.39,2.32-3.84,3.09s-3.06,1.15-4.86,1.15c-1.43,0-2.82-.23-4.18-.68-1.35-.46-2.58-1.17-3.67-2.15s-1.96-2.25-2.6-3.83-.96-3.51-.96-5.79c0-2.64,.57-5.17,1.72-7.57,1.15-2.41,2.7-4.56,4.65-6.45,1.95-1.9,4.14-3.39,6.57-4.48,2.43-1.09,4.92-1.64,7.47-1.64s4.81,.52,6.82,1.56c2.02,1.04,3.61,2.66,4.79,4.86,1.18,2.2,1.77,5.03,1.77,8.5,0,2.92-.6,6-1.8,9.23-1.2,3.23-2.88,6.38-5.04,9.44s-4.71,5.84-7.67,8.32c-2.96,2.48-6.21,4.46-9.75,5.93-3.54,1.47-7.26,2.21-11.16,2.21Z"/>
      <path d="M686.59,673.71c-2.38,0-4.52-.42-6.4-1.27-1.88-.84-3.38-1.99-4.47-3.44-1.1-1.45-1.64-3.09-1.64-4.91,0-1.02,.21-1.9,.63-2.65,.42-.75,1-1.33,1.72-1.74,.72-.41,1.51-.62,2.36-.62,.74,0,1.47,.18,2.21,.54,.74,.36,1.34,.88,1.82,1.56,.48,.68,.72,1.52,.72,2.52,0,.93-.22,1.73-.65,2.4-.43,.67-1,1.2-1.71,1.58-.7,.38-1.46,.57-2.26,.57s-1.6-.2-2.32-.6c-.73-.4-1.32-.92-1.77-1.54-.46-.63-.68-1.3-.68-2.02h1.23c0,1.26,.29,2.39,.88,3.4,.59,1.01,1.37,1.87,2.34,2.6,.97,.73,2.06,1.28,3.25,1.67,1.19,.39,2.39,.58,3.61,.58,1.73,0,3.27-.38,4.62-1.15s2.51-1.8,3.49-3.09,1.8-2.72,2.44-4.31c.64-1.58,1.11-3.2,1.41-4.84,.3-1.65,.46-3.22,.46-4.71,0-1.91-.26-3.58-.76-5.02-.51-1.44-1.26-2.57-2.24-3.38-.99-.81-2.21-1.22-3.66-1.22-1.34,0-2.67,.18-3.96,.54-1.3,.36-2.51,.87-3.62,1.53-1.12,.66-2.04,1.48-2.78,2.45h-1.27c.78-1.23,1.82-2.3,3.12-3.2,1.3-.9,2.8-1.59,4.5-2.08,1.7-.49,3.54-.73,5.51-.73,2.82,0,5.29,.41,7.41,1.22s3.78,2.09,4.96,3.83c1.18,1.74,1.77,4.02,1.77,6.84,0,2.51-.56,4.89-1.69,7.13s-2.65,4.23-4.57,5.96-4.08,3.1-6.5,4.09c-2.42,1-4.91,1.5-7.49,1.5Zm-7.87-24.57l8.55-24.83h23.4l.75-3.54h1.27l-2.5,11.73h-24.38l-5.79,16.64h-1.3Z"/>
      <path d="M711.42,673.06v-1.27h22.78v1.27h-22.78Zm6.89,0l10.72-47.48h-7.35v-1.27h16.19l-11.05,48.75h-8.52Z"/>
      <path d="M752.72,655.8v-1.24h43.19v1.24h-43.19Z"/>
      <path d="M800.92,673.06l1.23-5.59,17-13.03c1.58-1.17,3.12-2.53,4.62-4.08,1.49-1.55,2.84-3.22,4.04-5,1.2-1.79,2.16-3.63,2.88-5.54,.71-1.91,1.07-3.81,1.07-5.72,0-1.69-.27-3.17-.8-4.44-.53-1.27-1.34-2.26-2.44-2.97-1.09-.71-2.48-1.07-4.18-1.07s-3.23,.34-4.83,1.01c-1.59,.67-3.04,1.59-4.34,2.75-1.3,1.16-2.34,2.51-3.1,4.05-.77,1.54-1.15,3.19-1.15,4.94h-1.17c0-.69,.26-1.35,.78-1.98s1.18-1.14,1.98-1.53c.8-.39,1.65-.58,2.54-.58,1.3,0,2.43,.4,3.4,1.19,.96,.79,1.45,1.9,1.45,3.33,0,1.54-.49,2.79-1.48,3.77-.98,.98-2.22,1.46-3.72,1.46-1.37,0-2.54-.49-3.53-1.46-.99-.98-1.48-2.37-1.48-4.19s.44-3.74,1.33-5.49c.89-1.75,2.13-3.32,3.72-4.7,1.59-1.38,3.47-2.47,5.62-3.28s4.51-1.22,7.07-1.22,4.91,.42,6.87,1.27c1.96,.84,3.49,2.03,4.58,3.54,1.09,1.52,1.64,3.3,1.64,5.36,0,1.43-.34,2.82-1.02,4.16-.68,1.34-1.58,2.63-2.68,3.85-1.11,1.22-2.31,2.37-3.61,3.44-1.3,1.07-2.57,2.05-3.8,2.94-1.23,.89-2.32,1.66-3.25,2.31l-18.3,14.33h25.48l1.04-4.88h1.3l-2.89,13.06h-31.88Z"/>
      <path d="M862.41,673.71c-2.9,0-5.38-.7-7.44-2.1-2.06-1.4-3.63-3.23-4.73-5.49-1.1-2.26-1.64-4.72-1.64-7.36,0-3.75,.45-7.36,1.33-10.84,.89-3.48,2.12-6.68,3.7-9.62,1.58-2.94,3.42-5.5,5.53-7.69s4.37-3.89,6.79-5.12c2.43-1.22,4.93-1.84,7.51-1.84,2.9,0,5.39,.69,7.46,2.08,2.07,1.39,3.65,3.22,4.74,5.49s1.64,4.73,1.64,7.38c0,3.75-.45,7.36-1.35,10.84-.9,3.48-2.14,6.68-3.74,9.62-1.59,2.94-3.44,5.5-5.54,7.69-2.1,2.19-4.36,3.9-6.78,5.12-2.42,1.22-4.91,1.84-7.49,1.84Zm0-1.17c1.37,0,2.67-.49,3.9-1.46s2.41-2.31,3.53-4.01c1.12-1.7,2.14-3.64,3.09-5.82,.94-2.18,1.79-4.47,2.54-6.87,.75-2.4,1.38-4.8,1.9-7.2,.52-2.39,.92-4.66,1.2-6.81s.42-4.04,.42-5.69c0-1.28-.07-2.51-.21-3.69-.14-1.18-.4-2.23-.78-3.15s-.94-1.65-1.67-2.19c-.74-.54-1.69-.81-2.86-.81-1.37,0-2.67,.48-3.92,1.45-1.25,.96-2.42,2.29-3.53,3.98-1.1,1.69-2.13,3.61-3.07,5.75-.94,2.15-1.79,4.41-2.54,6.81-.75,2.39-1.38,4.79-1.9,7.2-.52,2.4-.92,4.7-1.2,6.87-.28,2.18-.42,4.11-.42,5.8,0,1.26,.07,2.48,.21,3.67,.14,1.19,.4,2.25,.78,3.17,.38,.92,.94,1.65,1.67,2.19,.74,.54,1.69,.81,2.86,.81Z"/>
      <path d="M888.41,673.06l1.24-5.59,17-13.03c1.58-1.17,3.12-2.53,4.62-4.08,1.5-1.55,2.84-3.22,4.05-5,1.2-1.79,2.16-3.63,2.88-5.54,.71-1.91,1.07-3.81,1.07-5.72,0-1.69-.27-3.17-.8-4.44s-1.34-2.26-2.44-2.97-2.49-1.07-4.18-1.07-3.23,.34-4.83,1.01c-1.59,.67-3.04,1.59-4.34,2.75-1.3,1.16-2.33,2.51-3.1,4.05-.77,1.54-1.15,3.19-1.15,4.94h-1.17c0-.69,.26-1.35,.78-1.98,.52-.63,1.18-1.14,1.98-1.53,.8-.39,1.65-.58,2.54-.58,1.3,0,2.43,.4,3.4,1.19,.96,.79,1.45,1.9,1.45,3.33,0,1.54-.49,2.79-1.48,3.77s-2.23,1.46-3.72,1.46c-1.37,0-2.54-.49-3.53-1.46s-1.48-2.37-1.48-4.19,.44-3.74,1.33-5.49c.89-1.75,2.13-3.32,3.72-4.7,1.59-1.38,3.46-2.47,5.62-3.28s4.51-1.22,7.07-1.22,4.91,.42,6.87,1.27c1.96,.84,3.49,2.03,4.58,3.54s1.64,3.3,1.64,5.36c0,1.43-.34,2.82-1.02,4.16-.68,1.34-1.58,2.63-2.68,3.85-1.1,1.22-2.31,2.37-3.61,3.44-1.3,1.07-2.57,2.05-3.8,2.94-1.24,.89-2.32,1.66-3.25,2.31l-18.3,14.33h25.48l1.04-4.88h1.3l-2.89,13.06h-31.88Z"/>
      <path d="M945.12,673.71c-3.08,0-5.62-.52-7.62-1.56-2.01-1.04-3.49-2.36-4.47-3.95-.98-1.59-1.46-3.21-1.46-4.86s.46-2.83,1.38-3.75c.92-.92,2.07-1.38,3.46-1.38,1.26,0,2.31,.41,3.17,1.22,.86,.81,1.28,1.93,1.28,3.36,0,.85-.22,1.6-.65,2.26-.43,.66-1.01,1.18-1.72,1.56-.71,.38-1.47,.57-2.28,.57s-1.52-.18-2.23-.54c-.7-.36-1.27-.82-1.71-1.4-.43-.57-.65-1.21-.65-1.9h1.23c0,1.69,.49,3.22,1.48,4.6,.98,1.38,2.31,2.46,3.96,3.27,1.66,.8,3.49,1.2,5.51,1.2s3.87-.42,5.38-1.25c1.51-.83,2.75-1.95,3.72-3.35,.97-1.4,1.71-2.96,2.19-4.68,.49-1.72,.73-3.47,.73-5.25,0-1.21-.1-2.44-.31-3.67-.21-1.23-.64-2.38-1.3-3.43-.66-1.05-1.64-1.9-2.92-2.54-1.29-.64-3.02-.96-5.18-.96v-.78c3.51,0,6.45,.29,8.81,.86,2.36,.57,4.25,1.39,5.65,2.44,1.41,1.05,2.42,2.31,3.02,3.79,.61,1.47,.91,3.11,.91,4.91,0,2.34-.55,4.45-1.64,6.32-1.09,1.87-2.57,3.47-4.44,4.79-1.86,1.32-3.94,2.33-6.24,3.04s-4.66,1.06-7.08,1.06Zm1.01-26.88v-.78c2.51,0,4.61-.49,6.3-1.46,1.69-.97,3.03-2.2,4.03-3.67,1-1.47,1.71-2.98,2.14-4.52,.43-1.54,.65-2.87,.65-4,0-1.47-.22-2.75-.65-3.83-.43-1.08-1.16-1.93-2.18-2.53-1.02-.61-2.38-.91-4.09-.91-1.11,0-2.27,.19-3.48,.57-1.21,.38-2.34,.93-3.38,1.64-1.04,.71-1.89,1.58-2.55,2.58-.66,1.01-.99,2.14-.99,3.4h-1.23c0-.82,.24-1.53,.71-2.11s1.07-1.05,1.79-1.38,1.43-.5,2.14-.5c.8,0,1.56,.18,2.28,.54,.71,.36,1.29,.86,1.72,1.51,.43,.65,.65,1.44,.65,2.37,0,1.02-.24,1.87-.71,2.55-.48,.68-1.07,1.19-1.79,1.53s-1.43,.5-2.14,.5c-.82,0-1.6-.2-2.32-.6-.72-.4-1.3-.98-1.74-1.72s-.65-1.64-.65-2.68c0-1.32,.37-2.56,1.11-3.72,.74-1.16,1.74-2.18,3.01-3.06s2.69-1.56,4.27-2.06c1.58-.5,3.22-.75,4.91-.75,1.82,0,3.57,.16,5.25,.49,1.68,.33,3.18,.85,4.5,1.58,1.32,.73,2.37,1.7,3.14,2.91s1.15,2.72,1.15,4.52c0,1.62-.43,3.24-1.3,4.84-.87,1.6-2.19,3.07-3.98,4.39-1.79,1.32-4.06,2.38-6.81,3.19-2.75,.8-6,1.2-9.75,1.2Z"/>
    </g>
    <g>
      <g>
        <path d="M614.09,48.63l-5.55,7.34h-5l.56-11.88c6.22-6.43,12.42-15.19,15.39-20.26,1.49,.13,2.36-.52,2.66-1.23l-11.08-4.87c-1.19,4.61-3.95,13.44-6.72,21.17l1.43-30.06h14.11c.97,0,1.77-.32,2-1.04-3.37-2.99-8.95-7.34-8.95-7.34l-5.45,6.56h-41.47l.43,1.82h15.99l-1.37,28.96c-.01-5.19-3-12.21-11.22-18.25l-.79,.26c1.93,7.21,3.61,15.78,3.04,23.5,4.08,4.35,8.31,1.49,8.91-4.16l-.8,16.82h-18.59l.25,1.03h60.87c.05-.08,.12-.16,.15-.25-3.23-3.18-8.78-8.12-8.78-8.12Zm-20.17,7.34h-4.1l2.24-47.14h4.1l-2.24,47.14Z"/>
        <path d="M690.76,53.31l.04-.78c-7.04,.45-12.96,.52-19.92,.52-13.59,0-20.75-1.17-25.43-5.13l.95-20c1.9-.32,2.9-.84,3.45-1.49l-8.44-7.01-4.42,5.52h-6.5l.3,1.82h7.15l-1.05,22.21c-2.6,1.36-5.6,2.92-7.99,4.03l2.35,4.02h5.73c1.79-2.77,3.65-5.46,4.6-6.94,.84-1.23,1.56-1.43,2.41-.06,1.91,2.98,3.93,5.3,6.51,7.01h35.56c1.05-1.82,2.63-3.21,4.7-3.69Z"/>
        <path d="M677.88,20.58h-28.08l.43,1.82h12.61c-1.82,5.52-6.46,14.28-9.71,16.88-.74,.52-2.45,.91-2.45,.91l2.39,9.93c.72-.19,1.46-.65,2.15-1.43,9.82-2.86,18.02-5.71,23.51-7.79,.67,2.27,1.15,4.54,1.43,6.82,8.81,7.53,17.68-10.97-5.66-19.15l-.6,.32c1.54,3.12,3.13,6.69,4.32,10.39-7.96,.52-15.71,.91-21.18,1.17,5.3-3.44,11.4-8.77,14.92-12.99,1.23,.06,1.97-.45,2.26-1.04l-8.58-4.03h24.18c.91,0,1.71-.32,1.93-1.04-3.17-2.99-8.56-7.34-8.56-7.34l-5.32,6.56Z"/>
        <path d="M687,9.28c.98,0,1.71-.32,1.93-1.04-3.11-2.92-8.37-7.21-8.37-7.21l-5.12,6.43h-20.54l.43,1.82h31.66Z"/>
        <path d="M634.81,2.27l-.54,.33c2.48,3.83,5.03,9.09,5.71,14.02,8.22,6.3,16.41-10.26-5.17-14.35Z"/>
        <polygon points="700.25 17.73 727.03 17.73 702.87 55.64 703.49 56.29 713.24 56.29 731.53 14.74 731.76 9.74 700.63 9.74 700.25 17.73"/>
        <path d="M759.24,8.64c-8.71,0-16.25,4.09-17.19,11.62,.7,1.69,2.21,2.73,4.09,2.73,2.02,0,4.21-1.04,5.13-5.45l1.74-6.43c.85-.19,1.7-.26,2.48-.26,5,0,7.88,3.83,7.59,9.93-.32,6.75-3.46,11.17-11.23,18.76-3.34,3.31-7.29,7.01-11.05,10.91l-.28,5.84h32.57l.38-7.99h-27.11c3.1-2.34,6.07-4.61,8.35-6.17,12.8-8.12,18.61-14.02,18.93-20.78,.35-7.34-4.14-12.73-14.41-12.73Z"/>
        <path d="M840.79,46.16c.98,0,1.77-.32,2-1.04-3.44-2.92-9.02-7.21-9.02-7.21l-5.44,6.43h-6.05l.77-16.17h15.41c.97,0,1.71-.32,1.93-1.04-3.19-2.73-8.46-6.75-8.46-6.75l-5.09,5.97h-3.71l.62-13.12h17.68c.98,0,1.77-.32,1.93-1.04-3.5-3.05-8.96-7.14-8.96-7.14l-5.44,6.36h-24.51c1.31-1.69,2.57-3.51,3.83-5.45,1.55,.13,2.49-.39,2.85-1.23l-12.65-4.74c-3.97,11.1-10.81,22.34-16.72,29.09l.56,.52c3.73-1.88,7.28-4.03,10.65-6.69l-1.02,21.43h-10.92l.43,1.82h30.36l-.51,10.84h10.34l.51-10.84h18.59Zm-28.84-1.82h-9.95l.77-16.17h9.95l-.77,16.17Zm.85-17.99h-9.04l-10.29-3.77c3.38-2.66,6.51-5.78,9.54-9.35h10.4l-.62,13.12Z"/>
        <path d="M876.26,43.96l.18-3.77h7.61l-.23,4.93h1.43c2.93,0,7.04-1.75,7.13-2.27l.96-20.13c1.18-.26,1.99-.78,2.4-1.23l-7.4-5.78-3.96,4.03h-6.7l-8.35-3.38-1.44,30.26h1.23c3.45,0,7.11-1.88,7.15-2.66Zm1.06-22.4h7.61l-.8,16.82h-7.61l.8-16.82Z"/>
        <path d="M910.48,9.15l-8-6.69-4.52,4.81h-33.35l-9.76-3.9-2.54,53.63h9.23l.1-2.2h34.71l-.1,2.2h9.43l2.2-46.42c1.32-.32,2.12-.84,2.6-1.43Zm-14.04,43.83h-34.71l2.08-43.89h34.71l-2.08,43.89Z"/>
        <path d="M925.62,55.71l.27-5.58h5.07l-.26,5.52h1.3c2.86,0,6.71-1.75,6.81-2.34l2.05-43.24c1.25-.26,2.05-.78,2.46-1.23l-7-5.84-3.96,4.09h-4.16l-8.09-3.51-2.54,53.43h6.92c.7-.47,1.12-.94,1.14-1.29Zm2.22-46.81h5.07l-.55,11.49h-5.07l.55-11.49Zm-.63,13.31h5.07l-.57,12.01h-5.07l.57-12.01Zm-.66,13.83h5.07l-.58,12.27h-5.07l.58-12.27Z"/>
        <path d="M965.9,8.18l-.6,.32c1.15,1.75,2.29,3.9,3.22,6.17-7.93-.06-15.33-.19-20.66-.32,5.77-2.34,12.37-5.97,16.37-9.29,1.36,.07,2.1-.45,2.4-1.17l-11.45-3.9c-1.81,3.9-7.95,11.36-12.07,13.25-.8,.45-2.24,.71-2.24,.71l3.86,9.03c.47-.26,.94-.58,1.36-1.17,9.58-1.82,17.6-3.7,23.19-5.13,.63,1.75,1.13,3.64,1.3,5.39,7.39,5.91,15.2-9.29-4.67-13.9Z"/>
        <path d="M976.58,44.8c.97,0,1.7-.33,1.87-1.04-2.6-2.66-7.23-6.56-7.23-6.56l-4.5,5.78h-3.19l.43-8.96h10.47c.91,0,1.57-.32,1.8-1.04-2.48-2.53-6.85-6.23-6.85-6.23l-4.22,5.45h-1.11l.4-8.44c1.57-.26,2.05-.84,2.23-1.69l-11-.97-.24,5.06-10.01-2.73c-.96,6.49-2.92,13.51-4.89,18.12l.82,.52c2.83-2.08,5.49-4.81,7.86-8.05h5.85l-.43,8.96h-14.17l.43,1.82h13.65l-.58,12.2h8.91l.58-12.2h13.13Zm-21.44-12.6h-4.68c.91-1.43,1.83-2.99,2.62-4.55,1.17,0,1.9-.32,2.32-.91l-.26,5.45Z"/>
      </g>
      <rect x="561.59" y="56" width="401.28" height="2"/>
    </g>
    <g>
      <g>
        <path d="M567.75,236.81c17.56,8.42,46.3-17.78-17.9-41.44,12.18-15.4,20.1-34.93,27.15-59.54h23.21c2.38,0,4.33-.79,4.89-2.54-8.23-7.46-22.17-18.58-22.17-18.58l-13.51,16.67h-49.43c5.67-12.23,10.49-23.5,13.88-31.12,5.08,.16,6.59-1.59,7.15-3.33l-28.7-8.26c-2.81,8.89-9.47,25.4-17.13,42.71h-42.12l1.06,4.45h39.1c-7.63,16.83-15.75,33.82-21.83,44.61,15.18,4.92,31.53,12.07,46.71,20.48-16.03,16.19-38.35,27.79-70.28,37.31l.32,.79h7.14c36.73-5.51,61.61-14.49,79.36-28.42,12.8,8.26,24.46,17.15,33.09,26.2Zm-72.05-55.89c7.13-12.86,15.23-29.53,22.33-45.09h32.58c-5.15,21.43-12,38.58-22.05,52.71-9.58-2.54-20.42-5.08-32.86-7.62Z"/>
        <path d="M703.03,213.15l2.22-46.84h57.22c2.38,0,4.33-.79,4.89-2.54-8.55-7.46-22.65-18.42-22.65-18.42l-13.82,16.51h-25.43l1.02-21.43c3.53-.63,5.18-1.9,5.61-4.29l-2.69-.16c15.09-6.51,30.92-15.08,43.18-22.39,3.51-.32,5.28-.79,6.63-2.38l-20.43-18.42-13.62,12.38h-86.95l1.22,4.45h84.56c-5.61,7.62-14.04,17.94-21.88,25.72l-19.63-1.75-1.34,28.26h-61.99l1.06,4.45h60.72l-2.15,45.25c-.1,2.06-1.1,3.02-3.8,3.02-4.61,0-29.81-1.43-29.81-1.43l-.09,1.91c11.35,2.06,15.52,4.6,19.16,8.26,3.64,3.5,4.59,8.46,5.17,15.71h8.15c21.07-3.33,24.8-11.8,25.47-25.87Z"/>
        <path d="M817.45,233.63l4.48-94.47c3.21-.63,4.53-1.59,5.24-3.18l-7.5-2.7c6.02-9.53,11.28-20.01,16.13-31.75,3.82,0,5.94-1.27,6.68-3.33l-30.56-9.21c-6.22,30.64-19.04,62.87-31.3,83.36l1.54,1.11c5.76-4.13,11.22-8.73,16.39-13.81l-3.77,79.38h10.88c6.3-1.39,11.61-4.22,11.78-5.39Z"/>
        <path d="M884.24,233l1.2-25.24h20.5c2.23,0,3.85-.79,4.41-2.54-5.57-6.51-15.75-16.35-15.75-16.35l-8.86,12.54,3.41-71.77c3.21,36.2,10.05,62.87,25.56,80.97,4.01-10.8,11.16-17.46,19.51-19.21l.72-1.75c-18.38-11.27-35.17-32.71-43.09-60.02h36.56c2.23,0,4.01-.79,4.57-2.54-6.66-6.99-18.56-17.47-18.56-17.47l-11.71,15.56h-13.35l1.35-28.42c4.48-.63,5.67-2.22,6.1-4.6l-28.64-2.7-1.7,35.72h-38.47l1.06,4.45h27.18c-6.59,28.42-19.52,59.7-37.2,80.5l1.52,1.43c18.38-12.23,33.09-27.47,43.95-45.25l-1.76,36.99h-21.78l1.06,4.45h20.5l-1.48,31.27h13.98c5.13-1.87,9.13-4.64,9.2-6.03Z"/>
        <path d="M1066.82,217.44l2.36-49.7c3.37-.63,5.34-2.06,6.36-3.33l-20.06-16.04-10.55,11.27h-42.12l-16.7-6.51c29.95-4.76,54.98-9.69,72.48-13.34,3.27,4.76,6.06,9.69,7.9,14.29,21.59,10.64,34.69-30.96-23.16-34.45l-1.16,.95c4.41,4.13,9.08,9.53,13.42,15.24-23.69,.16-46.43,.32-62.79,.16,13.18-3.02,27.2-7.14,36.47-11.43,3.8,.32,5.93-1.11,6.65-2.86l-20.99-6.51h80.11c2.23,0,4.01-.79,4.57-2.54-7.16-6.51-19.27-15.88-19.27-15.88l-11.63,13.97h-35.13c9.66-6.03,10.18-23.66-22.94-22.39l-.99,.79c4.06,4.76,7.65,12.86,7.61,20.48,.61,.48,1.07,.79,1.7,1.11h-65.01l1.06,4.45h51.18c-6.98,6.35-21.92,16.51-33,18.74-2.1,.64-6.09,1.11-6.09,1.11l8.11,23.34c1.45-.48,2.78-1.59,3.95-2.86l-3.96,83.51h11.41c6.34-1.66,11.39-4.77,11.46-6.35l1.3-27.47h44.98l-.49,10.32c-.09,1.9-.78,3.02-3.16,3.02-3.97,0-19.5-1.11-19.5-1.11l-.1,2.06c8.36,1.43,11.11,3.65,13.52,6.51,2.27,2.86,2.91,7.17,3.11,13.01h8.51c17.02-2.8,20.02-9.96,20.57-21.59Zm-22.26-16.67h-44.98l.78-16.51h44.98l-.78,16.51Zm1-20.96h-44.98l.75-15.72h44.98l-.75,15.72Z"/>
      </g>
      <rect x="447.83" y="238.03" width="600.86" height="2"/>
    </g>
    <g>
      <path class="cls-1" d="M699.02,166.92c-1.22-4.2-2.78-8.09-4.69-11.67-1.91-3.58-4.19-6.79-6.82-9.64-.7-.76-1.63-1.15-2.81-1.15-1.04,0-1.96,.38-2.76,1.15-.8,.77-1.2,1.7-1.2,2.81,0,1.04,.35,1.91,1.04,2.6,4.51,4.79,7.79,10.99,9.84,18.6,2.05,7.6,3.07,15.92,3.07,24.95,0,5-.36,10.49-1.09,16.46-.73,5.97-1.81,12.12-3.23,18.44-1.42,6.32-3.19,12.67-5.31,19.06-2.12,6.39-4.55,12.55-7.29,18.49-2.74,5.94-5.82,11.48-9.22,16.62-3.4,5.14-7.08,9.62-11.04,13.44-3.96,3.82-8.23,6.82-12.81,9.01-4.58,2.19-9.41,3.28-14.48,3.28-5.63,0-10.36-1.35-14.22-4.06-3.85-2.71-6.96-6.7-9.32-11.98-2.36-5.28-4.06-11.75-5.1-19.43-1.04-7.67-1.56-16.48-1.56-26.41,0-5.9,.21-11.82,.62-17.76,.42-5.94,.92-11.65,1.51-17.14,.59-5.49,1.23-10.61,1.93-15.37,.69-4.76,1.34-8.94,1.93-12.55,.59-3.61,1.09-6.51,1.51-8.7,.42-2.19,.62-3.45,.62-3.8,0-1.04-.36-1.96-1.09-2.76-.73-.8-1.68-1.2-2.86-1.2-1.6,0-2.71,.66-3.33,1.98l-69.8,129.17c0-.9,.02-2.07,.05-3.49,.03-1.42,.07-2.93,.1-4.53,.03-1.6,.05-3.19,.05-4.79v-4.48c0-7.43-.1-15.37-.31-23.8-.21-8.44-.87-16.82-1.98-25.16-1.11-8.33-2.86-16.34-5.26-24.01-2.4-7.67-5.8-14.44-10.21-20.31-4.41-5.87-9.98-10.56-16.72-14.06-6.74-3.51-15-5.26-24.79-5.26-7.57,0-14.57,1.34-20.99,4.01-6.42,2.67-12,6.32-16.72,10.94-4.72,4.62-8.42,10.02-11.09,16.2-2.67,6.18-4.01,12.74-4.01,19.69,0,6.11,1.09,11.79,3.28,17.03,2.19,5.24,5.16,9.78,8.91,13.59,3.75,3.82,8.14,6.81,13.18,8.96,5.03,2.15,10.43,3.23,16.2,3.23,4.17,0,7.97-.56,11.41-1.67,3.44-1.11,6.41-2.36,8.91-3.75,2.5-1.39,4.46-2.69,5.89-3.91,1.42-1.21,2.2-1.89,2.34-2.03,.76-.76,1.15-1.67,1.15-2.71s-.38-1.93-1.15-2.66c-.77-.73-1.67-1.09-2.71-1.09-1.11,0-2.05,.38-2.81,1.15-.07,0-.66,.47-1.77,1.41-1.11,.94-2.67,1.96-4.69,3.07-2.02,1.11-4.45,2.14-7.29,3.07-2.85,.94-5.97,1.41-9.38,1.41-4.58,0-8.91-.89-12.97-2.66s-7.62-4.22-10.68-7.34c-3.06-3.13-5.47-6.82-7.24-11.09-1.77-4.27-2.66-8.94-2.66-14.01,0-5.83,1.09-11.37,3.28-16.62,2.19-5.24,5.28-9.83,9.27-13.75,3.99-3.92,8.77-7.05,14.32-9.38,5.56-2.33,11.7-3.49,18.44-3.49s12.85,1.11,17.92,3.33c5.07,2.22,9.44,5.3,13.13,9.22,3.68,3.92,6.7,8.56,9.06,13.91,2.36,5.35,4.27,11.13,5.73,17.34,1.46,6.22,2.54,12.73,3.23,19.53,.69,6.81,1.15,13.65,1.35,20.52,.21,6.88,.29,13.65,.26,20.31-.04,6.67-.05,12.95-.05,18.86,0,4.65-.04,8.35-.1,11.09-.07,2.74-.1,4.18-.1,4.32,0,1.11,.35,2.07,1.04,2.86,.69,.8,1.67,1.2,2.92,1.2,1.53,0,2.67-.69,3.44-2.08l66.57-123.55c-.49,3.4-.99,7.22-1.51,11.46-.52,4.24-1.01,8.65-1.46,13.23-.45,4.58-.83,9.27-1.15,14.06-.31,4.79-.47,9.45-.47,13.96,0,10.9,.64,20.7,1.93,29.38,1.28,8.68,3.4,16.06,6.35,22.14,2.95,6.08,6.86,10.73,11.72,13.96,4.86,3.23,10.87,4.84,18.02,4.84,7.57,0,14.62-1.96,21.15-5.89,6.53-3.92,12.48-9.13,17.87-15.63,5.38-6.49,10.14-13.98,14.27-22.45,4.13-8.47,7.62-17.24,10.47-26.3,2.85-9.06,5-18.09,6.46-27.08,1.46-8.99,2.19-17.31,2.19-24.95,0-5-.3-9.83-.89-14.48-.59-4.65-1.49-9.08-2.71-13.28Z"/>
      <path class="cls-1" d="M1065.34,278.12c-.77,0-1.48,.21-2.14,.63-.66,.42-1.16,1.01-1.51,1.77-.77,1.81-1.93,4.17-3.49,7.08-1.56,2.92-3.4,5.78-5.52,8.59-2.12,2.81-4.43,5.24-6.93,7.29-2.5,2.05-5.07,3.07-7.71,3.07-1.46,0-2.64-.33-3.54-.99-.9-.66-1.6-1.56-2.08-2.71-.49-1.15-.82-2.48-.99-4.01-.17-1.53-.26-3.13-.26-4.79,0-1.32,.05-2.72,.16-4.22,.1-1.49,.21-2.97,.31-4.43,.1-1.46,.21-2.83,.31-4.11,.1-1.28,.16-2.38,.16-3.28,0-3.89-.87-7.15-2.6-9.79-1.74-2.64-4.41-3.96-8.02-3.96-1.81,0-3.73,.54-5.78,1.61-2.05,1.08-4.08,2.83-6.09,5.26-2.02,2.5-3.94,5.14-5.78,7.92-1.84,2.78-3.59,5.57-5.26,8.39-1.67,2.81-3.23,5.59-4.69,8.33-1.46,2.74-2.74,5.26-3.85,7.55,.21-2.01,.43-4.51,.68-7.5,.24-2.98,.5-5.99,.78-9.01,.28-3.02,.5-5.85,.68-8.49,.17-2.64,.26-4.58,.26-5.83,0-1.67-.16-3.3-.47-4.9-.31-1.6-.8-3.06-1.46-4.38-.66-1.32-1.55-2.38-2.66-3.18-1.11-.8-2.47-1.2-4.06-1.2-2.71,0-5.43,1.75-8.18,5.26-2.74,3.51-5.68,8.98-8.8,16.41-.04,.12-.06,.22-.1,.33-1.41,3.12-2.97,6.24-4.69,9.35-1.81,3.26-3.85,6.22-6.15,8.85-2.29,2.64-4.83,4.78-7.6,6.41-2.78,1.63-5.87,2.45-9.27,2.45s-6.15-.61-8.44-1.82c-2.29-1.21-4.17-2.83-5.62-4.84,2.71-1.32,5.24-2.88,7.6-4.69,2.36-1.81,4.39-3.78,6.09-5.94,1.7-2.15,3.04-4.48,4.01-6.98,.97-2.5,1.46-5.17,1.46-8.02,0-2.22-.38-4.2-1.15-5.94-.76-1.74-1.77-3.21-3.02-4.43-1.25-1.21-2.66-2.15-4.22-2.81-1.56-.66-3.14-.99-4.74-.99-2.71,0-5.19,.63-7.45,1.88-2.26,1.25-4.2,2.99-5.83,5.21-1.63,2.22-2.88,4.83-3.75,7.81-.28,.95-.49,1.93-.68,2.93-.33,.34-.61,.75-.83,1.23-.56,1.25-1.29,2.76-2.19,4.53-.9,1.77-1.94,3.63-3.12,5.57-1.18,1.95-2.48,3.89-3.91,5.83-1.42,1.94-2.93,3.68-4.53,5.21-1.6,1.53-3.26,2.76-5,3.7-1.74,.94-3.51,1.41-5.31,1.41-1.67,0-2.99-.35-3.96-1.04-.97-.69-1.69-1.6-2.14-2.71-.45-1.11-.75-2.4-.89-3.85-.14-1.46-.21-2.92-.21-4.38,0-3.54,.17-6.6,.52-9.17,.35-2.57,.52-5.03,.52-7.4,0-1.53-.17-3.13-.52-4.79-.35-1.67-.95-3.18-1.82-4.53-.87-1.35-2.07-2.46-3.59-3.33-1.53-.87-3.47-1.3-5.83-1.3-2.02,0-4.32,.7-6.93,2.08-2.6,1.39-5.4,4.13-8.39,8.23-1.04,1.39-2.19,3.18-3.44,5.36-1.25,2.19-2.55,4.53-3.91,7.03-1.35,2.5-2.69,5.02-4.01,7.55-1.32,2.54-2.5,4.84-3.54,6.93,.07-1.94,.16-4.03,.26-6.25,.1-2.22,.21-4.38,.31-6.46,.1-2.08,.21-4.03,.31-5.83,.1-1.81,.16-3.26,.16-4.38,0-1.94-.21-3.77-.62-5.47-.42-1.7-1.04-3.19-1.88-4.48-.83-1.28-1.89-2.31-3.18-3.07-1.29-.76-2.83-1.15-4.64-1.15s-3.79,.52-5.94,1.56c-2.15,1.04-4.24,2.78-6.25,5.21-1.18,1.46-2.62,3.58-4.32,6.35-1.7,2.78-3.44,5.73-5.21,8.85-1.77,3.13-3.47,6.23-5.1,9.32-1.63,3.09-2.97,5.68-4.01,7.76,.35-5.21,.68-10.38,.99-15.52,.31-5.14,.47-10.8,.47-16.98,0-1.39-.14-2.81-.42-4.27-.28-1.46-.73-2.76-1.35-3.91-.62-1.15-1.48-2.08-2.55-2.81-1.08-.73-2.41-1.09-4.01-1.09-2.71,0-5.49,1.75-8.33,5.26-2.85,3.51-5.83,8.98-8.96,16.41-.06,.16-.09,.31-.13,.46-.94,1.84-1.92,3.5-2.94,4.95-1.21,1.74-2.59,3.16-4.11,4.27-1.53,1.11-3.23,1.94-5.1,2.5-1.87,.56-3.99,.83-6.35,.83h-1.35c-.42,0-.83-.03-1.25-.1,.56-2.43,.83-4.76,.83-6.98,0-4.24-.38-7.88-1.15-10.94-.76-3.06-1.79-5.56-3.07-7.5-1.29-1.94-2.76-3.37-4.43-4.27-1.67-.9-3.44-1.35-5.31-1.35-3.12,0-5.64,1.25-7.55,3.75-1.91,2.5-2.86,5.73-2.86,9.69,0,4.93,1.32,9.38,3.96,13.33,2.64,3.96,6.01,7.02,10.1,9.17-1.39,2.85-3.39,5.19-5.99,7.03-2.6,1.84-5.89,2.76-9.84,2.76-2.22,0-4.24-.4-6.04-1.2-1.81-.8-3.37-1.91-4.69-3.33-1.32-1.42-2.33-3.13-3.02-5.1-.7-1.98-1.04-4.11-1.04-6.41,0-2.57,.35-4.9,1.04-6.98,.69-2.08,1.58-3.89,2.66-5.42,1.08-1.53,2.24-2.79,3.49-3.8,1.25-1.01,2.43-1.79,3.54-2.34,1.11-.56,2.03-1.13,2.76-1.72,.73-.59,1.09-1.47,1.09-2.66,0-1.04-.3-1.88-.89-2.5-.59-.62-1.48-.94-2.66-.94-1.04,0-2.6,.54-4.69,1.61-2.08,1.08-4.17,2.71-6.25,4.9-2.08,2.19-3.92,4.93-5.52,8.23-1.6,3.3-2.4,7.17-2.4,11.62,0,3.47,.56,6.65,1.67,9.53,1.11,2.88,2.67,5.35,4.69,7.4,2.01,2.05,4.38,3.65,7.08,4.79,2.71,1.15,5.69,1.72,8.96,1.72,2.78,0,5.35-.38,7.71-1.15,2.36-.77,4.5-1.81,6.41-3.13,1.91-1.32,3.59-2.86,5.05-4.64,1.46-1.77,2.71-3.7,3.75-5.78,1.32,.28,2.85,.42,4.58,.42,3.26,.07,6.21-.31,8.85-1.15,2.64-.83,5.02-1.96,7.14-3.39,2.12-1.42,3.96-3.09,5.52-5,1.56-1.91,2.93-3.91,4.11-5.99,.28-.55,.56-1.16,.83-1.82,.03-.06,.03-.11,.06-.17,.01-.03,.03-.06,.05-.09,2.5-6.04,4.57-10.28,6.2-12.71,1.63-2.43,2.73-3.71,3.28-3.85,.35,.28,.62,1.15,.83,2.6,.21,1.46,.28,3.06,.21,4.79-.14,3.27-.3,6.77-.47,10.52-.17,3.75-.33,7.28-.47,10.57-.14,3.3-.26,6.09-.36,8.39-.1,2.29-.16,3.54-.16,3.75,0,2.02,.48,3.63,1.46,4.84,.97,1.21,2.46,1.82,4.48,1.82,1.39,0,2.81-.54,4.27-1.61,1.46-1.08,2.92-3.07,4.38-5.99,1.18-2.43,2.59-5.17,4.22-8.23,1.63-3.06,3.28-6.04,4.95-8.96,1.67-2.92,3.25-5.57,4.74-7.97,1.49-2.4,2.73-4.22,3.7-5.47,1.25-1.6,2.34-2.67,3.28-3.23,.94-.55,1.79-.83,2.55-.83,.83,0,1.56,.4,2.19,1.2,.62,.8,.94,2.1,.94,3.91,0,.83-.04,2.05-.1,3.65-.07,1.6-.14,3.42-.21,5.47-.07,2.05-.17,4.18-.31,6.41-.14,2.22-.24,4.38-.31,6.46-.07,2.08-.14,3.99-.21,5.73-.07,1.74-.11,3.13-.11,4.17,0,2.02,.47,3.65,1.41,4.9,.94,1.25,2.31,1.88,4.11,1.88,.83,0,1.6-.17,2.29-.52,.69-.35,1.41-.94,2.14-1.77,.73-.83,1.49-1.98,2.29-3.44,.8-1.46,1.79-3.3,2.97-5.52,2.08-4.03,4.15-7.99,6.2-11.88,2.05-3.89,4.04-7.36,5.99-10.42,1.94-3.06,3.84-5.5,5.68-7.34,1.84-1.84,3.59-2.76,5.26-2.76,.21,0,.52,.02,.94,.05,.42,.04,.85,.24,1.3,.62,.45,.38,.83,1.03,1.15,1.93,.31,.9,.47,2.22,.47,3.96,0,1.6-.17,3.84-.52,6.72-.35,2.88-.52,6.03-.52,9.43,0,2.57,.21,5.04,.63,7.4,.42,2.36,1.2,4.45,2.34,6.25,1.15,1.81,2.67,3.25,4.58,4.32,1.91,1.08,4.39,1.61,7.45,1.61,2.85,0,5.56-.68,8.13-2.03,2.57-1.35,4.96-3.09,7.19-5.21,2.22-2.12,4.25-4.43,6.09-6.93,1.43-1.95,2.73-3.82,3.89-5.63,.16,.7,.33,1.39,.54,2.09,1.04,3.54,2.64,6.72,4.79,9.53,2.15,2.81,4.9,5.1,8.23,6.88,3.33,1.77,7.29,2.66,11.88,2.66,7.15-.14,13.56-2.88,19.22-8.23,5.57-5.26,10.73-13.06,15.46-23.38,.12-.18,.23-.37,.32-.58,2.5-6.04,4.55-10.26,6.15-12.66,1.6-2.4,2.71-3.7,3.33-3.91,.42,.35,.69,1.32,.83,2.92,.14,1.6,.21,3.27,.21,5,0,1.32-.07,2.95-.21,4.9-.14,1.94-.31,4.05-.52,6.3-.21,2.26-.42,4.53-.62,6.82-.21,2.29-.42,4.43-.62,6.41-.21,1.98-.38,3.68-.52,5.1-.14,1.42-.21,2.38-.21,2.86,0,2.22,.61,3.94,1.82,5.16,1.21,1.21,2.83,1.82,4.84,1.82,1.46,0,2.88-.5,4.27-1.51,1.39-1.01,2.78-2.97,4.17-5.89,.69-1.53,1.65-3.45,2.86-5.78,1.22-2.33,2.54-4.77,3.96-7.34,1.42-2.57,2.95-5.16,4.58-7.76,1.63-2.6,3.23-4.95,4.79-7.03,1.56-2.08,3.06-3.77,4.48-5.05,1.42-1.28,2.69-1.93,3.8-1.93,.56,0,1.18,.4,1.88,1.2,.69,.8,1.04,2.31,1.04,4.53,0,1.32-.05,2.71-.16,4.17-.1,1.46-.24,2.92-.42,4.38-.17,1.46-.31,2.85-.42,4.17-.1,1.32-.16,2.5-.16,3.54,0,2.43,.19,4.84,.57,7.24,.38,2.4,1.13,4.58,2.24,6.56,1.11,1.98,2.64,3.58,4.58,4.79,1.94,1.21,4.48,1.82,7.6,1.82,2.78,0,5.43-.7,7.97-2.08,2.54-1.39,4.9-3.13,7.08-5.21s4.18-4.39,5.99-6.93c1.81-2.53,3.39-4.93,4.74-7.19,1.35-2.26,2.45-4.25,3.28-5.99,.83-1.74,1.39-2.88,1.67-3.44,.21-.48,.31-.97,.31-1.46,0-.97-.36-1.89-1.09-2.76-.73-.87-1.69-1.3-2.86-1.3Zm-317.83,12.71c-1.46-.9-2.73-2-3.8-3.28-1.08-1.28-1.98-2.64-2.71-4.06-.73-1.42-1.27-2.86-1.61-4.32-.35-1.46-.52-2.85-.52-4.17,0-2.08,.35-3.44,1.04-4.06,.69-.63,1.25-.94,1.67-.94,1.04,0,1.94,.5,2.71,1.51,.76,1.01,1.41,2.33,1.93,3.96,.52,1.63,.92,3.42,1.2,5.37,.28,1.94,.42,3.85,.42,5.73,0,1.39-.1,2.81-.31,4.27Zm173.4-.31c-.24-1.39-.36-2.71-.36-3.96,0-2.01,.19-4.05,.57-6.09,.38-2.05,.99-3.91,1.82-5.57,.83-1.67,1.91-3.02,3.23-4.06,1.32-1.04,2.92-1.56,4.79-1.56,1.39,0,2.6,.54,3.65,1.61,1.04,1.08,1.56,2.66,1.56,4.74,0,1.88-.35,3.73-1.04,5.57-.7,1.84-1.67,3.59-2.92,5.26-1.25,1.67-2.76,3.2-4.53,4.58-1.77,1.39-3.73,2.54-5.89,3.44-.35-1.25-.64-2.57-.89-3.96Z"/>
      <path class="cls-1" d="M1072.32,162.8c-.97,0-1.84,.31-2.6,.94-.77,.62-1.22,1.46-1.35,2.5l-2.6,21.67c-.07,.49-.12,.89-.16,1.2-.04,.31-.05,.61-.05,.89,0,1.18,.4,2.15,1.2,2.92,.8,.77,1.68,1.15,2.66,1.15s1.84-.33,2.6-.99c.76-.66,1.21-1.47,1.35-2.45l2.4-19.9c.07-.49,.16-1.2,.26-2.14,.1-.94,.16-1.54,.16-1.82,0-1.04-.35-1.96-1.04-2.76-.7-.8-1.63-1.2-2.81-1.2Z"/>
      <path class="cls-1" d="M1148.52,279.37c-.66-.83-1.58-1.25-2.76-1.25-1.25,0-2.22,.8-2.92,2.4-1.53,3.47-3.33,6.96-5.42,10.47-2.08,3.51-4.46,6.7-7.14,9.58-2.67,2.88-5.68,5.23-9.01,7.03-3.33,1.81-6.98,2.71-10.94,2.71h-1.04c-.35,0-.7-.03-1.04-.1,2.71-1.81,4.65-4.03,5.83-6.67,1.18-2.64,1.77-5.42,1.77-8.33,0-2.22-.4-4.44-1.2-6.67-.8-2.22-1.82-4.6-3.07-7.14-1.25-2.53-2.67-5.33-4.27-8.39-1.6-3.06-3.2-6.56-4.79-10.52,.35-1.67,.62-3.06,.83-4.17,.21-1.11,.31-2.22,.31-3.33,0-2.01-.47-3.71-1.41-5.1-.94-1.39-2.21-2.08-3.8-2.08-1.74,0-3.09,.71-4.06,2.14-.97,1.42-1.46,3.28-1.46,5.57,0,1.18,.1,2.33,.31,3.44,.21,1.11,.56,2.47,1.04,4.06-.56,2.85-1.27,5.57-2.14,8.18-.87,2.6-2.21,5.64-4.01,9.12-.28,.56-.45,.96-.52,1.2-.07,.24-.1,.54-.1,.89,0,.97,.35,1.82,1.04,2.55,.69,.73,1.63,1.09,2.81,1.09,1.04,0,1.89-.33,2.55-.99,.66-.66,1.3-1.58,1.93-2.76,.76-1.53,1.44-2.98,2.03-4.38,.59-1.39,1.09-2.64,1.51-3.75,.83,2.02,1.75,3.94,2.76,5.78,1.01,1.84,1.94,3.63,2.81,5.37,.87,1.74,1.58,3.47,2.14,5.21,.55,1.74,.83,3.47,.83,5.21,0,.83-.16,1.82-.47,2.97-.31,1.15-.82,2.22-1.51,3.23-.69,1.01-1.61,1.86-2.76,2.55-1.15,.7-2.55,1.04-4.22,1.04-.83,0-1.65-.14-2.45-.42-.8-.28-1.49-.61-2.08-.99-.59-.38-1.09-.73-1.51-1.04-.42-.31-.66-.54-.73-.68-.76-.76-1.7-1.15-2.81-1.15-1.04,0-1.96,.4-2.76,1.2-.8,.8-1.2,1.72-1.2,2.76,0,.7,.21,1.35,.62,1.98,2.5,3.75,5.75,6.44,9.74,8.07,3.99,1.63,8.32,2.45,12.97,2.45,3.89,0,7.46-.57,10.73-1.72,3.26-1.15,6.27-2.67,9.01-4.58,2.74-1.91,5.23-4.08,7.45-6.51,2.22-2.43,4.18-4.91,5.89-7.45,1.7-2.53,3.16-5,4.38-7.4,1.21-2.4,2.2-4.53,2.97-6.41,.21-.48,.31-1.01,.31-1.56,0-.97-.33-1.88-.99-2.71Z"/>
    </g>
    <g>
      <g>
        <path d="M232.9,415.67l.08-1.75c-12.89,.32-42.77,.32-54.85,.32h-6.52l1.11-23.34h42.92c2.38,0,4.33-.79,4.89-2.54-7.91-7.46-21.37-18.58-21.37-18.58l-13.03,16.67h-13.19l1.03-21.75h56.75c2.38,0,4.17-.79,4.73-2.54-7.14-6.99-19.36-17.47-19.36-17.47l-12.02,15.56H84.84l1.06,4.45h63.58l-2.22,46.68c-7.68-2.38-13.37-6.35-17.81-13.18,3.29-5.72,5.64-11.59,7.35-17.46,4.13,0,5.8-1.59,6.39-3.97l-30.59-5.24c-1.62,17.08-7.41,37.92-23.67,54.61h12.74c11.32-6.84,19.44-14.94,25.19-23.65,3.24,11.33,8.18,18.84,15.23,23.65h81.08c1.65-5.21,4.85-9.27,9.72-10.47Z"/>
        <path d="M187.31,297.87h-48.32l-25.13-9.69-3.24,68.27h3.5c10.01,0,21.07-5.24,21.18-7.46l.21-4.45h51.18l-.41,8.73h4.29c7.79,0,20.22-3.97,20.43-5.08l2-42.07c3.37-.64,5.35-2.22,6.36-3.49l-21-16.35-11.04,11.59Zm-.42,42.23h-51.18l.8-16.83h51.18l-.8,16.83Zm1.01-21.28h-51.18l.78-16.51h51.18l-.78,16.51Z"/>
        <path d="M290.79,408.21c4.23,4.6,7.83,9.21,10.47,13.81,14.66,9.21,38.21-11.43,2.42-30.96,10.21-17.47,15.13-37.47,18.5-58.27,3.69-.64,5.31-1.27,6.35-3.18l-18.44-16.67-11.19,11.43h-9.54c3.6-12.23,6.66-23.18,8.78-30.8,4.96-.64,6-2.54,6.57-4.45l-27.5-3.33c-1.35,8.26-4.9,22.86-9.14,38.58h-16.85l1.22,4.45h14.31c-5,18.26-10.99,37.31-15.52,49.06,9.61,5.08,20.08,12.23,29.08,20.16-5.84,10.55-13.42,19.99-23.07,28.1h11.16c8.88-5.27,16.25-11.28,22.39-17.93Zm-19.43-29.37c5.61-14.45,11.58-33.02,16.68-50.01h12.24c-2.36,19.53-6.11,38.26-12.95,55.09-4.84-1.75-10.01-3.49-15.97-5.08Z"/>
        <path d="M348.12,422.82l.74-15.56h19.55l-.89,18.73h3.81c8.74,0,19.52-6.03,19.92-7.78l4.64-97.65c3.22-.79,5.18-2.06,6.36-3.49l-19.73-16.19-11.2,11.59h-17.33l-22.44-9.37-5.84,123.04h19.5c1.78-1.2,2.86-2.41,2.91-3.33Zm5.03-105.9h19.55l-4.08,85.9h-19.55l4.08-85.9Z"/>
        <path d="M461.91,335.97l-10.78-3.97c6.83-10,13.1-21.43,18.63-34.14,3.65,.16,5.78-1.27,6.67-3.33l-30.09-9.05c-7.03,30.96-21.1,62.87-34.63,83.2l1.7,1.11c6.9-4.76,13.52-10.16,19.68-16.19l-3.44,72.55h23.05l4.13-87c3.21-.63,4.53-1.59,5.08-3.18Z"/>
        <path d="M553.81,312.15h11.76c2.38,0,4.17-.79,4.73-2.54-7.74-7.62-21.49-19.37-21.49-19.37l-13.39,17.47h-69.46l1.06,4.45h63.26l-4.55,95.9c-.08,1.75-1.1,3.02-3.64,3.02-4.45,0-25.06-1.11-25.06-1.11l-.09,1.9c10.25,1.75,13.94,4.29,16.8,7.78,1.45,1.68,2.43,3.85,3.05,6.5h27.53c3.48-4.61,4.57-10.52,4.9-17.3l4.59-96.69Z"/>
        <path d="M467.24,397.89c8.58,0,17.54-4.6,17.63-6.51l.38-7.94h10.65l-.54,11.43h3.5c7.15,0,17.37-4.29,17.59-5.56l2.26-47.63c3.69-.79,5.99-2.38,7.01-3.65l-18.99-15.24-10.2,10.64h-8.27l-20.59-8.26-3.45,72.72h3.02Zm20.17-60.02h10.65l-1.95,41.12h-10.65l1.95-41.12Z"/>
        <path d="M696.39,342.16h-28.45l1.16-24.45h44.35c2.38,0,4.17-.79,4.73-2.54-7.94-6.83-21.14-16.83-21.14-16.83l-12.63,14.92h-15.1l.96-20.32c4.33-.79,5.52-2.38,5.94-4.6l-28.98-2.22-1.29,27.15h-45.94l1.06,4.45h44.67l-1.16,24.45h-60.72l1.06,4.45h141.62c2.38,0,4.33-.79,4.89-2.54-8.25-6.99-21.91-17.31-21.91-17.31l-13.13,15.4Z"/>
        <path d="M728.94,413.29l.08-1.75c-10.66,.32-33.71,.32-43.41,.32-7.63,0-14.62-.16-20.79-.63l1.53-32.23h47.05c2.38,0,4.33-.79,4.89-2.54-8.25-6.99-21.91-17.31-21.91-17.31l-13.13,15.4h-16.69l.95-20.01c3.85-.64,4.87-2.06,5.28-4.13l-28.34-2.38-2.76,58.11c-7.78-3.49-13.73-8.73-18.27-16.83,3.03-6.99,5.29-14.45,6.91-21.59,3.98-.16,5.81-1.75,6.24-4.13l-29.35-4.45c-1.25,20.45-6.62,46.54-21.96,67h10.11c11.92-9.14,20.12-20.12,25.76-31.75,4.73,16.52,12.4,26.27,24.05,31.75h73.03c1.64-6.38,5.21-11.52,10.74-12.85Z"/>
        <path d="M893.86,294.21c4-.63,5.67-2.22,5.94-4.6l-27.38-2.54-5.86,123.37c-.09,1.91-.93,2.86-3.47,2.86-3.81,0-21.72-1.11-21.72-1.11l-.1,2.06c8.67,1.59,12.05,3.97,14.75,7.3,.97,1.27,1.67,2.81,2.19,4.6h26.89c2.17-3.74,2.89-8.44,3.16-14.12l5.59-117.81Z"/>
        <path d="M832.61,395.83c-11.52,1.59-23.03,3.02-33.91,4.45l1.05-22.07h27.82c2.23,0,4.01-.79,4.57-2.54-6.36-6.67-17.64-16.83-17.64-16.83l-11.04,14.92h-3.5l.84-17.62c4-.63,5.03-2.06,5.28-4.13l-22.01-1.75c11.15-3.81,20.86-7.46,28.47-10.32,.94,3.65,1.24,7.46,1.22,11.11,18.17,15.72,38.94-23.34-10.12-34.61l-1.48,.95c3.75,4.76,6.95,10.96,9.02,17.62-16.73,.79-32.66,1.59-43.8,1.9,11.56-5.87,24.87-14.92,33.52-23.02,3.04-.32,4.69-1.75,5.25-3.49l-24.06-5.4h51.18c2.38,0,4.17-.79,4.73-2.54-6.83-6.67-18.44-16.67-18.44-16.67l-11.35,14.77h-56.9l1.06,4.45h25.11c-3.29,9.05-13.44,25.24-20.48,29.69-1.79,.95-5.8,1.59-5.8,1.59l8.86,24.29c1.63-.79,3.12-2.06,4.47-3.81,4.84-1.59,9.69-3.18,14.21-4.6l-1.03,21.59h-28.93l1.06,4.45h27.66l-1.18,24.77c-13.59,1.59-24.61,2.7-31.31,3.18l6.92,20h14.62c31.69-12.02,52.63-21.33,66.29-28.57l-.23-1.75Z"/>
        <path d="M835.42,400.27h3.82c7.79,0,17.04-3.97,17.11-5.56l4.24-89.39c4.32-.64,5.51-2.22,5.93-4.45l-26.27-2.38-4.83,101.77Z"/>
        <path d="M971.15,333.43l-1.31,.79c5.5,8.1,10.51,19.69,11.26,30.64,19.6,15.72,41.51-23.97-9.95-31.44Z"/>
        <path d="M1046.41,378.84l-19.78-18.58-12,11.75h-83.29l1.22,4.45h81.22c-9.41,13.84-23.51,33.43-36.09,49.69h28.84c11.25-14.92,24.3-33.17,31.79-44.29,4.16-.48,6.74-1.43,8.09-3.02Z"/>
        <path d="M998.82,296.44c5.59-.63,7.86-1.59,8.61-3.97l-32.19-8.26c-7.61,26.36-39.02,65.26-67.17,85.74l1.03,1.75c33.45-14.77,69.49-44.14,87.09-73.35,7.11,30.96,26.63,51.76,49.29,66.68,2.31-8.42,9.13-18.26,19.11-20.8l.28-2.54c-24.09-8.26-52.88-21.28-66.04-45.25Z"/>
        <path d="M1225.44,414.56l.25-1.91c-41.7-12.23-61.01-33.98-65.79-57.32h62.31c2.38,0,4.33-.79,4.89-2.54-8.24-7.3-22.04-17.94-22.04-17.94l-13.32,16.04h-31.47c2.04-12.86,2.86-26.83,3.91-42.07h50.39c2.38,0,4.33-.79,4.89-2.54-8.24-7.15-21.73-17.62-21.73-17.62l-13.3,15.72h-20.03v-.16s-26.06,0-26.06,0v.16h-45.63l1.06,4.45h44.35c-.72,15.24-1.23,29.21-2.95,42.07h-53.73l1.06,4.45h52.14c-4.41,28.08-15.23,51-47.37,70.81h14.98c35.54-15.86,49.47-37.1,55.92-64.3,3.03,21.69,11.18,46.6,31.77,64.3h18.51c3.5-6.29,9.17-9.95,17-11.58Z"/>
        <path d="M1321.85,348.99l-1.31,.79c5.14,8.89,9.16,21.28,8.94,32.71,18.75,16.99,42.05-21.91-7.63-33.5Z"/>
        <path d="M1395.47,321.84l-18.42-17.15-12.49,12.07h-19.87c3.62-5.88,6.93-12.07,9.95-18.74,3.66,0,5.78-1.27,6.52-3.33l-29.16-8.57c-4.6,23.34-13.45,48.9-21.72,65.73l1.26-26.51c3.22-.79,5.34-2.06,6.52-3.49l-18.82-15.4-10.38,10.96h-10.49c6.02-6.19,13.55-14.13,18.58-19.69,3.81,0,6.09-1.11,7.02-3.97l-30.33-7.3c-.91,9.05-2.14,21.59-3.35,30.48l-19.64-8.26-5.58,117.49h17.39c2.1-1.25,3.39-2.56,3.43-3.49l.52-10.95h19.55l-.6,12.54h3.5c7.47,0,18.01-4.45,18.24-5.88l3.05-64.3,.92,.63c11.54-8.73,21.76-19.85,30.68-33.5h24.48c-3.52,53.98-6.33,83.2-12.3,88.28-1.66,1.43-3.28,2.06-5.98,2.06-4.13,0-14.91-.64-22.51-1.27l-.25,1.9c8.18,1.75,13.93,4.6,16.78,8.1,1.27,1.49,2.09,3.45,2.57,5.87h27.38c9.02-10.49,12.08-36.7,16.2-100.97,3.84-.63,5.96-1.75,7.31-3.33Zm-109.28,85.42h-19.55l1.98-41.6h19.55l-1.98,41.6Zm2.19-46.04h-19.55l1.87-39.38h19.55l-1.87,39.38Z"/>
        <path d="M1445.98,299.14c-21.46,0-34.2,10.64-35.92,30.17,2.07,3.33,5.65,4.92,9.78,4.92,6.99,0,10.5-3.65,12.49-11.91l4.32-17.31c11.75,.16,19.35,7.62,18.84,18.26-.42,8.89-5.17,15.08-12.65,22.07-8.16,7.94-12.21,12.7-12.56,20.16-.24,5.08,.37,8.89,2.62,15.08h6.68l.27-5.72c.44-9.21,7.31-13.34,16.5-19.53,16.91-11.27,21.98-17.62,22.6-30.64,.72-15.24-10.71-25.56-32.96-25.56Z"/>
        <path d="M1436.91,393.13c-8.74,0-15.75,6.99-16.15,15.4-.39,8.26,5.97,14.92,14.71,14.92s15.58-6.67,15.97-14.92c.4-8.42-5.95-15.4-14.53-15.4Z"/>
      </g>
      <rect x="88.94" y="425.26" width="1281.42" height="2"/>
    </g>
    <g>
      <path class="cls-1" d="M223.32,462.45c-.81-.68-1.64-1.02-2.48-1.02-.26,0-2.63,.24-7.11,.73-4.48,.49-11.59,1.35-21.33,2.58-.13-2.66-.19-5.29-.19-7.89v-7.89c0-7.14,.15-14.21,.44-21.19,.29-6.98,.65-13.38,1.07-19.19,.42-5.81,.84-10.73,1.27-14.76,.42-4.03,.73-6.66,.93-7.89,.58-.71,1.2-1.59,1.85-2.63,.65-1.04,.97-2.01,.97-2.92,0-1.23-.46-2.26-1.36-3.07-.91-.81-1.85-1.22-2.82-1.22-1.75,0-3.02,.73-3.8,2.19-.78,1.46-1.36,3.07-1.75,4.82-1.3,2.14-2.96,4.86-4.97,8.13-2.01,3.28-4.29,6.92-6.82,10.91-2.53,3.99-5.24,8.25-8.13,12.76-2.89,4.51-5.84,9.08-8.87,13.69-3.02,4.61-6.06,9.16-9.11,13.64-3.05,4.48-5.98,8.7-8.77,12.66-1.69,2.4-3.74,5.13-6.14,8.18-2.4,3.05-5.16,6.3-8.28,9.74-6.49,.65-12.66,1.14-18.51,1.46-5.84,.33-11.4,.49-16.66,.49-9.16,0-17.31-.49-24.45-1.46s-13.17-2.42-18.07-4.33c-4.9-1.91-8.64-4.29-11.2-7.11-2.57-2.83-3.85-6.09-3.85-9.79,0-2.14,.45-4.14,1.36-5.99,.91-1.85,1.91-3.44,3.02-4.77,1.1-1.33,2.14-2.39,3.12-3.17,.97-.78,1.52-1.23,1.66-1.36,.52-.32,.91-.76,1.17-1.32,.26-.55,.39-1.12,.39-1.7,0-1.1-.39-1.98-1.17-2.63-.78-.65-1.62-.97-2.53-.97-1.17,0-2.57,.67-4.19,2-1.62,1.33-3.18,3.05-4.68,5.16-1.5,2.11-2.78,4.47-3.85,7.06-1.07,2.6-1.61,5.2-1.61,7.79,0,5.72,1.77,10.49,5.31,14.32,3.54,3.83,8.3,6.9,14.27,9.21,5.97,2.31,12.89,3.95,20.75,4.92,7.86,.97,16.14,1.46,24.84,1.46,4.42,0,8.9-.1,13.44-.29,4.54-.19,9.12-.49,13.74-.88-4.68,4.68-9.89,9.29-15.63,13.83-5.75,4.55-11.95,8.59-18.61,12.13-6.66,3.54-13.72,6.41-21.19,8.62-7.47,2.21-15.29,3.31-23.48,3.31-5.98,0-11.14-.55-15.49-1.66-4.35-1.1-7.94-2.34-10.76-3.7-2.83-1.36-4.95-2.65-6.38-3.85-1.43-1.2-2.21-1.87-2.34-2-.71-.78-1.62-1.17-2.73-1.17-.97,0-1.82,.36-2.53,1.07-.71,.72-1.07,1.59-1.07,2.63s.33,1.88,.97,2.53c.13,.13,1.02,.91,2.68,2.34,1.66,1.43,4.12,2.97,7.4,4.63,3.28,1.66,7.44,3.15,12.47,4.48,5.03,1.33,10.99,2,17.88,2,15.45,0,30.86-3.91,46.22-11.74,15.36-7.83,29.99-19.3,43.88-34.44,5.65-.58,11.2-1.27,16.66-2.05,7.79-1.04,14.72-1.95,20.8-2.73,6.07-.78,11.54-1.49,16.41-2.14,.26,5.46,.6,10.73,1.02,15.83,.42,5.1,.97,9.86,1.66,14.27,.68,4.42,1.49,8.43,2.44,12.03,.94,3.6,2.03,6.61,3.26,9.01,.32,.65,.76,1.14,1.31,1.46,.55,.32,1.18,.49,1.9,.49,1.1,0,2-.36,2.68-1.07,.68-.72,1.02-1.56,1.02-2.53,0-.65-.13-1.2-.39-1.66-1.1-2.14-2.08-4.9-2.92-8.28-.84-3.38-1.58-7.17-2.19-11.4-.62-4.22-1.14-8.78-1.56-13.69-.42-4.9-.73-10.02-.93-15.34,4.09-.52,7.66-.96,10.71-1.32,3.05-.36,5.71-.67,7.99-.93,2.27-.26,4.19-.49,5.75-.68,1.56-.19,2.92-.36,4.09-.49,.97-.13,1.77-.54,2.39-1.22,.62-.68,.93-1.48,.93-2.39,0-1.1-.41-2-1.22-2.68Zm-37.94-39.94c-.33,8.35-.49,17.1-.49,26.25,0,2.86,.01,5.68,.05,8.47,.03,2.79,.08,5.59,.15,8.38-5.07,.65-10.73,1.38-17,2.19-6.27,.81-13.23,1.74-20.9,2.78-1.49,.19-2.94,.39-4.33,.58-1.4,.19-2.81,.36-4.24,.49,1.62-2.01,3.25-4.06,4.87-6.14,1.62-2.08,3.21-4.22,4.77-6.43,3.12-4.42,6.4-9.16,9.84-14.22,3.44-5.07,6.85-10.18,10.23-15.34,3.38-5.16,6.64-10.23,9.79-15.2,3.15-4.97,6.02-9.5,8.62-13.59-.58,6.17-1.04,13.43-1.36,21.77Z"/>
      <path class="cls-1" d="M283.96,453.73c2.47,0,4.56-.86,6.28-2.58,1.72-1.72,2.58-3.81,2.58-6.28,0-1.23-.23-2.39-.68-3.46-.45-1.07-1.09-2.01-1.9-2.82-.81-.81-1.75-1.44-2.82-1.9-1.07-.45-2.23-.68-3.46-.68s-2.39,.23-3.46,.68c-1.07,.46-2.01,1.09-2.82,1.9-.81,.81-1.45,1.75-1.9,2.82-.46,1.07-.68,2.23-.68,3.46,0,2.47,.86,4.56,2.58,6.28,1.72,1.72,3.81,2.58,6.28,2.58Zm-2.34-11.25c.65-.68,1.43-1.02,2.34-1.02s1.7,.34,2.39,1.02c.68,.68,1.02,1.48,1.02,2.39s-.34,1.69-1.02,2.34c-.68,.65-1.48,.97-2.39,.97s-1.69-.32-2.34-.97c-.65-.65-.97-1.43-.97-2.34s.32-1.7,.97-2.39Z"/>
      <path class="cls-1" d="M479.46,488.99c-.72,0-1.38,.19-2,.58-.62,.39-1.09,.94-1.41,1.66-.72,1.69-1.8,3.9-3.26,6.62-1.46,2.73-3.18,5.41-5.16,8.04-1.98,2.63-4.14,4.9-6.48,6.82-2.34,1.92-4.74,2.87-7.21,2.87-1.36,0-2.47-.31-3.31-.93-.84-.62-1.49-1.46-1.95-2.53-.46-1.07-.76-2.32-.93-3.75-.16-1.43-.24-2.92-.24-4.48,0-1.23,.05-2.55,.15-3.95,.1-1.4,.19-2.78,.29-4.14,.1-1.36,.2-2.65,.29-3.85,.1-1.2,.15-2.22,.15-3.07,0-3.64-.81-6.69-2.44-9.16-1.62-2.47-4.12-3.7-7.5-3.7-1.69,0-3.49,.5-5.41,1.51-1.92,1.01-3.82,2.65-5.7,4.92-1.88,2.34-3.69,4.81-5.41,7.4-1.72,2.6-3.36,5.21-4.92,7.84-1.56,2.63-3.02,5.23-4.38,7.79-1.36,2.57-2.57,4.92-3.6,7.06,.2-1.88,.41-4.22,.63-7.01,.23-2.79,.47-5.6,.73-8.43,.26-2.82,.47-5.47,.63-7.94,.16-2.47,.24-4.29,.24-5.46,0-1.56-.15-3.08-.44-4.58-.29-1.49-.75-2.86-1.36-4.09-.62-1.23-1.45-2.22-2.48-2.97-1.04-.75-2.31-1.12-3.8-1.12-2.53,0-5.08,1.64-7.65,4.92-2.57,3.28-5.31,8.39-8.23,15.34-.58,1.23-1.3,2.7-2.14,4.38-.84,1.69-1.82,3.44-2.92,5.26-1.11,1.82-2.32,3.62-3.65,5.41-1.33,1.79-2.73,3.38-4.19,4.77-1.46,1.4-2.96,2.52-4.48,3.36-1.53,.84-3.07,1.27-4.63,1.27-2.4,0-4.29-.81-5.65-2.44-1.36-1.62-2.39-3.54-3.07-5.75-.68-2.21-1.12-4.43-1.32-6.67-.19-2.24-.33-3.98-.39-5.21-.07-.91-.44-1.72-1.12-2.44-.68-.71-1.48-1.07-2.39-1.07-.97,0-1.82,.31-2.53,.93-.71,.62-1.14,1.38-1.27,2.29-.46,3.38-1.25,6.3-2.39,8.77-1.14,2.47-2.4,4.51-3.8,6.14-1.4,1.62-2.86,2.82-4.38,3.6-1.53,.78-2.87,1.17-4.04,1.17-1.62,0-2.99-.32-4.09-.97-1.11-.65-1.98-1.49-2.63-2.53-.65-1.04-1.1-2.19-1.36-3.46-.26-1.27-.39-2.52-.39-3.75,0-3.96,.63-7.39,1.9-10.28,1.27-2.89,2.84-5.29,4.72-7.21,1.88-1.91,3.96-3.33,6.23-4.24,2.27-.91,4.42-1.36,6.43-1.36,1.36,0,2.58,.15,3.65,.44,1.07,.29,2,.63,2.78,1.02,.78,.39,1.4,.76,1.85,1.12,.45,.36,.75,.6,.88,.73,.71,.72,1.59,1.07,2.63,1.07,.97,0,1.82-.37,2.53-1.12,.71-.75,1.07-1.61,1.07-2.58,0-.91-.36-1.79-1.07-2.63-.07-.06-.42-.37-1.07-.93-.65-.55-1.58-1.15-2.78-1.8-1.2-.65-2.65-1.25-4.33-1.8-1.69-.55-3.54-.83-5.55-.83-2.99,0-6.09,.65-9.3,1.95-3.21,1.3-6.15,3.25-8.82,5.84-2.18,2.13-4.04,4.68-5.59,7.66-.12,.06-.24,.11-.36,.19-.58,.36-1.04,.86-1.36,1.51-2.01,4.03-4.06,7.68-6.14,10.96-2.08,3.28-4.14,6.09-6.19,8.43-2.05,2.34-4.04,4.16-5.99,5.46-1.95,1.3-3.83,1.95-5.65,1.95-1.1,0-2.26-.19-3.46-.58-1.2-.39-2.34-1.17-3.41-2.34-1.07-1.17-1.95-2.81-2.63-4.92-.68-2.11-1.02-4.89-1.02-8.33,0-2.53,.08-5.31,.24-8.33,.16-3.02,.36-5.88,.58-8.57,.23-2.69,.42-5.02,.58-6.96,.16-1.95,.24-3.12,.24-3.51,0-.97-.33-1.83-.97-2.58-.65-.75-1.46-1.12-2.44-1.12-1.1,0-2,.34-2.68,1.02s-1.09,1.48-1.22,2.39c-.76,6.06-1.25,12.13-1.51,18.21-1.33,2.93-2.87,5.87-4.62,8.82-1.95,3.28-4.17,6.27-6.67,8.96-2.5,2.7-5.31,4.89-8.43,6.58-3.12,1.69-6.53,2.53-10.23,2.53h-.97c-.33,0-.65-.03-.97-.1,2.53-1.69,4.35-3.77,5.46-6.23,1.1-2.47,1.66-5.07,1.66-7.79,0-2.08-.37-4.16-1.12-6.23-.75-2.08-1.7-4.3-2.87-6.67-1.17-2.37-2.5-4.98-3.99-7.84-1.5-2.86-2.99-6.14-4.48-9.84,.32-1.56,.58-2.86,.78-3.9,.19-1.04,.29-2.08,.29-3.12,0-1.88-.44-3.47-1.31-4.77-.88-1.3-2.06-1.95-3.56-1.95-1.62,0-2.89,.67-3.8,2-.91,1.33-1.36,3.07-1.36,5.21,0,1.11,.1,2.18,.29,3.21,.19,1.04,.52,2.31,.97,3.8-.52,2.66-1.19,5.21-2,7.65-.81,2.44-2.06,5.28-3.75,8.52-.26,.52-.42,.89-.49,1.12-.07,.23-.1,.5-.1,.83,0,.91,.32,1.7,.97,2.39,.65,.68,1.53,1.02,2.63,1.02,.97,0,1.77-.31,2.39-.93,.62-.62,1.22-1.48,1.8-2.58,.71-1.43,1.35-2.79,1.9-4.09,.55-1.3,1.02-2.47,1.41-3.51,.78,1.88,1.64,3.69,2.58,5.41,.94,1.72,1.82,3.39,2.63,5.02,.81,1.62,1.48,3.25,2,4.87,.52,1.62,.78,3.25,.78,4.87,0,.78-.15,1.7-.44,2.78-.29,1.07-.76,2.08-1.41,3.02-.65,.94-1.51,1.74-2.58,2.39-1.07,.65-2.39,.97-3.95,.97-.78,0-1.54-.13-2.29-.39-.75-.26-1.4-.57-1.95-.93-.55-.36-1.02-.68-1.41-.97-.39-.29-.62-.5-.68-.63-.72-.71-1.59-1.07-2.63-1.07-.97,0-1.84,.37-2.58,1.12-.75,.75-1.12,1.61-1.12,2.58,0,.65,.2,1.27,.58,1.85,2.34,3.51,5.37,6.02,9.11,7.55,3.73,1.53,7.78,2.29,12.13,2.29,3.64,0,6.98-.54,10.03-1.61,3.05-1.07,5.86-2.5,8.43-4.29,2.56-1.79,4.89-3.81,6.96-6.09,2.08-2.27,3.91-4.59,5.5-6.97,.17-.25,.33-.5,.49-.75,.19,1.64,.47,3.23,.87,4.75,.75,2.82,1.88,5.28,3.41,7.35,1.53,2.08,3.39,3.73,5.6,4.97,2.21,1.23,4.77,1.85,7.7,1.85,2.27,0,4.51-.55,6.72-1.66,2.21-1.1,4.32-2.55,6.33-4.33,2.01-1.79,3.91-3.8,5.7-6.04,1.33-1.66,2.54-3.34,3.71-5.02,.19,1.26,.47,2.46,.87,3.61,.75,2.14,1.8,4.01,3.17,5.6,1.36,1.59,3.02,2.82,4.97,3.7,1.95,.88,4.12,1.32,6.53,1.32,3.05,0,6.1-1.09,9.16-3.26,3.05-2.18,5.68-5.11,7.89-8.82,1.17,3.64,3.03,6.66,5.6,9.06,2.56,2.4,5.73,3.6,9.5,3.6,2.66,0,5.19-.63,7.6-1.9,2.4-1.27,4.64-2.87,6.72-4.82,2.08-1.95,3.96-4.09,5.65-6.43,1.69-2.34,3.17-4.58,4.43-6.72,1.27-2.14,2.3-4.04,3.12-5.7,.81-1.66,1.35-2.74,1.61-3.26,2.34-5.65,4.25-9.59,5.75-11.84,1.49-2.24,2.53-3.46,3.12-3.65,.39,.33,.65,1.23,.78,2.73,.13,1.49,.2,3.05,.2,4.68,0,1.23-.07,2.76-.2,4.58-.13,1.82-.29,3.78-.49,5.89-.19,2.11-.39,4.24-.58,6.38-.2,2.14-.39,4.14-.58,5.99-.19,1.85-.36,3.44-.49,4.77-.13,1.33-.19,2.23-.19,2.68,0,2.08,.57,3.69,1.7,4.82,1.13,1.14,2.65,1.7,4.53,1.7,1.36,0,2.69-.47,3.99-1.41,1.3-.94,2.6-2.78,3.9-5.5,.65-1.43,1.54-3.23,2.68-5.41,1.14-2.17,2.37-4.46,3.7-6.87,1.33-2.4,2.76-4.82,4.29-7.26,1.52-2.44,3.02-4.63,4.48-6.58,1.46-1.95,2.86-3.52,4.19-4.72,1.33-1.2,2.52-1.8,3.56-1.8,.52,0,1.1,.37,1.75,1.12,.65,.75,.97,2.16,.97,4.24,0,1.23-.05,2.53-.15,3.9s-.23,2.73-.39,4.09c-.16,1.36-.29,2.66-.39,3.9-.1,1.23-.15,2.34-.15,3.31,0,2.27,.18,4.53,.54,6.77,.36,2.24,1.05,4.29,2.09,6.14,1.04,1.85,2.47,3.35,4.29,4.48,1.82,1.14,4.19,1.7,7.11,1.7,2.6,0,5.08-.65,7.45-1.95,2.37-1.3,4.58-2.92,6.62-4.87,2.05-1.95,3.91-4.11,5.6-6.48,1.69-2.37,3.17-4.61,4.43-6.72,1.27-2.11,2.29-3.98,3.07-5.6,.78-1.62,1.3-2.69,1.56-3.21,.19-.45,.29-.91,.29-1.36,0-.91-.34-1.77-1.02-2.58-.68-.81-1.58-1.22-2.68-1.22Z"/>
      <path class="cls-1" d="M684.47,421.29c-.36-1.88-.91-4.06-1.66-6.53-.75-2.47-1.77-5.03-3.07-7.7-1.56-3.12-3.69-6.41-6.38-9.89-2.7-3.47-6.2-6.69-10.52-9.64-4.32-2.95-9.56-5.39-15.73-7.31-6.17-1.91-13.44-2.87-21.82-2.87s-17.23,1.28-25.57,3.85c-8.35,2.57-16.27,6.11-23.77,10.62-7.5,4.51-14.42,9.86-20.75,16.02-6.33,6.17-11.8,12.91-16.41,20.21-4.61,7.31-8.22,15-10.81,23.09-2.6,8.08-3.9,16.28-3.9,24.6,0,7.86,1.1,14.81,3.31,20.85,2.21,6.04,5.36,11.11,9.45,15.2,4.09,4.09,8.99,7.19,14.71,9.3,5.71,2.11,12.08,3.17,19.09,3.17,7.73,0,15.5-1.19,23.33-3.56,7.83-2.37,15.44-5.89,22.84-10.57,7.4-4.68,14.5-10.46,21.29-17.34,6.78-6.88,13-14.84,18.65-23.87,.13,5.91,.45,12,.97,18.26,.52,6.27,1.2,12.65,2.05,19.14-3.05,1.56-6.41,3.6-10.08,6.14-3.67,2.53-7.39,5.46-11.15,8.77-3.77,3.31-7.44,6.93-11.01,10.86-3.57,3.93-6.74,8.1-9.5,12.52-2.76,4.42-4.97,8.99-6.62,13.74-1.66,4.74-2.48,9.55-2.48,14.42,0,3.44,.58,6.61,1.75,9.5,1.17,2.89,2.79,5.37,4.87,7.45,2.08,2.08,4.54,3.7,7.4,4.87,2.86,1.17,5.97,1.75,9.35,1.75,6.82,0,12.57-1.74,17.24-5.21,4.68-3.47,8.43-8.17,11.25-14.08,2.82-5.91,4.85-12.76,6.09-20.55,1.23-7.79,1.85-15.98,1.85-24.55,0-3.64-.1-7.24-.29-10.81-.2-3.57-.46-7.11-.78-10.62,3.51-1.75,6.32-3.04,8.43-3.85,2.11-.81,3.23-1.25,3.36-1.31,.78-.26,1.4-.7,1.85-1.32,.45-.62,.68-1.31,.68-2.09,0-1.1-.38-2-1.12-2.68-.75-.68-1.61-1.02-2.58-1.02-.13,0-.29-.02-.49-.05-.2-.03-.65,.07-1.36,.29-.72,.23-1.84,.65-3.36,1.27-1.53,.62-3.65,1.61-6.38,2.97-.91-6.88-1.58-13.38-2-19.48-.42-6.1-.63-11.72-.63-16.85,0-3.51,.1-6.79,.29-9.84,2.27-4.35,3.96-8.18,5.07-11.49,1.1-3.31,1.66-6.04,1.66-8.18,0-1.95-.5-3.54-1.51-4.77-1.01-1.23-2.26-1.85-3.75-1.85-2.66,0-4.66,2.09-5.99,6.28-1.33,4.19-2.26,10.24-2.78,18.17-4.68,8.38-9.97,16.35-15.88,23.92-5.91,7.57-12.45,14.19-19.63,19.87-7.18,5.68-14.97,10.2-23.38,13.54-8.41,3.35-17.45,5.02-27.13,5.02-5.59,0-10.8-.76-15.64-2.29-4.84-1.53-9.04-3.95-12.62-7.26s-6.36-7.58-8.38-12.81c-2.01-5.23-3.02-11.51-3.02-18.85,0-8.12,1.28-16.01,3.85-23.67,2.57-7.66,6.07-14.87,10.52-21.63,4.45-6.75,9.69-12.94,15.73-18.56,6.04-5.62,12.53-10.46,19.48-14.51,6.95-4.06,14.21-7.21,21.77-9.45,7.56-2.24,15.08-3.36,22.55-3.36,8.44,0,15.62,1.04,21.53,3.12,5.91,2.08,10.8,4.68,14.66,7.79,3.86,3.12,6.9,6.51,9.11,10.18,2.21,3.67,3.85,7.11,4.92,10.33,1.07,3.21,1.72,5.93,1.95,8.13,.23,2.21,.37,3.44,.44,3.7,.13,1.11,.55,1.98,1.27,2.63,.71,.65,1.56,.97,2.53,.97,1.04,0,1.9-.39,2.58-1.17,.68-.78,1.02-1.66,1.02-2.63,0-.06-.05-.68-.15-1.85-.1-1.17-.33-2.69-.68-4.58Zm-23.82,93.13c.26,3.05,.45,6.02,.58,8.91,.13,2.89,.2,5.73,.2,8.52,0,18.64-2.57,32.81-7.7,42.52-5.13,9.71-12.27,14.56-21.43,14.56-2.34,0-4.48-.39-6.43-1.17-1.95-.78-3.64-1.87-5.07-3.26-1.43-1.4-2.53-3.09-3.31-5.07-.78-1.98-1.17-4.21-1.17-6.67,0-3.96,.63-7.91,1.9-11.84,1.27-3.93,3-7.74,5.21-11.45,2.21-3.7,4.77-7.27,7.7-10.72,2.92-3.44,6.02-6.66,9.3-9.64,3.28-2.99,6.66-5.73,10.13-8.23,3.47-2.5,6.83-4.66,10.08-6.48Z"/>
      <path class="cls-1" d="M994.09,488.99c-1.17,0-2.08,.75-2.73,2.24-1.43,3.25-3.12,6.51-5.07,9.79-1.95,3.28-4.17,6.27-6.67,8.96-2.5,2.7-5.31,4.89-8.43,6.58-3.12,1.69-6.53,2.53-10.23,2.53h-.97c-.33,0-.65-.03-.97-.1,2.53-1.69,4.35-3.77,5.46-6.23,1.1-2.47,1.66-5.07,1.66-7.79,0-2.08-.37-4.16-1.12-6.23-.75-2.08-1.7-4.3-2.87-6.67-1.17-2.37-2.5-4.98-3.99-7.84-1.5-2.86-2.99-6.14-4.48-9.84,.32-1.56,.58-2.86,.78-3.9,.19-1.04,.29-2.08,.29-3.12,0-1.88-.44-3.47-1.31-4.77-.88-1.3-2.06-1.95-3.56-1.95-1.62,0-2.89,.67-3.8,2-.91,1.33-1.36,3.07-1.36,5.21,0,1.11,.1,2.18,.29,3.21,.19,1.04,.52,2.31,.97,3.8-.52,2.66-1.19,5.21-2,7.65-.72,2.15-1.8,4.64-3.2,7.42-.34,.32-.63,.72-.85,1.2-1.36,3.05-2.89,6.1-4.58,9.16-1.69,3.05-3.6,5.81-5.75,8.28-2.14,2.47-4.51,4.47-7.11,5.99-2.6,1.53-5.49,2.29-8.67,2.29s-5.75-.57-7.89-1.7c-2.14-1.14-3.9-2.65-5.26-4.53,2.53-1.23,4.9-2.69,7.11-4.38,2.21-1.69,4.11-3.54,5.7-5.55,1.59-2.01,2.84-4.19,3.75-6.53,.91-2.34,1.36-4.84,1.36-7.5,0-2.08-.36-3.93-1.07-5.55-.72-1.62-1.66-3-2.83-4.14-1.17-1.14-2.48-2.01-3.95-2.63-1.46-.62-2.94-.93-4.43-.93-2.53,0-4.86,.58-6.97,1.75-2.11,1.17-3.93,2.79-5.45,4.87-1.53,2.08-2.7,4.51-3.51,7.31-.26,.89-.46,1.81-.64,2.74-.31,.32-.57,.7-.78,1.15-.52,1.17-1.2,2.58-2.05,4.24-.84,1.66-1.82,3.39-2.92,5.21-1.11,1.82-2.32,3.64-3.65,5.45-1.33,1.82-2.74,3.44-4.24,4.87-1.5,1.43-3.05,2.58-4.68,3.46-1.62,.88-3.28,1.32-4.97,1.32-1.56,0-2.79-.32-3.7-.97-.91-.65-1.58-1.49-2-2.53-.42-1.04-.7-2.24-.83-3.6-.13-1.36-.19-2.73-.19-4.09,0-3.31,.16-6.17,.49-8.57,.32-2.4,.49-4.71,.49-6.92,0-1.43-.16-2.92-.49-4.48-.33-1.56-.89-2.97-1.7-4.24-.81-1.27-1.93-2.3-3.36-3.12-1.43-.81-3.25-1.22-5.46-1.22-1.88,0-4.04,.65-6.48,1.95-2.44,1.3-5.05,3.86-7.84,7.7-.97,1.3-2.05,2.97-3.21,5.02-1.17,2.05-2.39,4.24-3.65,6.58-1.27,2.34-2.52,4.69-3.75,7.06-1.23,2.37-2.34,4.53-3.31,6.48,.06-1.82,.15-3.77,.24-5.84,.1-2.08,.19-4.09,.29-6.04,.1-1.95,.2-3.77,.29-5.45,.1-1.69,.15-3.05,.15-4.09,0-1.82-.19-3.52-.58-5.11-.39-1.59-.97-2.99-1.75-4.19-.78-1.2-1.77-2.16-2.97-2.87-1.2-.71-2.65-1.07-4.33-1.07s-3.54,.49-5.55,1.46c-2.01,.97-3.96,2.6-5.85,4.87-1.11,1.36-2.45,3.35-4.04,5.94-1.59,2.6-3.21,5.36-4.87,8.28-1.66,2.92-3.25,5.83-4.77,8.72-1.53,2.89-2.78,5.31-3.75,7.26,.32-4.87,.63-9.71,.92-14.51,.29-4.81,.44-10.1,.44-15.88,0-1.3-.13-2.63-.39-3.99-.26-1.36-.68-2.58-1.27-3.65-.58-1.07-1.38-1.95-2.39-2.63-1.01-.68-2.26-1.02-3.75-1.02-2.53,0-5.13,1.64-7.79,4.92-2.66,3.28-5.45,8.39-8.37,15.33,0,0,0,0,0,.01-.58,1.23-1.3,2.7-2.14,4.38-.84,1.69-1.82,3.44-2.92,5.26-1.11,1.82-2.32,3.62-3.65,5.41-1.33,1.79-2.73,3.38-4.19,4.77-1.46,1.4-2.96,2.52-4.48,3.36-1.53,.84-3.07,1.27-4.63,1.27-2.4,0-4.29-.81-5.65-2.44-1.36-1.62-2.39-3.54-3.07-5.75-.68-2.21-1.12-4.43-1.32-6.67-.19-2.24-.33-3.98-.39-5.21-.07-.91-.44-1.72-1.12-2.44-.68-.71-1.48-1.07-2.39-1.07-.97,0-1.82,.31-2.53,.93-.72,.62-1.14,1.38-1.27,2.29-.45,3.38-1.25,6.3-2.39,8.77-1.14,2.47-2.4,4.51-3.8,6.14-1.4,1.62-2.86,2.82-4.38,3.6-1.53,.78-2.87,1.17-4.04,1.17-1.62,0-2.99-.32-4.09-.97-1.11-.65-1.98-1.49-2.63-2.53-.65-1.04-1.1-2.19-1.36-3.46-.26-1.27-.39-2.52-.39-3.75,0-3.96,.63-7.39,1.9-10.28,1.27-2.89,2.84-5.29,4.72-7.21,1.88-1.91,3.96-3.33,6.23-4.24,2.27-.91,4.42-1.36,6.43-1.36,1.36,0,2.58,.15,3.65,.44,1.07,.29,2,.63,2.78,1.02,.78,.39,1.4,.76,1.85,1.12,.45,.36,.75,.6,.88,.73,.71,.72,1.59,1.07,2.63,1.07,.97,0,1.82-.37,2.53-1.12,.71-.75,1.07-1.61,1.07-2.58,0-.91-.36-1.79-1.07-2.63-.07-.06-.42-.37-1.07-.93-.65-.55-1.58-1.15-2.78-1.8-1.2-.65-2.65-1.25-4.33-1.8-1.69-.55-3.54-.83-5.55-.83-2.99,0-6.09,.65-9.3,1.95-3.21,1.3-6.15,3.25-8.82,5.84-2.66,2.6-4.86,5.83-6.58,9.69-1.72,3.86-2.58,8.33-2.58,13.39,0,2.53,.37,4.87,1.12,7.01,.75,2.14,1.8,4.01,3.17,5.6,1.36,1.59,3.02,2.82,4.97,3.7,1.95,.88,4.12,1.32,6.53,1.32,3.05,0,6.1-1.09,9.16-3.26,3.05-2.18,5.68-5.11,7.89-8.82,1.17,3.64,3.03,6.66,5.6,9.06,2.56,2.4,5.73,3.6,9.5,3.6,2.66,0,5.19-.63,7.6-1.9,2.4-1.27,4.64-2.87,6.72-4.82,2.08-1.95,3.96-4.09,5.65-6.43,1.69-2.34,3.17-4.58,4.43-6.72,1.27-2.14,2.3-4.04,3.12-5.7,.8-1.64,1.33-2.71,1.6-3.24,0,0,0-.01,.01-.02,2.34-5.65,4.27-9.61,5.8-11.88,1.52-2.27,2.55-3.47,3.07-3.6,.32,.26,.58,1.07,.78,2.44,.2,1.36,.26,2.86,.2,4.48-.13,3.05-.28,6.33-.44,9.84-.16,3.51-.31,6.8-.44,9.89-.13,3.09-.24,5.7-.34,7.84-.1,2.14-.15,3.31-.15,3.51,0,1.88,.45,3.39,1.36,4.53,.91,1.14,2.3,1.7,4.19,1.7,1.3,0,2.63-.5,3.99-1.51,1.36-1.01,2.73-2.87,4.09-5.6,1.1-2.27,2.42-4.84,3.95-7.7,1.52-2.86,3.07-5.65,4.63-8.38,1.56-2.73,3.03-5.21,4.43-7.45,1.4-2.24,2.55-3.95,3.46-5.11,1.17-1.49,2.19-2.5,3.07-3.02,.88-.52,1.67-.78,2.39-.78,.78,0,1.46,.37,2.05,1.12,.58,.75,.88,1.96,.88,3.65,0,.78-.03,1.92-.1,3.41-.07,1.49-.13,3.2-.2,5.11-.07,1.92-.16,3.91-.29,5.99-.13,2.08-.23,4.09-.29,6.04-.07,1.95-.13,3.73-.19,5.36-.06,1.62-.1,2.92-.1,3.9,0,1.88,.44,3.41,1.31,4.58,.88,1.17,2.16,1.75,3.85,1.75,.78,0,1.49-.16,2.14-.49,.65-.33,1.32-.88,2-1.66,.68-.78,1.4-1.85,2.14-3.21,.75-1.36,1.67-3.08,2.78-5.16,1.95-3.77,3.88-7.47,5.8-11.11,1.91-3.64,3.78-6.88,5.6-9.74,1.82-2.86,3.59-5.15,5.31-6.87,1.72-1.72,3.36-2.58,4.92-2.58,.19,0,.49,.02,.88,.05,.39,.03,.79,.23,1.22,.58,.42,.36,.78,.96,1.07,1.8,.29,.84,.44,2.08,.44,3.7,0,1.49-.16,3.59-.49,6.28-.33,2.7-.49,5.63-.49,8.82,0,2.4,.2,4.71,.58,6.92,.39,2.21,1.12,4.16,2.19,5.84,1.07,1.69,2.5,3.04,4.29,4.04,1.79,1.01,4.11,1.51,6.96,1.51,2.66,0,5.19-.63,7.6-1.9,2.4-1.27,4.64-2.89,6.72-4.87,2.08-1.98,3.98-4.14,5.7-6.48,1.34-1.82,2.55-3.58,3.64-5.26,.15,.65,.31,1.3,.5,1.95,.97,3.31,2.47,6.28,4.48,8.91,2.01,2.63,4.58,4.77,7.7,6.43,3.12,1.66,6.82,2.48,11.1,2.48,6.69-.13,12.68-2.7,17.97-7.7,5.25-4.96,10.1-12.31,14.55-22.07,.33-.46,.66-.99,.99-1.61,.71-1.43,1.35-2.79,1.9-4.09,.55-1.3,1.02-2.47,1.41-3.51,.78,1.88,1.64,3.69,2.58,5.41,.94,1.72,1.82,3.39,2.63,5.02,.81,1.62,1.48,3.25,2,4.87,.52,1.62,.78,3.25,.78,4.87,0,.78-.15,1.7-.44,2.78-.29,1.07-.76,2.08-1.41,3.02-.65,.94-1.51,1.74-2.58,2.39-1.07,.65-2.39,.97-3.95,.97-.78,0-1.54-.13-2.29-.39-.75-.26-1.4-.57-1.95-.93-.55-.36-1.02-.68-1.41-.97-.39-.29-.62-.5-.68-.63-.72-.71-1.59-1.07-2.63-1.07-.97,0-1.84,.37-2.58,1.12-.75,.75-1.12,1.61-1.12,2.58,0,.65,.2,1.27,.58,1.85,2.34,3.51,5.37,6.02,9.11,7.55,3.73,1.53,7.78,2.29,12.13,2.29,3.64,0,6.98-.54,10.03-1.61,3.05-1.07,5.86-2.5,8.43-4.29,2.56-1.79,4.89-3.81,6.96-6.09,2.08-2.27,3.91-4.59,5.5-6.97,1.59-2.37,2.96-4.68,4.09-6.92,1.14-2.24,2.06-4.24,2.78-5.99,.2-.45,.29-.94,.29-1.46,0-.91-.31-1.75-.93-2.53-.62-.78-1.48-1.17-2.58-1.17Zm-97.17,11.59c-.23-1.3-.34-2.53-.34-3.7,0-1.88,.18-3.78,.54-5.7,.36-1.91,.92-3.65,1.7-5.21,.78-1.56,1.79-2.82,3.02-3.8,1.23-.97,2.73-1.46,4.48-1.46,1.3,0,2.44,.5,3.41,1.51,.97,1.01,1.46,2.48,1.46,4.43,0,1.75-.33,3.49-.97,5.21-.65,1.72-1.56,3.36-2.73,4.92-1.17,1.56-2.58,2.99-4.24,4.29-1.66,1.3-3.49,2.37-5.5,3.21-.33-1.17-.6-2.4-.83-3.7Z"/>
      <path class="cls-1" d="M1145.77,368.59c-.39-.84-.89-1.51-1.51-2-.62-.49-1.27-.84-1.95-1.07-.68-.23-1.32-.34-1.9-.34-2.73,0-5.59,1.97-8.57,5.89-2.99,3.93-5.78,9.53-8.38,16.8-2.27,1.75-5,3.43-8.18,5.02-3.18,1.59-6.67,3.12-10.47,4.58s-7.81,2.87-12.03,4.24c-4.22,1.36-8.47,2.66-12.76,3.9-5.91,1.69-11.3,3.64-16.17,5.84-4.87,2.21-9.03,4.77-12.47,7.7-3.44,2.92-6.12,6.25-8.04,9.98-1.92,3.74-2.87,7.97-2.87,12.71,0,5.46,1.1,10.2,3.31,14.22,2.21,4.03,5.07,7.35,8.57,9.98,3.51,2.63,7.45,4.58,11.84,5.85,4.38,1.27,8.78,1.9,13.2,1.9,.91,0,1.74-.34,2.48-1.02,.75-.68,1.12-1.54,1.12-2.58s-.34-1.91-1.02-2.63c-.68-.71-1.54-1.07-2.58-1.07-3.51,0-7.03-.44-10.57-1.32-3.54-.88-6.72-2.3-9.55-4.29-2.82-1.98-5.11-4.56-6.87-7.74-1.75-3.18-2.63-7.05-2.63-11.59,0-3.9,.83-7.34,2.48-10.33,1.66-2.99,3.98-5.65,6.96-7.99,2.99-2.34,6.58-4.4,10.76-6.19,4.19-1.79,8.85-3.42,13.98-4.92,3.38-.97,6.8-1.98,10.28-3.02,3.47-1.04,6.87-2.11,10.18-3.21,3.31-1.1,6.48-2.27,9.5-3.51,3.02-1.23,5.8-2.56,8.33-3.99-1.43,5.33-2.55,11.06-3.36,17.19-.81,6.14-1.22,12.52-1.22,19.14,0,7.08,.23,13.98,.68,20.7,.45,6.72,.75,13.43,.88,20.12-4.09,1.75-8.73,3.99-13.93,6.72-5.2,2.73-10.47,5.91-15.83,9.55-5.36,3.64-10.6,7.68-15.73,12.13-5.13,4.45-9.69,9.29-13.69,14.51s-7.21,10.81-9.64,16.75c-2.44,5.94-3.65,12.19-3.65,18.75,0,5.97,.89,11.19,2.68,15.63,1.79,4.45,4.12,8.17,7.01,11.15,2.89,2.99,6.19,5.21,9.89,6.67s7.47,2.19,11.3,2.19c9.03,0,16.67-2.5,22.94-7.5,6.27-5,11.32-11.97,15.15-20.89,3.83-8.93,6.61-19.58,8.33-31.95,1.72-12.37,2.58-25.96,2.58-40.77v-8.48c2.4-1.04,4.25-1.9,5.55-2.58,1.3-.68,1.95-1.74,1.95-3.17,0-.97-.36-1.77-1.07-2.39-.72-.62-1.53-.93-2.44-.93-1.17,0-2.53,.42-4.09,1.27-.26-7.01-.58-13.57-.97-19.68-.39-6.1-.58-12.14-.58-18.12,0-8.44,.65-16.19,1.95-23.23,1.3-7.05,2.89-13.3,4.77-18.75,5.13-3.7,9.19-7.37,12.18-11.01,2.99-3.64,4.48-6.88,4.48-9.74,0-1.23-.19-2.27-.58-3.12Zm-29.22,140.13c-.52,8.28-1.4,16.11-2.63,23.48-1.23,7.37-2.86,14.12-4.87,20.26-2.01,6.14-4.53,11.43-7.55,15.88-3.02,4.45-6.58,7.92-10.67,10.42-4.09,2.5-8.83,3.75-14.22,3.75-3.12,0-6.15-.6-9.11-1.8-2.96-1.2-5.59-3-7.89-5.41-2.31-2.4-4.14-5.39-5.5-8.96-1.36-3.57-2.05-7.73-2.05-12.47,0-5.59,1.09-10.99,3.26-16.22,2.17-5.23,5.06-10.2,8.67-14.9,3.6-4.71,7.7-9.11,12.27-13.2,4.58-4.09,9.29-7.83,14.12-11.2,4.84-3.38,9.6-6.33,14.27-8.86s8.9-4.61,12.66-6.23c0,8.7-.26,17.19-.78,25.47Z"/>
      <path class="cls-1" d="M1547.45,490.16c-.68-.78-1.58-1.17-2.68-1.17-.72,0-1.36,.18-1.95,.54-.58,.36-1.04,.89-1.36,1.61-1.5,3.18-3.2,6.19-5.11,9.01-1.92,2.82-3.98,5.54-6.19,8.13-2.21,2.6-4.48,5.08-6.82,7.45-2.34,2.37-4.64,4.69-6.92,6.96,.26-5.26,.58-10.21,.97-14.86,.39-4.64,.76-8.72,1.12-12.23,.36-3.51,.67-6.31,.92-8.43,.26-2.11,.39-3.26,.39-3.46,0-1.04-.36-1.91-1.07-2.63-.71-.71-1.59-1.07-2.63-1.07-.91,0-1.69,.28-2.34,.83-.65,.55-1.04,1.25-1.17,2.09-2.08,10.46-4.61,18.43-7.6,23.91-2.99,5.49-6.33,8.23-10.03,8.23-2.92,0-5.03-1.01-6.33-3.02-1.3-2.01-1.95-4.81-1.95-8.38s.34-6.85,1.02-9.84c.68-2.99,1.43-5.55,2.24-7.7,.81-2.14,1.56-3.78,2.24-4.92,.68-1.14,.99-1.67,.93-1.61,.39-.58,.58-1.23,.58-1.95,0-.97-.34-1.83-1.02-2.58-.68-.75-1.58-1.12-2.68-1.12-1.3,0-2.31,.55-3.02,1.66,0-.06-.39,.57-1.17,1.9-.78,1.33-1.64,3.25-2.58,5.75-.71,1.88-1.38,4.03-2.01,6.46-.44,.35-.79,.8-1.06,1.38-1.36,3.05-2.89,6.1-4.58,9.16-1.69,3.05-3.6,5.81-5.75,8.28-2.14,2.47-4.51,4.47-7.11,5.99-2.6,1.53-5.49,2.29-8.67,2.29s-5.75-.57-7.89-1.7c-2.14-1.14-3.9-2.65-5.26-4.53,2.53-1.23,4.9-2.69,7.11-4.38,2.21-1.69,4.11-3.54,5.7-5.55,1.59-2.01,2.84-4.19,3.75-6.53,.91-2.34,1.36-4.84,1.36-7.5,0-2.08-.36-3.93-1.07-5.55-.72-1.62-1.66-3-2.82-4.14-1.17-1.14-2.48-2.01-3.95-2.63-1.46-.62-2.94-.93-4.43-.93-2.53,0-4.86,.58-6.97,1.75-2.11,1.17-3.93,2.79-5.45,4.87-1.53,2.08-2.7,4.51-3.51,7.31-.25,.86-.45,1.75-.62,2.65-.37,.34-.67,.75-.89,1.25-.71,1.69-1.8,3.9-3.26,6.62-1.46,2.73-3.18,5.41-5.16,8.04-1.98,2.63-4.14,4.9-6.48,6.82-2.34,1.92-4.74,2.87-7.21,2.87-1.36,0-2.47-.31-3.31-.93-.84-.62-1.49-1.46-1.95-2.53-.46-1.07-.76-2.32-.92-3.75-.16-1.43-.24-2.92-.24-4.48,0-1.23,.05-2.55,.15-3.95,.1-1.4,.19-2.78,.29-4.14,.1-1.36,.2-2.65,.29-3.85,.1-1.2,.15-2.22,.15-3.07,0-3.64-.81-6.69-2.44-9.16-1.62-2.47-4.12-3.7-7.5-3.7-1.69,0-3.49,.5-5.41,1.51-1.92,1.01-3.81,2.65-5.7,4.92-1.89,2.34-3.69,4.81-5.41,7.4-1.72,2.6-3.36,5.21-4.92,7.84-1.56,2.63-3.02,5.23-4.38,7.79-1.36,2.57-2.57,4.92-3.61,7.06,.2-1.88,.41-4.22,.63-7.01,.23-2.79,.47-5.6,.73-8.43,.26-2.82,.47-5.47,.63-7.94,.16-2.47,.24-4.29,.24-5.46,0-1.56-.15-3.08-.44-4.58-.29-1.49-.75-2.86-1.36-4.09-.62-1.23-1.45-2.22-2.48-2.97-1.04-.75-2.31-1.12-3.8-1.12-2.53,0-5.08,1.64-7.65,4.92-2.57,3.28-5.31,8.39-8.23,15.34-.02,.06-.03,.11-.05,.17-1.06,2.04-2.35,4.38-3.9,7.04-1.66,2.86-3.52,5.57-5.6,8.13-2.08,2.57-4.35,4.76-6.82,6.58-2.47,1.82-5.1,2.73-7.89,2.73-.91,0-1.92-.18-3.02-.54-1.1-.36-2.14-.99-3.12-1.9-.97-.91-1.79-2.13-2.44-3.65-.65-1.52-.97-3.46-.97-5.8,0-1.62,.1-3.28,.29-4.97,.19-1.69,.42-3.39,.68-5.11,.26-1.72,.49-3.39,.68-5.02,.2-1.62,.29-3.18,.29-4.68,0-3.7-.97-6.36-2.92-7.99-1.95-1.62-4.77-2.44-8.48-2.44-.97,0-2,.02-3.07,.05-1.07,.03-2.16,.05-3.26,.05,0-1.3-.11-2.82-.34-4.58-.23-1.75-.6-3.42-1.12-5.02-.52-1.59-1.25-2.94-2.19-4.04-.94-1.1-2.16-1.66-3.65-1.66-1.3,0-2.6,.67-3.9,2-1.3,1.33-2.47,2.91-3.51,4.72-1.04,1.82-1.87,3.67-2.48,5.55-.62,1.88-.93,3.38-.93,4.48,0,1.49,.33,2.66,.97,3.51,.65,.84,1.48,1.46,2.48,1.85,1.01,.39,2.09,.62,3.26,.68,1.17,.07,2.31,.1,3.41,.1-.58,2.86-1.07,4.97-1.46,6.33-.31,1.07-.57,1.9-.8,2.49-.22,.27-.41,.58-.57,.92-.52,1.17-1.17,2.58-1.95,4.24-.78,1.66-1.71,3.39-2.78,5.21-1.07,1.82-2.24,3.62-3.51,5.41-1.27,1.79-2.65,3.39-4.14,4.82-1.49,1.43-3.05,2.58-4.68,3.46-1.62,.88-3.28,1.32-4.97,1.32-2.34,0-4.22-.76-5.65-2.29-1.43-1.53-2.5-3.36-3.21-5.5-.72-2.14-1.19-4.32-1.41-6.53-.23-2.21-.28-3.99-.15-5.36l1.27-16.17c0-1.04-.33-1.96-.97-2.78-.65-.81-1.53-1.22-2.63-1.22-.97,0-1.82,.33-2.53,.97-.72,.65-1.14,1.46-1.27,2.44l-1.46,16.75c-.33,3.25-1.04,6.07-2.14,8.48-1.11,2.4-2.39,4.38-3.85,5.94-1.46,1.56-2.96,2.71-4.48,3.46-1.53,.75-2.87,1.12-4.04,1.12-2.79,0-4.95-.99-6.48-2.97-1.53-1.98-2.29-4.89-2.29-8.72,0-3.38,.29-6.38,.88-9.01,.58-2.63,1.27-4.92,2.05-6.87,.78-1.95,1.52-3.52,2.24-4.72,.71-1.2,1.23-2.09,1.56-2.68,.19-.39,.37-.78,.54-1.17,.16-.39,.24-.78,.24-1.17,0-.97-.34-1.83-1.02-2.58-.68-.75-1.54-1.12-2.58-1.12-.52,0-1.02,.1-1.51,.29-.49,.19-.89,.49-1.22,.88-1.82,2.47-3.25,4.89-4.29,7.26-.91,2.08-1.76,4.62-2.54,7.57-.26,.21-.46,.43-.57,.66-1.04,2.14-2.13,4.03-3.26,5.65-1.14,1.62-2.42,2.96-3.85,3.99-1.43,1.04-3.02,1.82-4.77,2.34-1.75,.52-3.74,.78-5.94,.78h-1.27c-.39,0-.78-.03-1.17-.1,.52-2.27,.78-4.45,.78-6.53,0-3.96-.36-7.37-1.07-10.23-.71-2.86-1.67-5.19-2.87-7.01-1.2-1.82-2.58-3.15-4.14-3.99-1.56-.84-3.21-1.27-4.97-1.27-2.92,0-5.28,1.17-7.06,3.51-1.79,2.34-2.68,5.36-2.68,9.06,0,4.61,1.23,8.77,3.7,12.47,2.47,3.7,5.62,6.56,9.45,8.57-1.3,2.66-3.17,4.86-5.6,6.58-2.44,1.72-5.5,2.58-9.21,2.58-2.08,0-3.96-.37-5.65-1.12-1.69-.75-3.15-1.79-4.38-3.12-1.23-1.33-2.18-2.92-2.82-4.77-.65-1.85-.97-3.85-.97-5.99,0-2.4,.32-4.58,.97-6.53,.65-1.95,1.48-3.64,2.48-5.07,1.01-1.43,2.09-2.61,3.26-3.56,1.17-.94,2.27-1.67,3.31-2.19,1.04-.52,1.9-1.05,2.58-1.61,.68-.55,1.02-1.38,1.02-2.48,0-.97-.28-1.75-.83-2.34-.55-.58-1.38-.88-2.48-.88-.97,0-2.44,.5-4.38,1.51-1.95,1.01-3.9,2.53-5.84,4.58-1.95,2.05-3.67,4.61-5.16,7.7-1.5,3.09-2.24,6.71-2.24,10.86,0,3.25,.52,6.22,1.56,8.91,1.04,2.7,2.5,5,4.38,6.92,1.88,1.92,4.09,3.41,6.62,4.48,2.53,1.07,5.32,1.61,8.38,1.61,2.6,0,5-.36,7.21-1.07,2.21-.72,4.2-1.69,5.99-2.92,1.79-1.23,3.36-2.68,4.72-4.33,1.36-1.66,2.53-3.46,3.51-5.41,1.23,.26,2.66,.39,4.29,.39,3.05,.07,5.81-.29,8.28-1.07,2.47-.78,4.69-1.83,6.67-3.17,.86-.58,1.66-1.21,2.43-1.87,.09,2.44,.44,4.68,1.08,6.69,.75,2.34,1.83,4.33,3.26,5.99,1.43,1.66,3.12,2.94,5.07,3.85,1.95,.91,4.16,1.36,6.62,1.36,3.05,0,6.09-1.07,9.11-3.21,3.02-2.14,5.67-5.07,7.94-8.77,1.23,4.03,3.12,7.13,5.65,9.3,2.53,2.17,5.71,3.26,9.55,3.26,2.79,0,5.41-.63,7.84-1.9,2.44-1.27,4.69-2.89,6.77-4.87,2.08-1.98,3.96-4.14,5.65-6.48,1.69-2.34,3.13-4.56,4.33-6.67,1.2-2.11,2.17-3.99,2.92-5.65,.75-1.66,1.25-2.74,1.51-3.26,.06-.06,.23-.45,.49-1.17,.26-.71,.57-1.64,.93-2.78,.36-1.14,.73-2.47,1.12-3.99,.39-1.53,.71-3.17,.97-4.92,1.23-.06,2.39-.1,3.46-.1h2.97c1.88,0,3.1,.31,3.65,.93,.55,.62,.83,1.54,.83,2.78,0,2.92-.33,5.99-.97,9.21-.65,3.21-.97,6.45-.97,9.69,0,3.05,.45,5.8,1.36,8.23,.91,2.44,2.13,4.48,3.65,6.14,1.52,1.66,3.33,2.92,5.41,3.8,2.08,.88,4.29,1.32,6.62,1.32,3.77,0,7.22-1.01,10.37-3.02,3.15-2.01,5.99-4.48,8.52-7.4,2.53-2.92,4.79-6.05,6.77-9.4,1.98-3.34,3.72-6.35,5.21-9.01,.06-.12,.09-.25,.13-.37,2.32-5.61,4.23-9.53,5.71-11.76,1.49-2.24,2.53-3.46,3.12-3.65,.39,.33,.65,1.23,.78,2.73,.13,1.49,.2,3.05,.2,4.68,0,1.23-.07,2.76-.2,4.58-.13,1.82-.29,3.78-.49,5.89-.19,2.11-.39,4.24-.58,6.38-.2,2.14-.39,4.14-.58,5.99-.19,1.85-.36,3.44-.49,4.77-.13,1.33-.19,2.23-.19,2.68,0,2.08,.57,3.69,1.7,4.82,1.14,1.14,2.65,1.7,4.53,1.7,1.36,0,2.69-.47,3.99-1.41,1.3-.94,2.6-2.78,3.9-5.5,.65-1.43,1.54-3.23,2.68-5.41,1.14-2.17,2.37-4.46,3.7-6.87,1.33-2.4,2.76-4.82,4.29-7.26,1.52-2.44,3.02-4.63,4.48-6.58,1.46-1.95,2.86-3.52,4.19-4.72,1.33-1.2,2.52-1.8,3.56-1.8,.52,0,1.1,.37,1.75,1.12,.65,.75,.97,2.16,.97,4.24,0,1.23-.05,2.53-.15,3.9s-.23,2.73-.39,4.09c-.16,1.36-.29,2.66-.39,3.9-.1,1.23-.15,2.34-.15,3.31,0,2.27,.18,4.53,.54,6.77,.36,2.24,1.05,4.29,2.09,6.14,1.04,1.85,2.47,3.35,4.29,4.48,1.82,1.14,4.19,1.7,7.11,1.7,2.6,0,5.08-.65,7.45-1.95,2.37-1.3,4.58-2.92,6.62-4.87,2.05-1.95,3.91-4.11,5.6-6.48,1.29-1.81,2.45-3.54,3.49-5.2,.15,.65,.31,1.29,.5,1.94,.97,3.31,2.47,6.28,4.48,8.91,2.01,2.63,4.58,4.77,7.7,6.43,3.12,1.66,6.82,2.48,11.1,2.48,6.69-.13,12.68-2.7,17.97-7.7,2.59-2.45,5.08-5.48,7.48-9.09,.48,4.07,1.8,7.39,3.97,9.97,2.79,3.31,6.66,4.97,11.59,4.97,2.99,0,5.73-.91,8.23-2.73,2.5-1.82,4.59-4.22,6.28-7.21-.19,2.86-.37,5.96-.54,9.3-.16,3.34-.31,6.58-.44,9.69-2.34,2.73-4.64,5.76-6.92,9.11-2.27,3.34-4.42,6.87-6.43,10.57-2.01,3.7-3.88,7.5-5.6,11.4-1.72,3.9-3.2,7.74-4.43,11.54-1.23,3.8-2.19,7.48-2.87,11.06-.68,3.57-1.02,6.92-1.02,10.03,0,5.71,1.23,10.16,3.7,13.35,2.47,3.18,6.01,4.77,10.62,4.77,2.79,0,5.23-.7,7.31-2.09,2.08-1.4,3.9-3.31,5.46-5.75,1.56-2.44,2.84-5.31,3.85-8.62,1.01-3.31,1.8-6.87,2.39-10.67,.58-3.8,1.01-7.78,1.27-11.93,.26-4.16,.39-8.31,.39-12.47,0-5.07-.13-9.86-.39-14.37-.26-4.51-.26-9.01,0-13.49,2.66-2.99,5.45-5.96,8.38-8.91,2.92-2.96,5.81-6.01,8.67-9.16,2.86-3.15,5.58-6.48,8.18-9.99,2.6-3.51,4.9-7.37,6.92-11.59,.2-.45,.29-.94,.29-1.46,0-.97-.34-1.85-1.02-2.63Zm-363.98,10.72c-1.36-.84-2.55-1.87-3.56-3.07-1.01-1.2-1.85-2.47-2.53-3.8-.68-1.33-1.19-2.68-1.51-4.04-.33-1.36-.49-2.66-.49-3.9,0-1.95,.32-3.21,.97-3.8,.65-.58,1.17-.88,1.56-.88,.97,0,1.82,.47,2.53,1.41,.71,.94,1.31,2.18,1.8,3.7,.49,1.53,.86,3.2,1.12,5.02,.26,1.82,.39,3.6,.39,5.36,0,1.3-.1,2.63-.29,3.99Zm95.95-26.79c.13-.52,.32-1.17,.58-1.95,.26-.78,.55-1.51,.88-2.19,.32-.68,.63-1.27,.93-1.75,.29-.49,.54-.73,.73-.73s.37,.26,.54,.78c.16,.52,.29,1.14,.39,1.85,.1,.72,.16,1.45,.2,2.19,.03,.75,.05,1.35,.05,1.8h-4.29Zm157.76,26.5c-.23-1.3-.34-2.53-.34-3.7,0-1.88,.18-3.78,.54-5.7,.36-1.91,.93-3.65,1.7-5.21,.78-1.56,1.79-2.82,3.02-3.8,1.23-.97,2.73-1.46,4.48-1.46,1.3,0,2.44,.5,3.41,1.51,.97,1.01,1.46,2.48,1.46,4.43,0,1.75-.33,3.49-.97,5.21-.65,1.72-1.56,3.36-2.73,4.92-1.17,1.56-2.58,2.99-4.24,4.29-1.66,1.3-3.49,2.37-5.5,3.21-.33-1.17-.6-2.4-.83-3.7Zm70.97,79.05c-.58,5.55-1.45,10.28-2.58,14.17-1.14,3.9-2.53,6.9-4.19,9.01-1.66,2.11-3.56,3.17-5.7,3.17-2.4,0-4.16-.96-5.26-2.87-1.1-1.92-1.66-4.56-1.66-7.94s.49-7.08,1.46-11.3c.97-4.22,2.34-8.64,4.09-13.25,1.75-4.61,3.85-9.25,6.28-13.93s5.11-9.13,8.04-13.35c.06,3.25,.15,6.3,.24,9.16,.1,2.86,.15,5.68,.15,8.48,0,6.88-.29,13.1-.88,18.65Z"/>
    </g>
  </g>
</svg>